G04*
G04 #@! TF.GenerationSoftware,Altium Limited,Altium Designer,19.1.8 (144)*
G04*
G04 Layer_Color=65535*
%FSLAX25Y25*%
%MOIN*%
G70*
G01*
G75*
%ADD10C,0.01000*%
G36*
X210078Y363000D02*
X209614D01*
Y365954D01*
X209608Y365948D01*
X209581Y365927D01*
X209548Y365894D01*
X209494Y365856D01*
X209434Y365806D01*
X209357Y365752D01*
X209270Y365692D01*
X209171Y365632D01*
X209166D01*
X209160Y365626D01*
X209128Y365604D01*
X209073Y365577D01*
X209008Y365544D01*
X208931Y365506D01*
X208849Y365468D01*
X208767Y365430D01*
X208685Y365397D01*
Y365845D01*
X208691D01*
X208702Y365856D01*
X208724Y365861D01*
X208751Y365877D01*
X208784Y365894D01*
X208822Y365916D01*
X208915Y365970D01*
X209024Y366030D01*
X209133Y366107D01*
X209248Y366194D01*
X209363Y366287D01*
X209368Y366292D01*
X209373Y366298D01*
X209390Y366314D01*
X209412Y366331D01*
X209461Y366385D01*
X209526Y366451D01*
X209592Y366527D01*
X209663Y366615D01*
X209723Y366702D01*
X209777Y366795D01*
X210078D01*
Y363000D01*
D02*
G37*
G36*
X206632Y366773D02*
X206725Y366767D01*
X206824Y366762D01*
X206916Y366751D01*
X206998Y366740D01*
X207009D01*
X207048Y366729D01*
X207097Y366718D01*
X207162Y366702D01*
X207233Y366675D01*
X207310Y366642D01*
X207392Y366604D01*
X207463Y366560D01*
X207473Y366554D01*
X207495Y366538D01*
X207528Y366505D01*
X207572Y366467D01*
X207621Y366418D01*
X207670Y366352D01*
X207724Y366282D01*
X207768Y366200D01*
X207774Y366189D01*
X207785Y366161D01*
X207806Y366112D01*
X207828Y366047D01*
X207845Y365970D01*
X207867Y365883D01*
X207877Y365785D01*
X207883Y365681D01*
Y365675D01*
Y365659D01*
Y365637D01*
X207877Y365599D01*
X207872Y365561D01*
X207867Y365512D01*
X207856Y365457D01*
X207845Y365397D01*
X207806Y365271D01*
X207785Y365206D01*
X207752Y365135D01*
X207714Y365064D01*
X207675Y364998D01*
X207626Y364933D01*
X207572Y364867D01*
X207566Y364862D01*
X207555Y364851D01*
X207539Y364835D01*
X207512Y364818D01*
X207479Y364791D01*
X207435Y364764D01*
X207381Y364731D01*
X207320Y364703D01*
X207249Y364671D01*
X207168Y364638D01*
X207080Y364611D01*
X206977Y364589D01*
X206867Y364567D01*
X206747Y364551D01*
X206611Y364540D01*
X206469Y364534D01*
X205502D01*
Y363000D01*
X205000D01*
Y366778D01*
X206551D01*
X206632Y366773D01*
D02*
G37*
G36*
X189043Y333350D02*
X188540D01*
Y335130D01*
X186586D01*
Y333350D01*
X186083D01*
Y337128D01*
X186586D01*
Y335578D01*
X188540D01*
Y337128D01*
X189043D01*
Y333350D01*
D02*
G37*
G36*
X185254D02*
X184773D01*
Y336511D01*
X183670Y333350D01*
X183222D01*
X182131Y336566D01*
Y333350D01*
X181650D01*
Y337128D01*
X182398D01*
X183293Y334448D01*
Y334442D01*
X183299Y334431D01*
X183304Y334415D01*
X183315Y334387D01*
X183337Y334322D01*
X183364Y334240D01*
X183392Y334147D01*
X183424Y334054D01*
X183452Y333967D01*
X183474Y333891D01*
X183479Y333902D01*
X183485Y333929D01*
X183501Y333978D01*
X183523Y334043D01*
X183550Y334131D01*
X183588Y334234D01*
X183626Y334355D01*
X183676Y334497D01*
X184582Y337128D01*
X185254D01*
Y333350D01*
D02*
G37*
G36*
X191030Y337139D02*
X191074Y337134D01*
X191129Y337128D01*
X191189Y337117D01*
X191249Y337106D01*
X191391Y337068D01*
X191533Y337014D01*
X191604Y336981D01*
X191675Y336943D01*
X191740Y336894D01*
X191800Y336839D01*
X191806Y336834D01*
X191816Y336828D01*
X191827Y336806D01*
X191849Y336784D01*
X191877Y336757D01*
X191904Y336719D01*
X191931Y336681D01*
X191964Y336631D01*
X192018Y336528D01*
X192073Y336397D01*
X192095Y336331D01*
X192106Y336255D01*
X192117Y336178D01*
X192122Y336096D01*
Y336086D01*
Y336058D01*
X192117Y336015D01*
X192111Y335954D01*
X192100Y335889D01*
X192079Y335812D01*
X192057Y335731D01*
X192024Y335649D01*
X192018Y335638D01*
X192008Y335610D01*
X191986Y335567D01*
X191953Y335507D01*
X191909Y335441D01*
X191855Y335359D01*
X191789Y335277D01*
X191713Y335185D01*
X191702Y335174D01*
X191675Y335141D01*
X191647Y335114D01*
X191620Y335086D01*
X191587Y335053D01*
X191543Y335010D01*
X191500Y334966D01*
X191445Y334917D01*
X191391Y334862D01*
X191325Y334802D01*
X191254Y334742D01*
X191178Y334671D01*
X191090Y334600D01*
X191003Y334524D01*
X190998Y334518D01*
X190987Y334507D01*
X190965Y334491D01*
X190937Y334469D01*
X190905Y334436D01*
X190866Y334404D01*
X190779Y334333D01*
X190686Y334251D01*
X190599Y334169D01*
X190523Y334098D01*
X190490Y334071D01*
X190462Y334043D01*
X190457Y334038D01*
X190441Y334022D01*
X190419Y334000D01*
X190392Y333967D01*
X190364Y333929D01*
X190331Y333891D01*
X190266Y333798D01*
X192128D01*
Y333350D01*
X189622D01*
Y333355D01*
Y333377D01*
Y333410D01*
X189627Y333454D01*
X189632Y333503D01*
X189643Y333558D01*
X189654Y333612D01*
X189676Y333672D01*
Y333678D01*
X189682Y333683D01*
X189693Y333716D01*
X189714Y333765D01*
X189747Y333830D01*
X189791Y333907D01*
X189846Y333994D01*
X189906Y334082D01*
X189982Y334174D01*
Y334180D01*
X189993Y334185D01*
X190020Y334218D01*
X190069Y334267D01*
X190140Y334338D01*
X190222Y334420D01*
X190326Y334518D01*
X190452Y334628D01*
X190588Y334742D01*
X190594Y334748D01*
X190615Y334764D01*
X190648Y334791D01*
X190686Y334824D01*
X190735Y334868D01*
X190796Y334917D01*
X190856Y334972D01*
X190927Y335032D01*
X191063Y335163D01*
X191200Y335294D01*
X191265Y335359D01*
X191325Y335425D01*
X191380Y335485D01*
X191423Y335545D01*
Y335550D01*
X191434Y335556D01*
X191445Y335572D01*
X191456Y335594D01*
X191494Y335654D01*
X191538Y335725D01*
X191576Y335812D01*
X191614Y335905D01*
X191636Y336009D01*
X191647Y336107D01*
Y336113D01*
Y336118D01*
X191642Y336151D01*
X191636Y336206D01*
X191620Y336266D01*
X191598Y336342D01*
X191560Y336419D01*
X191511Y336495D01*
X191445Y336571D01*
X191434Y336582D01*
X191407Y336604D01*
X191369Y336631D01*
X191309Y336670D01*
X191232Y336702D01*
X191145Y336735D01*
X191041Y336757D01*
X190927Y336762D01*
X190894D01*
X190872Y336757D01*
X190806Y336752D01*
X190730Y336735D01*
X190648Y336713D01*
X190555Y336675D01*
X190468Y336626D01*
X190386Y336561D01*
X190375Y336550D01*
X190353Y336522D01*
X190321Y336479D01*
X190288Y336413D01*
X190250Y336337D01*
X190217Y336238D01*
X190195Y336129D01*
X190184Y336004D01*
X189709Y336053D01*
Y336058D01*
X189714Y336074D01*
Y336102D01*
X189720Y336140D01*
X189731Y336184D01*
X189742Y336233D01*
X189758Y336293D01*
X189775Y336353D01*
X189818Y336484D01*
X189884Y336615D01*
X189922Y336681D01*
X189971Y336746D01*
X190020Y336806D01*
X190075Y336861D01*
X190080Y336866D01*
X190091Y336872D01*
X190108Y336888D01*
X190135Y336905D01*
X190168Y336926D01*
X190206Y336948D01*
X190250Y336975D01*
X190304Y337003D01*
X190364Y337030D01*
X190430Y337057D01*
X190501Y337079D01*
X190577Y337101D01*
X190659Y337117D01*
X190746Y337134D01*
X190839Y337139D01*
X190937Y337145D01*
X190992D01*
X191030Y337139D01*
D02*
G37*
G36*
X392043Y333350D02*
X391541D01*
Y335130D01*
X389586D01*
Y333350D01*
X389084D01*
Y337128D01*
X389586D01*
Y335578D01*
X391541D01*
Y337128D01*
X392043D01*
Y333350D01*
D02*
G37*
G36*
X388254D02*
X387773D01*
Y336511D01*
X386670Y333350D01*
X386223D01*
X385131Y336566D01*
Y333350D01*
X384650D01*
Y337128D01*
X385398D01*
X386294Y334448D01*
Y334442D01*
X386299Y334431D01*
X386304Y334415D01*
X386315Y334387D01*
X386337Y334322D01*
X386364Y334240D01*
X386392Y334147D01*
X386424Y334054D01*
X386452Y333967D01*
X386474Y333891D01*
X386479Y333902D01*
X386485Y333929D01*
X386501Y333978D01*
X386523Y334043D01*
X386550Y334131D01*
X386588Y334234D01*
X386627Y334355D01*
X386676Y334497D01*
X387582Y337128D01*
X388254D01*
Y333350D01*
D02*
G37*
G36*
X394434D02*
X393970D01*
Y336304D01*
X393965Y336298D01*
X393937Y336277D01*
X393905Y336244D01*
X393850Y336206D01*
X393790Y336156D01*
X393714Y336102D01*
X393626Y336042D01*
X393528Y335982D01*
X393523D01*
X393517Y335976D01*
X393484Y335954D01*
X393430Y335927D01*
X393364Y335894D01*
X393288Y335856D01*
X393206Y335818D01*
X393124Y335780D01*
X393042Y335747D01*
Y336195D01*
X393047D01*
X393058Y336206D01*
X393080Y336211D01*
X393108Y336227D01*
X393140Y336244D01*
X393179Y336266D01*
X393271Y336320D01*
X393380Y336380D01*
X393490Y336457D01*
X393604Y336544D01*
X393719Y336637D01*
X393724Y336642D01*
X393730Y336648D01*
X393746Y336664D01*
X393768Y336681D01*
X393817Y336735D01*
X393883Y336801D01*
X393948Y336877D01*
X394019Y336965D01*
X394079Y337052D01*
X394134Y337145D01*
X394434D01*
Y333350D01*
D02*
G37*
%LPC*%
G36*
X206583Y366331D02*
X205502D01*
Y364982D01*
X206518D01*
X206556Y364987D01*
X206594D01*
X206638Y364993D01*
X206742Y365004D01*
X206856Y365026D01*
X206971Y365058D01*
X207075Y365102D01*
X207124Y365129D01*
X207162Y365162D01*
X207173Y365173D01*
X207195Y365195D01*
X207228Y365239D01*
X207266Y365293D01*
X207304Y365364D01*
X207337Y365452D01*
X207359Y365550D01*
X207370Y365665D01*
Y365670D01*
Y365675D01*
Y365703D01*
X207364Y365752D01*
X207353Y365806D01*
X207342Y365866D01*
X207320Y365937D01*
X207288Y366003D01*
X207249Y366069D01*
X207244Y366074D01*
X207228Y366096D01*
X207200Y366123D01*
X207168Y366161D01*
X207119Y366200D01*
X207064Y366232D01*
X207004Y366265D01*
X206933Y366292D01*
X206927D01*
X206906Y366298D01*
X206873Y366303D01*
X206829Y366314D01*
X206764Y366320D01*
X206682Y366325D01*
X206583Y366331D01*
D02*
G37*
%LPD*%
D10*
X205811Y319000D02*
G03*
X205811Y319000I-11811J0D01*
G01*
X408811D02*
G03*
X408811Y319000I-11811J0D01*
G01*
X216400Y374595D02*
X375400D01*
X216400Y322095D02*
X375400D01*
Y374595D01*
X216400Y322095D02*
Y374595D01*
M02*
