G04*
G04 #@! TF.GenerationSoftware,Altium Limited,Altium Designer,18.1.11 (251)*
G04*
G04 Layer_Physical_Order=2*
G04 Layer_Color=32768*
%FSLAX25Y25*%
%MOIN*%
G70*
G01*
G75*
%ADD10C,0.01000*%
%ADD13C,0.15600*%
%ADD17C,0.04000*%
%ADD18C,0.08000*%
%ADD19C,0.15800*%
G36*
X174410Y147842D02*
X174471Y147836D01*
X174544Y147825D01*
X174621Y147808D01*
X174705Y147786D01*
X174782Y147753D01*
X174793Y147747D01*
X174816Y147736D01*
X174854Y147720D01*
X174899Y147692D01*
X174954Y147659D01*
X175004Y147614D01*
X175054Y147570D01*
X175099Y147514D01*
X175104Y147509D01*
X175115Y147486D01*
X175132Y147459D01*
X175160Y147420D01*
X175182Y147364D01*
X175204Y147309D01*
X175232Y147242D01*
X175249Y147170D01*
Y147164D01*
X175254Y147142D01*
X175260Y147109D01*
X175265Y147065D01*
Y146998D01*
X175271Y146920D01*
X175276Y146826D01*
Y146709D01*
Y145000D01*
X174804D01*
Y146687D01*
Y146693D01*
Y146698D01*
Y146737D01*
Y146787D01*
X174799Y146848D01*
X174793Y146920D01*
X174782Y146993D01*
X174766Y147059D01*
X174749Y147120D01*
Y147126D01*
X174738Y147142D01*
X174721Y147170D01*
X174705Y147203D01*
X174677Y147237D01*
X174644Y147275D01*
X174599Y147314D01*
X174549Y147348D01*
X174544Y147353D01*
X174527Y147364D01*
X174494Y147375D01*
X174455Y147392D01*
X174410Y147409D01*
X174355Y147425D01*
X174288Y147431D01*
X174222Y147436D01*
X174194D01*
X174172Y147431D01*
X174116Y147425D01*
X174044Y147414D01*
X173967Y147387D01*
X173878Y147353D01*
X173789Y147309D01*
X173706Y147242D01*
X173695Y147231D01*
X173672Y147203D01*
X173656Y147181D01*
X173639Y147153D01*
X173617Y147120D01*
X173600Y147081D01*
X173578Y147037D01*
X173556Y146981D01*
X173539Y146920D01*
X173522Y146854D01*
X173511Y146782D01*
X173500Y146704D01*
X173489Y146609D01*
Y146515D01*
Y145000D01*
X173017D01*
Y147786D01*
X173439D01*
Y147387D01*
X173445Y147392D01*
X173456Y147409D01*
X173472Y147431D01*
X173495Y147459D01*
X173528Y147492D01*
X173567Y147531D01*
X173611Y147575D01*
X173667Y147620D01*
X173722Y147658D01*
X173789Y147703D01*
X173861Y147742D01*
X173939Y147775D01*
X174028Y147803D01*
X174116Y147825D01*
X174216Y147842D01*
X174322Y147847D01*
X174366D01*
X174410Y147842D01*
D02*
G37*
G36*
X157994D02*
X158055Y147836D01*
X158127Y147825D01*
X158204Y147808D01*
X158288Y147786D01*
X158365Y147753D01*
X158377Y147747D01*
X158399Y147736D01*
X158438Y147720D01*
X158482Y147692D01*
X158537Y147658D01*
X158587Y147614D01*
X158637Y147570D01*
X158682Y147514D01*
X158687Y147509D01*
X158698Y147486D01*
X158715Y147459D01*
X158743Y147420D01*
X158765Y147364D01*
X158787Y147309D01*
X158815Y147242D01*
X158832Y147170D01*
Y147164D01*
X158837Y147142D01*
X158843Y147109D01*
X158848Y147065D01*
Y146998D01*
X158854Y146920D01*
X158859Y146826D01*
Y146709D01*
Y145000D01*
X158388D01*
Y146687D01*
Y146693D01*
Y146698D01*
Y146737D01*
Y146787D01*
X158382Y146848D01*
X158377Y146920D01*
X158365Y146993D01*
X158349Y147059D01*
X158332Y147120D01*
Y147126D01*
X158321Y147142D01*
X158304Y147170D01*
X158288Y147203D01*
X158260Y147237D01*
X158227Y147275D01*
X158182Y147314D01*
X158132Y147348D01*
X158127Y147353D01*
X158110Y147364D01*
X158077Y147375D01*
X158038Y147392D01*
X157994Y147409D01*
X157938Y147425D01*
X157871Y147431D01*
X157805Y147436D01*
X157777D01*
X157755Y147431D01*
X157699Y147425D01*
X157627Y147414D01*
X157550Y147387D01*
X157461Y147353D01*
X157372Y147309D01*
X157289Y147242D01*
X157278Y147231D01*
X157255Y147203D01*
X157239Y147181D01*
X157222Y147153D01*
X157200Y147120D01*
X157183Y147081D01*
X157161Y147037D01*
X157139Y146981D01*
X157122Y146920D01*
X157106Y146854D01*
X157095Y146782D01*
X157083Y146704D01*
X157072Y146609D01*
Y146515D01*
Y145000D01*
X156600D01*
Y147786D01*
X157022D01*
Y147387D01*
X157028Y147392D01*
X157039Y147409D01*
X157056Y147431D01*
X157078Y147459D01*
X157111Y147492D01*
X157150Y147531D01*
X157194Y147575D01*
X157250Y147620D01*
X157305Y147658D01*
X157372Y147703D01*
X157444Y147742D01*
X157522Y147775D01*
X157611Y147803D01*
X157699Y147825D01*
X157799Y147842D01*
X157905Y147847D01*
X157949D01*
X157994Y147842D01*
D02*
G37*
G36*
X148742D02*
X148803Y147836D01*
X148875Y147825D01*
X148953Y147808D01*
X149036Y147786D01*
X149114Y147753D01*
X149125Y147747D01*
X149147Y147736D01*
X149186Y147720D01*
X149230Y147692D01*
X149286Y147658D01*
X149336Y147614D01*
X149385Y147570D01*
X149430Y147514D01*
X149435Y147509D01*
X149447Y147486D01*
X149463Y147459D01*
X149491Y147420D01*
X149513Y147364D01*
X149535Y147309D01*
X149563Y147242D01*
X149580Y147170D01*
Y147164D01*
X149585Y147142D01*
X149591Y147109D01*
X149596Y147065D01*
Y146998D01*
X149602Y146920D01*
X149608Y146826D01*
Y146709D01*
Y145000D01*
X149136D01*
Y146687D01*
Y146693D01*
Y146698D01*
Y146737D01*
Y146787D01*
X149130Y146848D01*
X149125Y146920D01*
X149114Y146993D01*
X149097Y147059D01*
X149080Y147120D01*
Y147126D01*
X149069Y147142D01*
X149053Y147170D01*
X149036Y147203D01*
X149008Y147237D01*
X148975Y147275D01*
X148930Y147314D01*
X148880Y147348D01*
X148875Y147353D01*
X148858Y147364D01*
X148825Y147375D01*
X148786Y147392D01*
X148742Y147409D01*
X148686Y147425D01*
X148620Y147431D01*
X148553Y147436D01*
X148525D01*
X148503Y147431D01*
X148448Y147425D01*
X148375Y147414D01*
X148298Y147387D01*
X148209Y147353D01*
X148120Y147309D01*
X148037Y147242D01*
X148026Y147231D01*
X148003Y147203D01*
X147987Y147181D01*
X147970Y147153D01*
X147948Y147120D01*
X147931Y147081D01*
X147909Y147037D01*
X147887Y146981D01*
X147870Y146920D01*
X147854Y146854D01*
X147843Y146782D01*
X147831Y146704D01*
X147820Y146609D01*
Y146515D01*
Y145000D01*
X147349D01*
Y147786D01*
X147771D01*
Y147387D01*
X147776Y147392D01*
X147787Y147409D01*
X147804Y147431D01*
X147826Y147459D01*
X147859Y147492D01*
X147898Y147531D01*
X147942Y147575D01*
X147998Y147620D01*
X148054Y147658D01*
X148120Y147703D01*
X148192Y147742D01*
X148270Y147775D01*
X148359Y147803D01*
X148448Y147825D01*
X148547Y147842D01*
X148653Y147847D01*
X148697D01*
X148742Y147842D01*
D02*
G37*
G36*
X155923D02*
X155984Y147830D01*
X156057Y147808D01*
X156134Y147781D01*
X156223Y147742D01*
X156317Y147692D01*
X156145Y147259D01*
X156140Y147264D01*
X156118Y147275D01*
X156084Y147292D01*
X156040Y147309D01*
X155990Y147326D01*
X155929Y147342D01*
X155868Y147353D01*
X155807Y147359D01*
X155779D01*
X155751Y147353D01*
X155712Y147348D01*
X155674Y147337D01*
X155624Y147320D01*
X155574Y147298D01*
X155529Y147264D01*
X155524Y147259D01*
X155507Y147248D01*
X155491Y147225D01*
X155463Y147198D01*
X155435Y147159D01*
X155407Y147115D01*
X155379Y147065D01*
X155357Y147003D01*
X155352Y146993D01*
X155346Y146959D01*
X155335Y146909D01*
X155318Y146843D01*
X155302Y146759D01*
X155291Y146665D01*
X155285Y146565D01*
X155280Y146454D01*
Y145000D01*
X154808D01*
Y147786D01*
X155235D01*
Y147364D01*
X155241Y147370D01*
X155263Y147409D01*
X155291Y147459D01*
X155335Y147520D01*
X155379Y147581D01*
X155429Y147647D01*
X155479Y147703D01*
X155529Y147747D01*
X155535Y147753D01*
X155552Y147764D01*
X155585Y147781D01*
X155618Y147797D01*
X155663Y147814D01*
X155718Y147830D01*
X155774Y147842D01*
X155835Y147847D01*
X155874D01*
X155923Y147842D01*
D02*
G37*
G36*
X182125Y145000D02*
X181653D01*
Y148003D01*
X181648Y147997D01*
X181620Y147975D01*
X181587Y147942D01*
X181531Y147903D01*
X181470Y147853D01*
X181392Y147797D01*
X181304Y147736D01*
X181204Y147675D01*
X181198D01*
X181193Y147670D01*
X181159Y147647D01*
X181104Y147620D01*
X181037Y147586D01*
X180959Y147547D01*
X180876Y147509D01*
X180793Y147470D01*
X180710Y147436D01*
Y147892D01*
X180715D01*
X180726Y147903D01*
X180749Y147908D01*
X180776Y147925D01*
X180810Y147942D01*
X180849Y147964D01*
X180943Y148019D01*
X181054Y148080D01*
X181165Y148158D01*
X181281Y148247D01*
X181398Y148341D01*
X181403Y148347D01*
X181409Y148352D01*
X181426Y148369D01*
X181448Y148386D01*
X181498Y148441D01*
X181564Y148508D01*
X181631Y148585D01*
X181703Y148674D01*
X181764Y148763D01*
X181820Y148857D01*
X182125D01*
Y145000D01*
D02*
G37*
G36*
X171330Y147842D02*
X171413Y147836D01*
X171508Y147825D01*
X171602Y147808D01*
X171696Y147786D01*
X171785Y147758D01*
X171796Y147753D01*
X171824Y147742D01*
X171863Y147725D01*
X171913Y147703D01*
X171968Y147670D01*
X172024Y147636D01*
X172074Y147592D01*
X172118Y147547D01*
X172124Y147542D01*
X172135Y147525D01*
X172152Y147497D01*
X172174Y147464D01*
X172202Y147414D01*
X172224Y147364D01*
X172246Y147303D01*
X172263Y147231D01*
Y147225D01*
X172268Y147209D01*
X172274Y147176D01*
X172279Y147131D01*
Y147070D01*
X172285Y146998D01*
X172290Y146904D01*
Y146798D01*
Y146166D01*
Y146160D01*
Y146138D01*
Y146104D01*
Y146060D01*
Y146010D01*
Y145949D01*
X172296Y145816D01*
Y145677D01*
X172301Y145538D01*
X172307Y145477D01*
Y145422D01*
X172313Y145372D01*
X172318Y145333D01*
Y145327D01*
X172324Y145305D01*
X172329Y145272D01*
X172346Y145228D01*
X172357Y145178D01*
X172379Y145122D01*
X172407Y145061D01*
X172435Y145000D01*
X171941D01*
X171935Y145006D01*
X171930Y145028D01*
X171918Y145055D01*
X171902Y145100D01*
X171885Y145150D01*
X171874Y145211D01*
X171863Y145278D01*
X171852Y145350D01*
X171846D01*
X171841Y145339D01*
X171808Y145311D01*
X171757Y145272D01*
X171691Y145222D01*
X171608Y145172D01*
X171525Y145117D01*
X171436Y145067D01*
X171341Y145028D01*
X171330Y145022D01*
X171297Y145017D01*
X171247Y145000D01*
X171186Y144983D01*
X171108Y144967D01*
X171019Y144956D01*
X170920Y144945D01*
X170820Y144939D01*
X170775D01*
X170742Y144945D01*
X170703D01*
X170659Y144950D01*
X170559Y144967D01*
X170448Y144994D01*
X170326Y145033D01*
X170215Y145089D01*
X170115Y145161D01*
X170104Y145172D01*
X170076Y145200D01*
X170037Y145250D01*
X169993Y145316D01*
X169948Y145400D01*
X169909Y145494D01*
X169882Y145610D01*
X169876Y145666D01*
X169871Y145733D01*
Y145744D01*
Y145766D01*
X169876Y145805D01*
X169882Y145855D01*
X169893Y145916D01*
X169909Y145977D01*
X169932Y146043D01*
X169959Y146104D01*
X169965Y146110D01*
X169976Y146132D01*
X169998Y146166D01*
X170026Y146204D01*
X170059Y146249D01*
X170104Y146293D01*
X170148Y146338D01*
X170203Y146376D01*
X170209Y146382D01*
X170231Y146393D01*
X170259Y146415D01*
X170303Y146437D01*
X170353Y146460D01*
X170414Y146487D01*
X170475Y146510D01*
X170548Y146532D01*
X170553D01*
X170575Y146537D01*
X170609Y146548D01*
X170653Y146554D01*
X170709Y146565D01*
X170781Y146576D01*
X170864Y146593D01*
X170964Y146604D01*
X170969D01*
X170992Y146609D01*
X171019D01*
X171058Y146615D01*
X171103Y146621D01*
X171158Y146632D01*
X171219Y146637D01*
X171286Y146648D01*
X171419Y146676D01*
X171563Y146704D01*
X171691Y146737D01*
X171752Y146754D01*
X171808Y146771D01*
Y146776D01*
Y146787D01*
X171813Y146820D01*
Y146859D01*
Y146881D01*
Y146893D01*
Y146898D01*
Y146904D01*
Y146937D01*
X171808Y146993D01*
X171796Y147054D01*
X171780Y147120D01*
X171752Y147187D01*
X171719Y147248D01*
X171674Y147298D01*
X171669Y147303D01*
X171641Y147326D01*
X171597Y147348D01*
X171541Y147381D01*
X171463Y147409D01*
X171375Y147436D01*
X171264Y147453D01*
X171136Y147459D01*
X171080D01*
X171025Y147453D01*
X170947Y147442D01*
X170870Y147431D01*
X170786Y147409D01*
X170709Y147381D01*
X170642Y147342D01*
X170636Y147337D01*
X170614Y147320D01*
X170587Y147292D01*
X170553Y147248D01*
X170520Y147192D01*
X170481Y147120D01*
X170448Y147031D01*
X170414Y146931D01*
X169954Y146993D01*
Y146998D01*
X169959Y147003D01*
Y147020D01*
X169965Y147042D01*
X169982Y147092D01*
X170004Y147164D01*
X170031Y147237D01*
X170065Y147314D01*
X170109Y147392D01*
X170159Y147464D01*
X170165Y147470D01*
X170187Y147492D01*
X170220Y147525D01*
X170265Y147570D01*
X170326Y147614D01*
X170398Y147658D01*
X170481Y147708D01*
X170575Y147747D01*
X170581D01*
X170587Y147753D01*
X170603Y147758D01*
X170625Y147764D01*
X170681Y147781D01*
X170758Y147797D01*
X170847Y147814D01*
X170958Y147830D01*
X171075Y147842D01*
X171208Y147847D01*
X171269D01*
X171330Y147842D01*
D02*
G37*
G36*
X169299Y145000D02*
X168827D01*
Y148841D01*
X169299D01*
Y145000D01*
D02*
G37*
G36*
X166979Y148835D02*
X167073Y148829D01*
X167173Y148824D01*
X167268Y148813D01*
X167351Y148802D01*
X167362D01*
X167401Y148791D01*
X167451Y148779D01*
X167517Y148763D01*
X167589Y148735D01*
X167667Y148702D01*
X167751Y148663D01*
X167823Y148619D01*
X167834Y148613D01*
X167856Y148596D01*
X167889Y148563D01*
X167934Y148524D01*
X167983Y148474D01*
X168034Y148408D01*
X168089Y148336D01*
X168133Y148252D01*
X168139Y148241D01*
X168150Y148213D01*
X168172Y148163D01*
X168194Y148097D01*
X168211Y148019D01*
X168233Y147930D01*
X168244Y147830D01*
X168250Y147725D01*
Y147720D01*
Y147703D01*
Y147681D01*
X168244Y147642D01*
X168239Y147603D01*
X168233Y147553D01*
X168222Y147497D01*
X168211Y147436D01*
X168172Y147309D01*
X168150Y147242D01*
X168117Y147170D01*
X168078Y147098D01*
X168039Y147031D01*
X167989Y146965D01*
X167934Y146898D01*
X167928Y146893D01*
X167917Y146881D01*
X167900Y146865D01*
X167873Y146848D01*
X167839Y146820D01*
X167795Y146793D01*
X167739Y146759D01*
X167678Y146732D01*
X167606Y146698D01*
X167523Y146665D01*
X167434Y146637D01*
X167329Y146615D01*
X167218Y146593D01*
X167096Y146576D01*
X166957Y146565D01*
X166813Y146560D01*
X165830D01*
Y145000D01*
X165320D01*
Y148841D01*
X166896D01*
X166979Y148835D01*
D02*
G37*
G36*
X163033Y145000D02*
X162561D01*
Y148841D01*
X163033D01*
Y145000D01*
D02*
G37*
G36*
X160885Y147842D02*
X160968Y147836D01*
X161063Y147825D01*
X161157Y147808D01*
X161251Y147786D01*
X161340Y147758D01*
X161351Y147753D01*
X161379Y147742D01*
X161418Y147725D01*
X161468Y147703D01*
X161523Y147670D01*
X161579Y147636D01*
X161629Y147592D01*
X161673Y147547D01*
X161679Y147542D01*
X161690Y147525D01*
X161706Y147497D01*
X161729Y147464D01*
X161756Y147414D01*
X161779Y147364D01*
X161801Y147303D01*
X161818Y147231D01*
Y147225D01*
X161823Y147209D01*
X161829Y147176D01*
X161834Y147131D01*
Y147070D01*
X161840Y146998D01*
X161845Y146904D01*
Y146798D01*
Y146166D01*
Y146160D01*
Y146138D01*
Y146104D01*
Y146060D01*
Y146010D01*
Y145949D01*
X161851Y145816D01*
Y145677D01*
X161856Y145538D01*
X161862Y145477D01*
Y145422D01*
X161867Y145372D01*
X161873Y145333D01*
Y145327D01*
X161879Y145305D01*
X161884Y145272D01*
X161901Y145228D01*
X161912Y145178D01*
X161934Y145122D01*
X161962Y145061D01*
X161990Y145000D01*
X161496D01*
X161490Y145006D01*
X161485Y145028D01*
X161473Y145055D01*
X161457Y145100D01*
X161440Y145150D01*
X161429Y145211D01*
X161418Y145278D01*
X161407Y145350D01*
X161401D01*
X161396Y145339D01*
X161362Y145311D01*
X161312Y145272D01*
X161246Y145222D01*
X161163Y145172D01*
X161079Y145117D01*
X160991Y145067D01*
X160896Y145028D01*
X160885Y145022D01*
X160852Y145017D01*
X160802Y145000D01*
X160741Y144983D01*
X160663Y144967D01*
X160574Y144956D01*
X160474Y144945D01*
X160374Y144939D01*
X160330D01*
X160297Y144945D01*
X160258D01*
X160214Y144950D01*
X160114Y144967D01*
X160003Y144994D01*
X159880Y145033D01*
X159770Y145089D01*
X159670Y145161D01*
X159659Y145172D01*
X159631Y145200D01*
X159592Y145250D01*
X159548Y145316D01*
X159503Y145400D01*
X159464Y145494D01*
X159437Y145610D01*
X159431Y145666D01*
X159425Y145733D01*
Y145744D01*
Y145766D01*
X159431Y145805D01*
X159437Y145855D01*
X159448Y145916D01*
X159464Y145977D01*
X159486Y146043D01*
X159514Y146104D01*
X159520Y146110D01*
X159531Y146132D01*
X159553Y146166D01*
X159581Y146204D01*
X159614Y146249D01*
X159659Y146293D01*
X159703Y146338D01*
X159758Y146376D01*
X159764Y146382D01*
X159786Y146393D01*
X159814Y146415D01*
X159858Y146437D01*
X159908Y146460D01*
X159969Y146487D01*
X160030Y146510D01*
X160102Y146532D01*
X160108D01*
X160130Y146537D01*
X160164Y146548D01*
X160208Y146554D01*
X160264Y146565D01*
X160336Y146576D01*
X160419Y146593D01*
X160519Y146604D01*
X160524D01*
X160547Y146609D01*
X160574D01*
X160613Y146615D01*
X160658Y146621D01*
X160713Y146632D01*
X160774Y146637D01*
X160841Y146648D01*
X160974Y146676D01*
X161118Y146704D01*
X161246Y146737D01*
X161307Y146754D01*
X161362Y146771D01*
Y146776D01*
Y146787D01*
X161368Y146820D01*
Y146859D01*
Y146881D01*
Y146893D01*
Y146898D01*
Y146904D01*
Y146937D01*
X161362Y146993D01*
X161351Y147054D01*
X161335Y147120D01*
X161307Y147187D01*
X161274Y147248D01*
X161229Y147298D01*
X161224Y147303D01*
X161196Y147326D01*
X161152Y147348D01*
X161096Y147381D01*
X161018Y147409D01*
X160930Y147436D01*
X160819Y147453D01*
X160691Y147459D01*
X160635D01*
X160580Y147453D01*
X160502Y147442D01*
X160424Y147431D01*
X160341Y147409D01*
X160264Y147381D01*
X160197Y147342D01*
X160191Y147337D01*
X160169Y147320D01*
X160141Y147292D01*
X160108Y147248D01*
X160075Y147192D01*
X160036Y147120D01*
X160003Y147031D01*
X159969Y146931D01*
X159509Y146993D01*
Y146998D01*
X159514Y147003D01*
Y147020D01*
X159520Y147042D01*
X159536Y147092D01*
X159559Y147164D01*
X159586Y147237D01*
X159620Y147314D01*
X159664Y147392D01*
X159714Y147464D01*
X159720Y147470D01*
X159742Y147492D01*
X159775Y147525D01*
X159819Y147570D01*
X159880Y147614D01*
X159953Y147658D01*
X160036Y147708D01*
X160130Y147747D01*
X160136D01*
X160141Y147753D01*
X160158Y147758D01*
X160180Y147764D01*
X160236Y147781D01*
X160313Y147797D01*
X160402Y147814D01*
X160513Y147830D01*
X160630Y147842D01*
X160763Y147847D01*
X160824D01*
X160885Y147842D01*
D02*
G37*
G36*
X146511Y145000D02*
X146000D01*
Y148841D01*
X146511D01*
Y145000D01*
D02*
G37*
G36*
X150884Y147786D02*
X151361D01*
Y147420D01*
X150884D01*
Y145782D01*
Y145772D01*
Y145749D01*
Y145716D01*
X150890Y145677D01*
X150895Y145588D01*
X150901Y145549D01*
X150906Y145522D01*
X150912Y145511D01*
X150928Y145488D01*
X150951Y145461D01*
X150989Y145433D01*
X151000Y145427D01*
X151028Y145416D01*
X151078Y145405D01*
X151150Y145400D01*
X151206D01*
X151234Y145405D01*
X151272D01*
X151317Y145411D01*
X151361Y145416D01*
X151422Y145000D01*
X151411D01*
X151389Y144994D01*
X151350Y144989D01*
X151300Y144983D01*
X151245Y144972D01*
X151184Y144967D01*
X151062Y144961D01*
X151017D01*
X150973Y144967D01*
X150917Y144972D01*
X150851Y144978D01*
X150784Y144994D01*
X150723Y145011D01*
X150662Y145039D01*
X150656Y145044D01*
X150640Y145055D01*
X150618Y145072D01*
X150584Y145100D01*
X150557Y145128D01*
X150523Y145167D01*
X150490Y145205D01*
X150468Y145255D01*
Y145261D01*
X150457Y145283D01*
X150451Y145322D01*
X150440Y145377D01*
X150429Y145449D01*
X150423Y145494D01*
Y145544D01*
X150418Y145605D01*
X150412Y145666D01*
Y145733D01*
Y145810D01*
Y147420D01*
X150063D01*
Y147786D01*
X150412D01*
Y148474D01*
X150884Y148757D01*
Y147786D01*
D02*
G37*
G36*
X177235Y147842D02*
X177280Y147836D01*
X177335Y147825D01*
X177396Y147814D01*
X177469Y147797D01*
X177535Y147781D01*
X177613Y147753D01*
X177685Y147725D01*
X177763Y147686D01*
X177840Y147642D01*
X177918Y147592D01*
X177990Y147531D01*
X178057Y147464D01*
X178062Y147459D01*
X178074Y147448D01*
X178090Y147425D01*
X178112Y147392D01*
X178140Y147353D01*
X178168Y147309D01*
X178201Y147253D01*
X178234Y147187D01*
X178268Y147115D01*
X178301Y147037D01*
X178329Y146948D01*
X178357Y146854D01*
X178379Y146748D01*
X178395Y146637D01*
X178406Y146521D01*
X178412Y146393D01*
Y146388D01*
Y146365D01*
Y146326D01*
X178406Y146271D01*
X176325D01*
Y146265D01*
Y146249D01*
X176331Y146227D01*
Y146193D01*
X176336Y146154D01*
X176347Y146110D01*
X176364Y146010D01*
X176397Y145899D01*
X176442Y145777D01*
X176503Y145666D01*
X176581Y145566D01*
X176586D01*
X176592Y145555D01*
X176625Y145527D01*
X176675Y145488D01*
X176742Y145450D01*
X176830Y145405D01*
X176930Y145366D01*
X177041Y145339D01*
X177102Y145333D01*
X177169Y145327D01*
X177213D01*
X177263Y145333D01*
X177324Y145344D01*
X177391Y145361D01*
X177469Y145383D01*
X177541Y145416D01*
X177613Y145461D01*
X177618Y145466D01*
X177646Y145488D01*
X177679Y145522D01*
X177718Y145566D01*
X177763Y145627D01*
X177813Y145705D01*
X177863Y145794D01*
X177907Y145899D01*
X178395Y145838D01*
Y145833D01*
X178390Y145821D01*
X178384Y145799D01*
X178373Y145766D01*
X178357Y145733D01*
X178340Y145688D01*
X178296Y145594D01*
X178240Y145488D01*
X178162Y145377D01*
X178074Y145272D01*
X177962Y145172D01*
X177957D01*
X177946Y145161D01*
X177929Y145150D01*
X177907Y145133D01*
X177874Y145117D01*
X177840Y145100D01*
X177796Y145078D01*
X177746Y145055D01*
X177690Y145033D01*
X177635Y145011D01*
X177496Y144978D01*
X177341Y144950D01*
X177169Y144939D01*
X177108D01*
X177069Y144945D01*
X177019Y144950D01*
X176958Y144961D01*
X176891Y144972D01*
X176819Y144983D01*
X176664Y145028D01*
X176581Y145061D01*
X176503Y145094D01*
X176420Y145139D01*
X176342Y145189D01*
X176270Y145244D01*
X176198Y145311D01*
X176192Y145316D01*
X176181Y145327D01*
X176164Y145350D01*
X176142Y145383D01*
X176114Y145422D01*
X176087Y145466D01*
X176053Y145522D01*
X176020Y145583D01*
X175987Y145655D01*
X175953Y145733D01*
X175926Y145821D01*
X175898Y145916D01*
X175876Y146016D01*
X175859Y146127D01*
X175848Y146243D01*
X175842Y146365D01*
Y146371D01*
Y146399D01*
Y146432D01*
X175848Y146482D01*
X175853Y146543D01*
X175859Y146609D01*
X175870Y146687D01*
X175887Y146765D01*
X175931Y146942D01*
X175959Y147031D01*
X175992Y147126D01*
X176037Y147214D01*
X176087Y147298D01*
X176142Y147381D01*
X176203Y147459D01*
X176209Y147464D01*
X176220Y147475D01*
X176242Y147492D01*
X176270Y147520D01*
X176303Y147547D01*
X176347Y147581D01*
X176397Y147620D01*
X176458Y147653D01*
X176520Y147692D01*
X176592Y147725D01*
X176669Y147758D01*
X176752Y147786D01*
X176841Y147814D01*
X176936Y147830D01*
X177036Y147842D01*
X177141Y147847D01*
X177197D01*
X177235Y147842D01*
D02*
G37*
G36*
X153060Y147842D02*
X153104Y147836D01*
X153159Y147825D01*
X153221Y147814D01*
X153293Y147797D01*
X153359Y147781D01*
X153437Y147753D01*
X153509Y147725D01*
X153587Y147686D01*
X153665Y147642D01*
X153742Y147592D01*
X153814Y147531D01*
X153881Y147464D01*
X153887Y147459D01*
X153898Y147448D01*
X153914Y147425D01*
X153937Y147392D01*
X153964Y147353D01*
X153992Y147309D01*
X154025Y147253D01*
X154059Y147187D01*
X154092Y147115D01*
X154125Y147037D01*
X154153Y146948D01*
X154181Y146854D01*
X154203Y146748D01*
X154220Y146637D01*
X154231Y146521D01*
X154236Y146393D01*
Y146388D01*
Y146365D01*
Y146326D01*
X154231Y146271D01*
X152149D01*
Y146265D01*
Y146249D01*
X152155Y146227D01*
Y146193D01*
X152161Y146154D01*
X152172Y146110D01*
X152188Y146010D01*
X152222Y145899D01*
X152266Y145777D01*
X152327Y145666D01*
X152405Y145566D01*
X152410D01*
X152416Y145555D01*
X152449Y145527D01*
X152499Y145488D01*
X152566Y145449D01*
X152654Y145405D01*
X152754Y145366D01*
X152865Y145339D01*
X152926Y145333D01*
X152993Y145327D01*
X153037D01*
X153087Y145333D01*
X153148Y145344D01*
X153215Y145361D01*
X153293Y145383D01*
X153365Y145416D01*
X153437Y145461D01*
X153443Y145466D01*
X153470Y145488D01*
X153504Y145522D01*
X153542Y145566D01*
X153587Y145627D01*
X153637Y145705D01*
X153687Y145794D01*
X153731Y145899D01*
X154220Y145838D01*
Y145833D01*
X154214Y145821D01*
X154208Y145799D01*
X154197Y145766D01*
X154181Y145733D01*
X154164Y145688D01*
X154120Y145594D01*
X154064Y145488D01*
X153986Y145377D01*
X153898Y145272D01*
X153787Y145172D01*
X153781D01*
X153770Y145161D01*
X153753Y145150D01*
X153731Y145133D01*
X153698Y145117D01*
X153665Y145100D01*
X153620Y145078D01*
X153570Y145055D01*
X153515Y145033D01*
X153459Y145011D01*
X153321Y144978D01*
X153165Y144950D01*
X152993Y144939D01*
X152932D01*
X152893Y144945D01*
X152843Y144950D01*
X152782Y144961D01*
X152716Y144972D01*
X152643Y144983D01*
X152488Y145028D01*
X152405Y145061D01*
X152327Y145094D01*
X152244Y145139D01*
X152166Y145189D01*
X152094Y145244D01*
X152022Y145311D01*
X152016Y145316D01*
X152005Y145327D01*
X151988Y145350D01*
X151966Y145383D01*
X151938Y145422D01*
X151911Y145466D01*
X151877Y145522D01*
X151844Y145583D01*
X151811Y145655D01*
X151778Y145733D01*
X151750Y145821D01*
X151722Y145916D01*
X151700Y146016D01*
X151683Y146127D01*
X151672Y146243D01*
X151667Y146365D01*
Y146371D01*
Y146399D01*
Y146432D01*
X151672Y146482D01*
X151678Y146543D01*
X151683Y146609D01*
X151694Y146687D01*
X151711Y146765D01*
X151755Y146942D01*
X151783Y147031D01*
X151816Y147126D01*
X151861Y147214D01*
X151911Y147298D01*
X151966Y147381D01*
X152027Y147459D01*
X152033Y147464D01*
X152044Y147475D01*
X152066Y147492D01*
X152094Y147520D01*
X152127Y147547D01*
X152172Y147581D01*
X152222Y147620D01*
X152283Y147653D01*
X152344Y147692D01*
X152416Y147725D01*
X152494Y147758D01*
X152577Y147786D01*
X152666Y147814D01*
X152760Y147830D01*
X152860Y147842D01*
X152965Y147847D01*
X153021D01*
X153060Y147842D01*
D02*
G37*
%LPC*%
G36*
X171813Y146399D02*
X171808D01*
X171802Y146393D01*
X171785Y146388D01*
X171763Y146382D01*
X171735Y146371D01*
X171702Y146360D01*
X171663Y146349D01*
X171619Y146338D01*
X171569Y146321D01*
X171508Y146310D01*
X171447Y146293D01*
X171375Y146276D01*
X171297Y146260D01*
X171219Y146243D01*
X171130Y146232D01*
X171036Y146215D01*
X171025D01*
X170992Y146210D01*
X170936Y146199D01*
X170875Y146188D01*
X170808Y146177D01*
X170742Y146160D01*
X170681Y146143D01*
X170625Y146121D01*
X170620D01*
X170603Y146110D01*
X170581Y146099D01*
X170559Y146082D01*
X170492Y146038D01*
X170437Y145971D01*
Y145966D01*
X170425Y145955D01*
X170420Y145932D01*
X170409Y145905D01*
X170398Y145871D01*
X170387Y145838D01*
X170381Y145794D01*
X170376Y145749D01*
Y145744D01*
Y145716D01*
X170381Y145683D01*
X170392Y145638D01*
X170409Y145588D01*
X170437Y145538D01*
X170470Y145483D01*
X170514Y145433D01*
X170520Y145427D01*
X170542Y145416D01*
X170575Y145394D01*
X170620Y145372D01*
X170681Y145350D01*
X170753Y145327D01*
X170836Y145316D01*
X170936Y145311D01*
X170981D01*
X171036Y145316D01*
X171097Y145327D01*
X171175Y145339D01*
X171253Y145361D01*
X171336Y145388D01*
X171419Y145427D01*
X171430Y145433D01*
X171452Y145449D01*
X171491Y145477D01*
X171536Y145516D01*
X171586Y145561D01*
X171641Y145616D01*
X171685Y145683D01*
X171730Y145755D01*
X171735Y145760D01*
X171741Y145782D01*
X171752Y145821D01*
X171769Y145871D01*
X171785Y145938D01*
X171796Y146016D01*
X171802Y146110D01*
X171808Y146221D01*
X171813Y146399D01*
D02*
G37*
G36*
X166929Y148386D02*
X165830D01*
Y147015D01*
X166862D01*
X166901Y147020D01*
X166940D01*
X166984Y147026D01*
X167090Y147037D01*
X167207Y147059D01*
X167323Y147092D01*
X167429Y147137D01*
X167479Y147164D01*
X167517Y147198D01*
X167528Y147209D01*
X167551Y147231D01*
X167584Y147275D01*
X167623Y147331D01*
X167662Y147403D01*
X167695Y147492D01*
X167717Y147592D01*
X167728Y147708D01*
Y147714D01*
Y147720D01*
Y147747D01*
X167723Y147797D01*
X167712Y147853D01*
X167701Y147914D01*
X167678Y147986D01*
X167645Y148053D01*
X167606Y148119D01*
X167601Y148125D01*
X167584Y148147D01*
X167556Y148175D01*
X167523Y148213D01*
X167473Y148252D01*
X167418Y148286D01*
X167356Y148319D01*
X167284Y148347D01*
X167279D01*
X167256Y148352D01*
X167223Y148358D01*
X167179Y148369D01*
X167112Y148374D01*
X167029Y148380D01*
X166929Y148386D01*
D02*
G37*
G36*
X161368Y146399D02*
X161362D01*
X161357Y146393D01*
X161340Y146388D01*
X161318Y146382D01*
X161290Y146371D01*
X161257Y146360D01*
X161218Y146349D01*
X161174Y146338D01*
X161124Y146321D01*
X161063Y146310D01*
X161002Y146293D01*
X160930Y146276D01*
X160852Y146260D01*
X160774Y146243D01*
X160685Y146232D01*
X160591Y146215D01*
X160580D01*
X160547Y146210D01*
X160491Y146199D01*
X160430Y146188D01*
X160363Y146177D01*
X160297Y146160D01*
X160236Y146143D01*
X160180Y146121D01*
X160175D01*
X160158Y146110D01*
X160136Y146099D01*
X160114Y146082D01*
X160047Y146038D01*
X159992Y145971D01*
Y145966D01*
X159980Y145955D01*
X159975Y145932D01*
X159964Y145905D01*
X159953Y145871D01*
X159942Y145838D01*
X159936Y145794D01*
X159931Y145749D01*
Y145744D01*
Y145716D01*
X159936Y145683D01*
X159947Y145638D01*
X159964Y145588D01*
X159992Y145538D01*
X160025Y145483D01*
X160069Y145433D01*
X160075Y145427D01*
X160097Y145416D01*
X160130Y145394D01*
X160175Y145372D01*
X160236Y145350D01*
X160308Y145327D01*
X160391Y145316D01*
X160491Y145311D01*
X160535D01*
X160591Y145316D01*
X160652Y145327D01*
X160730Y145339D01*
X160807Y145361D01*
X160891Y145388D01*
X160974Y145427D01*
X160985Y145433D01*
X161007Y145449D01*
X161046Y145477D01*
X161091Y145516D01*
X161140Y145561D01*
X161196Y145616D01*
X161240Y145683D01*
X161285Y145755D01*
X161290Y145760D01*
X161296Y145782D01*
X161307Y145821D01*
X161324Y145871D01*
X161340Y145938D01*
X161351Y146016D01*
X161357Y146110D01*
X161362Y146221D01*
X161368Y146399D01*
D02*
G37*
G36*
X177147Y147459D02*
X177113D01*
X177091Y147453D01*
X177030Y147448D01*
X176958Y147431D01*
X176869Y147403D01*
X176775Y147364D01*
X176686Y147309D01*
X176597Y147237D01*
X176586Y147226D01*
X176564Y147198D01*
X176525Y147148D01*
X176486Y147081D01*
X176442Y147004D01*
X176403Y146904D01*
X176370Y146787D01*
X176353Y146660D01*
X177912D01*
Y146665D01*
Y146676D01*
X177907Y146693D01*
Y146715D01*
X177896Y146782D01*
X177879Y146854D01*
X177851Y146942D01*
X177824Y147026D01*
X177779Y147109D01*
X177729Y147181D01*
Y147187D01*
X177718Y147192D01*
X177690Y147226D01*
X177641Y147270D01*
X177574Y147320D01*
X177491Y147370D01*
X177391Y147414D01*
X177274Y147448D01*
X177213Y147453D01*
X177147Y147459D01*
D02*
G37*
G36*
X152971Y147459D02*
X152937D01*
X152915Y147453D01*
X152854Y147448D01*
X152782Y147431D01*
X152693Y147403D01*
X152599Y147364D01*
X152510Y147309D01*
X152421Y147237D01*
X152410Y147225D01*
X152388Y147198D01*
X152349Y147148D01*
X152310Y147081D01*
X152266Y147003D01*
X152227Y146904D01*
X152194Y146787D01*
X152177Y146659D01*
X153737D01*
Y146665D01*
Y146676D01*
X153731Y146693D01*
Y146715D01*
X153720Y146782D01*
X153703Y146854D01*
X153676Y146942D01*
X153648Y147026D01*
X153603Y147109D01*
X153553Y147181D01*
Y147187D01*
X153542Y147192D01*
X153515Y147225D01*
X153465Y147270D01*
X153398Y147320D01*
X153315Y147370D01*
X153215Y147414D01*
X153098Y147448D01*
X153037Y147453D01*
X152971Y147459D01*
D02*
G37*
%LPD*%
D10*
X174000Y379000D02*
X416000D01*
Y272000D02*
Y379000D01*
X174000Y272000D02*
X416000D01*
X174000D02*
Y379000D01*
D13*
X194000Y319000D02*
D03*
X397000D02*
D03*
D17*
X174000Y272000D02*
X416000D01*
Y379000D01*
X174000D02*
X416000D01*
X174000Y272000D02*
Y379000D01*
D18*
X360900Y328200D02*
D03*
X349100D02*
D03*
Y340000D02*
D03*
X360900D02*
D03*
X242800Y328200D02*
D03*
X231000D02*
D03*
Y340000D02*
D03*
X242800D02*
D03*
X337300D02*
D03*
X254600D02*
D03*
Y328200D02*
D03*
X266400D02*
D03*
X266200Y340000D02*
D03*
X325400D02*
D03*
X290000D02*
D03*
X301800D02*
D03*
X278200D02*
D03*
X313600D02*
D03*
Y328200D02*
D03*
X278200D02*
D03*
X301800D02*
D03*
X290000D02*
D03*
X325400D02*
D03*
X337300D02*
D03*
X219200Y304500D02*
D03*
X372700D02*
D03*
X337300Y300800D02*
D03*
X325400D02*
D03*
X290000D02*
D03*
X301800D02*
D03*
X278200D02*
D03*
X313600D02*
D03*
Y289000D02*
D03*
X278200D02*
D03*
X301800D02*
D03*
X290000D02*
D03*
X325400D02*
D03*
X266200D02*
D03*
X266400Y300800D02*
D03*
X254600D02*
D03*
Y289000D02*
D03*
X337300D02*
D03*
X242800D02*
D03*
X231000D02*
D03*
Y300800D02*
D03*
X242800D02*
D03*
X360900Y289000D02*
D03*
X349100D02*
D03*
Y300800D02*
D03*
X360900D02*
D03*
D19*
X239400Y357000D02*
D03*
X352400D02*
D03*
M02*
