G04*
G04 #@! TF.GenerationSoftware,Altium Limited,Altium Designer,18.1.11 (251)*
G04*
G04 Layer_Color=8388736*
%FSLAX25Y25*%
%MOIN*%
G70*
G01*
G75*
%ADD10C,0.01000*%
%ADD11C,0.17729*%
%ADD12C,0.07800*%
%ADD13C,0.15600*%
D10*
X174000Y379000D02*
X416000D01*
Y272000D02*
Y379000D01*
X174000Y272000D02*
X416000D01*
X174000D02*
Y379000D01*
D11*
X194000Y319000D02*
D03*
X397000D02*
D03*
D12*
X360900Y328200D02*
D03*
X349100D02*
D03*
Y340000D02*
D03*
X360900D02*
D03*
X242800Y328200D02*
D03*
X231000D02*
D03*
Y340000D02*
D03*
X242800D02*
D03*
X337300D02*
D03*
X254600D02*
D03*
Y328200D02*
D03*
X266400D02*
D03*
X266200Y340000D02*
D03*
X325400D02*
D03*
X290000D02*
D03*
X301800D02*
D03*
X278200D02*
D03*
X313600D02*
D03*
Y328200D02*
D03*
X278200D02*
D03*
X301800D02*
D03*
X290000D02*
D03*
X325400D02*
D03*
X337300D02*
D03*
X219200Y304500D02*
D03*
X372700D02*
D03*
X337300Y300800D02*
D03*
X325400D02*
D03*
X290000D02*
D03*
X301800D02*
D03*
X278200D02*
D03*
X313600D02*
D03*
Y289000D02*
D03*
X278200D02*
D03*
X301800D02*
D03*
X290000D02*
D03*
X325400D02*
D03*
X266200D02*
D03*
X266400Y300800D02*
D03*
X254600D02*
D03*
Y289000D02*
D03*
X337300D02*
D03*
X242800D02*
D03*
X231000D02*
D03*
Y300800D02*
D03*
X242800D02*
D03*
X360900Y289000D02*
D03*
X349100D02*
D03*
Y300800D02*
D03*
X360900D02*
D03*
D13*
X239400Y357000D02*
D03*
X352400D02*
D03*
M02*
