G04*
G04 #@! TF.GenerationSoftware,Altium Limited,Altium Designer,18.1.11 (251)*
G04*
G04 Layer_Color=32896*
%FSLAX25Y25*%
%MOIN*%
G70*
G01*
G75*
%ADD10C,0.01000*%
G36*
X215217Y319589D02*
X215310Y319584D01*
X215398Y319567D01*
X215479Y319551D01*
X215556Y319529D01*
X215627Y319507D01*
X215692Y319480D01*
X215752Y319453D01*
X215807Y319425D01*
X215851Y319398D01*
X215889Y319376D01*
X215922Y319355D01*
X215949Y319338D01*
X215965Y319322D01*
X215976Y319316D01*
X215982Y319311D01*
X216036Y319256D01*
X216086Y319196D01*
X216135Y319131D01*
X216173Y319065D01*
X216238Y318934D01*
X216282Y318803D01*
X216298Y318743D01*
X216315Y318683D01*
X216326Y318634D01*
X216337Y318590D01*
X216342Y318552D01*
Y318525D01*
X216348Y318508D01*
Y318503D01*
X215873Y318454D01*
X215862Y318579D01*
X215840Y318688D01*
X215807Y318787D01*
X215769Y318863D01*
X215736Y318929D01*
X215703Y318972D01*
X215681Y319000D01*
X215670Y319010D01*
X215589Y319076D01*
X215501Y319125D01*
X215408Y319163D01*
X215326Y319185D01*
X215250Y319202D01*
X215185Y319207D01*
X215163Y319213D01*
X215130D01*
X215015Y319207D01*
X214912Y319185D01*
X214824Y319152D01*
X214748Y319120D01*
X214688Y319081D01*
X214650Y319054D01*
X214622Y319032D01*
X214611Y319021D01*
X214546Y318945D01*
X214497Y318868D01*
X214458Y318792D01*
X214437Y318716D01*
X214420Y318656D01*
X214415Y318601D01*
X214409Y318568D01*
Y318563D01*
Y318557D01*
X214420Y318459D01*
X214442Y318355D01*
X214480Y318263D01*
X214518Y318175D01*
X214562Y318104D01*
X214600Y318044D01*
X214611Y318022D01*
X214622Y318006D01*
X214633Y318000D01*
Y317995D01*
X214677Y317935D01*
X214731Y317875D01*
X214791Y317809D01*
X214857Y317744D01*
X214994Y317613D01*
X215130Y317482D01*
X215201Y317422D01*
X215261Y317367D01*
X215321Y317318D01*
X215370Y317274D01*
X215408Y317241D01*
X215441Y317214D01*
X215463Y317198D01*
X215469Y317192D01*
X215605Y317078D01*
X215731Y316968D01*
X215834Y316870D01*
X215916Y316788D01*
X215987Y316717D01*
X216036Y316668D01*
X216064Y316635D01*
X216075Y316630D01*
Y316624D01*
X216151Y316532D01*
X216211Y316444D01*
X216266Y316357D01*
X216309Y316281D01*
X216342Y316215D01*
X216364Y316166D01*
X216375Y316133D01*
X216380Y316128D01*
Y316122D01*
X216402Y316062D01*
X216413Y316007D01*
X216424Y315953D01*
X216429Y315904D01*
X216435Y315860D01*
Y315827D01*
Y315806D01*
Y315800D01*
X213929D01*
Y316248D01*
X215791D01*
X215725Y316340D01*
X215692Y316379D01*
X215665Y316417D01*
X215638Y316450D01*
X215616Y316472D01*
X215599Y316488D01*
X215594Y316493D01*
X215567Y316521D01*
X215534Y316548D01*
X215458Y316619D01*
X215370Y316701D01*
X215277Y316783D01*
X215190Y316854D01*
X215152Y316886D01*
X215119Y316919D01*
X215092Y316941D01*
X215070Y316957D01*
X215059Y316968D01*
X215054Y316974D01*
X214966Y317050D01*
X214879Y317121D01*
X214802Y317192D01*
X214731Y317252D01*
X214666Y317312D01*
X214611Y317367D01*
X214557Y317416D01*
X214513Y317460D01*
X214469Y317503D01*
X214437Y317536D01*
X214409Y317564D01*
X214382Y317591D01*
X214355Y317624D01*
X214344Y317635D01*
X214267Y317727D01*
X214202Y317809D01*
X214147Y317891D01*
X214104Y317957D01*
X214071Y318017D01*
X214049Y318060D01*
X214038Y318088D01*
X214033Y318099D01*
X214000Y318181D01*
X213978Y318263D01*
X213956Y318339D01*
X213945Y318404D01*
X213940Y318464D01*
X213934Y318508D01*
Y318535D01*
Y318546D01*
X213940Y318628D01*
X213951Y318705D01*
X213962Y318781D01*
X213983Y318847D01*
X214038Y318978D01*
X214093Y319081D01*
X214125Y319131D01*
X214153Y319169D01*
X214180Y319207D01*
X214207Y319234D01*
X214229Y319256D01*
X214240Y319278D01*
X214251Y319284D01*
X214256Y319289D01*
X214316Y319343D01*
X214382Y319393D01*
X214453Y319431D01*
X214524Y319464D01*
X214666Y319518D01*
X214808Y319556D01*
X214868Y319567D01*
X214928Y319578D01*
X214983Y319584D01*
X215026Y319589D01*
X215065Y319595D01*
X215119D01*
X215217Y319589D01*
D02*
G37*
G36*
X219700Y315800D02*
X219198D01*
Y317334D01*
X218231D01*
X218089Y317340D01*
X217953Y317351D01*
X217833Y317367D01*
X217723Y317389D01*
X217620Y317411D01*
X217532Y317438D01*
X217450Y317471D01*
X217379Y317503D01*
X217319Y317531D01*
X217265Y317564D01*
X217221Y317591D01*
X217188Y317618D01*
X217161Y317635D01*
X217145Y317651D01*
X217134Y317662D01*
X217128Y317667D01*
X217074Y317733D01*
X217025Y317798D01*
X216986Y317864D01*
X216948Y317935D01*
X216915Y318006D01*
X216894Y318071D01*
X216855Y318197D01*
X216844Y318257D01*
X216833Y318312D01*
X216828Y318361D01*
X216823Y318399D01*
X216817Y318437D01*
Y318459D01*
Y318475D01*
Y318481D01*
X216823Y318585D01*
X216833Y318683D01*
X216855Y318770D01*
X216872Y318847D01*
X216894Y318912D01*
X216915Y318961D01*
X216926Y318989D01*
X216932Y319000D01*
X216975Y319081D01*
X217030Y319152D01*
X217079Y319218D01*
X217128Y319267D01*
X217172Y319305D01*
X217205Y319338D01*
X217227Y319355D01*
X217237Y319360D01*
X217308Y319404D01*
X217390Y319442D01*
X217467Y319475D01*
X217538Y319502D01*
X217603Y319518D01*
X217653Y319529D01*
X217691Y319540D01*
X217702D01*
X217783Y319551D01*
X217876Y319562D01*
X217975Y319567D01*
X218068Y319573D01*
X218149Y319578D01*
X219700D01*
Y315800D01*
D02*
G37*
%LPC*%
G36*
X219198Y319131D02*
X218117D01*
X218018Y319125D01*
X217936Y319120D01*
X217871Y319114D01*
X217827Y319103D01*
X217794Y319098D01*
X217773Y319092D01*
X217767D01*
X217696Y319065D01*
X217636Y319032D01*
X217582Y319000D01*
X217532Y318961D01*
X217500Y318923D01*
X217472Y318896D01*
X217456Y318874D01*
X217450Y318868D01*
X217412Y318803D01*
X217379Y318738D01*
X217358Y318667D01*
X217347Y318606D01*
X217336Y318552D01*
X217330Y318503D01*
Y318475D01*
Y318470D01*
Y318464D01*
X217341Y318350D01*
X217363Y318251D01*
X217396Y318164D01*
X217434Y318093D01*
X217472Y318039D01*
X217505Y317995D01*
X217527Y317973D01*
X217538Y317962D01*
X217576Y317929D01*
X217625Y317902D01*
X217729Y317858D01*
X217844Y317826D01*
X217958Y317804D01*
X218062Y317793D01*
X218106Y317787D01*
X218144D01*
X218182Y317782D01*
X219198D01*
Y319131D01*
D02*
G37*
%LPD*%
D10*
X214400Y278000D02*
Y310000D01*
X377900Y278000D02*
Y310000D01*
X214400D02*
X377900D01*
X214400Y278000D02*
X377900D01*
X174000Y379000D02*
X416000D01*
Y272000D02*
Y379000D01*
X174000Y272000D02*
X416000D01*
X174000D02*
Y379000D01*
M02*
