G04*
G04 #@! TF.GenerationSoftware,Altium Limited,Altium Designer,19.1.8 (144)*
G04*
G04 Layer_Color=8388736*
%FSLAX25Y25*%
%MOIN*%
G70*
G01*
G75*
%ADD10C,0.01000*%
%ADD22R,0.02400X0.09000*%
%ADD54R,0.06115X0.04343*%
%ADD55C,0.03800*%
%ADD56R,0.04934X0.06312*%
%ADD57R,0.07808X0.02454*%
%ADD58C,0.08674*%
%ADD59R,0.06509X0.07690*%
%ADD60R,0.06902X0.03359*%
%ADD61R,0.06312X0.04934*%
%ADD62R,0.04343X0.06115*%
%ADD63R,0.05721X0.07099*%
%ADD64R,0.03162X0.06509*%
%ADD65R,0.07887X0.06509*%
%ADD66R,0.24422X0.22060*%
%ADD67R,0.03556X0.04737*%
%ADD68R,0.04540X0.04343*%
%ADD69R,0.17926X0.09068*%
%ADD70R,0.04343X0.04540*%
%ADD71R,0.20485X0.20485*%
%ADD72R,0.03359X0.06902*%
%ADD73R,0.02572X0.06706*%
%ADD74R,0.06509X0.07887*%
%ADD75R,0.24422X0.20485*%
%ADD76R,0.19304X0.13398*%
%ADD77R,0.11824X0.09698*%
%ADD78R,0.07690X0.06509*%
%ADD79R,0.02572X0.06312*%
%ADD80R,0.14895X0.12375*%
%ADD81R,0.06509X0.03162*%
%ADD82R,0.11430X0.07493*%
%ADD83R,0.14580X0.20879*%
%ADD84R,0.10249X0.13595*%
%ADD85R,0.07099X0.08871*%
%ADD86R,0.20485X0.20485*%
%ADD87R,0.07493X0.11430*%
%ADD88R,0.13595X0.10249*%
%ADD89C,0.07887*%
%ADD90C,0.07800*%
%ADD91C,0.15600*%
%ADD92C,0.20485*%
%ADD93R,0.06824X0.06824*%
%ADD94C,0.06824*%
D10*
X100000Y500000D02*
X700000D01*
X100000Y116000D02*
X700000D01*
Y500000D01*
X100000Y116000D02*
Y500000D01*
D22*
X530500Y246000D02*
D03*
X535500D02*
D03*
X540500D02*
D03*
X545500D02*
D03*
X550500D02*
D03*
X555500D02*
D03*
X560500D02*
D03*
X565500D02*
D03*
X570500D02*
D03*
X575500D02*
D03*
X580500D02*
D03*
X585500D02*
D03*
X590500D02*
D03*
X595500D02*
D03*
Y282000D02*
D03*
X590500D02*
D03*
X585500D02*
D03*
X580500D02*
D03*
X575500D02*
D03*
X570500D02*
D03*
X565500D02*
D03*
X560500D02*
D03*
X555500D02*
D03*
X550500D02*
D03*
X545500D02*
D03*
X540500D02*
D03*
X535500D02*
D03*
X530500D02*
D03*
D54*
X409000Y398063D02*
D03*
Y405937D02*
D03*
X472500Y284374D02*
D03*
Y276500D02*
D03*
X518000Y325437D02*
D03*
Y317563D02*
D03*
X528000Y325437D02*
D03*
Y317563D02*
D03*
X303000Y211000D02*
D03*
Y218874D02*
D03*
X394500Y164937D02*
D03*
Y157063D02*
D03*
X180000Y146437D02*
D03*
Y138563D02*
D03*
X172500D02*
D03*
Y146437D02*
D03*
X222500Y138937D02*
D03*
Y131063D02*
D03*
X163000Y397063D02*
D03*
Y404937D02*
D03*
X658901Y457937D02*
D03*
Y450063D02*
D03*
X649000D02*
D03*
Y457937D02*
D03*
X654284Y199937D02*
D03*
Y192063D02*
D03*
X598567Y202937D02*
D03*
Y195063D02*
D03*
X542783Y209937D02*
D03*
Y202063D02*
D03*
X485783Y216937D02*
D03*
Y209063D02*
D03*
X394500Y179063D02*
D03*
Y186937D02*
D03*
X428500Y179063D02*
D03*
Y186937D02*
D03*
X657500Y390063D02*
D03*
Y397937D02*
D03*
X600500Y395063D02*
D03*
Y402937D02*
D03*
X545000Y400063D02*
D03*
Y407937D02*
D03*
X400500Y390937D02*
D03*
Y383063D02*
D03*
Y405937D02*
D03*
Y398063D02*
D03*
X387000Y390937D02*
D03*
Y383063D02*
D03*
Y405937D02*
D03*
Y398063D02*
D03*
X378500Y405937D02*
D03*
Y398063D02*
D03*
X407500Y350937D02*
D03*
Y343063D02*
D03*
X399500D02*
D03*
Y350937D02*
D03*
X391000Y343063D02*
D03*
Y350937D02*
D03*
X365500Y343063D02*
D03*
Y350937D02*
D03*
X357000Y343063D02*
D03*
Y350937D02*
D03*
X339286Y343126D02*
D03*
Y351000D02*
D03*
X313357Y343126D02*
D03*
Y351000D02*
D03*
X410000Y324937D02*
D03*
Y317063D02*
D03*
X402500Y324937D02*
D03*
Y317063D02*
D03*
X373000Y272563D02*
D03*
Y280437D02*
D03*
X381000Y272563D02*
D03*
Y280437D02*
D03*
Y259063D02*
D03*
Y266937D02*
D03*
X373000Y259063D02*
D03*
Y266937D02*
D03*
X277500Y180591D02*
D03*
Y188465D02*
D03*
Y203937D02*
D03*
Y196063D02*
D03*
X217500Y308563D02*
D03*
Y316437D02*
D03*
Y301437D02*
D03*
Y293563D02*
D03*
X313357Y360126D02*
D03*
Y368000D02*
D03*
X322000D02*
D03*
Y360126D02*
D03*
X330643D02*
D03*
Y368000D02*
D03*
X339286D02*
D03*
Y360126D02*
D03*
X348500D02*
D03*
Y368000D02*
D03*
X357000D02*
D03*
Y360126D02*
D03*
X365500Y368000D02*
D03*
Y360126D02*
D03*
X374000D02*
D03*
Y368000D02*
D03*
X382500Y360126D02*
D03*
Y368000D02*
D03*
X391000D02*
D03*
Y360126D02*
D03*
X399500Y368000D02*
D03*
Y360126D02*
D03*
X428500Y157063D02*
D03*
Y164937D02*
D03*
X402500Y311437D02*
D03*
Y303563D02*
D03*
X410000Y311437D02*
D03*
Y303563D02*
D03*
X636000Y277937D02*
D03*
Y270063D02*
D03*
X628500Y277937D02*
D03*
Y270063D02*
D03*
X621000Y277937D02*
D03*
Y270063D02*
D03*
X613000Y277937D02*
D03*
Y270063D02*
D03*
X613500Y257937D02*
D03*
Y250063D02*
D03*
X621500Y257937D02*
D03*
Y250063D02*
D03*
X629000Y257937D02*
D03*
Y250063D02*
D03*
X636500Y257937D02*
D03*
Y250063D02*
D03*
X502500Y269437D02*
D03*
Y261563D02*
D03*
X489000Y406063D02*
D03*
Y413937D02*
D03*
D55*
X517000Y288500D02*
D03*
X113000Y268000D02*
D03*
X522500Y283500D02*
D03*
X475500Y459500D02*
D03*
Y452500D02*
D03*
X159000Y209000D02*
D03*
X296000Y210500D02*
D03*
X234000Y132000D02*
D03*
X225500Y176500D02*
D03*
X164000Y166500D02*
D03*
X162500Y146500D02*
D03*
X617000Y435000D02*
D03*
X623283Y184500D02*
D03*
X536000Y172500D02*
D03*
X509000Y179500D02*
D03*
X533500Y440500D02*
D03*
X339786Y335563D02*
D03*
X322000Y336000D02*
D03*
X426000Y123000D02*
D03*
X391500Y125000D02*
D03*
X631500Y344500D02*
D03*
Y336500D02*
D03*
Y328000D02*
D03*
Y320500D02*
D03*
X413000Y412000D02*
D03*
X393000Y338500D02*
D03*
X392000Y268500D02*
D03*
X325000Y244000D02*
D03*
X163500Y345000D02*
D03*
X143000Y354000D02*
D03*
X387000Y412500D02*
D03*
X464500Y426000D02*
D03*
X142000Y491500D02*
D03*
X150500D02*
D03*
Y469500D02*
D03*
Y476833D02*
D03*
X142000Y484167D02*
D03*
X150500Y484000D02*
D03*
X142000Y469500D02*
D03*
Y476833D02*
D03*
X606500Y479000D02*
D03*
X647000Y473500D02*
D03*
X601500Y475000D02*
D03*
X651000Y471000D02*
D03*
X606500Y471500D02*
D03*
X647000Y467000D02*
D03*
X600000Y470000D02*
D03*
X651000Y464500D02*
D03*
X603500Y466000D02*
D03*
X351000Y258000D02*
D03*
X565500Y235000D02*
D03*
X560500D02*
D03*
X680784Y179000D02*
D03*
X545500Y235000D02*
D03*
X530500D02*
D03*
X520500Y421500D02*
D03*
X535500Y235000D02*
D03*
X550500D02*
D03*
X579000Y425000D02*
D03*
X632500Y410000D02*
D03*
X555500Y235000D02*
D03*
X540500D02*
D03*
X565000Y179500D02*
D03*
X511000Y192000D02*
D03*
X372500Y394500D02*
D03*
X370000Y403500D02*
D03*
X414000Y360500D02*
D03*
X408500Y412000D02*
D03*
X367500Y414500D02*
D03*
X286500Y327500D02*
D03*
X229500Y225000D02*
D03*
X450500Y374000D02*
D03*
X269000Y270000D02*
D03*
X226000Y289500D02*
D03*
X216500Y126500D02*
D03*
X304000Y157500D02*
D03*
X343000Y215000D02*
D03*
X288500Y187000D02*
D03*
X152500Y157500D02*
D03*
X174386Y246886D02*
D03*
X216250Y198750D02*
D03*
X187000Y178500D02*
D03*
X356500Y309000D02*
D03*
X577500Y257500D02*
D03*
X585500Y274000D02*
D03*
X595500Y273000D02*
D03*
X580750Y272000D02*
D03*
X555500Y270000D02*
D03*
X565500Y270500D02*
D03*
X590500Y270000D02*
D03*
X575500Y275000D02*
D03*
X568000Y257500D02*
D03*
X540500Y272000D02*
D03*
X560500Y274000D02*
D03*
X378500Y411750D02*
D03*
X129500Y129500D02*
D03*
X186000Y422000D02*
D03*
X302000Y409000D02*
D03*
X326500Y416500D02*
D03*
X246500Y341000D02*
D03*
X253500D02*
D03*
X260500D02*
D03*
X372000Y388500D02*
D03*
X386500Y321500D02*
D03*
X409500Y423500D02*
D03*
X178500Y393000D02*
D03*
X201500Y142000D02*
D03*
X197500Y378500D02*
D03*
X190000D02*
D03*
X183000Y371000D02*
D03*
X190000Y370500D02*
D03*
X197500D02*
D03*
X322500Y210000D02*
D03*
X430500Y355000D02*
D03*
X583500Y120500D02*
D03*
X333000Y305500D02*
D03*
X390254Y299254D02*
D03*
X369500Y383000D02*
D03*
X596000Y378000D02*
D03*
X597000Y189500D02*
D03*
X496000Y286500D02*
D03*
Y280000D02*
D03*
X503000D02*
D03*
X509500Y274371D02*
D03*
X503000Y274500D02*
D03*
X542000Y215000D02*
D03*
X553000Y225500D02*
D03*
X400500Y411000D02*
D03*
X170500Y250000D02*
D03*
X198500Y395500D02*
D03*
X632000Y489500D02*
D03*
X225000Y307000D02*
D03*
X189000Y397500D02*
D03*
X212000Y346500D02*
D03*
X634500Y366000D02*
D03*
X627500Y361500D02*
D03*
X523000Y358500D02*
D03*
X484500Y377500D02*
D03*
X616000Y383000D02*
D03*
X364500Y215500D02*
D03*
X372000Y212000D02*
D03*
X379500Y208500D02*
D03*
X489720Y226098D02*
D03*
X356000Y274000D02*
D03*
X365000Y277000D02*
D03*
X118000Y267500D02*
D03*
X307500Y407000D02*
D03*
X477500Y378063D02*
D03*
X320500Y390500D02*
D03*
Y385000D02*
D03*
X302000Y423500D02*
D03*
X370000Y399000D02*
D03*
X495000Y316000D02*
D03*
X490500Y321000D02*
D03*
X507000Y314000D02*
D03*
X327500Y311500D02*
D03*
X343600Y297500D02*
D03*
X326500Y300350D02*
D03*
X356010Y297290D02*
D03*
X343500Y329000D02*
D03*
X517000Y282000D02*
D03*
X522500Y293000D02*
D03*
X514500Y246000D02*
D03*
X514750Y254750D02*
D03*
X604500Y258000D02*
D03*
X600000Y252500D02*
D03*
X485000Y318500D02*
D03*
X468500D02*
D03*
X358500Y282000D02*
D03*
X337000Y293000D02*
D03*
X206500Y290000D02*
D03*
X164125Y171625D02*
D03*
X168000Y177000D02*
D03*
X202750Y126750D02*
D03*
X211500Y310500D02*
D03*
X226500Y169500D02*
D03*
X225500Y199000D02*
D03*
X226500Y213500D02*
D03*
X224000Y207000D02*
D03*
X621500Y264000D02*
D03*
X629000D02*
D03*
X613500Y263000D02*
D03*
X642000Y297500D02*
D03*
X652500Y186000D02*
D03*
X678500Y208000D02*
D03*
X463500Y380000D02*
D03*
X627500Y453000D02*
D03*
X632000Y460500D02*
D03*
X471000Y378500D02*
D03*
X556500Y382500D02*
D03*
X573000Y368500D02*
D03*
X546500Y381000D02*
D03*
X326000Y374000D02*
D03*
X568500Y326500D02*
D03*
X425000Y293500D02*
D03*
X427500Y254000D02*
D03*
X416500Y276000D02*
D03*
X421500Y298500D02*
D03*
X450500Y401000D02*
D03*
X662000Y355358D02*
D03*
X672500D02*
D03*
X673000Y365358D02*
D03*
X662500D02*
D03*
Y270500D02*
D03*
X673000D02*
D03*
X672500Y260500D02*
D03*
X662000D02*
D03*
X634000Y380500D02*
D03*
X577500Y382500D02*
D03*
X466000Y397000D02*
D03*
X521000Y391500D02*
D03*
X260500Y334500D02*
D03*
X253500D02*
D03*
X246500D02*
D03*
X239500D02*
D03*
X443000Y376000D02*
D03*
X636500Y286000D02*
D03*
X642000Y292000D02*
D03*
Y285500D02*
D03*
X636500Y291500D02*
D03*
X631500Y286000D02*
D03*
X593500Y319500D02*
D03*
X543000Y359500D02*
D03*
X608437Y175500D02*
D03*
X600500Y226500D02*
D03*
X445500Y139000D02*
D03*
Y133500D02*
D03*
Y128000D02*
D03*
X439000Y139000D02*
D03*
Y133500D02*
D03*
Y128000D02*
D03*
X425000Y133500D02*
D03*
X432500D02*
D03*
X425000Y128000D02*
D03*
X432500D02*
D03*
X425000Y139000D02*
D03*
X432500D02*
D03*
X372500Y137000D02*
D03*
X365000D02*
D03*
X496500Y295500D02*
D03*
X211500Y337500D02*
D03*
X238000Y419000D02*
D03*
X230000D02*
D03*
X216000Y422000D02*
D03*
X222500Y419500D02*
D03*
X213500Y410500D02*
D03*
X206000Y419000D02*
D03*
X188500Y403000D02*
D03*
Y408000D02*
D03*
Y412500D02*
D03*
X186000Y392000D02*
D03*
X183000Y378500D02*
D03*
X185500Y354000D02*
D03*
X190500Y353000D02*
D03*
X189000Y344000D02*
D03*
X174500Y373500D02*
D03*
X159000Y392000D02*
D03*
X153000Y354500D02*
D03*
X138000Y354000D02*
D03*
X176000Y312000D02*
D03*
X188000D02*
D03*
Y321000D02*
D03*
X176500Y321500D02*
D03*
X333000Y403500D02*
D03*
X542283Y197000D02*
D03*
X385000Y288000D02*
D03*
X371079Y294500D02*
D03*
X368000Y297500D02*
D03*
X255250Y258500D02*
D03*
Y251000D02*
D03*
X249000Y258500D02*
D03*
Y251000D02*
D03*
X255250Y266500D02*
D03*
X249000D02*
D03*
X317000Y471500D02*
D03*
X332000Y412000D02*
D03*
X554500Y175500D02*
D03*
X517000Y261500D02*
D03*
X501284Y182783D02*
D03*
X534000Y227500D02*
D03*
X413500Y235000D02*
D03*
X403500Y218500D02*
D03*
X396000D02*
D03*
X381000Y222500D02*
D03*
Y230500D02*
D03*
X347000Y230000D02*
D03*
X362500Y237500D02*
D03*
Y252000D02*
D03*
X378500Y252500D02*
D03*
X388000Y275000D02*
D03*
X396500Y293000D02*
D03*
X416500Y293500D02*
D03*
X413500Y343000D02*
D03*
X640500Y361000D02*
D03*
X620000Y369500D02*
D03*
X501500Y381000D02*
D03*
X490000Y419000D02*
D03*
X638000Y370500D02*
D03*
X617000Y360500D02*
D03*
X490000Y381000D02*
D03*
X643500Y277500D02*
D03*
X560500Y387500D02*
D03*
X646500Y418000D02*
D03*
X534000Y429000D02*
D03*
X589500Y424000D02*
D03*
X505500Y391500D02*
D03*
X537625Y385625D02*
D03*
X650125Y374625D02*
D03*
X658000Y403000D02*
D03*
X545000Y413000D02*
D03*
X600500Y408000D02*
D03*
X513000Y311000D02*
D03*
X398500Y196000D02*
D03*
X623500Y214000D02*
D03*
X598500Y208500D02*
D03*
X538500Y325500D02*
D03*
X329000Y240500D02*
D03*
X296000Y215500D02*
D03*
X349700Y297500D02*
D03*
X361900D02*
D03*
X692500Y170500D02*
D03*
X486283Y204000D02*
D03*
X695000Y206500D02*
D03*
X645000Y220000D02*
D03*
X605817Y218750D02*
D03*
X640500Y212500D02*
D03*
X584000Y219500D02*
D03*
X567000D02*
D03*
X511000Y226000D02*
D03*
X528000Y224000D02*
D03*
X414500Y368000D02*
D03*
X393750Y383063D02*
D03*
X335500Y242500D02*
D03*
X343680Y355500D02*
D03*
X378500D02*
D03*
X349500Y334500D02*
D03*
X377522Y322522D02*
D03*
X344000Y372500D02*
D03*
X370500Y374000D02*
D03*
X417937Y324937D02*
D03*
X416782Y303782D02*
D03*
X390500Y316500D02*
D03*
X382500D02*
D03*
X356500Y321500D02*
D03*
X372969Y423500D02*
D03*
X336750D02*
D03*
X411000Y431500D02*
D03*
X373031D02*
D03*
X336750D02*
D03*
X302000D02*
D03*
X322500Y465500D02*
D03*
X328000Y460000D02*
D03*
X312500Y476500D02*
D03*
X283000Y436000D02*
D03*
X250000Y442500D02*
D03*
X261500Y431500D02*
D03*
X233701D02*
D03*
X206201D02*
D03*
X177500D02*
D03*
X466740Y338240D02*
D03*
X343000Y209000D02*
D03*
X350000D02*
D03*
Y215500D02*
D03*
X343000D02*
D03*
Y202500D02*
D03*
X350000D02*
D03*
Y196000D02*
D03*
X343000D02*
D03*
X369449Y203949D02*
D03*
X411776Y187776D02*
D03*
X377276D02*
D03*
X387000Y179000D02*
D03*
X419719Y179281D02*
D03*
X386500Y157000D02*
D03*
X420563Y157063D02*
D03*
X438000Y260000D02*
D03*
X448000Y260500D02*
D03*
X111000Y128500D02*
D03*
X117273Y132273D02*
D03*
X616000Y316000D02*
D03*
Y325000D02*
D03*
Y334500D02*
D03*
Y344000D02*
D03*
X569500D02*
D03*
X645500Y483000D02*
D03*
X623746Y460746D02*
D03*
X604500Y447500D02*
D03*
X192500Y174500D02*
D03*
X222500Y126000D02*
D03*
X362500Y245000D02*
D03*
X330500Y278500D02*
D03*
X112701Y444620D02*
D03*
X160000Y453500D02*
D03*
X164250Y432250D02*
D03*
X326286Y355563D02*
D03*
X313357Y374134D02*
D03*
X648000Y250000D02*
D03*
X636500Y264750D02*
D03*
X466000Y284000D02*
D03*
X496000Y274000D02*
D03*
X479000Y253414D02*
D03*
X482500Y391500D02*
D03*
X480130Y435000D02*
D03*
X434500Y293500D02*
D03*
X463370Y219630D02*
D03*
X316500Y297500D02*
D03*
Y304500D02*
D03*
Y312000D02*
D03*
Y320500D02*
D03*
X264500Y305500D02*
D03*
Y298000D02*
D03*
X282750Y219500D02*
D03*
Y212000D02*
D03*
X276500Y219500D02*
D03*
Y212000D02*
D03*
X267000Y195500D02*
D03*
Y189250D02*
D03*
X251500Y195500D02*
D03*
X259000D02*
D03*
X251500Y189250D02*
D03*
X259000D02*
D03*
X189000Y262500D02*
D03*
X196500D02*
D03*
X189000Y256250D02*
D03*
X196500D02*
D03*
X173500Y262500D02*
D03*
X181000D02*
D03*
X173500Y256250D02*
D03*
X181000D02*
D03*
X164032Y138531D02*
D03*
X181260Y237500D02*
D03*
X231500Y274000D02*
D03*
X224833D02*
D03*
X218167D02*
D03*
X211500D02*
D03*
X250000Y312500D02*
D03*
X210500Y301500D02*
D03*
X241500Y314000D02*
D03*
X326240Y234414D02*
D03*
X350000Y165000D02*
D03*
Y172500D02*
D03*
Y180000D02*
D03*
Y187500D02*
D03*
X307500Y190000D02*
D03*
X300000D02*
D03*
X212500Y216250D02*
D03*
X205000D02*
D03*
X212500Y222500D02*
D03*
X205000D02*
D03*
Y235000D02*
D03*
X212500D02*
D03*
X205000Y228750D02*
D03*
X212500D02*
D03*
Y241250D02*
D03*
X205000D02*
D03*
X212500Y247500D02*
D03*
X205000D02*
D03*
X372500Y126000D02*
D03*
X365000D02*
D03*
X372500Y131500D02*
D03*
X365000D02*
D03*
X379000Y126000D02*
D03*
Y131500D02*
D03*
Y137000D02*
D03*
X385500Y126000D02*
D03*
Y131500D02*
D03*
Y137000D02*
D03*
X217500Y177500D02*
D03*
X165000Y155000D02*
D03*
X180000Y132500D02*
D03*
X200000Y177500D02*
D03*
X182500Y197500D02*
D03*
X195000Y250000D02*
D03*
X185000Y232500D02*
D03*
X125000Y201000D02*
D03*
X117500D02*
D03*
X110000D02*
D03*
X125000Y172500D02*
D03*
X117500D02*
D03*
X110000D02*
D03*
D56*
X639740Y483000D02*
D03*
X632260D02*
D03*
X435500Y226000D02*
D03*
X428020D02*
D03*
X449240D02*
D03*
X441760D02*
D03*
X463240D02*
D03*
X455760D02*
D03*
X428020Y286500D02*
D03*
X435500D02*
D03*
X188740Y250000D02*
D03*
X181260D02*
D03*
X218760Y162500D02*
D03*
X226240D02*
D03*
X173760Y177500D02*
D03*
X181240D02*
D03*
X651543Y170000D02*
D03*
X659024D02*
D03*
X595827Y175500D02*
D03*
X603307D02*
D03*
X514543Y226000D02*
D03*
X522024D02*
D03*
X540260Y181000D02*
D03*
X547740D02*
D03*
X483260Y188000D02*
D03*
X490740D02*
D03*
X516740Y391000D02*
D03*
X509260D02*
D03*
X660240Y418000D02*
D03*
X652760D02*
D03*
X629740Y379500D02*
D03*
X622260D02*
D03*
X603240Y424000D02*
D03*
X595760D02*
D03*
X572240Y386000D02*
D03*
X564760D02*
D03*
X547740Y429000D02*
D03*
X540260D02*
D03*
X401760Y289000D02*
D03*
X409240D02*
D03*
X401760Y296500D02*
D03*
X409240D02*
D03*
X400760Y271500D02*
D03*
X408240D02*
D03*
X400760Y264000D02*
D03*
X408240D02*
D03*
X401760Y226000D02*
D03*
X409240D02*
D03*
X395740D02*
D03*
X388260D02*
D03*
X366760Y230000D02*
D03*
X374240D02*
D03*
X366760Y222500D02*
D03*
X374240D02*
D03*
X360740Y230000D02*
D03*
X353260D02*
D03*
X360740Y222500D02*
D03*
X353260D02*
D03*
X342740Y256500D02*
D03*
X335260D02*
D03*
X342740Y249000D02*
D03*
X335260D02*
D03*
X192260Y418500D02*
D03*
X199740D02*
D03*
X205740Y401500D02*
D03*
X198260D02*
D03*
X173240Y366000D02*
D03*
X165760D02*
D03*
X198760Y346500D02*
D03*
X206240D02*
D03*
X182740Y401500D02*
D03*
X175260D02*
D03*
X355260Y385500D02*
D03*
X362740D02*
D03*
X362240Y403500D02*
D03*
X354760D02*
D03*
X571760Y235000D02*
D03*
X579240D02*
D03*
X485240Y246500D02*
D03*
X477760D02*
D03*
X492740Y435000D02*
D03*
X485260D02*
D03*
X461740Y397000D02*
D03*
X454260D02*
D03*
X306260Y165000D02*
D03*
X313740D02*
D03*
X238760Y182500D02*
D03*
X246240D02*
D03*
X276260Y316000D02*
D03*
X283740D02*
D03*
X208740Y207500D02*
D03*
X201260D02*
D03*
X690024Y208000D02*
D03*
X682543D02*
D03*
X634807Y214173D02*
D03*
X627327D02*
D03*
X578524Y219673D02*
D03*
X571043D02*
D03*
X318760Y227500D02*
D03*
X326240D02*
D03*
X466740Y348000D02*
D03*
X459260D02*
D03*
D57*
X639193Y452984D02*
D03*
Y455543D02*
D03*
Y458102D02*
D03*
Y460661D02*
D03*
Y463221D02*
D03*
Y465779D02*
D03*
Y468339D02*
D03*
Y470898D02*
D03*
Y473457D02*
D03*
Y476016D02*
D03*
X615807Y452984D02*
D03*
Y455543D02*
D03*
Y458102D02*
D03*
Y460661D02*
D03*
Y463221D02*
D03*
Y465779D02*
D03*
Y468339D02*
D03*
Y470898D02*
D03*
Y473457D02*
D03*
Y476016D02*
D03*
D58*
X687000Y455000D02*
D03*
X110000Y489500D02*
D03*
X650500Y140000D02*
D03*
X144000Y143500D02*
D03*
D59*
X316988Y195000D02*
D03*
X328012D02*
D03*
X275512Y327500D02*
D03*
X264488D02*
D03*
X190512Y217500D02*
D03*
X179488D02*
D03*
D60*
X607437Y206000D02*
D03*
Y201000D02*
D03*
Y196000D02*
D03*
Y191000D02*
D03*
X628697Y206000D02*
D03*
Y201000D02*
D03*
Y196000D02*
D03*
Y191000D02*
D03*
X213130Y140000D02*
D03*
Y145000D02*
D03*
Y150000D02*
D03*
Y155000D02*
D03*
X191870Y140000D02*
D03*
Y145000D02*
D03*
Y150000D02*
D03*
Y155000D02*
D03*
X663154Y200500D02*
D03*
Y195500D02*
D03*
Y190500D02*
D03*
Y185500D02*
D03*
X684413Y200500D02*
D03*
Y195500D02*
D03*
Y190500D02*
D03*
Y185500D02*
D03*
X551653Y211500D02*
D03*
Y206500D02*
D03*
Y201500D02*
D03*
Y196500D02*
D03*
X572913Y211500D02*
D03*
Y206500D02*
D03*
Y201500D02*
D03*
Y196500D02*
D03*
X494654Y218500D02*
D03*
Y213500D02*
D03*
Y208500D02*
D03*
Y203500D02*
D03*
X515913Y218500D02*
D03*
Y213500D02*
D03*
Y208500D02*
D03*
Y203500D02*
D03*
X536130Y398500D02*
D03*
Y403500D02*
D03*
Y408500D02*
D03*
Y413500D02*
D03*
X514870Y398500D02*
D03*
Y403500D02*
D03*
Y408500D02*
D03*
Y413500D02*
D03*
X648630Y387500D02*
D03*
Y392500D02*
D03*
Y397500D02*
D03*
Y402500D02*
D03*
X627370Y387500D02*
D03*
Y392500D02*
D03*
Y397500D02*
D03*
Y402500D02*
D03*
X591630Y393500D02*
D03*
Y398500D02*
D03*
Y403500D02*
D03*
Y408500D02*
D03*
X570370Y393500D02*
D03*
Y398500D02*
D03*
Y403500D02*
D03*
Y408500D02*
D03*
X350370Y252500D02*
D03*
Y247500D02*
D03*
Y242500D02*
D03*
Y237500D02*
D03*
X371630Y252500D02*
D03*
Y247500D02*
D03*
Y242500D02*
D03*
Y237500D02*
D03*
X494000Y254000D02*
D03*
Y259000D02*
D03*
Y264000D02*
D03*
Y269000D02*
D03*
X472740Y254000D02*
D03*
Y259000D02*
D03*
Y264000D02*
D03*
Y269000D02*
D03*
X481130Y404500D02*
D03*
Y409500D02*
D03*
Y414500D02*
D03*
Y419500D02*
D03*
X459870Y404500D02*
D03*
Y409500D02*
D03*
Y414500D02*
D03*
Y419500D02*
D03*
X261122Y255000D02*
D03*
Y260000D02*
D03*
Y265000D02*
D03*
Y270000D02*
D03*
X239862Y255000D02*
D03*
Y260000D02*
D03*
Y265000D02*
D03*
Y270000D02*
D03*
X171870Y207500D02*
D03*
Y202500D02*
D03*
Y197500D02*
D03*
Y192500D02*
D03*
X193130Y207500D02*
D03*
Y202500D02*
D03*
Y197500D02*
D03*
Y192500D02*
D03*
D61*
X303051Y203740D02*
D03*
Y196260D02*
D03*
X222500Y153740D02*
D03*
Y146260D02*
D03*
X604500Y460740D02*
D03*
Y453260D02*
D03*
X524784Y204760D02*
D03*
Y212240D02*
D03*
X618500Y401240D02*
D03*
Y393760D02*
D03*
X561500Y407240D02*
D03*
Y399760D02*
D03*
X506000Y412240D02*
D03*
Y404760D02*
D03*
X409000Y390839D02*
D03*
Y383358D02*
D03*
X378500Y390740D02*
D03*
Y383260D02*
D03*
X382500Y350740D02*
D03*
Y343260D02*
D03*
X374000Y343260D02*
D03*
Y350740D02*
D03*
X348500Y343260D02*
D03*
Y350740D02*
D03*
X330786Y343323D02*
D03*
Y350803D02*
D03*
X322098Y343224D02*
D03*
Y350705D02*
D03*
X419000Y253740D02*
D03*
Y246260D02*
D03*
X424500Y343260D02*
D03*
Y350740D02*
D03*
X407500Y360260D02*
D03*
Y367740D02*
D03*
X510500Y269240D02*
D03*
Y261760D02*
D03*
X451000Y418240D02*
D03*
Y410760D02*
D03*
X232500Y316240D02*
D03*
Y308760D02*
D03*
Y301240D02*
D03*
Y293760D02*
D03*
X261417Y238760D02*
D03*
Y246240D02*
D03*
X217500Y184409D02*
D03*
Y191890D02*
D03*
X693284Y194240D02*
D03*
Y186760D02*
D03*
X637567Y199740D02*
D03*
Y192260D02*
D03*
X581783Y205240D02*
D03*
Y197760D02*
D03*
D62*
X424937Y467000D02*
D03*
X417063D02*
D03*
X424937Y457000D02*
D03*
X417063D02*
D03*
X211437Y162500D02*
D03*
X203563D02*
D03*
X173563Y170000D02*
D03*
X181437D02*
D03*
X180886Y162500D02*
D03*
X173012D02*
D03*
X180886Y155000D02*
D03*
X173012D02*
D03*
X203563Y132500D02*
D03*
X211437D02*
D03*
X196437D02*
D03*
X188563D02*
D03*
X622937Y446500D02*
D03*
X615063D02*
D03*
X636937D02*
D03*
X629063D02*
D03*
X651445Y178000D02*
D03*
X659319D02*
D03*
X595728Y183500D02*
D03*
X603602D02*
D03*
X594630Y213598D02*
D03*
X602504D02*
D03*
X539945Y189000D02*
D03*
X547819D02*
D03*
X482945Y196000D02*
D03*
X490819D02*
D03*
X496347Y226098D02*
D03*
X504220D02*
D03*
X481847D02*
D03*
X489720D02*
D03*
X534437Y390902D02*
D03*
X526563D02*
D03*
X418063Y196057D02*
D03*
X425937D02*
D03*
X383563D02*
D03*
X391437D02*
D03*
X646937Y379902D02*
D03*
X639063D02*
D03*
X661437D02*
D03*
X653563D02*
D03*
X660437Y410000D02*
D03*
X652563D02*
D03*
X604437Y385902D02*
D03*
X596563D02*
D03*
X603339Y416000D02*
D03*
X595465D02*
D03*
X590437Y385500D02*
D03*
X582563D02*
D03*
X548937Y390902D02*
D03*
X541063D02*
D03*
X547839Y421000D02*
D03*
X539965D02*
D03*
X409437Y332500D02*
D03*
X401563D02*
D03*
X363563Y329000D02*
D03*
X371437D02*
D03*
X363563Y321500D02*
D03*
X371437D02*
D03*
X363563Y314000D02*
D03*
X371437D02*
D03*
X363563Y306500D02*
D03*
X371437D02*
D03*
X379937Y288000D02*
D03*
X372063D02*
D03*
X335063Y287500D02*
D03*
X342937D02*
D03*
X335063Y280000D02*
D03*
X342937D02*
D03*
X335063Y272500D02*
D03*
X342937D02*
D03*
X335063Y265000D02*
D03*
X342937D02*
D03*
X292687Y181476D02*
D03*
X284813D02*
D03*
X261437Y277500D02*
D03*
X253563D02*
D03*
X269437Y285000D02*
D03*
X261563D02*
D03*
X241063Y292500D02*
D03*
X248937D02*
D03*
X179937Y418500D02*
D03*
X172063D02*
D03*
X164063Y390000D02*
D03*
X171937D02*
D03*
Y382000D02*
D03*
X164063D02*
D03*
X295937Y431500D02*
D03*
X288063D02*
D03*
X295937Y423500D02*
D03*
X288063D02*
D03*
X308063D02*
D03*
X315937D02*
D03*
X330937D02*
D03*
X323063D02*
D03*
X342563D02*
D03*
X350437D02*
D03*
X339063Y385260D02*
D03*
X346937D02*
D03*
X362874Y393500D02*
D03*
X355000D02*
D03*
X346937D02*
D03*
X339063D02*
D03*
X346937Y403500D02*
D03*
X339063D02*
D03*
X308063Y431500D02*
D03*
X315937D02*
D03*
X330937D02*
D03*
X323063D02*
D03*
X342563D02*
D03*
X350437D02*
D03*
X339063Y411760D02*
D03*
X346937D02*
D03*
X365000Y431500D02*
D03*
X357126D02*
D03*
X362197Y411500D02*
D03*
X354323D02*
D03*
X381063Y423500D02*
D03*
X388937D02*
D03*
X381063Y431500D02*
D03*
X388937D02*
D03*
X403437Y423500D02*
D03*
X395563D02*
D03*
X403437Y431500D02*
D03*
X395563D02*
D03*
X414563Y424000D02*
D03*
X422437D02*
D03*
X416063Y431500D02*
D03*
X423937D02*
D03*
X364874Y423500D02*
D03*
X357000D02*
D03*
X606063Y239000D02*
D03*
X613937D02*
D03*
X606063Y231500D02*
D03*
X613937D02*
D03*
X606937Y316000D02*
D03*
X599063D02*
D03*
X606937Y325000D02*
D03*
X599063D02*
D03*
X606937Y334500D02*
D03*
X599063D02*
D03*
X606937Y344000D02*
D03*
X599063D02*
D03*
X587437Y316000D02*
D03*
X579563D02*
D03*
X587437Y325000D02*
D03*
X579563D02*
D03*
X587437Y334500D02*
D03*
X579563D02*
D03*
X587437Y344000D02*
D03*
X579563D02*
D03*
X501563Y246500D02*
D03*
X509437D02*
D03*
X501563Y254500D02*
D03*
X509437D02*
D03*
X490437Y276500D02*
D03*
X482563D02*
D03*
X490437Y284500D02*
D03*
X482563D02*
D03*
X492937Y427000D02*
D03*
X485063D02*
D03*
X493937Y396902D02*
D03*
X486063D02*
D03*
X479437D02*
D03*
X471563D02*
D03*
X246437Y277500D02*
D03*
X238563D02*
D03*
X201063Y192500D02*
D03*
X208937D02*
D03*
X201063Y200000D02*
D03*
X208937D02*
D03*
X201063Y185000D02*
D03*
X208937D02*
D03*
X170591D02*
D03*
X178465D02*
D03*
X192500D02*
D03*
X184626D02*
D03*
X672720Y208000D02*
D03*
X664847D02*
D03*
X617004Y213598D02*
D03*
X609130D02*
D03*
X658220Y208098D02*
D03*
X650347D02*
D03*
X561221Y219098D02*
D03*
X553346D02*
D03*
X546437Y221000D02*
D03*
X538563D02*
D03*
X188563Y162500D02*
D03*
X196437D02*
D03*
D63*
X404626Y147224D02*
D03*
X420374D02*
D03*
Y187776D02*
D03*
X404626D02*
D03*
X370126Y147224D02*
D03*
X385874D02*
D03*
Y187776D02*
D03*
X370126D02*
D03*
D64*
X463000Y275783D02*
D03*
X458000D02*
D03*
X453000D02*
D03*
X448000D02*
D03*
X443000D02*
D03*
X438000D02*
D03*
X433000D02*
D03*
X428000D02*
D03*
X463000Y236216D02*
D03*
X458000D02*
D03*
X453000D02*
D03*
X448000D02*
D03*
X443000D02*
D03*
X438000D02*
D03*
X433000D02*
D03*
X428000D02*
D03*
X240000Y301772D02*
D03*
X245000D02*
D03*
X250000D02*
D03*
X255000D02*
D03*
X240000Y323228D02*
D03*
X245000D02*
D03*
X250000D02*
D03*
X255000D02*
D03*
D65*
X217500Y206988D02*
D03*
Y218012D02*
D03*
X230000Y256988D02*
D03*
Y268012D02*
D03*
X221063Y256988D02*
D03*
Y268012D02*
D03*
X212500Y256988D02*
D03*
Y268012D02*
D03*
X164000Y412488D02*
D03*
Y423512D02*
D03*
D66*
X284095Y150000D02*
D03*
X245905D02*
D03*
D67*
X669783Y170500D02*
D03*
X665728Y178965D02*
D03*
X673839D02*
D03*
X614067Y176000D02*
D03*
X610012Y184465D02*
D03*
X618122D02*
D03*
X558284Y181500D02*
D03*
X554228Y189965D02*
D03*
X562339D02*
D03*
X501284Y188500D02*
D03*
X497228Y196965D02*
D03*
X505339D02*
D03*
X642000Y417500D02*
D03*
X646055Y409035D02*
D03*
X637945D02*
D03*
X529500Y428500D02*
D03*
X533555Y420035D02*
D03*
X525445D02*
D03*
X474500Y434500D02*
D03*
X478555Y426035D02*
D03*
X470445D02*
D03*
X580945Y415035D02*
D03*
X589055D02*
D03*
X585000Y423500D02*
D03*
D68*
X647000Y197051D02*
D03*
Y190949D02*
D03*
X591500Y203051D02*
D03*
Y196949D02*
D03*
X535500Y208051D02*
D03*
Y201949D02*
D03*
X477783Y215051D02*
D03*
Y208949D02*
D03*
X665500Y390949D02*
D03*
Y397051D02*
D03*
X608500Y396949D02*
D03*
Y403051D02*
D03*
X552000Y401949D02*
D03*
Y408051D02*
D03*
X225000Y312500D02*
D03*
Y318602D02*
D03*
Y300551D02*
D03*
Y294449D02*
D03*
X496000Y407949D02*
D03*
Y414051D02*
D03*
D69*
X637500Y169890D02*
D03*
Y181110D02*
D03*
X582067Y176390D02*
D03*
Y187610D02*
D03*
X526284Y181890D02*
D03*
Y193110D02*
D03*
X561500Y429110D02*
D03*
Y417890D02*
D03*
X674000Y417110D02*
D03*
Y405890D02*
D03*
X617000Y423110D02*
D03*
Y411890D02*
D03*
X506500Y434110D02*
D03*
Y422890D02*
D03*
X469283Y200110D02*
D03*
Y188890D02*
D03*
D70*
X375551Y196500D02*
D03*
X369449D02*
D03*
X404949D02*
D03*
X411051D02*
D03*
D71*
X667500Y265071D02*
D03*
Y298929D02*
D03*
Y359929D02*
D03*
Y326071D02*
D03*
X182500Y316929D02*
D03*
Y283071D02*
D03*
D72*
X406000Y255630D02*
D03*
X401000D02*
D03*
X396000D02*
D03*
X391000D02*
D03*
X406000Y234370D02*
D03*
X401000D02*
D03*
X396000D02*
D03*
X391000D02*
D03*
X270000Y203130D02*
D03*
X265000D02*
D03*
X260000D02*
D03*
X255000D02*
D03*
X270000Y181870D02*
D03*
X265000D02*
D03*
X260000D02*
D03*
X255000D02*
D03*
D73*
X366457Y287811D02*
D03*
X363898D02*
D03*
X361339D02*
D03*
X358780D02*
D03*
X356221D02*
D03*
X353661D02*
D03*
X351102D02*
D03*
X348543D02*
D03*
X366457Y264189D02*
D03*
X363898D02*
D03*
X361339D02*
D03*
X358780D02*
D03*
X356221D02*
D03*
X353661D02*
D03*
X351102D02*
D03*
X348543D02*
D03*
X377543Y305689D02*
D03*
X380102D02*
D03*
X382661D02*
D03*
X385221D02*
D03*
X387779D02*
D03*
X390339D02*
D03*
X392898D02*
D03*
X395457D02*
D03*
X377543Y329311D02*
D03*
X380102D02*
D03*
X382661D02*
D03*
X385221D02*
D03*
X387779D02*
D03*
X390339D02*
D03*
X392898D02*
D03*
X395457D02*
D03*
D74*
X268012Y212579D02*
D03*
X256988D02*
D03*
X204012Y410000D02*
D03*
X192988D02*
D03*
X172988D02*
D03*
X184012D02*
D03*
X163488Y357500D02*
D03*
X174512D02*
D03*
X205512Y337500D02*
D03*
X194488D02*
D03*
X173988Y346500D02*
D03*
X185012D02*
D03*
X173988Y337500D02*
D03*
X185012D02*
D03*
X315512Y185000D02*
D03*
X304488D02*
D03*
X315512Y175000D02*
D03*
X304488D02*
D03*
X329488Y185000D02*
D03*
X340512D02*
D03*
X329488Y175000D02*
D03*
X340512D02*
D03*
X329488Y164213D02*
D03*
X340512D02*
D03*
X256988Y222500D02*
D03*
X268012D02*
D03*
X283012Y307500D02*
D03*
X271988D02*
D03*
X283012Y298500D02*
D03*
X271988D02*
D03*
X294488Y316500D02*
D03*
X305512D02*
D03*
X294488Y298500D02*
D03*
X305512D02*
D03*
X294488Y307500D02*
D03*
X305512D02*
D03*
D75*
X297500Y281299D02*
D03*
Y243701D02*
D03*
D76*
X222500Y390858D02*
D03*
Y357000D02*
D03*
D77*
X138201Y435500D02*
D03*
X150799D02*
D03*
X138201Y453500D02*
D03*
X150799D02*
D03*
X125299Y435500D02*
D03*
X112701D02*
D03*
X125299Y453740D02*
D03*
X112701D02*
D03*
X274098Y431500D02*
D03*
X261500D02*
D03*
X246299D02*
D03*
X233701D02*
D03*
X218799D02*
D03*
X206201D02*
D03*
X190799Y432000D02*
D03*
X178201D02*
D03*
D78*
X112500Y228012D02*
D03*
Y216988D02*
D03*
D79*
X198957Y385614D02*
D03*
X196398D02*
D03*
X193839D02*
D03*
X191279D02*
D03*
X188721D02*
D03*
X186161D02*
D03*
X183602D02*
D03*
X181043D02*
D03*
X198957Y362386D02*
D03*
X196398D02*
D03*
X193839D02*
D03*
X191279D02*
D03*
X188721D02*
D03*
X186161D02*
D03*
X183602D02*
D03*
X181043D02*
D03*
D80*
X190000Y374000D02*
D03*
D81*
X174272Y242500D02*
D03*
Y237500D02*
D03*
Y232500D02*
D03*
Y227500D02*
D03*
X195728Y242500D02*
D03*
Y237500D02*
D03*
Y232500D02*
D03*
Y227500D02*
D03*
X333228Y205000D02*
D03*
Y210000D02*
D03*
Y215000D02*
D03*
Y220000D02*
D03*
X311772Y205000D02*
D03*
Y210000D02*
D03*
Y215000D02*
D03*
Y220000D02*
D03*
D82*
X250374Y242500D02*
D03*
X234626D02*
D03*
D83*
X129941Y250000D02*
D03*
X160059D02*
D03*
D84*
X416260Y134000D02*
D03*
X398740D02*
D03*
D85*
X132500Y222500D02*
D03*
X148051D02*
D03*
D86*
X151929Y187500D02*
D03*
X118071D02*
D03*
D87*
X242500Y194626D02*
D03*
Y210374D02*
D03*
D88*
X112500Y239705D02*
D03*
Y257224D02*
D03*
D89*
X405500Y457000D02*
D03*
Y467000D02*
D03*
Y477000D02*
D03*
X444500Y180500D02*
D03*
Y190500D02*
D03*
X431000Y388000D02*
D03*
X421000D02*
D03*
X431000Y399000D02*
D03*
X421000D02*
D03*
X431000Y410500D02*
D03*
X421000D02*
D03*
X578000Y466000D02*
D03*
Y456000D02*
D03*
X589500Y466000D02*
D03*
Y456000D02*
D03*
X476000Y482500D02*
D03*
Y472500D02*
D03*
D90*
X377000Y448200D02*
D03*
X365200D02*
D03*
Y460000D02*
D03*
X377000D02*
D03*
X353400D02*
D03*
X341600D02*
D03*
Y448200D02*
D03*
X353400D02*
D03*
X478600Y162800D02*
D03*
X490400D02*
D03*
Y151000D02*
D03*
X478600D02*
D03*
X455000D02*
D03*
X466800D02*
D03*
Y162800D02*
D03*
X455000D02*
D03*
X607000Y151500D02*
D03*
Y163300D02*
D03*
X302700Y448200D02*
D03*
X290900D02*
D03*
Y460000D02*
D03*
X302700D02*
D03*
X184600Y448200D02*
D03*
X172800D02*
D03*
Y460000D02*
D03*
X184600D02*
D03*
X279100D02*
D03*
X196400D02*
D03*
Y448200D02*
D03*
X208200D02*
D03*
X208000Y460000D02*
D03*
X267200D02*
D03*
X231800D02*
D03*
X243600D02*
D03*
X220000D02*
D03*
X255400D02*
D03*
Y448200D02*
D03*
X220000D02*
D03*
X243600D02*
D03*
X231800D02*
D03*
X267200D02*
D03*
X279100D02*
D03*
X151800Y333600D02*
D03*
X140000D02*
D03*
Y321600D02*
D03*
X151800Y321800D02*
D03*
Y310000D02*
D03*
X140000D02*
D03*
Y298200D02*
D03*
Y285900D02*
D03*
X151800D02*
D03*
Y298200D02*
D03*
Y386400D02*
D03*
Y374600D02*
D03*
X140000D02*
D03*
Y386400D02*
D03*
Y410000D02*
D03*
Y398200D02*
D03*
X151800D02*
D03*
Y410000D02*
D03*
X559400Y163300D02*
D03*
X571700D02*
D03*
Y151500D02*
D03*
X559400D02*
D03*
X547600D02*
D03*
Y163300D02*
D03*
X535800D02*
D03*
X536000Y151500D02*
D03*
X524000D02*
D03*
Y163300D02*
D03*
X511900Y450200D02*
D03*
X499600D02*
D03*
Y462000D02*
D03*
X511900D02*
D03*
X523700D02*
D03*
Y450200D02*
D03*
X535500D02*
D03*
X535300Y462000D02*
D03*
X547300D02*
D03*
Y450200D02*
D03*
D91*
X368500Y477000D02*
D03*
X350000D02*
D03*
X482000Y134000D02*
D03*
X463500D02*
D03*
X607000Y134500D02*
D03*
X181200Y477000D02*
D03*
X294200D02*
D03*
X122500Y324600D02*
D03*
X123000Y294300D02*
D03*
Y383000D02*
D03*
Y401500D02*
D03*
X563300Y134500D02*
D03*
X533000Y134000D02*
D03*
X508000Y479000D02*
D03*
X538300Y479500D02*
D03*
D92*
X125000Y475000D02*
D03*
X675000D02*
D03*
X124500Y150000D02*
D03*
X674500D02*
D03*
D93*
X458000Y304000D02*
D03*
Y364000D02*
D03*
D94*
X468000Y304000D02*
D03*
Y364000D02*
D03*
X478000Y304000D02*
D03*
Y364000D02*
D03*
X488000Y304000D02*
D03*
Y364000D02*
D03*
X498000Y304000D02*
D03*
Y364000D02*
D03*
X508000Y304000D02*
D03*
Y364000D02*
D03*
X518000Y304000D02*
D03*
Y364000D02*
D03*
X528000Y304000D02*
D03*
Y364000D02*
D03*
X538000Y304000D02*
D03*
Y364000D02*
D03*
X548000Y304000D02*
D03*
Y364000D02*
D03*
X558000Y304000D02*
D03*
Y364000D02*
D03*
X568000Y304000D02*
D03*
Y364000D02*
D03*
X578000Y304000D02*
D03*
Y364000D02*
D03*
X588000Y304000D02*
D03*
Y364000D02*
D03*
X598000Y304000D02*
D03*
Y364000D02*
D03*
M02*
