G04*
G04 #@! TF.GenerationSoftware,Altium Limited,Altium Designer,19.1.8 (144)*
G04*
G04 Layer_Physical_Order=4*
G04 Layer_Color=16711680*
%FSLAX25Y25*%
%MOIN*%
G70*
G01*
G75*
%ADD10C,0.01000*%
%ADD19C,0.03000*%
%ADD95C,0.00800*%
%ADD96C,0.00700*%
%ADD99C,0.02000*%
%ADD101C,0.07087*%
%ADD102C,0.07000*%
%ADD103C,0.14800*%
%ADD104C,0.19685*%
%ADD105R,0.06024X0.06024*%
%ADD106C,0.06024*%
G36*
X694500Y485000D02*
Y208949D01*
X694025Y208855D01*
X693198Y208302D01*
X692645Y207475D01*
X692451Y206500D01*
X692645Y205524D01*
X693198Y204698D01*
X694025Y204145D01*
X694500Y204050D01*
Y172772D01*
X694000Y172504D01*
X693475Y172855D01*
X692500Y173049D01*
X691525Y172855D01*
X690698Y172302D01*
X690145Y171476D01*
X689951Y170500D01*
X690145Y169525D01*
X690698Y168698D01*
X691525Y168145D01*
X692500Y167951D01*
X693475Y168145D01*
X694000Y168496D01*
X694500Y168228D01*
Y132000D01*
X683000Y120500D01*
X586049D01*
X585855Y121476D01*
X585302Y122302D01*
X584476Y122855D01*
X583500Y123049D01*
X582524Y122855D01*
X581698Y122302D01*
X581413Y121876D01*
X413624D01*
X409500Y126000D01*
Y147500D01*
X417500Y155500D01*
X418601D01*
X418761Y155261D01*
X419588Y154708D01*
X420563Y154514D01*
X421538Y154708D01*
X422365Y155261D01*
X422525Y155500D01*
X452798D01*
X452898Y155000D01*
X452731Y154931D01*
X451791Y154209D01*
X451069Y153269D01*
X450616Y152175D01*
X450461Y151000D01*
X450616Y149825D01*
X451069Y148731D01*
X451791Y147791D01*
X452731Y147069D01*
X453825Y146616D01*
X455000Y146461D01*
X456175Y146616D01*
X457269Y147069D01*
X458209Y147791D01*
X458931Y148731D01*
X459384Y149825D01*
X459539Y151000D01*
X459384Y152175D01*
X458931Y153269D01*
X458209Y154209D01*
X457269Y154931D01*
X457102Y155000D01*
X457202Y155500D01*
X464598D01*
X464698Y155000D01*
X464531Y154931D01*
X463591Y154209D01*
X462869Y153269D01*
X462416Y152175D01*
X462261Y151000D01*
X462416Y149825D01*
X462869Y148731D01*
X463591Y147791D01*
X464531Y147069D01*
X465625Y146616D01*
X466800Y146461D01*
X467975Y146616D01*
X469069Y147069D01*
X470009Y147791D01*
X470731Y148731D01*
X471184Y149825D01*
X471339Y151000D01*
X471184Y152175D01*
X470731Y153269D01*
X470009Y154209D01*
X469069Y154931D01*
X468902Y155000D01*
X469002Y155500D01*
X470500D01*
X474775Y159775D01*
X475274Y159742D01*
X475391Y159591D01*
X476331Y158869D01*
X477425Y158416D01*
X478600Y158261D01*
X479775Y158416D01*
X480869Y158869D01*
X481809Y159591D01*
X482531Y160531D01*
X482984Y161625D01*
X483139Y162800D01*
X482984Y163975D01*
X482531Y165069D01*
X481809Y166009D01*
X480869Y166731D01*
X479775Y167184D01*
X478600Y167339D01*
X477425Y167184D01*
X476331Y166731D01*
X475948Y166437D01*
X475500Y166659D01*
Y169500D01*
X474500D01*
X457000Y187000D01*
Y220000D01*
X474500Y237500D01*
X532588D01*
Y229563D01*
X532198Y229302D01*
X531645Y228475D01*
X531451Y227500D01*
X531645Y226524D01*
X532198Y225698D01*
X533025Y225145D01*
X534000Y224951D01*
X534975Y225145D01*
X535802Y225698D01*
X536355Y226524D01*
X536549Y227500D01*
X536355Y228475D01*
X535802Y229302D01*
X535443Y229543D01*
Y237500D01*
X540573D01*
Y217053D01*
X540198Y216802D01*
X539645Y215975D01*
X539451Y215000D01*
X539645Y214024D01*
X540198Y213198D01*
X541024Y212645D01*
X542000Y212451D01*
X542976Y212645D01*
X543802Y213198D01*
X544355Y214024D01*
X544549Y215000D01*
X544355Y215975D01*
X543802Y216802D01*
X543427Y217053D01*
Y237500D01*
X577481D01*
X597073Y217909D01*
Y210553D01*
X596698Y210302D01*
X596145Y209475D01*
X595951Y208500D01*
X596145Y207524D01*
X596698Y206698D01*
X597524Y206145D01*
X598500Y205951D01*
X599475Y206145D01*
X600302Y206698D01*
X600855Y207524D01*
X601049Y208500D01*
X600855Y209475D01*
X600302Y210302D01*
X599927Y210553D01*
Y218500D01*
X599927Y218500D01*
X599819Y219046D01*
X599509Y219509D01*
X599509Y219509D01*
X581981Y237038D01*
X582172Y237500D01*
X587553D01*
X598051Y227002D01*
X597951Y226500D01*
X598145Y225524D01*
X598698Y224698D01*
X599524Y224145D01*
X600500Y223951D01*
X601475Y224145D01*
X602302Y224698D01*
X602855Y225524D01*
X603049Y226500D01*
X602855Y227476D01*
X602302Y228302D01*
X601475Y228855D01*
X600500Y229049D01*
X599998Y228949D01*
X591909Y237038D01*
X592100Y237500D01*
X638000D01*
X647959Y247459D01*
X648000Y247451D01*
X648976Y247645D01*
X649802Y248198D01*
X650355Y249025D01*
X650549Y250000D01*
X650355Y250975D01*
X649802Y251802D01*
X648976Y252355D01*
X648500Y252449D01*
Y372103D01*
X649000Y372370D01*
X649150Y372270D01*
X650125Y372076D01*
X651100Y372270D01*
X651927Y372823D01*
X652480Y373650D01*
X652674Y374625D01*
X652480Y375601D01*
X651927Y376427D01*
X651100Y376980D01*
X650125Y377174D01*
X649150Y376980D01*
X648323Y376427D01*
X647770Y375601D01*
X647576Y374625D01*
X647699Y374008D01*
X647238Y373762D01*
X642000Y379000D01*
X631519D01*
X629409Y381109D01*
X628946Y381419D01*
X628400Y381527D01*
X628400Y381527D01*
X618553D01*
X618317Y381968D01*
X618355Y382025D01*
X618549Y383000D01*
X618355Y383976D01*
X617802Y384802D01*
X616975Y385355D01*
X616000Y385549D01*
X615025Y385355D01*
X614198Y384802D01*
X613645Y383976D01*
X613451Y383000D01*
X613645Y382025D01*
X613683Y381968D01*
X613447Y381527D01*
X608491D01*
X607509Y382509D01*
X607046Y382819D01*
X606500Y382927D01*
X606500Y382927D01*
X587500D01*
X587500Y382927D01*
X586954Y382819D01*
X586491Y382509D01*
X586491Y382509D01*
X585009Y381027D01*
X575103D01*
X572621Y383509D01*
X572158Y383819D01*
X571612Y383927D01*
X571612Y383927D01*
X558553D01*
X558302Y384302D01*
X557476Y384855D01*
X556500Y385049D01*
X555524Y384855D01*
X554698Y384302D01*
X554145Y383475D01*
X553951Y382500D01*
X554145Y381524D01*
X554241Y381381D01*
X553991Y380855D01*
X553698Y380821D01*
X549609Y384909D01*
X549146Y385219D01*
X548600Y385327D01*
X548600Y385327D01*
X544799D01*
X544799Y385327D01*
X544252Y385219D01*
X543789Y384909D01*
X543789Y384909D01*
X541307Y382427D01*
X503553D01*
X503302Y382802D01*
X502476Y383355D01*
X501500Y383549D01*
X500525Y383355D01*
X499698Y382802D01*
X499145Y381976D01*
X498951Y381000D01*
X499145Y380025D01*
X499183Y379968D01*
X498947Y379527D01*
X493491D01*
X492461Y380558D01*
X492549Y381000D01*
X492355Y381976D01*
X491802Y382802D01*
X490976Y383355D01*
X490000Y383549D01*
X489024Y383355D01*
X488198Y382802D01*
X487645Y381976D01*
X487612Y381810D01*
X487285Y381675D01*
X487068Y381637D01*
X486620Y381727D01*
X479787D01*
X479261Y381622D01*
X478814Y381323D01*
X478814Y381323D01*
X478002Y380511D01*
X477500Y380611D01*
X476524Y380417D01*
X475698Y379865D01*
X475145Y379038D01*
X475138Y379000D01*
X473450D01*
X473355Y379475D01*
X472802Y380302D01*
X471976Y380855D01*
X471000Y381049D01*
X470024Y380855D01*
X469198Y380302D01*
X468645Y379475D01*
X468550Y379000D01*
X466360D01*
X465949Y379500D01*
X466049Y380000D01*
X465855Y380976D01*
X465302Y381802D01*
X464475Y382355D01*
X463500Y382549D01*
X462525Y382355D01*
X461698Y381802D01*
X461145Y380976D01*
X460951Y380000D01*
X461051Y379500D01*
X460640Y379000D01*
X458000D01*
X443500Y393500D01*
Y486000D01*
X449000Y491500D01*
X629728D01*
X629995Y491000D01*
X629645Y490476D01*
X629451Y489500D01*
X629645Y488524D01*
X630198Y487698D01*
X631025Y487145D01*
X632000Y486951D01*
X632975Y487145D01*
X633802Y487698D01*
X634355Y488524D01*
X634549Y489500D01*
X634355Y490476D01*
X634004Y491000D01*
X634272Y491500D01*
X688000D01*
X694500Y485000D01*
D02*
G37*
G36*
X437000Y486000D02*
Y449000D01*
X430000Y442000D01*
X279019D01*
X277509Y443509D01*
X277046Y443819D01*
X276500Y443927D01*
X276500Y443927D01*
X258045D01*
X257876Y444427D01*
X258609Y444991D01*
X259331Y445931D01*
X259784Y447025D01*
X259939Y448200D01*
X259784Y449375D01*
X259331Y450469D01*
X258609Y451409D01*
X257669Y452131D01*
X256575Y452584D01*
X255400Y452739D01*
X254225Y452584D01*
X253131Y452131D01*
X252191Y451409D01*
X251469Y450469D01*
X251016Y449375D01*
X250861Y448200D01*
X251016Y447025D01*
X251469Y445931D01*
X252191Y444991D01*
X252924Y444427D01*
X252755Y443927D01*
X252053D01*
X251802Y444302D01*
X250975Y444855D01*
X250000Y445049D01*
X249025Y444855D01*
X248198Y444302D01*
X247645Y443475D01*
X247451Y442500D01*
X247474Y442386D01*
X247156Y442000D01*
X216647D01*
X212302Y446344D01*
X212584Y447025D01*
X212739Y448200D01*
X212584Y449375D01*
X212131Y450469D01*
X211409Y451409D01*
X210469Y452131D01*
X209375Y452584D01*
X208200Y452739D01*
X207025Y452584D01*
X205931Y452131D01*
X204991Y451409D01*
X204269Y450469D01*
X203816Y449375D01*
X203661Y448200D01*
X203698Y447918D01*
X203250Y447697D01*
X202669Y448278D01*
X202222Y448576D01*
X201695Y448681D01*
X200875D01*
X200784Y449375D01*
X200331Y450469D01*
X199609Y451409D01*
X198669Y452131D01*
X197575Y452584D01*
X196400Y452739D01*
X195225Y452584D01*
X194131Y452131D01*
X193191Y451409D01*
X192469Y450469D01*
X192016Y449375D01*
X191861Y448200D01*
X192016Y447025D01*
X192469Y445931D01*
X193191Y444991D01*
X194131Y444269D01*
X195225Y443816D01*
X196400Y443661D01*
X197575Y443816D01*
X198669Y444269D01*
X199609Y444991D01*
X200329Y445928D01*
X201125D01*
X203715Y443338D01*
X203524Y442876D01*
X191870D01*
X188614Y446132D01*
X188984Y447025D01*
X189139Y448200D01*
X188984Y449375D01*
X188531Y450469D01*
X187809Y451409D01*
X186869Y452131D01*
X185775Y452584D01*
X184600Y452739D01*
X183425Y452584D01*
X182331Y452131D01*
X181391Y451409D01*
X180669Y450469D01*
X180216Y449375D01*
X180061Y448200D01*
X180216Y447025D01*
X180669Y445931D01*
X181391Y444991D01*
X182331Y444269D01*
X183425Y443816D01*
X184600Y443661D01*
X185775Y443816D01*
X186668Y444186D01*
X189215Y441638D01*
X189024Y441177D01*
X181770D01*
X176814Y446132D01*
X177184Y447025D01*
X177339Y448200D01*
X177184Y449375D01*
X176731Y450469D01*
X176009Y451409D01*
X175069Y452131D01*
X173975Y452584D01*
X172800Y452739D01*
X171625Y452584D01*
X170531Y452131D01*
X169591Y451409D01*
X168869Y450469D01*
X168416Y449375D01*
X168261Y448200D01*
X168416Y447025D01*
X168869Y445931D01*
X169591Y444991D01*
X170531Y444269D01*
X171625Y443816D01*
X172800Y443661D01*
X173975Y443816D01*
X174868Y444186D01*
X180227Y438827D01*
X180227Y438827D01*
X180673Y438528D01*
X181200Y438423D01*
X189770D01*
X189962Y437962D01*
X175500Y423500D01*
Y383447D01*
X174500Y382447D01*
X163973Y392973D01*
X163527Y393272D01*
X163000Y393376D01*
X161087D01*
X160802Y393802D01*
X159976Y394355D01*
X159000Y394549D01*
X158025Y394355D01*
X157198Y393802D01*
X156645Y392975D01*
X156451Y392000D01*
X156645Y391024D01*
X157198Y390198D01*
X158025Y389645D01*
X159000Y389451D01*
X159976Y389645D01*
X160802Y390198D01*
X161087Y390623D01*
X162430D01*
X173124Y379930D01*
Y375587D01*
X172698Y375302D01*
X172145Y374476D01*
X171951Y373500D01*
X172145Y372524D01*
X172698Y371698D01*
X173524Y371145D01*
X174500Y370951D01*
X175000Y371051D01*
X175500Y370640D01*
Y370000D01*
X167000Y361500D01*
X125672Y361500D01*
X125481Y361962D01*
X135009Y371491D01*
X135009Y371491D01*
X135319Y371954D01*
X135427Y372500D01*
X135874Y372662D01*
X135927Y372673D01*
X136069Y372331D01*
X136791Y371391D01*
X137731Y370669D01*
X138825Y370216D01*
X140000Y370061D01*
X141175Y370216D01*
X142269Y370669D01*
X143209Y371391D01*
X143931Y372331D01*
X144384Y373425D01*
X144539Y374600D01*
X144384Y375775D01*
X143931Y376869D01*
X143209Y377809D01*
X142269Y378531D01*
X141175Y378984D01*
X140000Y379139D01*
X138825Y378984D01*
X137731Y378531D01*
X136791Y377809D01*
X136069Y376869D01*
X135927Y376527D01*
X135427Y376626D01*
Y379809D01*
X137983Y382365D01*
X138825Y382016D01*
X140000Y381861D01*
X141175Y382016D01*
X142269Y382469D01*
X143209Y383191D01*
X143931Y384131D01*
X144384Y385225D01*
X144539Y386400D01*
X144384Y387575D01*
X143931Y388669D01*
X143209Y389609D01*
X142269Y390331D01*
X141175Y390784D01*
X140000Y390939D01*
X138825Y390784D01*
X137731Y390331D01*
X136791Y389609D01*
X136069Y388669D01*
X135616Y387575D01*
X135461Y386400D01*
X135616Y385225D01*
X135965Y384383D01*
X134089Y382508D01*
X133627Y382699D01*
Y389809D01*
X137983Y394165D01*
X138825Y393816D01*
X140000Y393661D01*
X141175Y393816D01*
X142269Y394269D01*
X143209Y394991D01*
X143931Y395931D01*
X144384Y397025D01*
X144539Y398200D01*
X144384Y399375D01*
X143931Y400469D01*
X143209Y401409D01*
X142269Y402131D01*
X141175Y402584D01*
X140000Y402739D01*
X138825Y402584D01*
X137731Y402131D01*
X136791Y401409D01*
X136069Y400469D01*
X135616Y399375D01*
X135461Y398200D01*
X135616Y397025D01*
X135965Y396183D01*
X131191Y391409D01*
X130881Y390946D01*
X130773Y390400D01*
X130773Y390400D01*
Y387307D01*
X130288Y387185D01*
X130018Y387689D01*
X128968Y388968D01*
X127689Y390018D01*
X126230Y390798D01*
X124647Y391279D01*
X123000Y391441D01*
X121353Y391279D01*
X119770Y390798D01*
X118311Y390018D01*
X117032Y388968D01*
X115982Y387689D01*
X115202Y386230D01*
X114722Y384647D01*
X114559Y383000D01*
X114722Y381353D01*
X115202Y379770D01*
X115982Y378311D01*
X117032Y377032D01*
X118311Y375982D01*
X119770Y375202D01*
X121353Y374722D01*
X123000Y374559D01*
X124647Y374722D01*
X126230Y375202D01*
X127689Y375982D01*
X128968Y377032D01*
X130018Y378311D01*
X130288Y378815D01*
X130773Y378693D01*
Y373837D01*
X118436Y361500D01*
X113500D01*
X105511Y369489D01*
X105000Y488500D01*
X113500Y497000D01*
X216382D01*
X216574Y496538D01*
X188463Y468427D01*
X179800D01*
X179254Y468319D01*
X178791Y468009D01*
X178791Y468009D01*
X174817Y464035D01*
X173975Y464384D01*
X172800Y464539D01*
X171625Y464384D01*
X170531Y463931D01*
X169591Y463209D01*
X168869Y462269D01*
X168416Y461175D01*
X168261Y460000D01*
X168416Y458825D01*
X168869Y457731D01*
X169591Y456791D01*
X170531Y456069D01*
X171625Y455616D01*
X172800Y455461D01*
X173975Y455616D01*
X175069Y456069D01*
X176009Y456791D01*
X176731Y457731D01*
X177184Y458825D01*
X177339Y460000D01*
X177184Y461175D01*
X176835Y462017D01*
X180391Y465573D01*
X187501D01*
X187692Y465111D01*
X186617Y464035D01*
X185775Y464384D01*
X184600Y464539D01*
X183425Y464384D01*
X182331Y463931D01*
X181391Y463209D01*
X180669Y462269D01*
X180216Y461175D01*
X180061Y460000D01*
X180216Y458825D01*
X180669Y457731D01*
X181391Y456791D01*
X182331Y456069D01*
X183425Y455616D01*
X184600Y455461D01*
X185775Y455616D01*
X186869Y456069D01*
X187809Y456791D01*
X188531Y457731D01*
X188984Y458825D01*
X189139Y460000D01*
X188984Y461175D01*
X188635Y462017D01*
X194511Y467892D01*
X194973Y467701D01*
Y464280D01*
X194131Y463931D01*
X193191Y463209D01*
X192469Y462269D01*
X192016Y461175D01*
X191861Y460000D01*
X192016Y458825D01*
X192469Y457731D01*
X193191Y456791D01*
X194131Y456069D01*
X195225Y455616D01*
X196400Y455461D01*
X197575Y455616D01*
X198669Y456069D01*
X199609Y456791D01*
X200331Y457731D01*
X200784Y458825D01*
X200939Y460000D01*
X200784Y461175D01*
X200331Y462269D01*
X199609Y463209D01*
X198669Y463931D01*
X197827Y464280D01*
Y467809D01*
X206111Y476092D01*
X206573Y475901D01*
Y464280D01*
X205731Y463931D01*
X204791Y463209D01*
X204069Y462269D01*
X203616Y461175D01*
X203461Y460000D01*
X203616Y458825D01*
X204069Y457731D01*
X204791Y456791D01*
X205731Y456069D01*
X206825Y455616D01*
X208000Y455461D01*
X209175Y455616D01*
X210269Y456069D01*
X211209Y456791D01*
X211931Y457731D01*
X212384Y458825D01*
X212539Y460000D01*
X212384Y461175D01*
X211931Y462269D01*
X211209Y463209D01*
X210269Y463931D01*
X209427Y464280D01*
Y476863D01*
X222237Y489673D01*
X308718D01*
X311073Y487318D01*
Y478553D01*
X310698Y478302D01*
X310145Y477476D01*
X309951Y476500D01*
X310145Y475525D01*
X310698Y474698D01*
X311525Y474145D01*
X312500Y473951D01*
X313475Y474145D01*
X314302Y474698D01*
X314855Y475525D01*
X315049Y476500D01*
X314855Y477476D01*
X314302Y478302D01*
X313927Y478553D01*
Y486355D01*
X314389Y486546D01*
X315573Y485363D01*
Y473553D01*
X315198Y473302D01*
X314645Y472475D01*
X314451Y471500D01*
X314645Y470525D01*
X315198Y469698D01*
X316024Y469145D01*
X317000Y468951D01*
X317975Y469145D01*
X318802Y469698D01*
X319355Y470525D01*
X319549Y471500D01*
X319355Y472475D01*
X318802Y473302D01*
X318427Y473553D01*
Y484401D01*
X318889Y484592D01*
X321073Y482409D01*
Y467553D01*
X320698Y467302D01*
X320145Y466475D01*
X319951Y465500D01*
X320145Y464525D01*
X320698Y463698D01*
X321525Y463145D01*
X322500Y462951D01*
X323476Y463145D01*
X324302Y463698D01*
X324855Y464525D01*
X325049Y465500D01*
X324855Y466475D01*
X324302Y467302D01*
X323927Y467553D01*
Y481446D01*
X324389Y481637D01*
X326573Y479454D01*
Y462053D01*
X326198Y461802D01*
X325645Y460976D01*
X325451Y460000D01*
X325645Y459024D01*
X326198Y458198D01*
X327025Y457645D01*
X328000Y457451D01*
X328976Y457645D01*
X329802Y458198D01*
X330355Y459024D01*
X330549Y460000D01*
X330355Y460976D01*
X329802Y461802D01*
X329427Y462053D01*
Y480046D01*
X329319Y480592D01*
X329009Y481055D01*
X329009Y481055D01*
X313526Y496538D01*
X313718Y497000D01*
X426000D01*
X437000Y486000D01*
D02*
G37*
G36*
X434000Y435500D02*
X434000Y415720D01*
X432500Y414796D01*
X432186Y414926D01*
X431000Y415083D01*
X429814Y414926D01*
X428709Y414469D01*
X427760Y413740D01*
X427031Y412791D01*
X426812Y412261D01*
X425188D01*
X424969Y412791D01*
X424240Y413740D01*
X423291Y414469D01*
X422186Y414926D01*
X421000Y415083D01*
X419814Y414926D01*
X418709Y414469D01*
X417760Y413740D01*
X417031Y412791D01*
X416574Y411686D01*
X416418Y410500D01*
X416574Y409314D01*
X417031Y408209D01*
X417760Y407260D01*
X418709Y406531D01*
X419814Y406074D01*
X421000Y405918D01*
X422186Y406074D01*
X423291Y406531D01*
X424240Y407260D01*
X424969Y408209D01*
X425188Y408739D01*
X426812D01*
X427031Y408209D01*
X427760Y407260D01*
X428709Y406531D01*
X429814Y406074D01*
X431000Y405918D01*
X432186Y406074D01*
X432292Y406118D01*
X433558Y405302D01*
Y404198D01*
X432292Y403382D01*
X432186Y403426D01*
X431000Y403582D01*
X429814Y403426D01*
X428709Y402969D01*
X427760Y402240D01*
X427031Y401291D01*
X426812Y400761D01*
X425188D01*
X424969Y401291D01*
X424240Y402240D01*
X423291Y402969D01*
X422186Y403426D01*
X421000Y403582D01*
X419814Y403426D01*
X418709Y402969D01*
X417760Y402240D01*
X417031Y401291D01*
X416574Y400186D01*
X416418Y399000D01*
X416574Y397814D01*
X417031Y396709D01*
X417760Y395760D01*
X418709Y395031D01*
X419814Y394574D01*
X421000Y394418D01*
X422186Y394574D01*
X423291Y395031D01*
X424240Y395760D01*
X424969Y396709D01*
X425188Y397239D01*
X426812D01*
X427031Y396709D01*
X427760Y395760D01*
X428709Y395031D01*
X429814Y394574D01*
X431000Y394418D01*
X431571Y394493D01*
X432827Y393599D01*
X432892Y393500D01*
X432827Y393402D01*
X431571Y392507D01*
X431000Y392583D01*
X429814Y392426D01*
X428709Y391969D01*
X427760Y391240D01*
X427031Y390291D01*
X426812Y389761D01*
X425188D01*
X424969Y390291D01*
X424240Y391240D01*
X423291Y391969D01*
X422186Y392426D01*
X421000Y392583D01*
X419814Y392426D01*
X418709Y391969D01*
X417760Y391240D01*
X417031Y390291D01*
X416574Y389186D01*
X416418Y388000D01*
X416574Y386814D01*
X417031Y385709D01*
X417760Y384760D01*
X418709Y384031D01*
X419814Y383574D01*
X421000Y383418D01*
X422186Y383574D01*
X423291Y384031D01*
X424240Y384760D01*
X424969Y385709D01*
X425188Y386239D01*
X426812D01*
X427031Y385709D01*
X427760Y384760D01*
X428709Y384031D01*
X429814Y383574D01*
X431000Y383418D01*
X432186Y383574D01*
X432500Y383704D01*
X434000Y382780D01*
Y378500D01*
X430500Y375000D01*
X372838D01*
X372302Y375802D01*
X371476Y376355D01*
X370500Y376549D01*
X369525Y376355D01*
X368698Y375802D01*
X368162Y375000D01*
X344246D01*
X344000Y375049D01*
X343754Y375000D01*
X328339D01*
X327802Y375802D01*
X326975Y376355D01*
X326000Y376549D01*
X325025Y376355D01*
X324198Y375802D01*
X323661Y375000D01*
X315734D01*
X315712Y375110D01*
X315160Y375937D01*
X314333Y376489D01*
X313357Y376683D01*
X312382Y376489D01*
X311555Y375937D01*
X311002Y375110D01*
X310980Y375000D01*
X263000D01*
X231500Y406500D01*
X214588D01*
X214208Y408000D01*
X214373Y408089D01*
X214475Y408145D01*
X214548Y408193D01*
X215302Y408698D01*
X215855Y409524D01*
X216049Y410500D01*
X215855Y411476D01*
X215302Y412302D01*
X214475Y412855D01*
X213500Y413049D01*
X212525Y412855D01*
X211698Y412302D01*
X211145Y411476D01*
X210951Y410500D01*
X211145Y409524D01*
X211698Y408698D01*
X212373Y408246D01*
X212525Y408145D01*
X212616Y408096D01*
X212792Y408000D01*
X212412Y406500D01*
X203500D01*
X193878Y396878D01*
X191917Y397008D01*
X191549Y397500D01*
X191355Y398476D01*
X190802Y399302D01*
X189976Y399855D01*
X189000Y400049D01*
X188024Y399855D01*
X187198Y399302D01*
X186645Y398476D01*
X186451Y397500D01*
X185329Y396000D01*
X183000D01*
X181000Y399000D01*
Y414837D01*
X185678Y419515D01*
X186000Y419451D01*
X186976Y419645D01*
X187802Y420198D01*
X188355Y421025D01*
X188549Y422000D01*
X188355Y422975D01*
X187802Y423802D01*
X186976Y424355D01*
X186000Y424549D01*
X185024Y424355D01*
X184198Y423802D01*
X183645Y422975D01*
X183451Y422000D01*
X183515Y421678D01*
X182386Y420549D01*
X181000Y421123D01*
Y425000D01*
X194424Y438423D01*
X203130D01*
X206064Y435489D01*
X205519Y433913D01*
X205225Y433855D01*
X204398Y433302D01*
X203846Y432476D01*
X203652Y431500D01*
X203846Y430524D01*
X204398Y429698D01*
X205225Y429145D01*
X206201Y428951D01*
X207176Y429145D01*
X208003Y429698D01*
X208173Y429951D01*
X209785Y430379D01*
X210050Y430348D01*
X210624Y429926D01*
Y420650D01*
X210728Y420123D01*
X211027Y419677D01*
X212527Y418177D01*
X212973Y417878D01*
X213500Y417773D01*
X220647D01*
X220698Y417698D01*
X221525Y417145D01*
X222500Y416951D01*
X223476Y417145D01*
X224302Y417698D01*
X224855Y418525D01*
X225049Y419500D01*
X224954Y419978D01*
X226336Y420717D01*
X227551Y419502D01*
X227451Y419000D01*
X227645Y418024D01*
X228198Y417198D01*
X229025Y416645D01*
X230000Y416451D01*
X230976Y416645D01*
X231802Y417198D01*
X232355Y418024D01*
X232549Y419000D01*
X232355Y419976D01*
X231802Y420802D01*
X230976Y421355D01*
X230000Y421549D01*
X229498Y421449D01*
X213832Y437114D01*
X214406Y438500D01*
X216253D01*
X235501Y419252D01*
X235451Y419000D01*
X235645Y418024D01*
X236198Y417198D01*
X237024Y416645D01*
X238000Y416451D01*
X238976Y416645D01*
X239802Y417198D01*
X240355Y418024D01*
X240549Y419000D01*
X240355Y419976D01*
X239802Y420802D01*
X238976Y421355D01*
X238000Y421549D01*
X237247Y421399D01*
X221532Y437114D01*
X222107Y438500D01*
X278481D01*
X280539Y436442D01*
X280451Y436000D01*
X280645Y435024D01*
X281198Y434198D01*
X282025Y433645D01*
X283000Y433451D01*
X283976Y433645D01*
X284802Y434198D01*
X285355Y435024D01*
X285549Y436000D01*
X285355Y436975D01*
X285338Y437000D01*
X286140Y438500D01*
X431000Y438500D01*
X434000Y435500D01*
D02*
G37*
G36*
X186459Y344041D02*
X186451Y344000D01*
X186645Y343024D01*
X187198Y342198D01*
X188024Y341645D01*
X189000Y341451D01*
X189041Y341459D01*
X196000Y334500D01*
Y300447D01*
X158527Y262973D01*
X158228Y262527D01*
X158154Y262154D01*
X157500Y261500D01*
Y129500D01*
X150000Y122000D01*
X145447D01*
X129473Y137973D01*
X129027Y138272D01*
X128500Y138376D01*
X110974D01*
X108526Y140824D01*
Y256080D01*
X117498Y265051D01*
X118000Y264951D01*
X118975Y265145D01*
X119802Y265698D01*
X120355Y266525D01*
X120549Y267500D01*
X120355Y268476D01*
X119802Y269302D01*
X118975Y269855D01*
X118000Y270049D01*
X117025Y269855D01*
X116198Y269302D01*
X115645Y268476D01*
X115451Y267500D01*
X115551Y266998D01*
X107288Y258735D01*
X106826Y258926D01*
Y327380D01*
X117070Y337624D01*
X134030D01*
X135986Y335668D01*
X135616Y334775D01*
X135461Y333600D01*
X135616Y332425D01*
X136069Y331331D01*
X136791Y330391D01*
X137731Y329669D01*
X138825Y329216D01*
X140000Y329061D01*
X141175Y329216D01*
X142269Y329669D01*
X143209Y330391D01*
X143931Y331331D01*
X144384Y332425D01*
X144539Y333600D01*
X144384Y334775D01*
X143931Y335869D01*
X143209Y336809D01*
X142269Y337531D01*
X141175Y337984D01*
X140000Y338139D01*
X138825Y337984D01*
X137932Y337614D01*
X135573Y339973D01*
X135127Y340272D01*
X134600Y340376D01*
X116500D01*
X115973Y340272D01*
X115527Y339973D01*
X105962Y330409D01*
X105500Y330600D01*
Y341981D01*
X121519Y358000D01*
X172500D01*
X186459Y344041D01*
D02*
G37*
G36*
X325754Y371500D02*
X326000Y371451D01*
X326246Y371500D01*
X341662D01*
X342198Y370698D01*
X343024Y370145D01*
X344000Y369951D01*
X344975Y370145D01*
X345802Y370698D01*
X346339Y371500D01*
X370254Y371500D01*
X370500Y371451D01*
X370746Y371500D01*
X445500D01*
X447500Y369500D01*
X447527Y369527D01*
X448677Y368377D01*
X449123Y368078D01*
X449650Y367973D01*
X465609D01*
X465937Y367529D01*
X465937Y367474D01*
X465139Y366861D01*
X464496Y366023D01*
X464091Y365047D01*
X463954Y364000D01*
X464091Y362953D01*
X464496Y361977D01*
X465139Y361139D01*
X465977Y360496D01*
X466953Y360091D01*
X468000Y359954D01*
X469047Y360091D01*
X470023Y360496D01*
X470861Y361139D01*
X471504Y361977D01*
X471909Y362953D01*
X472046Y364000D01*
X471909Y365047D01*
X471504Y366023D01*
X470861Y366861D01*
X470063Y367474D01*
X470063Y367529D01*
X470392Y367973D01*
X475608D01*
X475937Y367529D01*
X475937Y367474D01*
X475139Y366861D01*
X474496Y366023D01*
X474091Y365047D01*
X473954Y364000D01*
X474091Y362953D01*
X474496Y361977D01*
X475139Y361139D01*
X475977Y360496D01*
X476953Y360091D01*
X478000Y359954D01*
X479047Y360091D01*
X480023Y360496D01*
X480861Y361139D01*
X481504Y361977D01*
X481909Y362953D01*
X482046Y364000D01*
X481909Y365047D01*
X481504Y366023D01*
X480861Y366861D01*
X480063Y367474D01*
X480063Y367529D01*
X480392Y367973D01*
X485608D01*
X485937Y367529D01*
X485937Y367474D01*
X485139Y366861D01*
X484496Y366023D01*
X484091Y365047D01*
X483954Y364000D01*
X484091Y362953D01*
X484496Y361977D01*
X485139Y361139D01*
X485977Y360496D01*
X486953Y360091D01*
X488000Y359954D01*
X489047Y360091D01*
X490023Y360496D01*
X490861Y361139D01*
X491504Y361977D01*
X491909Y362953D01*
X492046Y364000D01*
X491909Y365047D01*
X491504Y366023D01*
X490861Y366861D01*
X490063Y367474D01*
X490063Y367529D01*
X490391Y367973D01*
X495609D01*
X495937Y367529D01*
X495937Y367474D01*
X495139Y366861D01*
X494496Y366023D01*
X494091Y365047D01*
X493954Y364000D01*
X494091Y362953D01*
X494496Y361977D01*
X495139Y361139D01*
X495977Y360496D01*
X496953Y360091D01*
X498000Y359954D01*
X499047Y360091D01*
X500023Y360496D01*
X500861Y361139D01*
X501504Y361977D01*
X501909Y362953D01*
X502046Y364000D01*
X501909Y365047D01*
X501504Y366023D01*
X500861Y366861D01*
X500063Y367474D01*
X500063Y367529D01*
X500391Y367973D01*
X505609D01*
X505937Y367529D01*
X505937Y367474D01*
X505139Y366861D01*
X504496Y366023D01*
X504091Y365047D01*
X503954Y364000D01*
X504091Y362953D01*
X504496Y361977D01*
X505139Y361139D01*
X505977Y360496D01*
X506953Y360091D01*
X508000Y359954D01*
X509047Y360091D01*
X510023Y360496D01*
X510861Y361139D01*
X511504Y361977D01*
X511909Y362953D01*
X512046Y364000D01*
X511909Y365047D01*
X511504Y366023D01*
X510861Y366861D01*
X510063Y367474D01*
X510063Y367529D01*
X510392Y367973D01*
X515609D01*
X515937Y367529D01*
X515937Y367474D01*
X515139Y366861D01*
X514496Y366023D01*
X514091Y365047D01*
X513954Y364000D01*
X514091Y362953D01*
X514496Y361977D01*
X515139Y361139D01*
X515977Y360496D01*
X516953Y360091D01*
X518000Y359954D01*
X519047Y360091D01*
X520023Y360496D01*
X520861Y361139D01*
X521124Y361481D01*
X521624Y361311D01*
Y360587D01*
X521198Y360302D01*
X520645Y359475D01*
X520451Y358500D01*
X520645Y357524D01*
X521198Y356698D01*
X522024Y356145D01*
X523000Y355951D01*
X523976Y356145D01*
X524802Y356698D01*
X525355Y357524D01*
X525549Y358500D01*
X525355Y359475D01*
X524802Y360302D01*
X524376Y360587D01*
Y361311D01*
X524876Y361481D01*
X525139Y361139D01*
X525977Y360496D01*
X526953Y360091D01*
X528000Y359954D01*
X529047Y360091D01*
X530023Y360496D01*
X530861Y361139D01*
X531504Y361977D01*
X531909Y362953D01*
X532046Y364000D01*
X531909Y365047D01*
X531504Y366023D01*
X530861Y366861D01*
X530023Y367504D01*
X529047Y367909D01*
X528000Y368046D01*
X526953Y367909D01*
X525977Y367504D01*
X525139Y366861D01*
X524876Y366519D01*
X524376Y366689D01*
Y367500D01*
X524376Y367500D01*
X524272Y368027D01*
X523973Y368473D01*
X523973Y368473D01*
X523236Y369211D01*
X523427Y369673D01*
X539809D01*
X541573Y367909D01*
Y366756D01*
X541073Y366586D01*
X540861Y366861D01*
X540023Y367504D01*
X539047Y367909D01*
X538000Y368046D01*
X536953Y367909D01*
X535977Y367504D01*
X535139Y366861D01*
X534496Y366023D01*
X534091Y365047D01*
X533954Y364000D01*
X534091Y362953D01*
X534496Y361977D01*
X535139Y361139D01*
X535977Y360496D01*
X536953Y360091D01*
X538000Y359954D01*
X539047Y360091D01*
X540023Y360496D01*
X540187Y360621D01*
X540614Y360319D01*
X540451Y359500D01*
X540645Y358524D01*
X541198Y357698D01*
X542025Y357145D01*
X543000Y356951D01*
X543975Y357145D01*
X544802Y357698D01*
X545355Y358524D01*
X545549Y359500D01*
X545386Y360319D01*
X545813Y360621D01*
X545977Y360496D01*
X546953Y360091D01*
X548000Y359954D01*
X549047Y360091D01*
X550023Y360496D01*
X550861Y361139D01*
X551504Y361977D01*
X551909Y362953D01*
X552046Y364000D01*
X551909Y365047D01*
X551504Y366023D01*
X550861Y366861D01*
X550023Y367504D01*
X549047Y367909D01*
X548000Y368046D01*
X546953Y367909D01*
X545977Y367504D01*
X545139Y366861D01*
X544927Y366586D01*
X544427Y366756D01*
Y368500D01*
X544427Y368500D01*
X544319Y369046D01*
X544009Y369509D01*
X544009Y369509D01*
X543481Y370038D01*
X543672Y370500D01*
X546077D01*
X547187Y369391D01*
X547187Y369391D01*
X547650Y369081D01*
X548196Y368973D01*
X561009D01*
X564338Y365643D01*
X564091Y365047D01*
X563954Y364000D01*
X564091Y362953D01*
X564496Y361977D01*
X565139Y361139D01*
X565977Y360496D01*
X566953Y360091D01*
X568000Y359954D01*
X569047Y360091D01*
X570023Y360496D01*
X570861Y361139D01*
X571504Y361977D01*
X571909Y362953D01*
X572046Y364000D01*
X571909Y365047D01*
X571580Y365841D01*
X571984Y366172D01*
X572024Y366145D01*
X573000Y365951D01*
X573976Y366145D01*
X574016Y366172D01*
X574420Y365841D01*
X574091Y365047D01*
X573954Y364000D01*
X574091Y362953D01*
X574496Y361977D01*
X575139Y361139D01*
X575977Y360496D01*
X576953Y360091D01*
X578000Y359954D01*
X579047Y360091D01*
X580023Y360496D01*
X580861Y361139D01*
X581504Y361977D01*
X581909Y362953D01*
X582046Y364000D01*
X581909Y365047D01*
X581504Y366023D01*
X580861Y366861D01*
X580023Y367504D01*
X579047Y367909D01*
X578000Y368046D01*
X576953Y367909D01*
X575977Y367504D01*
X575813Y367379D01*
X575386Y367681D01*
X575549Y368500D01*
X575355Y369476D01*
X575004Y370000D01*
X575272Y370500D01*
X584987D01*
X586961Y368527D01*
X587102Y368432D01*
X586980Y367912D01*
X586953Y367909D01*
X585977Y367504D01*
X585139Y366861D01*
X584496Y366023D01*
X584091Y365047D01*
X583954Y364000D01*
X584091Y362953D01*
X584496Y361977D01*
X585139Y361139D01*
X585977Y360496D01*
X586953Y360091D01*
X588000Y359954D01*
X589047Y360091D01*
X590023Y360496D01*
X590861Y361139D01*
X591504Y361977D01*
X591909Y362953D01*
X592046Y364000D01*
X591909Y365047D01*
X591504Y366023D01*
X590861Y366861D01*
X590023Y367504D01*
X589735Y367623D01*
X589835Y368124D01*
X591930D01*
X594359Y365694D01*
X594091Y365047D01*
X593954Y364000D01*
X594091Y362953D01*
X594496Y361977D01*
X595139Y361139D01*
X595977Y360496D01*
X596953Y360091D01*
X598000Y359954D01*
X599047Y360091D01*
X600023Y360496D01*
X600861Y361139D01*
X601504Y361977D01*
X601909Y362953D01*
X602046Y364000D01*
X601909Y365047D01*
X601504Y366023D01*
X600861Y366861D01*
X600023Y367504D01*
X599047Y367909D01*
X598000Y368046D01*
X596953Y367909D01*
X596306Y367641D01*
X594586Y369361D01*
X594777Y369823D01*
X605659D01*
X614539Y360942D01*
X614451Y360500D01*
X614645Y359524D01*
X615198Y358698D01*
X616024Y358145D01*
X617000Y357951D01*
X617976Y358145D01*
X618802Y358698D01*
X619355Y359524D01*
X619549Y360500D01*
X619493Y360781D01*
X619954Y361027D01*
X620491Y360491D01*
X620491Y360491D01*
X620954Y360181D01*
X621500Y360073D01*
X621500Y360073D01*
X625447D01*
X625698Y359698D01*
X626524Y359145D01*
X627500Y358951D01*
X628476Y359145D01*
X629302Y359698D01*
X629855Y360525D01*
X630049Y361500D01*
X629975Y361871D01*
X630436Y362118D01*
X632527Y360027D01*
X632527Y360027D01*
X632973Y359728D01*
X633500Y359624D01*
X633500Y359624D01*
X638413D01*
X638698Y359198D01*
X639525Y358645D01*
X640500Y358451D01*
X641475Y358645D01*
X642302Y359198D01*
X642855Y360024D01*
X643049Y361000D01*
X642855Y361976D01*
X642302Y362802D01*
X641475Y363355D01*
X640500Y363549D01*
X639525Y363355D01*
X638698Y362802D01*
X638413Y362376D01*
X634070D01*
X633158Y363289D01*
X633477Y363677D01*
X633525Y363645D01*
X634500Y363451D01*
X635475Y363645D01*
X636302Y364198D01*
X636855Y365024D01*
X637049Y366000D01*
X636855Y366975D01*
X636302Y367802D01*
X635475Y368355D01*
X634500Y368549D01*
X634058Y368461D01*
X632481Y370038D01*
X632672Y370500D01*
X635451D01*
X635645Y369525D01*
X636198Y368698D01*
X637024Y368145D01*
X638000Y367951D01*
X638975Y368145D01*
X639802Y368698D01*
X640258Y368742D01*
X646500Y362500D01*
Y277796D01*
X646000Y277746D01*
X645855Y278475D01*
X645302Y279302D01*
X644476Y279855D01*
X643500Y280049D01*
X642524Y279855D01*
X641698Y279302D01*
X641145Y278475D01*
X640951Y277500D01*
X641145Y276524D01*
X641698Y275698D01*
X642524Y275145D01*
X643254Y275000D01*
X643204Y274500D01*
X624500Y274500D01*
X599332Y299668D01*
X599449Y300258D01*
X600023Y300496D01*
X600861Y301139D01*
X601504Y301977D01*
X601909Y302953D01*
X602046Y304000D01*
X601909Y305047D01*
X601504Y306023D01*
X600861Y306861D01*
X600023Y307504D01*
X599427Y307751D01*
Y321385D01*
X599322Y321911D01*
X599023Y322358D01*
X596358Y325023D01*
X595911Y325322D01*
X595385Y325427D01*
X585146D01*
X585146Y325427D01*
X584619Y325322D01*
X584172Y325023D01*
X584172Y325023D01*
X581226Y322077D01*
X504296D01*
X503911Y322000D01*
X495477D01*
X492654Y324823D01*
X492207Y325122D01*
X491680Y325226D01*
X460301D01*
X459774Y325122D01*
X459327Y324823D01*
X444880Y310377D01*
X358587D01*
X358302Y310802D01*
X357475Y311355D01*
X356500Y311549D01*
X355524Y311355D01*
X354698Y310802D01*
X354145Y309976D01*
X353951Y309000D01*
X354145Y308025D01*
X354578Y307377D01*
X354347Y306876D01*
X340043D01*
X331865Y314887D01*
X248610Y315890D01*
X234500Y330000D01*
X234500Y343000D01*
X263000Y371500D01*
X325754D01*
D02*
G37*
G36*
X250594Y285500D02*
X251168Y284114D01*
X225527Y258473D01*
X225228Y258027D01*
X225124Y257500D01*
Y215587D01*
X224698Y215302D01*
X224145Y214475D01*
X223951Y213500D01*
X224145Y212525D01*
X224698Y211698D01*
X225524Y211145D01*
X226500Y210951D01*
X227123Y211075D01*
X228231Y210462D01*
X228624Y210108D01*
Y204070D01*
X226002Y201449D01*
X225500Y201549D01*
X224524Y201355D01*
X223698Y200802D01*
X223145Y199976D01*
X222951Y199000D01*
X223145Y198024D01*
X223698Y197198D01*
X224524Y196645D01*
X225500Y196451D01*
X226476Y196645D01*
X227302Y197198D01*
X227855Y198024D01*
X228049Y199000D01*
X227949Y199502D01*
X230973Y202527D01*
X231272Y202973D01*
X231377Y203500D01*
Y257930D01*
X258420Y284974D01*
X345080D01*
X351956Y278097D01*
X351956Y278097D01*
X352403Y277799D01*
X352929Y277694D01*
X352930Y277694D01*
X354534D01*
X354690Y277268D01*
X354784Y276194D01*
X354198Y275802D01*
X353645Y274975D01*
X353451Y274000D01*
X353645Y273025D01*
X354198Y272198D01*
X355025Y271645D01*
X356000Y271451D01*
X356976Y271645D01*
X357802Y272198D01*
X358355Y273025D01*
X358549Y274000D01*
X358355Y274975D01*
X357802Y275802D01*
X357216Y276194D01*
X357310Y277268D01*
X357466Y277694D01*
X361060D01*
X362299Y277076D01*
X362596Y276269D01*
X362645Y276025D01*
X363198Y275198D01*
X364024Y274645D01*
X365000Y274451D01*
X365975Y274645D01*
X366802Y275198D01*
X367355Y276025D01*
X367450Y276504D01*
X374070Y283123D01*
X421469D01*
X421996Y283228D01*
X422443Y283527D01*
X424416Y285500D01*
X433527D01*
Y246443D01*
X407150Y220066D01*
X405302Y220302D01*
X404475Y220855D01*
X403500Y221049D01*
X402525Y220855D01*
X401698Y220302D01*
X401145Y219476D01*
X400951Y218500D01*
X400698Y218173D01*
X398802D01*
X398549Y218500D01*
X398355Y219476D01*
X397802Y220302D01*
X396975Y220855D01*
X396000Y221049D01*
X395024Y220855D01*
X394198Y220302D01*
X393645Y219476D01*
X393451Y218500D01*
X392311Y217026D01*
X366487D01*
X366302Y217302D01*
X365476Y217855D01*
X364500Y218049D01*
X363525Y217855D01*
X362698Y217302D01*
X362145Y216476D01*
X361951Y215500D01*
X362145Y214525D01*
X362698Y213698D01*
X363525Y213145D01*
X364500Y212951D01*
X365476Y213145D01*
X366302Y213698D01*
X366687Y214274D01*
X368708D01*
X369422Y213285D01*
X369605Y212773D01*
X369451Y212000D01*
X369645Y211024D01*
X370198Y210198D01*
X371024Y209645D01*
X372000Y209451D01*
X372975Y209645D01*
X373802Y210198D01*
X374053Y210573D01*
X376074D01*
X376403Y210235D01*
X377065Y209073D01*
X376951Y208500D01*
X377145Y207524D01*
X377698Y206698D01*
X378524Y206145D01*
X379500Y205951D01*
X380475Y206145D01*
X381302Y206698D01*
X381553Y207073D01*
X414500D01*
X414500Y207073D01*
X415046Y207181D01*
X415509Y207491D01*
X449009Y240991D01*
X449009Y240991D01*
X449319Y241454D01*
X449427Y242000D01*
Y258447D01*
X449802Y258698D01*
X450355Y259524D01*
X450549Y260500D01*
X450355Y261475D01*
X449802Y262302D01*
X448976Y262855D01*
X448000Y263049D01*
X447024Y262855D01*
X446198Y262302D01*
X445645Y261475D01*
X445451Y260500D01*
X445645Y259524D01*
X446198Y258698D01*
X446573Y258447D01*
Y242591D01*
X440827Y236845D01*
X439579Y237429D01*
X439427Y237567D01*
Y257947D01*
X439802Y258198D01*
X440355Y259025D01*
X440549Y260000D01*
X440355Y260976D01*
X439802Y261802D01*
X438975Y262355D01*
X438000Y262549D01*
X437780Y262505D01*
X436280Y263524D01*
Y285500D01*
X450000D01*
X473000Y262500D01*
Y237442D01*
X456279Y220721D01*
X456058Y220390D01*
X455980Y220000D01*
Y187000D01*
X456058Y186610D01*
X456279Y186279D01*
X473000Y169558D01*
Y160000D01*
X470000Y157000D01*
X413500D01*
X407000Y150500D01*
X407000Y122000D01*
X223588Y122000D01*
X223208Y123500D01*
X223373Y123590D01*
X223476Y123645D01*
X223548Y123693D01*
X224302Y124198D01*
X224855Y125024D01*
X225049Y126000D01*
X224855Y126976D01*
X224302Y127802D01*
X223476Y128355D01*
X222500Y128549D01*
X221525Y128355D01*
X220698Y127802D01*
X220145Y126976D01*
X219951Y126000D01*
X220145Y125024D01*
X220698Y124198D01*
X221373Y123746D01*
X221525Y123645D01*
X221616Y123596D01*
X221792Y123500D01*
X221412Y122000D01*
X167000D01*
X160000Y129000D01*
Y132594D01*
X161386Y133168D01*
X169027Y125527D01*
X169473Y125228D01*
X170000Y125124D01*
X200830D01*
X200948Y124948D01*
X201775Y124395D01*
X202750Y124201D01*
X203726Y124395D01*
X204552Y124948D01*
X205105Y125775D01*
X205299Y126750D01*
X205105Y127726D01*
X204552Y128552D01*
X203726Y129105D01*
X202750Y129299D01*
X201775Y129105D01*
X200948Y128552D01*
X200496Y127876D01*
X170570D01*
X163903Y134544D01*
X163926Y134803D01*
X164494Y136074D01*
X165007Y136177D01*
X165834Y136729D01*
X166386Y137556D01*
X166580Y138531D01*
X166386Y139507D01*
X165834Y140334D01*
X165007Y140886D01*
X164032Y141080D01*
X163056Y140886D01*
X162376Y140432D01*
X161693Y140602D01*
X160876Y141009D01*
Y180217D01*
X162262Y180791D01*
X165551Y177502D01*
X165451Y177000D01*
X165645Y176024D01*
X166198Y175198D01*
X167025Y174645D01*
X168000Y174451D01*
X168975Y174645D01*
X169802Y175198D01*
X170355Y176024D01*
X170549Y177000D01*
X170355Y177975D01*
X169802Y178802D01*
X168975Y179355D01*
X168000Y179549D01*
X167498Y179449D01*
X162576Y184370D01*
Y257576D01*
X165738Y260738D01*
X167124Y260164D01*
Y252000D01*
X167228Y251473D01*
X167527Y251027D01*
X168051Y250502D01*
X167951Y250000D01*
X168145Y249025D01*
X168698Y248198D01*
X169525Y247645D01*
X170500Y247451D01*
X171476Y247645D01*
X172302Y248198D01*
X172855Y249025D01*
X173049Y250000D01*
X172855Y250975D01*
X172302Y251802D01*
X171476Y252355D01*
X170500Y252549D01*
X169876Y253954D01*
Y264877D01*
X190500Y285500D01*
X250594D01*
D02*
G37*
G36*
X141092Y122462D02*
X140900Y122000D01*
X113000D01*
X105500Y129500D01*
Y131328D01*
X105962Y131519D01*
X108539Y128942D01*
X108451Y128500D01*
X108645Y127524D01*
X109198Y126698D01*
X110024Y126145D01*
X111000Y125951D01*
X111976Y126145D01*
X112802Y126698D01*
X113355Y127524D01*
X113549Y128500D01*
X113355Y129475D01*
X112802Y130302D01*
X112706Y130367D01*
X112851Y130845D01*
X115220D01*
X115470Y130470D01*
X116297Y129918D01*
X117273Y129724D01*
X118248Y129918D01*
X119075Y130470D01*
X119628Y131297D01*
X119822Y132273D01*
X119628Y133248D01*
X119590Y133305D01*
X119825Y133746D01*
X123307D01*
X127051Y130002D01*
X126951Y129500D01*
X127145Y128524D01*
X127698Y127698D01*
X128524Y127145D01*
X129500Y126951D01*
X130475Y127145D01*
X131302Y127698D01*
X131855Y128524D01*
X132049Y129500D01*
X131855Y130475D01*
X131302Y131302D01*
X130475Y131855D01*
X129500Y132049D01*
X128998Y131949D01*
X125785Y135162D01*
X125976Y135624D01*
X127930D01*
X141092Y122462D01*
D02*
G37*
%LPC*%
G36*
X645500Y485549D02*
X644524Y485355D01*
X643698Y484802D01*
X643145Y483976D01*
X642951Y483000D01*
X643145Y482024D01*
X643698Y481198D01*
X644524Y480645D01*
X645500Y480451D01*
X646476Y480645D01*
X647302Y481198D01*
X647855Y482024D01*
X648049Y483000D01*
X647855Y483976D01*
X647302Y484802D01*
X646476Y485355D01*
X645500Y485549D01*
D02*
G37*
G36*
X476000Y487082D02*
X474814Y486926D01*
X473709Y486469D01*
X472760Y485740D01*
X472031Y484791D01*
X471574Y483686D01*
X471418Y482500D01*
X471574Y481314D01*
X472031Y480209D01*
X472760Y479260D01*
X473709Y478531D01*
X474814Y478074D01*
X476000Y477917D01*
X477186Y478074D01*
X478291Y478531D01*
X479240Y479260D01*
X479969Y480209D01*
X480426Y481314D01*
X480583Y482500D01*
X480426Y483686D01*
X479969Y484791D01*
X479240Y485740D01*
X478291Y486469D01*
X477186Y486926D01*
X476000Y487082D01*
D02*
G37*
G36*
X538300Y487941D02*
X536653Y487779D01*
X535070Y487298D01*
X533611Y486518D01*
X532332Y485468D01*
X531282Y484189D01*
X530502Y482730D01*
X530021Y481147D01*
X529859Y479500D01*
X530021Y477853D01*
X530502Y476270D01*
X531282Y474811D01*
X532332Y473532D01*
X533611Y472482D01*
X535070Y471702D01*
X536653Y471221D01*
X538300Y471059D01*
X539947Y471221D01*
X541530Y471702D01*
X542989Y472482D01*
X544268Y473532D01*
X545318Y474811D01*
X546098Y476270D01*
X546579Y477853D01*
X546741Y479500D01*
X546579Y481147D01*
X546098Y482730D01*
X545318Y484189D01*
X544268Y485468D01*
X542989Y486518D01*
X541530Y487298D01*
X539947Y487779D01*
X538300Y487941D01*
D02*
G37*
G36*
X508000Y487441D02*
X506353Y487279D01*
X504770Y486798D01*
X503311Y486018D01*
X502032Y484968D01*
X500982Y483689D01*
X500202Y482230D01*
X499721Y480647D01*
X499559Y479000D01*
X499721Y477353D01*
X500202Y475770D01*
X500982Y474311D01*
X502032Y473032D01*
X503311Y471982D01*
X504770Y471202D01*
X506353Y470721D01*
X508000Y470559D01*
X509647Y470721D01*
X511230Y471202D01*
X512689Y471982D01*
X513968Y473032D01*
X515018Y474311D01*
X515798Y475770D01*
X516279Y477353D01*
X516441Y479000D01*
X516279Y480647D01*
X515798Y482230D01*
X515018Y483689D01*
X513968Y484968D01*
X512689Y486018D01*
X511230Y486798D01*
X509647Y487279D01*
X508000Y487441D01*
D02*
G37*
G36*
X476000Y477082D02*
X474814Y476926D01*
X473709Y476469D01*
X472760Y475740D01*
X472031Y474791D01*
X471574Y473686D01*
X471418Y472500D01*
X471574Y471314D01*
X472031Y470209D01*
X472760Y469260D01*
X473709Y468531D01*
X474814Y468074D01*
X476000Y467917D01*
X477186Y468074D01*
X478291Y468531D01*
X479240Y469260D01*
X479969Y470209D01*
X480426Y471314D01*
X480583Y472500D01*
X480426Y473686D01*
X479969Y474791D01*
X479240Y475740D01*
X478291Y476469D01*
X477186Y476926D01*
X476000Y477082D01*
D02*
G37*
G36*
X675000Y485876D02*
X673299Y485742D01*
X671639Y485344D01*
X670062Y484691D01*
X668607Y483799D01*
X667310Y482690D01*
X666201Y481393D01*
X665309Y479938D01*
X664656Y478361D01*
X664258Y476701D01*
X664124Y475000D01*
X664258Y473299D01*
X664656Y471639D01*
X665309Y470062D01*
X666201Y468607D01*
X667310Y467310D01*
X668607Y466201D01*
X670062Y465309D01*
X671639Y464656D01*
X673299Y464258D01*
X675000Y464124D01*
X676701Y464258D01*
X678361Y464656D01*
X679938Y465309D01*
X681393Y466201D01*
X682690Y467310D01*
X683799Y468607D01*
X684691Y470062D01*
X685344Y471639D01*
X685742Y473299D01*
X685876Y475000D01*
X685742Y476701D01*
X685344Y478361D01*
X684691Y479938D01*
X683799Y481393D01*
X682690Y482690D01*
X681393Y483799D01*
X679938Y484691D01*
X678361Y485344D01*
X676701Y485742D01*
X675000Y485876D01*
D02*
G37*
G36*
X589500Y470582D02*
X588314Y470426D01*
X587209Y469969D01*
X586260Y469240D01*
X585531Y468291D01*
X585074Y467186D01*
X584917Y466000D01*
X585074Y464814D01*
X585531Y463709D01*
X586260Y462760D01*
X587209Y462031D01*
X588314Y461574D01*
X589500Y461417D01*
X590686Y461574D01*
X591791Y462031D01*
X592740Y462760D01*
X593469Y463709D01*
X593926Y464814D01*
X594082Y466000D01*
X593926Y467186D01*
X593469Y468291D01*
X592740Y469240D01*
X591791Y469969D01*
X590686Y470426D01*
X589500Y470582D01*
D02*
G37*
G36*
X578000D02*
X576814Y470426D01*
X575709Y469969D01*
X574760Y469240D01*
X574031Y468291D01*
X573574Y467186D01*
X573418Y466000D01*
X573574Y464814D01*
X574031Y463709D01*
X574760Y462760D01*
X575709Y462031D01*
X576814Y461574D01*
X578000Y461417D01*
X579186Y461574D01*
X580291Y462031D01*
X581240Y462760D01*
X581969Y463709D01*
X582426Y464814D01*
X582583Y466000D01*
X582426Y467186D01*
X581969Y468291D01*
X581240Y469240D01*
X580291Y469969D01*
X579186Y470426D01*
X578000Y470582D01*
D02*
G37*
G36*
X623746Y463295D02*
X622771Y463101D01*
X621944Y462548D01*
X621391Y461722D01*
X621197Y460746D01*
X621391Y459771D01*
X621944Y458944D01*
X622771Y458391D01*
X623746Y458197D01*
X624721Y458391D01*
X625549Y458944D01*
X626101Y459771D01*
X626295Y460746D01*
X626101Y461722D01*
X625549Y462548D01*
X624721Y463101D01*
X623746Y463295D01*
D02*
G37*
G36*
X632000Y463049D02*
X631025Y462855D01*
X630198Y462302D01*
X629645Y461476D01*
X629451Y460500D01*
X629551Y459998D01*
X626527Y456973D01*
X626228Y456527D01*
X626124Y456000D01*
Y455087D01*
X625698Y454802D01*
X625145Y453975D01*
X624951Y453000D01*
X625145Y452025D01*
X625698Y451198D01*
X626524Y450645D01*
X627500Y450451D01*
X628476Y450645D01*
X629302Y451198D01*
X629855Y452025D01*
X630049Y453000D01*
X629855Y453975D01*
X629302Y454802D01*
X629022Y454990D01*
X628983Y455537D01*
X631498Y458051D01*
X632000Y457951D01*
X632975Y458145D01*
X633802Y458698D01*
X634355Y459524D01*
X634549Y460500D01*
X634355Y461476D01*
X633802Y462302D01*
X632975Y462855D01*
X632000Y463049D01*
D02*
G37*
G36*
X547300Y466539D02*
X546125Y466384D01*
X545031Y465931D01*
X544091Y465209D01*
X543369Y464269D01*
X542916Y463175D01*
X542761Y462000D01*
X542916Y460825D01*
X543369Y459731D01*
X544091Y458791D01*
X545031Y458069D01*
X546125Y457616D01*
X547300Y457461D01*
X548475Y457616D01*
X549569Y458069D01*
X550509Y458791D01*
X551231Y459731D01*
X551684Y460825D01*
X551839Y462000D01*
X551684Y463175D01*
X551231Y464269D01*
X550509Y465209D01*
X549569Y465931D01*
X548475Y466384D01*
X547300Y466539D01*
D02*
G37*
G36*
X535300D02*
X534125Y466384D01*
X533031Y465931D01*
X532091Y465209D01*
X531369Y464269D01*
X530916Y463175D01*
X530761Y462000D01*
X530916Y460825D01*
X531369Y459731D01*
X532091Y458791D01*
X533031Y458069D01*
X534125Y457616D01*
X535300Y457461D01*
X536475Y457616D01*
X537569Y458069D01*
X538509Y458791D01*
X539231Y459731D01*
X539684Y460825D01*
X539839Y462000D01*
X539684Y463175D01*
X539231Y464269D01*
X538509Y465209D01*
X537569Y465931D01*
X536475Y466384D01*
X535300Y466539D01*
D02*
G37*
G36*
X523700D02*
X522525Y466384D01*
X521431Y465931D01*
X520491Y465209D01*
X519769Y464269D01*
X519316Y463175D01*
X519161Y462000D01*
X519316Y460825D01*
X519769Y459731D01*
X520491Y458791D01*
X521431Y458069D01*
X522525Y457616D01*
X523700Y457461D01*
X524875Y457616D01*
X525969Y458069D01*
X526909Y458791D01*
X527631Y459731D01*
X528084Y460825D01*
X528239Y462000D01*
X528084Y463175D01*
X527631Y464269D01*
X526909Y465209D01*
X525969Y465931D01*
X524875Y466384D01*
X523700Y466539D01*
D02*
G37*
G36*
X511900D02*
X510725Y466384D01*
X509631Y465931D01*
X508691Y465209D01*
X507969Y464269D01*
X507516Y463175D01*
X507361Y462000D01*
X507516Y460825D01*
X507969Y459731D01*
X508691Y458791D01*
X509631Y458069D01*
X510725Y457616D01*
X511900Y457461D01*
X513075Y457616D01*
X514169Y458069D01*
X515109Y458791D01*
X515831Y459731D01*
X516284Y460825D01*
X516439Y462000D01*
X516284Y463175D01*
X515831Y464269D01*
X515109Y465209D01*
X514169Y465931D01*
X513075Y466384D01*
X511900Y466539D01*
D02*
G37*
G36*
X499600D02*
X498425Y466384D01*
X497331Y465931D01*
X496391Y465209D01*
X495669Y464269D01*
X495216Y463175D01*
X495061Y462000D01*
X495216Y460825D01*
X495669Y459731D01*
X496391Y458791D01*
X497331Y458069D01*
X498425Y457616D01*
X499600Y457461D01*
X500775Y457616D01*
X501869Y458069D01*
X502809Y458791D01*
X503531Y459731D01*
X503984Y460825D01*
X504139Y462000D01*
X503984Y463175D01*
X503531Y464269D01*
X502809Y465209D01*
X501869Y465931D01*
X500775Y466384D01*
X499600Y466539D01*
D02*
G37*
G36*
X589500Y460582D02*
X588314Y460426D01*
X587209Y459969D01*
X586260Y459240D01*
X585531Y458291D01*
X585074Y457186D01*
X584917Y456000D01*
X585074Y454814D01*
X585531Y453709D01*
X586260Y452760D01*
X587209Y452031D01*
X588314Y451574D01*
X589500Y451417D01*
X590686Y451574D01*
X591791Y452031D01*
X592740Y452760D01*
X593469Y453709D01*
X593926Y454814D01*
X594082Y456000D01*
X593926Y457186D01*
X593469Y458291D01*
X592740Y459240D01*
X591791Y459969D01*
X590686Y460426D01*
X589500Y460582D01*
D02*
G37*
G36*
X578000D02*
X576814Y460426D01*
X575709Y459969D01*
X574760Y459240D01*
X574031Y458291D01*
X573574Y457186D01*
X573418Y456000D01*
X573574Y454814D01*
X574031Y453709D01*
X574760Y452760D01*
X575709Y452031D01*
X576814Y451574D01*
X578000Y451417D01*
X579186Y451574D01*
X580291Y452031D01*
X581240Y452760D01*
X581969Y453709D01*
X582426Y454814D01*
X582583Y456000D01*
X582426Y457186D01*
X581969Y458291D01*
X581240Y459240D01*
X580291Y459969D01*
X579186Y460426D01*
X578000Y460582D01*
D02*
G37*
G36*
X547300Y454739D02*
X546125Y454584D01*
X545031Y454131D01*
X544091Y453409D01*
X543369Y452469D01*
X542916Y451375D01*
X542761Y450200D01*
X542916Y449025D01*
X543369Y447931D01*
X544091Y446991D01*
X545031Y446269D01*
X546125Y445816D01*
X547300Y445661D01*
X548475Y445816D01*
X549569Y446269D01*
X550509Y446991D01*
X551231Y447931D01*
X551684Y449025D01*
X551839Y450200D01*
X551684Y451375D01*
X551231Y452469D01*
X550509Y453409D01*
X549569Y454131D01*
X548475Y454584D01*
X547300Y454739D01*
D02*
G37*
G36*
X535500D02*
X534325Y454584D01*
X533231Y454131D01*
X532291Y453409D01*
X531569Y452469D01*
X531116Y451375D01*
X530961Y450200D01*
X531116Y449025D01*
X531569Y447931D01*
X532291Y446991D01*
X533231Y446269D01*
X534325Y445816D01*
X535500Y445661D01*
X536675Y445816D01*
X537769Y446269D01*
X538709Y446991D01*
X539431Y447931D01*
X539884Y449025D01*
X540039Y450200D01*
X539884Y451375D01*
X539431Y452469D01*
X538709Y453409D01*
X537769Y454131D01*
X536675Y454584D01*
X535500Y454739D01*
D02*
G37*
G36*
X523700D02*
X522525Y454584D01*
X521431Y454131D01*
X520491Y453409D01*
X519769Y452469D01*
X519316Y451375D01*
X519161Y450200D01*
X519316Y449025D01*
X519769Y447931D01*
X520491Y446991D01*
X521431Y446269D01*
X522525Y445816D01*
X523700Y445661D01*
X524875Y445816D01*
X525969Y446269D01*
X526909Y446991D01*
X527631Y447931D01*
X528084Y449025D01*
X528239Y450200D01*
X528084Y451375D01*
X527631Y452469D01*
X526909Y453409D01*
X525969Y454131D01*
X524875Y454584D01*
X523700Y454739D01*
D02*
G37*
G36*
X511900D02*
X510725Y454584D01*
X509631Y454131D01*
X508691Y453409D01*
X507969Y452469D01*
X507516Y451375D01*
X507361Y450200D01*
X507516Y449025D01*
X507969Y447931D01*
X508691Y446991D01*
X509631Y446269D01*
X510725Y445816D01*
X511900Y445661D01*
X513075Y445816D01*
X514169Y446269D01*
X515109Y446991D01*
X515831Y447931D01*
X516284Y449025D01*
X516439Y450200D01*
X516284Y451375D01*
X515831Y452469D01*
X515109Y453409D01*
X514169Y454131D01*
X513075Y454584D01*
X511900Y454739D01*
D02*
G37*
G36*
X499600D02*
X498425Y454584D01*
X497331Y454131D01*
X496391Y453409D01*
X495669Y452469D01*
X495216Y451375D01*
X495061Y450200D01*
X495216Y449025D01*
X495669Y447931D01*
X496391Y446991D01*
X497331Y446269D01*
X498425Y445816D01*
X499600Y445661D01*
X500775Y445816D01*
X501869Y446269D01*
X502809Y446991D01*
X503531Y447931D01*
X503984Y449025D01*
X504139Y450200D01*
X503984Y451375D01*
X503531Y452469D01*
X502809Y453409D01*
X501869Y454131D01*
X500775Y454584D01*
X499600Y454739D01*
D02*
G37*
G36*
X604500Y450049D02*
X603524Y449855D01*
X602698Y449302D01*
X602145Y448476D01*
X601951Y447500D01*
X602145Y446524D01*
X602698Y445698D01*
X603524Y445145D01*
X604500Y444951D01*
X605476Y445145D01*
X606302Y445698D01*
X606855Y446524D01*
X607049Y447500D01*
X606855Y448476D01*
X606302Y449302D01*
X605476Y449855D01*
X604500Y450049D01*
D02*
G37*
G36*
X480130Y437549D02*
X479154Y437355D01*
X478328Y436802D01*
X477775Y435976D01*
X477581Y435000D01*
X477775Y434024D01*
X478328Y433198D01*
X479154Y432645D01*
X480130Y432451D01*
X481105Y432645D01*
X481932Y433198D01*
X482485Y434024D01*
X482679Y435000D01*
X482485Y435976D01*
X481932Y436802D01*
X481105Y437355D01*
X480130Y437549D01*
D02*
G37*
G36*
X534000Y431549D02*
X533025Y431355D01*
X532198Y430802D01*
X531645Y429976D01*
X531451Y429000D01*
X531645Y428024D01*
X532198Y427198D01*
X533025Y426645D01*
X534000Y426451D01*
X534975Y426645D01*
X535802Y427198D01*
X536355Y428024D01*
X536549Y429000D01*
X536355Y429976D01*
X535802Y430802D01*
X534975Y431355D01*
X534000Y431549D01*
D02*
G37*
G36*
X589500Y426549D02*
X588524Y426355D01*
X587698Y425802D01*
X587145Y424975D01*
X586951Y424000D01*
X587145Y423025D01*
X587698Y422198D01*
X588524Y421645D01*
X589500Y421451D01*
X590476Y421645D01*
X591302Y422198D01*
X591855Y423025D01*
X592049Y424000D01*
X591855Y424975D01*
X591302Y425802D01*
X590476Y426355D01*
X589500Y426549D01*
D02*
G37*
G36*
X490000Y421549D02*
X489024Y421355D01*
X488198Y420802D01*
X487645Y419976D01*
X487451Y419000D01*
X487645Y418024D01*
X488198Y417198D01*
X489024Y416645D01*
X490000Y416451D01*
X490976Y416645D01*
X491802Y417198D01*
X492355Y418024D01*
X492549Y419000D01*
X492355Y419976D01*
X491802Y420802D01*
X490976Y421355D01*
X490000Y421549D01*
D02*
G37*
G36*
X646500Y420549D02*
X645525Y420355D01*
X644698Y419802D01*
X644145Y418975D01*
X643951Y418000D01*
X644145Y417025D01*
X644698Y416198D01*
X645525Y415645D01*
X646500Y415451D01*
X647475Y415645D01*
X648302Y416198D01*
X648855Y417025D01*
X649049Y418000D01*
X648855Y418975D01*
X648302Y419802D01*
X647475Y420355D01*
X646500Y420549D01*
D02*
G37*
G36*
X545000Y415549D02*
X544025Y415355D01*
X543198Y414802D01*
X542645Y413975D01*
X542451Y413000D01*
X542645Y412024D01*
X543198Y411198D01*
X544025Y410645D01*
X545000Y410451D01*
X545975Y410645D01*
X546802Y411198D01*
X547355Y412024D01*
X547549Y413000D01*
X547355Y413975D01*
X546802Y414802D01*
X545975Y415355D01*
X545000Y415549D01*
D02*
G37*
G36*
X600500Y410549D02*
X599524Y410355D01*
X598698Y409802D01*
X598145Y408976D01*
X597951Y408000D01*
X598145Y407024D01*
X598698Y406198D01*
X599524Y405645D01*
X600500Y405451D01*
X601475Y405645D01*
X602302Y406198D01*
X602855Y407024D01*
X603049Y408000D01*
X602855Y408976D01*
X602302Y409802D01*
X601475Y410355D01*
X600500Y410549D01*
D02*
G37*
G36*
X658000Y405549D02*
X657024Y405355D01*
X656198Y404802D01*
X655645Y403975D01*
X655451Y403000D01*
X655645Y402025D01*
X656198Y401198D01*
X657024Y400645D01*
X658000Y400451D01*
X658976Y400645D01*
X659802Y401198D01*
X660355Y402025D01*
X660549Y403000D01*
X660355Y403975D01*
X659802Y404802D01*
X658976Y405355D01*
X658000Y405549D01*
D02*
G37*
G36*
X450500Y403549D02*
X449524Y403355D01*
X448698Y402802D01*
X448145Y401975D01*
X447951Y401000D01*
X448145Y400025D01*
X448698Y399198D01*
X449524Y398645D01*
X450500Y398451D01*
X451475Y398645D01*
X452302Y399198D01*
X452855Y400025D01*
X453049Y401000D01*
X452855Y401975D01*
X452302Y402802D01*
X451475Y403355D01*
X450500Y403549D01*
D02*
G37*
G36*
X505500Y394049D02*
X504525Y393855D01*
X503698Y393302D01*
X503145Y392476D01*
X502951Y391500D01*
X503145Y390525D01*
X503698Y389698D01*
X504525Y389145D01*
X505500Y388951D01*
X506475Y389145D01*
X507302Y389698D01*
X507855Y390525D01*
X508049Y391500D01*
X507855Y392476D01*
X507302Y393302D01*
X506475Y393855D01*
X505500Y394049D01*
D02*
G37*
G36*
X482500D02*
X481525Y393855D01*
X480698Y393302D01*
X480145Y392476D01*
X479951Y391500D01*
X480145Y390525D01*
X480698Y389698D01*
X481525Y389145D01*
X482500Y388951D01*
X483475Y389145D01*
X484302Y389698D01*
X484855Y390525D01*
X485049Y391500D01*
X484855Y392476D01*
X484302Y393302D01*
X483475Y393855D01*
X482500Y394049D01*
D02*
G37*
G36*
X560500Y390049D02*
X559524Y389855D01*
X558698Y389302D01*
X558145Y388475D01*
X557951Y387500D01*
X558145Y386525D01*
X558698Y385698D01*
X559524Y385145D01*
X560500Y384951D01*
X561476Y385145D01*
X562302Y385698D01*
X562855Y386525D01*
X563049Y387500D01*
X562855Y388475D01*
X562302Y389302D01*
X561476Y389855D01*
X560500Y390049D01*
D02*
G37*
G36*
X537625Y388174D02*
X536650Y387980D01*
X535823Y387427D01*
X535270Y386600D01*
X535076Y385625D01*
X535270Y384649D01*
X535823Y383823D01*
X536650Y383270D01*
X537625Y383076D01*
X538600Y383270D01*
X539427Y383823D01*
X539980Y384649D01*
X540174Y385625D01*
X539980Y386600D01*
X539427Y387427D01*
X538600Y387980D01*
X537625Y388174D01*
D02*
G37*
G36*
X673000Y367907D02*
X672024Y367713D01*
X671198Y367161D01*
X670645Y366334D01*
X670451Y365358D01*
X670645Y364383D01*
X671198Y363556D01*
X672024Y363003D01*
X673000Y362809D01*
X673976Y363003D01*
X674802Y363556D01*
X675355Y364383D01*
X675549Y365358D01*
X675355Y366334D01*
X674802Y367161D01*
X673976Y367713D01*
X673000Y367907D01*
D02*
G37*
G36*
X662500D02*
X661524Y367713D01*
X660698Y367161D01*
X660145Y366334D01*
X659951Y365358D01*
X660145Y364383D01*
X660698Y363556D01*
X661524Y363003D01*
X662500Y362809D01*
X663476Y363003D01*
X664302Y363556D01*
X664855Y364383D01*
X665049Y365358D01*
X664855Y366334D01*
X664302Y367161D01*
X663476Y367713D01*
X662500Y367907D01*
D02*
G37*
G36*
X672500Y357907D02*
X671524Y357713D01*
X670698Y357161D01*
X670145Y356334D01*
X669951Y355358D01*
X670145Y354383D01*
X670698Y353556D01*
X671524Y353003D01*
X672500Y352809D01*
X673476Y353003D01*
X674302Y353556D01*
X674855Y354383D01*
X675049Y355358D01*
X674855Y356334D01*
X674302Y357161D01*
X673476Y357713D01*
X672500Y357907D01*
D02*
G37*
G36*
X662000D02*
X661025Y357713D01*
X660198Y357161D01*
X659645Y356334D01*
X659451Y355358D01*
X659645Y354383D01*
X660198Y353556D01*
X661025Y353003D01*
X662000Y352809D01*
X662976Y353003D01*
X663802Y353556D01*
X664355Y354383D01*
X664549Y355358D01*
X664355Y356334D01*
X663802Y357161D01*
X662976Y357713D01*
X662000Y357907D01*
D02*
G37*
G36*
X673000Y273049D02*
X672024Y272855D01*
X671198Y272302D01*
X670645Y271476D01*
X670451Y270500D01*
X670645Y269525D01*
X671198Y268698D01*
X672024Y268145D01*
X673000Y267951D01*
X673976Y268145D01*
X674802Y268698D01*
X675355Y269525D01*
X675549Y270500D01*
X675355Y271476D01*
X674802Y272302D01*
X673976Y272855D01*
X673000Y273049D01*
D02*
G37*
G36*
X662500D02*
X661524Y272855D01*
X660698Y272302D01*
X660145Y271476D01*
X659951Y270500D01*
X660145Y269525D01*
X660698Y268698D01*
X661524Y268145D01*
X662500Y267951D01*
X663476Y268145D01*
X664302Y268698D01*
X664855Y269525D01*
X665049Y270500D01*
X664855Y271476D01*
X664302Y272302D01*
X663476Y272855D01*
X662500Y273049D01*
D02*
G37*
G36*
X672500Y263049D02*
X671524Y262855D01*
X670698Y262302D01*
X670145Y261475D01*
X669951Y260500D01*
X670145Y259524D01*
X670698Y258698D01*
X671524Y258145D01*
X672500Y257951D01*
X673476Y258145D01*
X674302Y258698D01*
X674855Y259524D01*
X675049Y260500D01*
X674855Y261475D01*
X674302Y262302D01*
X673476Y262855D01*
X672500Y263049D01*
D02*
G37*
G36*
X662000D02*
X661025Y262855D01*
X660198Y262302D01*
X659645Y261475D01*
X659451Y260500D01*
X659645Y259524D01*
X660198Y258698D01*
X661025Y258145D01*
X662000Y257951D01*
X662976Y258145D01*
X663802Y258698D01*
X664355Y259524D01*
X664549Y260500D01*
X664355Y261475D01*
X663802Y262302D01*
X662976Y262855D01*
X662000Y263049D01*
D02*
G37*
G36*
X489720Y228647D02*
X488745Y228453D01*
X487918Y227901D01*
X487365Y227074D01*
X487172Y226098D01*
X487365Y225123D01*
X487918Y224296D01*
X488745Y223744D01*
X489720Y223549D01*
X490696Y223744D01*
X491523Y224296D01*
X492075Y225123D01*
X492270Y226098D01*
X492075Y227074D01*
X491523Y227901D01*
X490696Y228453D01*
X489720Y228647D01*
D02*
G37*
G36*
X553000Y228049D02*
X552025Y227855D01*
X551198Y227302D01*
X550645Y226476D01*
X550451Y225500D01*
X550645Y224524D01*
X551198Y223698D01*
X552025Y223145D01*
X553000Y222951D01*
X553975Y223145D01*
X554802Y223698D01*
X555355Y224524D01*
X555549Y225500D01*
X555355Y226476D01*
X554802Y227302D01*
X553975Y227855D01*
X553000Y228049D01*
D02*
G37*
G36*
X528000Y226549D02*
X527025Y226355D01*
X526198Y225802D01*
X525645Y224975D01*
X525451Y224000D01*
X525645Y223025D01*
X526198Y222198D01*
X527025Y221645D01*
X528000Y221451D01*
X528975Y221645D01*
X529802Y222198D01*
X530355Y223025D01*
X530549Y224000D01*
X530355Y224975D01*
X529802Y225802D01*
X528975Y226355D01*
X528000Y226549D01*
D02*
G37*
G36*
X645000Y222549D02*
X644025Y222355D01*
X643198Y221802D01*
X642645Y220975D01*
X642451Y220000D01*
X642645Y219024D01*
X643198Y218198D01*
X644025Y217645D01*
X645000Y217451D01*
X645975Y217645D01*
X646802Y218198D01*
X647355Y219024D01*
X647549Y220000D01*
X647355Y220975D01*
X646802Y221802D01*
X645975Y222355D01*
X645000Y222549D01*
D02*
G37*
G36*
X463370Y222179D02*
X462395Y221985D01*
X461568Y221432D01*
X461015Y220605D01*
X460821Y219630D01*
X461015Y218654D01*
X461568Y217828D01*
X462395Y217275D01*
X463370Y217081D01*
X464346Y217275D01*
X465172Y217828D01*
X465725Y218654D01*
X465919Y219630D01*
X465725Y220605D01*
X465172Y221432D01*
X464346Y221985D01*
X463370Y222179D01*
D02*
G37*
G36*
X584000Y222049D02*
X583025Y221855D01*
X582198Y221302D01*
X581645Y220476D01*
X581451Y219500D01*
X581645Y218525D01*
X582198Y217698D01*
X583025Y217145D01*
X584000Y216951D01*
X584975Y217145D01*
X585802Y217698D01*
X586355Y218525D01*
X586549Y219500D01*
X586355Y220476D01*
X585802Y221302D01*
X584975Y221855D01*
X584000Y222049D01*
D02*
G37*
G36*
X605817Y221299D02*
X604842Y221105D01*
X604014Y220552D01*
X603462Y219725D01*
X603268Y218750D01*
X603462Y217775D01*
X604014Y216948D01*
X604842Y216395D01*
X605817Y216201D01*
X606792Y216395D01*
X607619Y216948D01*
X608172Y217775D01*
X608366Y218750D01*
X608172Y219725D01*
X607619Y220552D01*
X606792Y221105D01*
X605817Y221299D01*
D02*
G37*
G36*
X640500Y215049D02*
X639525Y214855D01*
X638698Y214302D01*
X638145Y213475D01*
X637951Y212500D01*
X638145Y211525D01*
X638698Y210698D01*
X639525Y210145D01*
X640500Y209951D01*
X641475Y210145D01*
X642302Y210698D01*
X642855Y211525D01*
X643049Y212500D01*
X642855Y213475D01*
X642302Y214302D01*
X641475Y214855D01*
X640500Y215049D01*
D02*
G37*
G36*
X486283Y206549D02*
X485308Y206355D01*
X484481Y205802D01*
X483928Y204976D01*
X483735Y204000D01*
X483928Y203025D01*
X484481Y202198D01*
X485308Y201645D01*
X486283Y201451D01*
X487259Y201645D01*
X488086Y202198D01*
X488638Y203025D01*
X488832Y204000D01*
X488638Y204976D01*
X488086Y205802D01*
X487259Y206355D01*
X486283Y206549D01*
D02*
G37*
G36*
X542283Y199549D02*
X541308Y199355D01*
X540481Y198802D01*
X539928Y197976D01*
X539735Y197000D01*
X539928Y196025D01*
X540481Y195198D01*
X541308Y194645D01*
X542283Y194451D01*
X543259Y194645D01*
X544086Y195198D01*
X544638Y196025D01*
X544832Y197000D01*
X544638Y197976D01*
X544086Y198802D01*
X543259Y199355D01*
X542283Y199549D01*
D02*
G37*
G36*
X597000Y192049D02*
X596025Y191855D01*
X595198Y191302D01*
X594645Y190475D01*
X594451Y189500D01*
X594645Y188524D01*
X595198Y187698D01*
X596025Y187145D01*
X597000Y186951D01*
X597975Y187145D01*
X598802Y187698D01*
X599355Y188524D01*
X599549Y189500D01*
X599355Y190475D01*
X598802Y191302D01*
X597975Y191855D01*
X597000Y192049D01*
D02*
G37*
G36*
X652500Y188549D02*
X651524Y188355D01*
X650698Y187802D01*
X650145Y186976D01*
X649951Y186000D01*
X650145Y185024D01*
X650698Y184198D01*
X651524Y183645D01*
X652500Y183451D01*
X653476Y183645D01*
X654302Y184198D01*
X654855Y185024D01*
X655049Y186000D01*
X654855Y186976D01*
X654302Y187802D01*
X653476Y188355D01*
X652500Y188549D01*
D02*
G37*
G36*
X501284Y185332D02*
X500308Y185138D01*
X499481Y184586D01*
X498928Y183759D01*
X498735Y182783D01*
X498928Y181808D01*
X499481Y180981D01*
X500308Y180429D01*
X501284Y180235D01*
X502259Y180429D01*
X503086Y180981D01*
X503638Y181808D01*
X503832Y182783D01*
X503638Y183759D01*
X503086Y184586D01*
X502259Y185138D01*
X501284Y185332D01*
D02*
G37*
G36*
X608437Y178049D02*
X607462Y177855D01*
X606635Y177302D01*
X606082Y176476D01*
X605888Y175500D01*
X606082Y174524D01*
X606635Y173698D01*
X607462Y173145D01*
X608437Y172951D01*
X609412Y173145D01*
X610239Y173698D01*
X610792Y174524D01*
X610986Y175500D01*
X610792Y176476D01*
X610239Y177302D01*
X609412Y177855D01*
X608437Y178049D01*
D02*
G37*
G36*
X554500D02*
X553524Y177855D01*
X552698Y177302D01*
X552145Y176476D01*
X551951Y175500D01*
X552145Y174524D01*
X552698Y173698D01*
X553524Y173145D01*
X554500Y172951D01*
X555476Y173145D01*
X556302Y173698D01*
X556855Y174524D01*
X557049Y175500D01*
X556855Y176476D01*
X556302Y177302D01*
X555476Y177855D01*
X554500Y178049D01*
D02*
G37*
G36*
X607000Y167839D02*
X605825Y167684D01*
X604731Y167231D01*
X603791Y166509D01*
X603069Y165569D01*
X602616Y164475D01*
X602461Y163300D01*
X602616Y162125D01*
X603069Y161031D01*
X603791Y160091D01*
X604731Y159369D01*
X605825Y158916D01*
X607000Y158761D01*
X608175Y158916D01*
X609269Y159369D01*
X610209Y160091D01*
X610931Y161031D01*
X611384Y162125D01*
X611539Y163300D01*
X611384Y164475D01*
X610931Y165569D01*
X610209Y166509D01*
X609269Y167231D01*
X608175Y167684D01*
X607000Y167839D01*
D02*
G37*
G36*
X571700D02*
X570525Y167684D01*
X569431Y167231D01*
X568491Y166509D01*
X567769Y165569D01*
X567316Y164475D01*
X567161Y163300D01*
X567316Y162125D01*
X567769Y161031D01*
X568491Y160091D01*
X569431Y159369D01*
X570525Y158916D01*
X571700Y158761D01*
X572875Y158916D01*
X573969Y159369D01*
X574909Y160091D01*
X575631Y161031D01*
X576084Y162125D01*
X576239Y163300D01*
X576084Y164475D01*
X575631Y165569D01*
X574909Y166509D01*
X573969Y167231D01*
X572875Y167684D01*
X571700Y167839D01*
D02*
G37*
G36*
X559400D02*
X558225Y167684D01*
X557131Y167231D01*
X556191Y166509D01*
X555469Y165569D01*
X555016Y164475D01*
X554861Y163300D01*
X555016Y162125D01*
X555469Y161031D01*
X556191Y160091D01*
X557131Y159369D01*
X558225Y158916D01*
X559400Y158761D01*
X560575Y158916D01*
X561669Y159369D01*
X562609Y160091D01*
X563331Y161031D01*
X563784Y162125D01*
X563939Y163300D01*
X563784Y164475D01*
X563331Y165569D01*
X562609Y166509D01*
X561669Y167231D01*
X560575Y167684D01*
X559400Y167839D01*
D02*
G37*
G36*
X547600D02*
X546425Y167684D01*
X545331Y167231D01*
X544391Y166509D01*
X543669Y165569D01*
X543216Y164475D01*
X543061Y163300D01*
X543216Y162125D01*
X543669Y161031D01*
X544391Y160091D01*
X545331Y159369D01*
X546425Y158916D01*
X547600Y158761D01*
X548775Y158916D01*
X549869Y159369D01*
X550809Y160091D01*
X551531Y161031D01*
X551984Y162125D01*
X552139Y163300D01*
X551984Y164475D01*
X551531Y165569D01*
X550809Y166509D01*
X549869Y167231D01*
X548775Y167684D01*
X547600Y167839D01*
D02*
G37*
G36*
X535800D02*
X534625Y167684D01*
X533531Y167231D01*
X532591Y166509D01*
X531869Y165569D01*
X531416Y164475D01*
X531261Y163300D01*
X531416Y162125D01*
X531869Y161031D01*
X532591Y160091D01*
X533531Y159369D01*
X534625Y158916D01*
X535800Y158761D01*
X536975Y158916D01*
X538069Y159369D01*
X539009Y160091D01*
X539731Y161031D01*
X540184Y162125D01*
X540339Y163300D01*
X540184Y164475D01*
X539731Y165569D01*
X539009Y166509D01*
X538069Y167231D01*
X536975Y167684D01*
X535800Y167839D01*
D02*
G37*
G36*
X524000D02*
X522825Y167684D01*
X521731Y167231D01*
X520791Y166509D01*
X520069Y165569D01*
X519616Y164475D01*
X519461Y163300D01*
X519616Y162125D01*
X520069Y161031D01*
X520791Y160091D01*
X521731Y159369D01*
X522825Y158916D01*
X524000Y158761D01*
X525175Y158916D01*
X526269Y159369D01*
X527209Y160091D01*
X527931Y161031D01*
X528384Y162125D01*
X528539Y163300D01*
X528384Y164475D01*
X527931Y165569D01*
X527209Y166509D01*
X526269Y167231D01*
X525175Y167684D01*
X524000Y167839D01*
D02*
G37*
G36*
X490400Y167339D02*
X489225Y167184D01*
X488131Y166731D01*
X487191Y166009D01*
X486469Y165069D01*
X486016Y163975D01*
X485861Y162800D01*
X486016Y161625D01*
X486469Y160531D01*
X487191Y159591D01*
X488131Y158869D01*
X489225Y158416D01*
X490400Y158261D01*
X491575Y158416D01*
X492669Y158869D01*
X493609Y159591D01*
X494331Y160531D01*
X494784Y161625D01*
X494939Y162800D01*
X494784Y163975D01*
X494331Y165069D01*
X493609Y166009D01*
X492669Y166731D01*
X491575Y167184D01*
X490400Y167339D01*
D02*
G37*
G36*
X607000Y156039D02*
X605825Y155884D01*
X604731Y155431D01*
X603791Y154709D01*
X603069Y153769D01*
X602616Y152675D01*
X602461Y151500D01*
X602616Y150325D01*
X603069Y149231D01*
X603791Y148291D01*
X604731Y147569D01*
X605825Y147116D01*
X607000Y146961D01*
X608175Y147116D01*
X609269Y147569D01*
X610209Y148291D01*
X610931Y149231D01*
X611384Y150325D01*
X611539Y151500D01*
X611384Y152675D01*
X610931Y153769D01*
X610209Y154709D01*
X609269Y155431D01*
X608175Y155884D01*
X607000Y156039D01*
D02*
G37*
G36*
X571700D02*
X570525Y155884D01*
X569431Y155431D01*
X568491Y154709D01*
X567769Y153769D01*
X567316Y152675D01*
X567161Y151500D01*
X567316Y150325D01*
X567769Y149231D01*
X568491Y148291D01*
X569431Y147569D01*
X570525Y147116D01*
X571700Y146961D01*
X572875Y147116D01*
X573969Y147569D01*
X574909Y148291D01*
X575631Y149231D01*
X576084Y150325D01*
X576239Y151500D01*
X576084Y152675D01*
X575631Y153769D01*
X574909Y154709D01*
X573969Y155431D01*
X572875Y155884D01*
X571700Y156039D01*
D02*
G37*
G36*
X559400D02*
X558225Y155884D01*
X557131Y155431D01*
X556191Y154709D01*
X555469Y153769D01*
X555016Y152675D01*
X554861Y151500D01*
X555016Y150325D01*
X555469Y149231D01*
X556191Y148291D01*
X557131Y147569D01*
X558225Y147116D01*
X559400Y146961D01*
X560575Y147116D01*
X561669Y147569D01*
X562609Y148291D01*
X563331Y149231D01*
X563784Y150325D01*
X563939Y151500D01*
X563784Y152675D01*
X563331Y153769D01*
X562609Y154709D01*
X561669Y155431D01*
X560575Y155884D01*
X559400Y156039D01*
D02*
G37*
G36*
X547600D02*
X546425Y155884D01*
X545331Y155431D01*
X544391Y154709D01*
X543669Y153769D01*
X543216Y152675D01*
X543061Y151500D01*
X543216Y150325D01*
X543669Y149231D01*
X544391Y148291D01*
X545331Y147569D01*
X546425Y147116D01*
X547600Y146961D01*
X548775Y147116D01*
X549869Y147569D01*
X550809Y148291D01*
X551531Y149231D01*
X551984Y150325D01*
X552139Y151500D01*
X551984Y152675D01*
X551531Y153769D01*
X550809Y154709D01*
X549869Y155431D01*
X548775Y155884D01*
X547600Y156039D01*
D02*
G37*
G36*
X536000D02*
X534825Y155884D01*
X533731Y155431D01*
X532791Y154709D01*
X532069Y153769D01*
X531616Y152675D01*
X531461Y151500D01*
X531616Y150325D01*
X532069Y149231D01*
X532791Y148291D01*
X533731Y147569D01*
X534825Y147116D01*
X536000Y146961D01*
X537175Y147116D01*
X538269Y147569D01*
X539209Y148291D01*
X539931Y149231D01*
X540384Y150325D01*
X540539Y151500D01*
X540384Y152675D01*
X539931Y153769D01*
X539209Y154709D01*
X538269Y155431D01*
X537175Y155884D01*
X536000Y156039D01*
D02*
G37*
G36*
X524000D02*
X522825Y155884D01*
X521731Y155431D01*
X520791Y154709D01*
X520069Y153769D01*
X519616Y152675D01*
X519461Y151500D01*
X519616Y150325D01*
X520069Y149231D01*
X520791Y148291D01*
X521731Y147569D01*
X522825Y147116D01*
X524000Y146961D01*
X525175Y147116D01*
X526269Y147569D01*
X527209Y148291D01*
X527931Y149231D01*
X528384Y150325D01*
X528539Y151500D01*
X528384Y152675D01*
X527931Y153769D01*
X527209Y154709D01*
X526269Y155431D01*
X525175Y155884D01*
X524000Y156039D01*
D02*
G37*
G36*
X490400Y155539D02*
X489225Y155384D01*
X488131Y154931D01*
X487191Y154209D01*
X486469Y153269D01*
X486016Y152175D01*
X485861Y151000D01*
X486016Y149825D01*
X486469Y148731D01*
X487191Y147791D01*
X488131Y147069D01*
X489225Y146616D01*
X490400Y146461D01*
X491575Y146616D01*
X492669Y147069D01*
X493609Y147791D01*
X494331Y148731D01*
X494784Y149825D01*
X494939Y151000D01*
X494784Y152175D01*
X494331Y153269D01*
X493609Y154209D01*
X492669Y154931D01*
X491575Y155384D01*
X490400Y155539D01*
D02*
G37*
G36*
X478600D02*
X477425Y155384D01*
X476331Y154931D01*
X475391Y154209D01*
X474669Y153269D01*
X474216Y152175D01*
X474061Y151000D01*
X474216Y149825D01*
X474669Y148731D01*
X475391Y147791D01*
X476331Y147069D01*
X477425Y146616D01*
X478600Y146461D01*
X479775Y146616D01*
X480869Y147069D01*
X481809Y147791D01*
X482531Y148731D01*
X482984Y149825D01*
X483139Y151000D01*
X482984Y152175D01*
X482531Y153269D01*
X481809Y154209D01*
X480869Y154931D01*
X479775Y155384D01*
X478600Y155539D01*
D02*
G37*
G36*
X674500Y160876D02*
X672799Y160742D01*
X671139Y160344D01*
X669562Y159691D01*
X668107Y158799D01*
X666810Y157691D01*
X665701Y156393D01*
X664809Y154938D01*
X664156Y153361D01*
X663758Y151701D01*
X663624Y150000D01*
X663758Y148299D01*
X664156Y146639D01*
X664809Y145062D01*
X665701Y143607D01*
X666810Y142309D01*
X668107Y141201D01*
X669562Y140309D01*
X671139Y139656D01*
X672799Y139258D01*
X674500Y139124D01*
X676201Y139258D01*
X677861Y139656D01*
X679438Y140309D01*
X680893Y141201D01*
X682191Y142309D01*
X683299Y143607D01*
X684191Y145062D01*
X684844Y146639D01*
X685242Y148299D01*
X685376Y150000D01*
X685242Y151701D01*
X684844Y153361D01*
X684191Y154938D01*
X683299Y156393D01*
X682191Y157691D01*
X680893Y158799D01*
X679438Y159691D01*
X677861Y160344D01*
X676201Y160742D01*
X674500Y160876D01*
D02*
G37*
G36*
X607000Y142941D02*
X605353Y142779D01*
X603770Y142298D01*
X602311Y141518D01*
X601032Y140468D01*
X599982Y139189D01*
X599202Y137730D01*
X598722Y136147D01*
X598559Y134500D01*
X598722Y132853D01*
X599202Y131270D01*
X599982Y129811D01*
X601032Y128532D01*
X602311Y127482D01*
X603770Y126702D01*
X605353Y126222D01*
X607000Y126059D01*
X608647Y126222D01*
X610230Y126702D01*
X611689Y127482D01*
X612968Y128532D01*
X614018Y129811D01*
X614798Y131270D01*
X615278Y132853D01*
X615441Y134500D01*
X615278Y136147D01*
X614798Y137730D01*
X614018Y139189D01*
X612968Y140468D01*
X611689Y141518D01*
X610230Y142298D01*
X608647Y142779D01*
X607000Y142941D01*
D02*
G37*
G36*
X563300D02*
X561653Y142779D01*
X560070Y142298D01*
X558611Y141518D01*
X557332Y140468D01*
X556282Y139189D01*
X555502Y137730D01*
X555021Y136147D01*
X554859Y134500D01*
X555021Y132853D01*
X555502Y131270D01*
X556282Y129811D01*
X557332Y128532D01*
X558611Y127482D01*
X560070Y126702D01*
X561653Y126222D01*
X563300Y126059D01*
X564947Y126222D01*
X566530Y126702D01*
X567989Y127482D01*
X569268Y128532D01*
X570318Y129811D01*
X571098Y131270D01*
X571579Y132853D01*
X571741Y134500D01*
X571579Y136147D01*
X571098Y137730D01*
X570318Y139189D01*
X569268Y140468D01*
X567989Y141518D01*
X566530Y142298D01*
X564947Y142779D01*
X563300Y142941D01*
D02*
G37*
G36*
X533000Y142441D02*
X531353Y142279D01*
X529770Y141798D01*
X528311Y141018D01*
X527032Y139968D01*
X525982Y138689D01*
X525202Y137230D01*
X524721Y135647D01*
X524559Y134000D01*
X524721Y132353D01*
X525202Y130770D01*
X525982Y129311D01*
X527032Y128032D01*
X528311Y126982D01*
X529770Y126202D01*
X531353Y125722D01*
X533000Y125559D01*
X534647Y125722D01*
X536230Y126202D01*
X537689Y126982D01*
X538968Y128032D01*
X540018Y129311D01*
X540798Y130770D01*
X541279Y132353D01*
X541441Y134000D01*
X541279Y135647D01*
X540798Y137230D01*
X540018Y138689D01*
X538968Y139968D01*
X537689Y141018D01*
X536230Y141798D01*
X534647Y142279D01*
X533000Y142441D01*
D02*
G37*
G36*
X482000D02*
X480353Y142279D01*
X478770Y141798D01*
X477311Y141018D01*
X476032Y139968D01*
X474982Y138689D01*
X474202Y137230D01*
X473722Y135647D01*
X473559Y134000D01*
X473722Y132353D01*
X474202Y130770D01*
X474982Y129311D01*
X476032Y128032D01*
X477311Y126982D01*
X478770Y126202D01*
X480353Y125722D01*
X482000Y125559D01*
X483647Y125722D01*
X485230Y126202D01*
X486689Y126982D01*
X487968Y128032D01*
X489018Y129311D01*
X489798Y130770D01*
X490278Y132353D01*
X490441Y134000D01*
X490278Y135647D01*
X489798Y137230D01*
X489018Y138689D01*
X487968Y139968D01*
X486689Y141018D01*
X485230Y141798D01*
X483647Y142279D01*
X482000Y142441D01*
D02*
G37*
G36*
X463500D02*
X461853Y142279D01*
X460270Y141798D01*
X458811Y141018D01*
X457532Y139968D01*
X456482Y138689D01*
X455702Y137230D01*
X455222Y135647D01*
X455059Y134000D01*
X455222Y132353D01*
X455702Y130770D01*
X456482Y129311D01*
X457532Y128032D01*
X458811Y126982D01*
X460270Y126202D01*
X461853Y125722D01*
X463500Y125559D01*
X465147Y125722D01*
X466730Y126202D01*
X468189Y126982D01*
X469468Y128032D01*
X470518Y129311D01*
X471298Y130770D01*
X471778Y132353D01*
X471941Y134000D01*
X471778Y135647D01*
X471298Y137230D01*
X470518Y138689D01*
X469468Y139968D01*
X468189Y141018D01*
X466730Y141798D01*
X465147Y142279D01*
X463500Y142441D01*
D02*
G37*
G36*
X368500Y485441D02*
X366853Y485279D01*
X365270Y484798D01*
X363811Y484018D01*
X362532Y482968D01*
X361482Y481689D01*
X360702Y480230D01*
X360222Y478647D01*
X360059Y477000D01*
X360222Y475353D01*
X360702Y473770D01*
X361482Y472311D01*
X362532Y471032D01*
X363811Y469982D01*
X365270Y469202D01*
X366853Y468721D01*
X368500Y468559D01*
X370147Y468721D01*
X371730Y469202D01*
X373189Y469982D01*
X374468Y471032D01*
X375518Y472311D01*
X376298Y473770D01*
X376779Y475353D01*
X376941Y477000D01*
X376779Y478647D01*
X376298Y480230D01*
X375518Y481689D01*
X374468Y482968D01*
X373189Y484018D01*
X371730Y484798D01*
X370147Y485279D01*
X368500Y485441D01*
D02*
G37*
G36*
X350000D02*
X348353Y485279D01*
X346770Y484798D01*
X345311Y484018D01*
X344032Y482968D01*
X342982Y481689D01*
X342202Y480230D01*
X341722Y478647D01*
X341559Y477000D01*
X341722Y475353D01*
X342202Y473770D01*
X342982Y472311D01*
X344032Y471032D01*
X345311Y469982D01*
X346770Y469202D01*
X348353Y468721D01*
X350000Y468559D01*
X351647Y468721D01*
X353230Y469202D01*
X354689Y469982D01*
X355968Y471032D01*
X357018Y472311D01*
X357798Y473770D01*
X358278Y475353D01*
X358441Y477000D01*
X358278Y478647D01*
X357798Y480230D01*
X357018Y481689D01*
X355968Y482968D01*
X354689Y484018D01*
X353230Y484798D01*
X351647Y485279D01*
X350000Y485441D01*
D02*
G37*
G36*
X125000Y485876D02*
X123299Y485742D01*
X121639Y485344D01*
X120062Y484691D01*
X118607Y483799D01*
X117309Y482690D01*
X116201Y481393D01*
X115309Y479938D01*
X114656Y478361D01*
X114258Y476701D01*
X114124Y475000D01*
X114258Y473299D01*
X114656Y471639D01*
X115309Y470062D01*
X116201Y468607D01*
X117309Y467310D01*
X118607Y466201D01*
X120062Y465309D01*
X121639Y464656D01*
X123299Y464258D01*
X125000Y464124D01*
X126701Y464258D01*
X128361Y464656D01*
X129938Y465309D01*
X131393Y466201D01*
X132691Y467310D01*
X133799Y468607D01*
X134691Y470062D01*
X135344Y471639D01*
X135742Y473299D01*
X135876Y475000D01*
X135742Y476701D01*
X135344Y478361D01*
X134691Y479938D01*
X133799Y481393D01*
X132691Y482690D01*
X131393Y483799D01*
X129938Y484691D01*
X128361Y485344D01*
X126701Y485742D01*
X125000Y485876D01*
D02*
G37*
G36*
X405500Y471583D02*
X404314Y471426D01*
X403209Y470969D01*
X402260Y470240D01*
X401531Y469291D01*
X401074Y468186D01*
X400917Y467000D01*
X401074Y465814D01*
X401531Y464709D01*
X402260Y463760D01*
X403209Y463031D01*
X404314Y462574D01*
X405500Y462418D01*
X406686Y462574D01*
X407791Y463031D01*
X408740Y463760D01*
X409469Y464709D01*
X409926Y465814D01*
X410082Y467000D01*
X409926Y468186D01*
X409469Y469291D01*
X408740Y470240D01*
X407791Y470969D01*
X406686Y471426D01*
X405500Y471583D01*
D02*
G37*
G36*
X377000Y464539D02*
X375825Y464384D01*
X374731Y463931D01*
X373791Y463209D01*
X373069Y462269D01*
X372616Y461175D01*
X372461Y460000D01*
X372616Y458825D01*
X373069Y457731D01*
X373791Y456791D01*
X374731Y456069D01*
X375825Y455616D01*
X377000Y455461D01*
X378175Y455616D01*
X379269Y456069D01*
X380209Y456791D01*
X380931Y457731D01*
X381384Y458825D01*
X381539Y460000D01*
X381384Y461175D01*
X380931Y462269D01*
X380209Y463209D01*
X379269Y463931D01*
X378175Y464384D01*
X377000Y464539D01*
D02*
G37*
G36*
X365200D02*
X364025Y464384D01*
X362931Y463931D01*
X361991Y463209D01*
X361269Y462269D01*
X360816Y461175D01*
X360661Y460000D01*
X360816Y458825D01*
X361269Y457731D01*
X361991Y456791D01*
X362931Y456069D01*
X364025Y455616D01*
X365200Y455461D01*
X366375Y455616D01*
X367469Y456069D01*
X368409Y456791D01*
X369131Y457731D01*
X369584Y458825D01*
X369739Y460000D01*
X369584Y461175D01*
X369131Y462269D01*
X368409Y463209D01*
X367469Y463931D01*
X366375Y464384D01*
X365200Y464539D01*
D02*
G37*
G36*
X353400D02*
X352225Y464384D01*
X351131Y463931D01*
X350191Y463209D01*
X349469Y462269D01*
X349016Y461175D01*
X348861Y460000D01*
X349016Y458825D01*
X349469Y457731D01*
X350191Y456791D01*
X351131Y456069D01*
X352225Y455616D01*
X353400Y455461D01*
X354575Y455616D01*
X355669Y456069D01*
X356609Y456791D01*
X357331Y457731D01*
X357784Y458825D01*
X357939Y460000D01*
X357784Y461175D01*
X357331Y462269D01*
X356609Y463209D01*
X355669Y463931D01*
X354575Y464384D01*
X353400Y464539D01*
D02*
G37*
G36*
X341600D02*
X340425Y464384D01*
X339331Y463931D01*
X338391Y463209D01*
X337669Y462269D01*
X337216Y461175D01*
X337061Y460000D01*
X337216Y458825D01*
X337669Y457731D01*
X338391Y456791D01*
X339331Y456069D01*
X340425Y455616D01*
X341600Y455461D01*
X342775Y455616D01*
X343869Y456069D01*
X344809Y456791D01*
X345531Y457731D01*
X345984Y458825D01*
X346139Y460000D01*
X345984Y461175D01*
X345531Y462269D01*
X344809Y463209D01*
X343869Y463931D01*
X342775Y464384D01*
X341600Y464539D01*
D02*
G37*
G36*
X255400D02*
X254225Y464384D01*
X253131Y463931D01*
X252191Y463209D01*
X251469Y462269D01*
X251016Y461175D01*
X250861Y460000D01*
X251016Y458825D01*
X251469Y457731D01*
X252191Y456791D01*
X253131Y456069D01*
X254225Y455616D01*
X255400Y455461D01*
X256575Y455616D01*
X257669Y456069D01*
X258609Y456791D01*
X259331Y457731D01*
X259784Y458825D01*
X259939Y460000D01*
X259784Y461175D01*
X259331Y462269D01*
X258609Y463209D01*
X257669Y463931D01*
X256575Y464384D01*
X255400Y464539D01*
D02*
G37*
G36*
X243600D02*
X242425Y464384D01*
X241331Y463931D01*
X240391Y463209D01*
X239669Y462269D01*
X239216Y461175D01*
X239061Y460000D01*
X239216Y458825D01*
X239669Y457731D01*
X240391Y456791D01*
X241331Y456069D01*
X242425Y455616D01*
X243600Y455461D01*
X244775Y455616D01*
X245869Y456069D01*
X246809Y456791D01*
X247531Y457731D01*
X247984Y458825D01*
X248139Y460000D01*
X247984Y461175D01*
X247531Y462269D01*
X246809Y463209D01*
X245869Y463931D01*
X244775Y464384D01*
X243600Y464539D01*
D02*
G37*
G36*
X231800D02*
X230625Y464384D01*
X229531Y463931D01*
X228591Y463209D01*
X227869Y462269D01*
X227416Y461175D01*
X227261Y460000D01*
X227416Y458825D01*
X227869Y457731D01*
X228591Y456791D01*
X229531Y456069D01*
X230625Y455616D01*
X231800Y455461D01*
X232975Y455616D01*
X234069Y456069D01*
X235009Y456791D01*
X235731Y457731D01*
X236184Y458825D01*
X236339Y460000D01*
X236184Y461175D01*
X235731Y462269D01*
X235009Y463209D01*
X234069Y463931D01*
X232975Y464384D01*
X231800Y464539D01*
D02*
G37*
G36*
X220000D02*
X218825Y464384D01*
X217731Y463931D01*
X216791Y463209D01*
X216069Y462269D01*
X215616Y461175D01*
X215461Y460000D01*
X215616Y458825D01*
X216069Y457731D01*
X216791Y456791D01*
X217731Y456069D01*
X218825Y455616D01*
X220000Y455461D01*
X221175Y455616D01*
X222269Y456069D01*
X223209Y456791D01*
X223931Y457731D01*
X224384Y458825D01*
X224539Y460000D01*
X224384Y461175D01*
X223931Y462269D01*
X223209Y463209D01*
X222269Y463931D01*
X221175Y464384D01*
X220000Y464539D01*
D02*
G37*
G36*
X405500Y461583D02*
X404314Y461426D01*
X403209Y460969D01*
X402260Y460240D01*
X401531Y459291D01*
X401074Y458186D01*
X400917Y457000D01*
X401074Y455814D01*
X401531Y454709D01*
X402260Y453760D01*
X403209Y453031D01*
X404314Y452574D01*
X405500Y452418D01*
X406686Y452574D01*
X407791Y453031D01*
X408740Y453760D01*
X409469Y454709D01*
X409926Y455814D01*
X410082Y457000D01*
X409926Y458186D01*
X409469Y459291D01*
X408740Y460240D01*
X407791Y460969D01*
X406686Y461426D01*
X405500Y461583D01*
D02*
G37*
G36*
X377000Y452739D02*
X375825Y452584D01*
X374731Y452131D01*
X373791Y451409D01*
X373069Y450469D01*
X372616Y449375D01*
X372461Y448200D01*
X372616Y447025D01*
X373069Y445931D01*
X373791Y444991D01*
X374731Y444269D01*
X375825Y443816D01*
X377000Y443661D01*
X378175Y443816D01*
X379269Y444269D01*
X380209Y444991D01*
X380931Y445931D01*
X381384Y447025D01*
X381539Y448200D01*
X381384Y449375D01*
X380931Y450469D01*
X380209Y451409D01*
X379269Y452131D01*
X378175Y452584D01*
X377000Y452739D01*
D02*
G37*
G36*
X365200D02*
X364025Y452584D01*
X362931Y452131D01*
X361991Y451409D01*
X361269Y450469D01*
X360816Y449375D01*
X360661Y448200D01*
X360816Y447025D01*
X361269Y445931D01*
X361991Y444991D01*
X362931Y444269D01*
X364025Y443816D01*
X365200Y443661D01*
X366375Y443816D01*
X367469Y444269D01*
X368409Y444991D01*
X369131Y445931D01*
X369584Y447025D01*
X369739Y448200D01*
X369584Y449375D01*
X369131Y450469D01*
X368409Y451409D01*
X367469Y452131D01*
X366375Y452584D01*
X365200Y452739D01*
D02*
G37*
G36*
X243600D02*
X242425Y452584D01*
X241331Y452131D01*
X240391Y451409D01*
X239669Y450469D01*
X239216Y449375D01*
X239061Y448200D01*
X239216Y447025D01*
X239669Y445931D01*
X240391Y444991D01*
X241331Y444269D01*
X242425Y443816D01*
X243600Y443661D01*
X244775Y443816D01*
X245869Y444269D01*
X246809Y444991D01*
X247531Y445931D01*
X247984Y447025D01*
X248139Y448200D01*
X247984Y449375D01*
X247531Y450469D01*
X246809Y451409D01*
X245869Y452131D01*
X244775Y452584D01*
X243600Y452739D01*
D02*
G37*
G36*
X231800D02*
X230625Y452584D01*
X229531Y452131D01*
X228591Y451409D01*
X227869Y450469D01*
X227416Y449375D01*
X227261Y448200D01*
X227416Y447025D01*
X227869Y445931D01*
X228591Y444991D01*
X229531Y444269D01*
X230625Y443816D01*
X231800Y443661D01*
X232975Y443816D01*
X234069Y444269D01*
X235009Y444991D01*
X235731Y445931D01*
X236184Y447025D01*
X236339Y448200D01*
X236184Y449375D01*
X235731Y450469D01*
X235009Y451409D01*
X234069Y452131D01*
X232975Y452584D01*
X231800Y452739D01*
D02*
G37*
G36*
X220000D02*
X218825Y452584D01*
X217731Y452131D01*
X216791Y451409D01*
X216069Y450469D01*
X215616Y449375D01*
X215461Y448200D01*
X215616Y447025D01*
X216069Y445931D01*
X216791Y444991D01*
X217731Y444269D01*
X218825Y443816D01*
X220000Y443661D01*
X221175Y443816D01*
X222269Y444269D01*
X223209Y444991D01*
X223931Y445931D01*
X224384Y447025D01*
X224539Y448200D01*
X224384Y449375D01*
X223931Y450469D01*
X223209Y451409D01*
X222269Y452131D01*
X221175Y452584D01*
X220000Y452739D01*
D02*
G37*
G36*
X151800Y414539D02*
X150625Y414384D01*
X149531Y413931D01*
X148591Y413209D01*
X147869Y412269D01*
X147416Y411175D01*
X147261Y410000D01*
X147416Y408825D01*
X147869Y407731D01*
X148591Y406791D01*
X149531Y406069D01*
X150625Y405616D01*
X151800Y405461D01*
X152975Y405616D01*
X154069Y406069D01*
X155009Y406791D01*
X155731Y407731D01*
X156184Y408825D01*
X156339Y410000D01*
X156184Y411175D01*
X155731Y412269D01*
X155009Y413209D01*
X154069Y413931D01*
X152975Y414384D01*
X151800Y414539D01*
D02*
G37*
G36*
X140000D02*
X138825Y414384D01*
X137731Y413931D01*
X136791Y413209D01*
X136069Y412269D01*
X135616Y411175D01*
X135461Y410000D01*
X135616Y408825D01*
X136069Y407731D01*
X136791Y406791D01*
X137731Y406069D01*
X138825Y405616D01*
X140000Y405461D01*
X141175Y405616D01*
X142269Y406069D01*
X143209Y406791D01*
X143931Y407731D01*
X144384Y408825D01*
X144539Y410000D01*
X144384Y411175D01*
X143931Y412269D01*
X143209Y413209D01*
X142269Y413931D01*
X141175Y414384D01*
X140000Y414539D01*
D02*
G37*
G36*
X123000Y409941D02*
X121353Y409778D01*
X119770Y409298D01*
X118311Y408518D01*
X117032Y407468D01*
X115982Y406189D01*
X115202Y404730D01*
X114722Y403147D01*
X114559Y401500D01*
X114722Y399853D01*
X115202Y398270D01*
X115982Y396811D01*
X117032Y395532D01*
X118311Y394482D01*
X119770Y393702D01*
X121353Y393221D01*
X123000Y393059D01*
X124647Y393221D01*
X126230Y393702D01*
X127689Y394482D01*
X128968Y395532D01*
X130018Y396811D01*
X130798Y398270D01*
X131279Y399853D01*
X131441Y401500D01*
X131279Y403147D01*
X130798Y404730D01*
X130018Y406189D01*
X128968Y407468D01*
X127689Y408518D01*
X126230Y409298D01*
X124647Y409778D01*
X123000Y409941D01*
D02*
G37*
G36*
X411000Y434049D02*
X410024Y433855D01*
X409198Y433302D01*
X408645Y432476D01*
X408451Y431500D01*
X408645Y430524D01*
X409198Y429698D01*
X410024Y429145D01*
X411000Y428951D01*
X411975Y429145D01*
X412802Y429698D01*
X413355Y430524D01*
X413549Y431500D01*
X413355Y432476D01*
X412802Y433302D01*
X411975Y433855D01*
X411000Y434049D01*
D02*
G37*
G36*
X373031D02*
X372056Y433855D01*
X371229Y433302D01*
X370676Y432476D01*
X370482Y431500D01*
X370676Y430524D01*
X371229Y429698D01*
X372056Y429145D01*
X373031Y428951D01*
X374007Y429145D01*
X374834Y429698D01*
X375387Y430524D01*
X375581Y431500D01*
X375387Y432476D01*
X374834Y433302D01*
X374007Y433855D01*
X373031Y434049D01*
D02*
G37*
G36*
X336750D02*
X335774Y433855D01*
X334948Y433302D01*
X334395Y432476D01*
X334201Y431500D01*
X334395Y430524D01*
X334948Y429698D01*
X335774Y429145D01*
X336750Y428951D01*
X337725Y429145D01*
X338552Y429698D01*
X339105Y430524D01*
X339299Y431500D01*
X339105Y432476D01*
X338552Y433302D01*
X337725Y433855D01*
X336750Y434049D01*
D02*
G37*
G36*
X302000D02*
X301025Y433855D01*
X300198Y433302D01*
X299645Y432476D01*
X299451Y431500D01*
X299645Y430524D01*
X300198Y429698D01*
X301025Y429145D01*
X302000Y428951D01*
X302976Y429145D01*
X303802Y429698D01*
X304355Y430524D01*
X304549Y431500D01*
X304355Y432476D01*
X303802Y433302D01*
X302976Y433855D01*
X302000Y434049D01*
D02*
G37*
G36*
X261500D02*
X260525Y433855D01*
X259698Y433302D01*
X259145Y432476D01*
X258951Y431500D01*
X259145Y430524D01*
X259698Y429698D01*
X260525Y429145D01*
X261500Y428951D01*
X262475Y429145D01*
X263302Y429698D01*
X263855Y430524D01*
X264049Y431500D01*
X263855Y432476D01*
X263302Y433302D01*
X262475Y433855D01*
X261500Y434049D01*
D02*
G37*
G36*
X233701D02*
X232725Y433855D01*
X231898Y433302D01*
X231346Y432476D01*
X231152Y431500D01*
X231346Y430524D01*
X231898Y429698D01*
X232725Y429145D01*
X233701Y428951D01*
X234676Y429145D01*
X235503Y429698D01*
X236056Y430524D01*
X236250Y431500D01*
X236056Y432476D01*
X235503Y433302D01*
X234676Y433855D01*
X233701Y434049D01*
D02*
G37*
G36*
X206000Y421549D02*
X205025Y421355D01*
X204198Y420802D01*
X203645Y419976D01*
X203451Y419000D01*
X203645Y418024D01*
X204198Y417198D01*
X205025Y416645D01*
X206000Y416451D01*
X206976Y416645D01*
X207802Y417198D01*
X208355Y418024D01*
X208549Y419000D01*
X208355Y419976D01*
X207802Y420802D01*
X206976Y421355D01*
X206000Y421549D01*
D02*
G37*
G36*
X326500Y419049D02*
X325524Y418855D01*
X324698Y418302D01*
X324413Y417876D01*
X309500D01*
X308973Y417772D01*
X308527Y417473D01*
X302502Y411449D01*
X302000Y411549D01*
X301025Y411355D01*
X300198Y410802D01*
X299645Y409975D01*
X299451Y409000D01*
X299645Y408025D01*
X300198Y407198D01*
X301025Y406645D01*
X302000Y406451D01*
X302976Y406645D01*
X303534Y407019D01*
X303562Y407018D01*
X304604Y406691D01*
X305071Y406396D01*
X305145Y406025D01*
X305698Y405198D01*
X306524Y404645D01*
X307500Y404451D01*
X308475Y404645D01*
X309302Y405198D01*
X309855Y406025D01*
X310049Y407000D01*
X309949Y407502D01*
X313070Y410624D01*
X329913D01*
X330198Y410198D01*
X331025Y409645D01*
X332000Y409451D01*
X332976Y409645D01*
X333802Y410198D01*
X334355Y411025D01*
X334549Y412000D01*
X334355Y412976D01*
X333802Y413802D01*
X332976Y414355D01*
X332000Y414549D01*
X331025Y414355D01*
X330361Y413912D01*
X329770Y413879D01*
X329496Y413928D01*
X328856Y415521D01*
X328859Y415547D01*
X329049Y416500D01*
X328855Y417476D01*
X328302Y418302D01*
X327476Y418855D01*
X326500Y419049D01*
D02*
G37*
G36*
X378500Y414299D02*
X377524Y414105D01*
X376698Y413552D01*
X376145Y412725D01*
X375951Y411750D01*
X376145Y410775D01*
X376698Y409948D01*
X377524Y409395D01*
X378500Y409201D01*
X379475Y409395D01*
X380302Y409948D01*
X380855Y410775D01*
X381049Y411750D01*
X380855Y412725D01*
X380302Y413552D01*
X379475Y414105D01*
X378500Y414299D01*
D02*
G37*
G36*
X400500Y413549D02*
X399524Y413355D01*
X398698Y412802D01*
X398145Y411975D01*
X397951Y411000D01*
X398145Y410024D01*
X398698Y409198D01*
X399524Y408645D01*
X400500Y408451D01*
X401475Y408645D01*
X402302Y409198D01*
X402855Y410024D01*
X403049Y411000D01*
X402855Y411975D01*
X402302Y412802D01*
X401475Y413355D01*
X400500Y413549D01*
D02*
G37*
G36*
X333000Y406049D02*
X332025Y405855D01*
X331198Y405302D01*
X330645Y404475D01*
X330451Y403500D01*
X330645Y402525D01*
X331198Y401698D01*
X332025Y401145D01*
X333000Y400951D01*
X333976Y401145D01*
X334802Y401698D01*
X335355Y402525D01*
X335549Y403500D01*
X335355Y404475D01*
X334802Y405302D01*
X333976Y405855D01*
X333000Y406049D01*
D02*
G37*
G36*
X370000Y401549D02*
X369024Y401355D01*
X368198Y400802D01*
X367645Y399975D01*
X367451Y399000D01*
X367551Y398498D01*
X360930Y391877D01*
X322587D01*
X322302Y392302D01*
X321476Y392855D01*
X320500Y393049D01*
X319525Y392855D01*
X318698Y392302D01*
X318145Y391476D01*
X317951Y390500D01*
X318145Y389525D01*
X318698Y388698D01*
X318806Y388625D01*
Y386875D01*
X318698Y386802D01*
X318145Y385976D01*
X317951Y385000D01*
X318145Y384025D01*
X318698Y383198D01*
X319525Y382645D01*
X320500Y382451D01*
X321476Y382645D01*
X322302Y383198D01*
X322855Y384025D01*
X323049Y385000D01*
X322949Y385502D01*
X324570Y387123D01*
X368470D01*
X368678Y386915D01*
X368597Y386093D01*
X368395Y385268D01*
X367698Y384802D01*
X367145Y383976D01*
X366951Y383000D01*
X367145Y382025D01*
X367698Y381198D01*
X368525Y380645D01*
X369500Y380451D01*
X370476Y380645D01*
X371302Y381198D01*
X371855Y382025D01*
X372049Y383000D01*
X371855Y383976D01*
X371489Y384523D01*
X371858Y385553D01*
X372178Y385986D01*
X372975Y386145D01*
X373802Y386698D01*
X374355Y387525D01*
X374549Y388500D01*
X374355Y389475D01*
X373802Y390302D01*
X372975Y390855D01*
X372000Y391049D01*
X371024Y390855D01*
X370198Y390302D01*
X369913Y389877D01*
X364783D01*
X364209Y391262D01*
X369498Y396551D01*
X370000Y396451D01*
X370975Y396645D01*
X371802Y397198D01*
X372355Y398025D01*
X372549Y399000D01*
X372355Y399975D01*
X371802Y400802D01*
X370975Y401355D01*
X370000Y401549D01*
D02*
G37*
G36*
X393750Y385612D02*
X392775Y385418D01*
X391948Y384865D01*
X391395Y384038D01*
X391201Y383063D01*
X391395Y382087D01*
X391948Y381261D01*
X392775Y380708D01*
X393750Y380514D01*
X394725Y380708D01*
X395552Y381261D01*
X396105Y382087D01*
X396299Y383063D01*
X396105Y384038D01*
X395552Y384865D01*
X394725Y385418D01*
X393750Y385612D01*
D02*
G37*
G36*
X140000Y326139D02*
X138825Y325984D01*
X137731Y325531D01*
X136791Y324809D01*
X136069Y323869D01*
X135616Y322775D01*
X135461Y321600D01*
X135616Y320425D01*
X136069Y319331D01*
X136791Y318391D01*
X137731Y317669D01*
X138825Y317216D01*
X140000Y317061D01*
X141175Y317216D01*
X142269Y317669D01*
X143209Y318391D01*
X143931Y319331D01*
X144384Y320425D01*
X144539Y321600D01*
X144384Y322775D01*
X143931Y323869D01*
X143209Y324809D01*
X142269Y325531D01*
X141175Y325984D01*
X140000Y326139D01*
D02*
G37*
G36*
X122500Y333041D02*
X120853Y332878D01*
X119270Y332398D01*
X117811Y331618D01*
X116532Y330568D01*
X115482Y329289D01*
X114702Y327830D01*
X114222Y326247D01*
X114059Y324600D01*
X114222Y322953D01*
X114702Y321370D01*
X115482Y319911D01*
X116532Y318632D01*
X117811Y317582D01*
X119270Y316802D01*
X120853Y316321D01*
X122500Y316159D01*
X124147Y316321D01*
X125730Y316802D01*
X127189Y317582D01*
X128468Y318632D01*
X129518Y319911D01*
X130298Y321370D01*
X130779Y322953D01*
X130941Y324600D01*
X130779Y326247D01*
X130298Y327830D01*
X129518Y329289D01*
X128468Y330568D01*
X127189Y331618D01*
X125730Y332398D01*
X124147Y332878D01*
X122500Y333041D01*
D02*
G37*
G36*
X140000Y314539D02*
X138825Y314384D01*
X137731Y313931D01*
X136791Y313209D01*
X136069Y312269D01*
X135616Y311175D01*
X135461Y310000D01*
X135616Y308825D01*
X136069Y307731D01*
X136791Y306791D01*
X137731Y306069D01*
X138825Y305616D01*
X140000Y305461D01*
X141175Y305616D01*
X142269Y306069D01*
X143209Y306791D01*
X143931Y307731D01*
X144384Y308825D01*
X144539Y310000D01*
X144384Y311175D01*
X143931Y312269D01*
X143209Y313209D01*
X142269Y313931D01*
X141175Y314384D01*
X140000Y314539D01*
D02*
G37*
G36*
Y302739D02*
X138825Y302584D01*
X137731Y302131D01*
X136791Y301409D01*
X136069Y300469D01*
X135616Y299375D01*
X135461Y298200D01*
X135616Y297025D01*
X136069Y295931D01*
X136791Y294991D01*
X137731Y294269D01*
X138825Y293816D01*
X140000Y293661D01*
X141175Y293816D01*
X142269Y294269D01*
X143209Y294991D01*
X143931Y295931D01*
X144384Y297025D01*
X144539Y298200D01*
X144384Y299375D01*
X143931Y300469D01*
X143209Y301409D01*
X142269Y302131D01*
X141175Y302584D01*
X140000Y302739D01*
D02*
G37*
G36*
X123000Y302741D02*
X121353Y302578D01*
X119770Y302098D01*
X118311Y301318D01*
X117032Y300268D01*
X115982Y298989D01*
X115202Y297530D01*
X114722Y295947D01*
X114559Y294300D01*
X114722Y292653D01*
X115202Y291070D01*
X115982Y289611D01*
X117032Y288332D01*
X118311Y287282D01*
X119770Y286502D01*
X121353Y286021D01*
X123000Y285859D01*
X124647Y286021D01*
X126230Y286502D01*
X127689Y287282D01*
X128968Y288332D01*
X130018Y289611D01*
X130798Y291070D01*
X131279Y292653D01*
X131441Y294300D01*
X131279Y295947D01*
X130798Y297530D01*
X130018Y298989D01*
X128968Y300268D01*
X127689Y301318D01*
X126230Y302098D01*
X124647Y302578D01*
X123000Y302741D01*
D02*
G37*
G36*
X140000Y290439D02*
X138825Y290284D01*
X137731Y289831D01*
X136791Y289109D01*
X136069Y288169D01*
X135616Y287075D01*
X135461Y285900D01*
X135616Y284725D01*
X136069Y283631D01*
X136791Y282691D01*
X137731Y281969D01*
X138825Y281516D01*
X140000Y281361D01*
X141175Y281516D01*
X142269Y281969D01*
X143209Y282691D01*
X143931Y283631D01*
X144384Y284725D01*
X144539Y285900D01*
X144384Y287075D01*
X143931Y288169D01*
X143209Y289109D01*
X142269Y289831D01*
X141175Y290284D01*
X140000Y290439D01*
D02*
G37*
G36*
X124500Y160876D02*
X122799Y160742D01*
X121139Y160344D01*
X119562Y159691D01*
X118107Y158799D01*
X116809Y157691D01*
X115701Y156393D01*
X114809Y154938D01*
X114156Y153361D01*
X113758Y151701D01*
X113624Y150000D01*
X113758Y148299D01*
X114156Y146639D01*
X114809Y145062D01*
X115701Y143607D01*
X116809Y142309D01*
X118107Y141201D01*
X119562Y140309D01*
X121139Y139656D01*
X122799Y139258D01*
X124500Y139124D01*
X126201Y139258D01*
X127861Y139656D01*
X129438Y140309D01*
X130893Y141201D01*
X132191Y142309D01*
X133299Y143607D01*
X134191Y145062D01*
X134844Y146639D01*
X135242Y148299D01*
X135376Y150000D01*
X135242Y151701D01*
X134844Y153361D01*
X134191Y154938D01*
X133299Y156393D01*
X132191Y157691D01*
X130893Y158799D01*
X129438Y159691D01*
X127861Y160344D01*
X126201Y160742D01*
X124500Y160876D01*
D02*
G37*
G36*
X414500Y370549D02*
X413524Y370355D01*
X412698Y369802D01*
X412145Y368975D01*
X411951Y368000D01*
X412145Y367024D01*
X412698Y366198D01*
X413524Y365645D01*
X414500Y365451D01*
X415476Y365645D01*
X416302Y366198D01*
X416855Y367024D01*
X417049Y368000D01*
X416855Y368975D01*
X416302Y369802D01*
X415476Y370355D01*
X414500Y370549D01*
D02*
G37*
G36*
X558000Y368046D02*
X556953Y367909D01*
X555977Y367504D01*
X555139Y366861D01*
X554496Y366023D01*
X554091Y365047D01*
X553954Y364000D01*
X554091Y362953D01*
X554496Y361977D01*
X555139Y361139D01*
X555977Y360496D01*
X556953Y360091D01*
X558000Y359954D01*
X559047Y360091D01*
X560023Y360496D01*
X560861Y361139D01*
X561504Y361977D01*
X561909Y362953D01*
X562046Y364000D01*
X561909Y365047D01*
X561504Y366023D01*
X560861Y366861D01*
X560023Y367504D01*
X559047Y367909D01*
X558000Y368046D01*
D02*
G37*
G36*
X326286Y358112D02*
X325310Y357918D01*
X324483Y357365D01*
X323931Y356538D01*
X323737Y355563D01*
X323931Y354588D01*
X324483Y353761D01*
X325310Y353208D01*
X326286Y353014D01*
X327261Y353208D01*
X328088Y353761D01*
X328641Y354588D01*
X328835Y355563D01*
X328641Y356538D01*
X328088Y357365D01*
X327261Y357918D01*
X326286Y358112D01*
D02*
G37*
G36*
X378500Y358049D02*
X377524Y357855D01*
X376698Y357302D01*
X376145Y356475D01*
X375951Y355500D01*
X376145Y354524D01*
X376698Y353698D01*
X377524Y353145D01*
X378500Y352951D01*
X379475Y353145D01*
X380302Y353698D01*
X380855Y354524D01*
X381049Y355500D01*
X380855Y356475D01*
X380302Y357302D01*
X379475Y357855D01*
X378500Y358049D01*
D02*
G37*
G36*
X343680D02*
X342705Y357855D01*
X341878Y357302D01*
X341325Y356475D01*
X341131Y355500D01*
X341325Y354524D01*
X341878Y353698D01*
X342705Y353145D01*
X343680Y352951D01*
X344656Y353145D01*
X345482Y353698D01*
X346035Y354524D01*
X346229Y355500D01*
X346035Y356475D01*
X345482Y357302D01*
X344656Y357855D01*
X343680Y358049D01*
D02*
G37*
G36*
X430500Y357549D02*
X429525Y357355D01*
X428698Y356802D01*
X428145Y355976D01*
X427951Y355000D01*
X428145Y354025D01*
X428698Y353198D01*
X429525Y352645D01*
X430500Y352451D01*
X431475Y352645D01*
X432302Y353198D01*
X432855Y354025D01*
X433049Y355000D01*
X432855Y355976D01*
X432302Y356802D01*
X431475Y357355D01*
X430500Y357549D01*
D02*
G37*
G36*
X616000Y346549D02*
X615025Y346355D01*
X614198Y345802D01*
X613645Y344975D01*
X613451Y344000D01*
X613645Y343024D01*
X614198Y342198D01*
X615025Y341645D01*
X616000Y341451D01*
X616975Y341645D01*
X617802Y342198D01*
X618355Y343024D01*
X618549Y344000D01*
X618355Y344975D01*
X617802Y345802D01*
X616975Y346355D01*
X616000Y346549D01*
D02*
G37*
G36*
X569500D02*
X568525Y346355D01*
X567698Y345802D01*
X567145Y344975D01*
X566951Y344000D01*
X567145Y343024D01*
X567698Y342198D01*
X568525Y341645D01*
X569500Y341451D01*
X570475Y341645D01*
X571302Y342198D01*
X571855Y343024D01*
X572049Y344000D01*
X571855Y344975D01*
X571302Y345802D01*
X570475Y346355D01*
X569500Y346549D01*
D02*
G37*
G36*
X413500Y345549D02*
X412525Y345355D01*
X411698Y344802D01*
X411145Y343975D01*
X410951Y343000D01*
X411145Y342024D01*
X411698Y341198D01*
X412525Y340645D01*
X413500Y340451D01*
X414475Y340645D01*
X415302Y341198D01*
X415855Y342024D01*
X416049Y343000D01*
X415855Y343975D01*
X415302Y344802D01*
X414475Y345355D01*
X413500Y345549D01*
D02*
G37*
G36*
X466740Y340789D02*
X465765Y340595D01*
X464938Y340042D01*
X464385Y339216D01*
X464191Y338240D01*
X464385Y337265D01*
X464938Y336438D01*
X465765Y335885D01*
X466740Y335691D01*
X467716Y335885D01*
X468543Y336438D01*
X469095Y337265D01*
X469289Y338240D01*
X469095Y339216D01*
X468543Y340042D01*
X467716Y340595D01*
X466740Y340789D01*
D02*
G37*
G36*
X616000Y337049D02*
X615025Y336855D01*
X614198Y336302D01*
X613645Y335475D01*
X613451Y334500D01*
X613645Y333524D01*
X614198Y332698D01*
X615025Y332145D01*
X616000Y331951D01*
X616975Y332145D01*
X617802Y332698D01*
X618355Y333524D01*
X618549Y334500D01*
X618355Y335475D01*
X617802Y336302D01*
X616975Y336855D01*
X616000Y337049D01*
D02*
G37*
G36*
X349500D02*
X348524Y336855D01*
X347698Y336302D01*
X347145Y335475D01*
X346951Y334500D01*
X347145Y333524D01*
X347698Y332698D01*
X348524Y332145D01*
X349500Y331951D01*
X350476Y332145D01*
X351302Y332698D01*
X351553Y333073D01*
X370909D01*
X378654Y325327D01*
X378373Y324901D01*
X377522Y325071D01*
X376546Y324877D01*
X375719Y324324D01*
X375469Y323949D01*
X365070D01*
X359009Y330009D01*
X358546Y330319D01*
X358000Y330427D01*
X358000Y330427D01*
X345553D01*
X345302Y330802D01*
X344476Y331355D01*
X343500Y331549D01*
X342525Y331355D01*
X341698Y330802D01*
X341145Y329976D01*
X340951Y329000D01*
X341145Y328025D01*
X341698Y327198D01*
X342525Y326645D01*
X343500Y326451D01*
X344476Y326645D01*
X345302Y327198D01*
X345553Y327573D01*
X357409D01*
X363469Y321512D01*
X363469Y321512D01*
X363932Y321203D01*
X364478Y321094D01*
X364478Y321094D01*
X375469D01*
X375719Y320719D01*
X376546Y320167D01*
X377522Y319973D01*
X378497Y320167D01*
X379324Y320719D01*
X379877Y321546D01*
X380071Y322522D01*
X379901Y323373D01*
X380327Y323654D01*
X383491Y320491D01*
X383491Y320491D01*
X383954Y320181D01*
X384439Y320085D01*
X384698Y319698D01*
X385525Y319145D01*
X386500Y318951D01*
X387475Y319145D01*
X388302Y319698D01*
X388855Y320525D01*
X389049Y321500D01*
X388855Y322476D01*
X388302Y323302D01*
X387475Y323855D01*
X386500Y324049D01*
X385525Y323855D01*
X384709Y323310D01*
X372509Y335509D01*
X372046Y335819D01*
X371500Y335927D01*
X371500Y335927D01*
X351553D01*
X351302Y336302D01*
X350476Y336855D01*
X349500Y337049D01*
D02*
G37*
G36*
X568500Y329049D02*
X567524Y328855D01*
X566698Y328302D01*
X566145Y327476D01*
X565951Y326500D01*
X566145Y325524D01*
X566698Y324698D01*
X567524Y324145D01*
X568500Y323951D01*
X569476Y324145D01*
X570302Y324698D01*
X570855Y325524D01*
X571049Y326500D01*
X570855Y327476D01*
X570302Y328302D01*
X569476Y328855D01*
X568500Y329049D01*
D02*
G37*
G36*
X538500Y328049D02*
X537525Y327855D01*
X536698Y327302D01*
X536145Y326476D01*
X535951Y325500D01*
X536145Y324524D01*
X536698Y323698D01*
X537525Y323145D01*
X538500Y322951D01*
X539475Y323145D01*
X540302Y323698D01*
X540855Y324524D01*
X541049Y325500D01*
X540855Y326476D01*
X540302Y327302D01*
X539475Y327855D01*
X538500Y328049D01*
D02*
G37*
G36*
X616000Y327549D02*
X615025Y327355D01*
X614198Y326802D01*
X613645Y325975D01*
X613451Y325000D01*
X613645Y324025D01*
X614198Y323198D01*
X615025Y322645D01*
X616000Y322451D01*
X616975Y322645D01*
X617802Y323198D01*
X618355Y324025D01*
X618549Y325000D01*
X618355Y325975D01*
X617802Y326802D01*
X616975Y327355D01*
X616000Y327549D01*
D02*
G37*
G36*
X417937Y327486D02*
X416962Y327292D01*
X416135Y326739D01*
X415582Y325912D01*
X415388Y324937D01*
X415582Y323962D01*
X416135Y323135D01*
X416962Y322582D01*
X417937Y322388D01*
X418913Y322582D01*
X419739Y323135D01*
X420292Y323962D01*
X420486Y324937D01*
X420292Y325912D01*
X419739Y326739D01*
X418913Y327292D01*
X417937Y327486D01*
D02*
G37*
G36*
X356500Y324049D02*
X355524Y323855D01*
X354698Y323302D01*
X354145Y322476D01*
X353951Y321500D01*
X354145Y320525D01*
X354698Y319698D01*
X355524Y319145D01*
X356500Y318951D01*
X357475Y319145D01*
X358302Y319698D01*
X358855Y320525D01*
X359049Y321500D01*
X358855Y322476D01*
X358302Y323302D01*
X357475Y323855D01*
X356500Y324049D01*
D02*
G37*
G36*
X316500Y323049D02*
X315525Y322855D01*
X314698Y322302D01*
X314145Y321476D01*
X313951Y320500D01*
X314145Y319525D01*
X314698Y318698D01*
X315525Y318145D01*
X316500Y317951D01*
X317476Y318145D01*
X318302Y318698D01*
X318855Y319525D01*
X319049Y320500D01*
X318855Y321476D01*
X318302Y322302D01*
X317476Y322855D01*
X316500Y323049D01*
D02*
G37*
G36*
X390500Y319049D02*
X389525Y318855D01*
X388698Y318302D01*
X388145Y317476D01*
X387951Y316500D01*
X388145Y315525D01*
X388698Y314698D01*
X389525Y314145D01*
X390500Y313951D01*
X391476Y314145D01*
X392302Y314698D01*
X392855Y315525D01*
X393049Y316500D01*
X392855Y317476D01*
X392302Y318302D01*
X391476Y318855D01*
X390500Y319049D01*
D02*
G37*
G36*
X382500D02*
X381524Y318855D01*
X380698Y318302D01*
X380145Y317476D01*
X379951Y316500D01*
X380145Y315525D01*
X380698Y314698D01*
X381524Y314145D01*
X382500Y313951D01*
X383475Y314145D01*
X384302Y314698D01*
X384855Y315525D01*
X385049Y316500D01*
X384855Y317476D01*
X384302Y318302D01*
X383475Y318855D01*
X382500Y319049D01*
D02*
G37*
G36*
X616000Y318549D02*
X615025Y318355D01*
X614198Y317802D01*
X613645Y316975D01*
X613451Y316000D01*
X613645Y315024D01*
X614198Y314198D01*
X615025Y313645D01*
X616000Y313451D01*
X616975Y313645D01*
X617802Y314198D01*
X618355Y315024D01*
X618549Y316000D01*
X618355Y316975D01*
X617802Y317802D01*
X616975Y318355D01*
X616000Y318549D01*
D02*
G37*
G36*
X330500Y281049D02*
X329524Y280855D01*
X328698Y280302D01*
X328145Y279475D01*
X327951Y278500D01*
X328145Y277524D01*
X328698Y276698D01*
X329524Y276145D01*
X330500Y275951D01*
X331475Y276145D01*
X332302Y276698D01*
X332855Y277524D01*
X333049Y278500D01*
X332855Y279475D01*
X332302Y280302D01*
X331475Y280855D01*
X330500Y281049D01*
D02*
G37*
G36*
X416500Y278549D02*
X415524Y278355D01*
X414698Y277802D01*
X414145Y276975D01*
X413951Y276000D01*
X414145Y275025D01*
X414698Y274198D01*
X415524Y273645D01*
X416500Y273451D01*
X417476Y273645D01*
X418302Y274198D01*
X418855Y275025D01*
X419049Y276000D01*
X418855Y276975D01*
X418302Y277802D01*
X417476Y278355D01*
X416500Y278549D01*
D02*
G37*
G36*
X388000Y277549D02*
X387024Y277355D01*
X386198Y276802D01*
X385645Y275975D01*
X385451Y275000D01*
X385645Y274025D01*
X386198Y273198D01*
X387024Y272645D01*
X388000Y272451D01*
X388976Y272645D01*
X389802Y273198D01*
X390355Y274025D01*
X390549Y275000D01*
X390355Y275975D01*
X389802Y276802D01*
X388976Y277355D01*
X388000Y277549D01*
D02*
G37*
G36*
X231500Y276549D02*
X230524Y276355D01*
X229698Y275802D01*
X229145Y274975D01*
X228951Y274000D01*
X229145Y273025D01*
X229698Y272198D01*
X230524Y271645D01*
X231500Y271451D01*
X232475Y271645D01*
X233302Y272198D01*
X233855Y273025D01*
X234049Y274000D01*
X233855Y274975D01*
X233302Y275802D01*
X232475Y276355D01*
X231500Y276549D01*
D02*
G37*
G36*
X224833D02*
X223858Y276355D01*
X223031Y275802D01*
X222478Y274975D01*
X222284Y274000D01*
X222478Y273025D01*
X223031Y272198D01*
X223858Y271645D01*
X224833Y271451D01*
X225809Y271645D01*
X226636Y272198D01*
X227188Y273025D01*
X227382Y274000D01*
X227188Y274975D01*
X226636Y275802D01*
X225809Y276355D01*
X224833Y276549D01*
D02*
G37*
G36*
X218167D02*
X217191Y276355D01*
X216364Y275802D01*
X215812Y274975D01*
X215618Y274000D01*
X215812Y273025D01*
X216364Y272198D01*
X217191Y271645D01*
X218167Y271451D01*
X219142Y271645D01*
X219969Y272198D01*
X220522Y273025D01*
X220716Y274000D01*
X220522Y274975D01*
X219969Y275802D01*
X219142Y276355D01*
X218167Y276549D01*
D02*
G37*
G36*
X211500D02*
X210525Y276355D01*
X209698Y275802D01*
X209145Y274975D01*
X208951Y274000D01*
X209145Y273025D01*
X209698Y272198D01*
X210525Y271645D01*
X211500Y271451D01*
X212475Y271645D01*
X213302Y272198D01*
X213855Y273025D01*
X214049Y274000D01*
X213855Y274975D01*
X213302Y275802D01*
X212475Y276355D01*
X211500Y276549D01*
D02*
G37*
G36*
X255250Y269049D02*
X254275Y268855D01*
X253448Y268302D01*
X252895Y267476D01*
X252890Y267448D01*
X251360D01*
X251355Y267476D01*
X250802Y268302D01*
X249975Y268855D01*
X249000Y269049D01*
X248025Y268855D01*
X247198Y268302D01*
X246645Y267476D01*
X246451Y266500D01*
X246645Y265525D01*
X247198Y264698D01*
X248025Y264145D01*
X249000Y263951D01*
X249975Y264145D01*
X250802Y264698D01*
X251355Y265525D01*
X251360Y265551D01*
X252890D01*
X252895Y265525D01*
X253448Y264698D01*
X254275Y264145D01*
X255250Y263951D01*
X256225Y264145D01*
X257052Y264698D01*
X257605Y265525D01*
X257799Y266500D01*
X257605Y267476D01*
X257052Y268302D01*
X256225Y268855D01*
X255250Y269049D01*
D02*
G37*
G36*
Y261049D02*
X254275Y260855D01*
X253448Y260302D01*
X252895Y259475D01*
X252890Y259449D01*
X251360D01*
X251355Y259475D01*
X250802Y260302D01*
X249975Y260855D01*
X249000Y261049D01*
X248025Y260855D01*
X247198Y260302D01*
X246645Y259475D01*
X246451Y258500D01*
X246645Y257524D01*
X247198Y256698D01*
X248025Y256145D01*
X249000Y255951D01*
X249975Y256145D01*
X250802Y256698D01*
X251355Y257524D01*
X251360Y257552D01*
X252890D01*
X252895Y257524D01*
X253448Y256698D01*
X254275Y256145D01*
X255250Y255951D01*
X256225Y256145D01*
X257052Y256698D01*
X257605Y257524D01*
X257799Y258500D01*
X257605Y259475D01*
X257052Y260302D01*
X256225Y260855D01*
X255250Y261049D01*
D02*
G37*
G36*
Y253549D02*
X254275Y253355D01*
X253448Y252802D01*
X252895Y251975D01*
X252890Y251948D01*
X251360D01*
X251355Y251975D01*
X250802Y252802D01*
X249975Y253355D01*
X249000Y253549D01*
X248025Y253355D01*
X247198Y252802D01*
X246645Y251975D01*
X246451Y251000D01*
X246645Y250025D01*
X247198Y249198D01*
X248025Y248645D01*
X249000Y248451D01*
X249975Y248645D01*
X250802Y249198D01*
X251355Y250025D01*
X251360Y250051D01*
X252890D01*
X252895Y250025D01*
X253448Y249198D01*
X254275Y248645D01*
X255250Y248451D01*
X256225Y248645D01*
X257052Y249198D01*
X257605Y250025D01*
X257799Y251000D01*
X257605Y251975D01*
X257052Y252802D01*
X256225Y253355D01*
X255250Y253549D01*
D02*
G37*
G36*
X427500Y256549D02*
X426524Y256355D01*
X425698Y255802D01*
X425145Y254976D01*
X424951Y254000D01*
X425145Y253025D01*
X425698Y252198D01*
X426524Y251645D01*
X427500Y251451D01*
X428476Y251645D01*
X429302Y252198D01*
X429855Y253025D01*
X430049Y254000D01*
X429855Y254976D01*
X429302Y255802D01*
X428476Y256355D01*
X427500Y256549D01*
D02*
G37*
G36*
X378500Y255049D02*
X377524Y254855D01*
X376698Y254302D01*
X376145Y253475D01*
X375951Y252500D01*
X376145Y251524D01*
X376698Y250698D01*
X377524Y250145D01*
X378500Y249951D01*
X379475Y250145D01*
X380302Y250698D01*
X380855Y251524D01*
X381049Y252500D01*
X380855Y253475D01*
X380302Y254302D01*
X379475Y254855D01*
X378500Y255049D01*
D02*
G37*
G36*
X362500Y254549D02*
X361525Y254355D01*
X360698Y253802D01*
X360145Y252976D01*
X359951Y252000D01*
X360145Y251025D01*
X360698Y250198D01*
X361525Y249645D01*
X362500Y249451D01*
X363475Y249645D01*
X364302Y250198D01*
X364855Y251025D01*
X365049Y252000D01*
X364855Y252976D01*
X364302Y253802D01*
X363475Y254355D01*
X362500Y254549D01*
D02*
G37*
G36*
X195000Y252549D02*
X194025Y252355D01*
X193198Y251802D01*
X192645Y250975D01*
X192451Y250000D01*
X192645Y249025D01*
X193198Y248198D01*
X194025Y247645D01*
X195000Y247451D01*
X195975Y247645D01*
X196802Y248198D01*
X197355Y249025D01*
X197549Y250000D01*
X197355Y250975D01*
X196802Y251802D01*
X195975Y252355D01*
X195000Y252549D01*
D02*
G37*
G36*
X362500Y247549D02*
X361525Y247355D01*
X360698Y246802D01*
X360145Y245975D01*
X359951Y245000D01*
X360145Y244024D01*
X360698Y243198D01*
X361525Y242645D01*
X362500Y242451D01*
X363475Y242645D01*
X364302Y243198D01*
X364855Y244024D01*
X365049Y245000D01*
X364855Y245975D01*
X364302Y246802D01*
X363475Y247355D01*
X362500Y247549D01*
D02*
G37*
G36*
X329000Y243049D02*
X328025Y242855D01*
X327198Y242302D01*
X326947Y241927D01*
X321500D01*
X321500Y241927D01*
X320954Y241819D01*
X320491Y241509D01*
X320491Y241509D01*
X317491Y238509D01*
X317181Y238046D01*
X317073Y237500D01*
X317073Y237500D01*
Y226591D01*
X307409Y216927D01*
X298053D01*
X297802Y217302D01*
X296975Y217855D01*
X296000Y218049D01*
X295024Y217855D01*
X294198Y217302D01*
X293645Y216476D01*
X293451Y215500D01*
X293645Y214525D01*
X294198Y213698D01*
X295024Y213145D01*
X296000Y212951D01*
X296975Y213145D01*
X297802Y213698D01*
X298053Y214073D01*
X308000D01*
X308000Y214073D01*
X308546Y214181D01*
X309009Y214491D01*
X319509Y224991D01*
X319509Y224991D01*
X319819Y225454D01*
X319927Y226000D01*
Y236909D01*
X322091Y239073D01*
X326947D01*
X327198Y238698D01*
X328025Y238145D01*
X329000Y237951D01*
X329976Y238145D01*
X330802Y238698D01*
X331355Y239525D01*
X331549Y240500D01*
X331355Y241476D01*
X330802Y242302D01*
X329976Y242855D01*
X329000Y243049D01*
D02*
G37*
G36*
X335500Y245049D02*
X334524Y244855D01*
X333698Y244302D01*
X333145Y243476D01*
X332951Y242500D01*
X333145Y241525D01*
X333698Y240698D01*
X334524Y240145D01*
X335500Y239951D01*
X336475Y240145D01*
X337302Y240698D01*
X337855Y241525D01*
X338049Y242500D01*
X337855Y243476D01*
X337302Y244302D01*
X336475Y244855D01*
X335500Y245049D01*
D02*
G37*
G36*
X362500Y240049D02*
X361525Y239855D01*
X360698Y239302D01*
X360145Y238475D01*
X359951Y237500D01*
X360145Y236525D01*
X360698Y235698D01*
X361525Y235145D01*
X362500Y234951D01*
X363475Y235145D01*
X364302Y235698D01*
X364855Y236525D01*
X365049Y237500D01*
X364855Y238475D01*
X364302Y239302D01*
X363475Y239855D01*
X362500Y240049D01*
D02*
G37*
G36*
X413500Y237549D02*
X412525Y237355D01*
X411698Y236802D01*
X411145Y235976D01*
X410951Y235000D01*
X411145Y234025D01*
X411698Y233198D01*
X412525Y232645D01*
X413500Y232451D01*
X414475Y232645D01*
X415302Y233198D01*
X415855Y234025D01*
X416049Y235000D01*
X415855Y235976D01*
X415302Y236802D01*
X414475Y237355D01*
X413500Y237549D01*
D02*
G37*
G36*
X326240Y236963D02*
X325265Y236769D01*
X324438Y236217D01*
X323885Y235390D01*
X323691Y234414D01*
X323885Y233439D01*
X324438Y232612D01*
X325265Y232059D01*
X326240Y231865D01*
X327216Y232059D01*
X328043Y232612D01*
X328595Y233439D01*
X328789Y234414D01*
X328595Y235390D01*
X328043Y236217D01*
X327216Y236769D01*
X326240Y236963D01*
D02*
G37*
G36*
X181260Y240049D02*
X180284Y239855D01*
X179457Y239302D01*
X178905Y238475D01*
X178711Y237500D01*
X178905Y236525D01*
X179457Y235698D01*
X180284Y235145D01*
X181260Y234951D01*
X181914Y235081D01*
X182692Y234273D01*
X182906Y233865D01*
X182645Y233475D01*
X182451Y232500D01*
X182645Y231524D01*
X183198Y230698D01*
X184025Y230145D01*
X185000Y229951D01*
X185976Y230145D01*
X186802Y230698D01*
X187355Y231524D01*
X187549Y232500D01*
X187355Y233475D01*
X186802Y234302D01*
X185976Y234855D01*
X185000Y235049D01*
X184346Y234919D01*
X183568Y235727D01*
X183354Y236135D01*
X183615Y236525D01*
X183809Y237500D01*
X183615Y238475D01*
X183062Y239302D01*
X182235Y239855D01*
X181260Y240049D01*
D02*
G37*
G36*
X381000Y233049D02*
X380025Y232855D01*
X379198Y232302D01*
X378645Y231475D01*
X378451Y230500D01*
X378645Y229524D01*
X379198Y228698D01*
X380025Y228145D01*
X381000Y227951D01*
X381976Y228145D01*
X382802Y228698D01*
X383355Y229524D01*
X383549Y230500D01*
X383355Y231475D01*
X382802Y232302D01*
X381976Y232855D01*
X381000Y233049D01*
D02*
G37*
G36*
X347000Y232549D02*
X346024Y232355D01*
X345198Y231802D01*
X344645Y230976D01*
X344451Y230000D01*
X344645Y229025D01*
X345198Y228198D01*
X346024Y227645D01*
X347000Y227451D01*
X347975Y227645D01*
X348802Y228198D01*
X349355Y229025D01*
X349549Y230000D01*
X349355Y230976D01*
X348802Y231802D01*
X347975Y232355D01*
X347000Y232549D01*
D02*
G37*
G36*
X282750Y222049D02*
X281774Y221855D01*
X280948Y221302D01*
X280395Y220476D01*
X280390Y220448D01*
X278860D01*
X278855Y220476D01*
X278302Y221302D01*
X277476Y221855D01*
X276500Y222049D01*
X275524Y221855D01*
X274698Y221302D01*
X274145Y220476D01*
X273951Y219500D01*
X274145Y218525D01*
X274698Y217698D01*
X275524Y217145D01*
X276500Y216951D01*
X277476Y217145D01*
X278302Y217698D01*
X278855Y218525D01*
X278860Y218551D01*
X280390D01*
X280395Y218525D01*
X280948Y217698D01*
X281774Y217145D01*
X282750Y216951D01*
X283726Y217145D01*
X284552Y217698D01*
X285105Y218525D01*
X285299Y219500D01*
X285105Y220476D01*
X284552Y221302D01*
X283726Y221855D01*
X282750Y222049D01*
D02*
G37*
G36*
X381000Y225049D02*
X380025Y224855D01*
X379198Y224302D01*
X378645Y223476D01*
X378451Y222500D01*
X378645Y221525D01*
X379198Y220698D01*
X380025Y220145D01*
X381000Y219951D01*
X381976Y220145D01*
X382802Y220698D01*
X383355Y221525D01*
X383549Y222500D01*
X383355Y223476D01*
X382802Y224302D01*
X381976Y224855D01*
X381000Y225049D01*
D02*
G37*
G36*
X282750Y214549D02*
X281774Y214355D01*
X280948Y213802D01*
X280395Y212976D01*
X280390Y212948D01*
X278860D01*
X278855Y212976D01*
X278302Y213802D01*
X277476Y214355D01*
X276500Y214549D01*
X275524Y214355D01*
X274698Y213802D01*
X274145Y212976D01*
X273951Y212000D01*
X274145Y211024D01*
X274698Y210198D01*
X275524Y209645D01*
X276500Y209451D01*
X277476Y209645D01*
X278302Y210198D01*
X278855Y211024D01*
X278860Y211052D01*
X280390D01*
X280395Y211024D01*
X280948Y210198D01*
X281774Y209645D01*
X282750Y209451D01*
X283726Y209645D01*
X284552Y210198D01*
X285105Y211024D01*
X285299Y212000D01*
X285105Y212976D01*
X284552Y213802D01*
X283726Y214355D01*
X282750Y214549D01*
D02*
G37*
G36*
X322500Y212549D02*
X321525Y212355D01*
X320698Y211802D01*
X320145Y210976D01*
X319951Y210000D01*
X320145Y209025D01*
X320698Y208198D01*
X321525Y207645D01*
X322500Y207451D01*
X323476Y207645D01*
X324302Y208198D01*
X324855Y209025D01*
X325049Y210000D01*
X324855Y210976D01*
X324302Y211802D01*
X323476Y212355D01*
X322500Y212549D01*
D02*
G37*
G36*
X224000Y209549D02*
X223025Y209355D01*
X222198Y208802D01*
X221645Y207976D01*
X221451Y207000D01*
X221645Y206025D01*
X222198Y205198D01*
X223025Y204645D01*
X224000Y204451D01*
X224975Y204645D01*
X225802Y205198D01*
X226355Y206025D01*
X226549Y207000D01*
X226355Y207976D01*
X225802Y208802D01*
X224975Y209355D01*
X224000Y209549D01*
D02*
G37*
G36*
X369449Y206498D02*
X368473Y206304D01*
X367646Y205751D01*
X367094Y204924D01*
X366900Y203949D01*
X367094Y202973D01*
X367646Y202146D01*
X368473Y201594D01*
X369449Y201400D01*
X370424Y201594D01*
X371251Y202146D01*
X371804Y202973D01*
X371998Y203949D01*
X371804Y204924D01*
X371251Y205751D01*
X370424Y206304D01*
X369449Y206498D01*
D02*
G37*
G36*
X182500Y200049D02*
X181525Y199855D01*
X180698Y199302D01*
X180145Y198476D01*
X179951Y197500D01*
X180145Y196525D01*
X180698Y195698D01*
X181525Y195145D01*
X182500Y194951D01*
X183475Y195145D01*
X184302Y195698D01*
X184855Y196525D01*
X185049Y197500D01*
X184855Y198476D01*
X184302Y199302D01*
X183475Y199855D01*
X182500Y200049D01*
D02*
G37*
G36*
X398500Y198549D02*
X397524Y198355D01*
X396698Y197802D01*
X396145Y196976D01*
X395951Y196000D01*
X396145Y195025D01*
X396698Y194198D01*
X397524Y193645D01*
X398500Y193451D01*
X399476Y193645D01*
X400302Y194198D01*
X400855Y195025D01*
X401049Y196000D01*
X400855Y196976D01*
X400302Y197802D01*
X399476Y198355D01*
X398500Y198549D01*
D02*
G37*
G36*
X350000Y218049D02*
X349025Y217855D01*
X348198Y217302D01*
X347645Y216476D01*
X347451Y215500D01*
X347645Y214525D01*
X348198Y213698D01*
X348907Y213224D01*
X349025Y213145D01*
X349088Y213116D01*
X349285Y213026D01*
Y211474D01*
X349097Y211388D01*
X349025Y211355D01*
X348961Y211313D01*
X348198Y210802D01*
X347645Y209976D01*
X347451Y209000D01*
X347645Y208025D01*
X348198Y207198D01*
X348907Y206724D01*
X349025Y206645D01*
X349088Y206616D01*
X349285Y206526D01*
Y204974D01*
X349097Y204888D01*
X349025Y204855D01*
X348961Y204813D01*
X348198Y204302D01*
X347645Y203475D01*
X347451Y202500D01*
X347645Y201524D01*
X348198Y200698D01*
X348907Y200224D01*
X349025Y200145D01*
X349088Y200116D01*
X349285Y200026D01*
Y198474D01*
X349097Y198388D01*
X349025Y198355D01*
X348961Y198313D01*
X348198Y197802D01*
X347645Y196976D01*
X347451Y196000D01*
X347645Y195025D01*
X348198Y194198D01*
X349025Y193645D01*
X350000Y193451D01*
X350975Y193645D01*
X351802Y194198D01*
X352355Y195025D01*
X352549Y196000D01*
X352355Y196976D01*
X351802Y197802D01*
X351093Y198276D01*
X350975Y198355D01*
X350912Y198384D01*
X350715Y198474D01*
Y200026D01*
X350903Y200112D01*
X350975Y200145D01*
X351039Y200187D01*
X351802Y200698D01*
X352355Y201524D01*
X352549Y202500D01*
X352355Y203475D01*
X351802Y204302D01*
X351093Y204776D01*
X350975Y204855D01*
X350912Y204884D01*
X350715Y204974D01*
Y206526D01*
X350903Y206612D01*
X350975Y206645D01*
X351039Y206687D01*
X351802Y207198D01*
X352355Y208025D01*
X352549Y209000D01*
X352355Y209976D01*
X351802Y210802D01*
X351093Y211276D01*
X350975Y211355D01*
X350912Y211384D01*
X350715Y211474D01*
Y213026D01*
X350903Y213112D01*
X350975Y213145D01*
X351039Y213187D01*
X351802Y213698D01*
X352355Y214525D01*
X352549Y215500D01*
X352355Y216476D01*
X351802Y217302D01*
X350975Y217855D01*
X350000Y218049D01*
D02*
G37*
G36*
X343000D02*
X342024Y217855D01*
X341198Y217302D01*
X340645Y216476D01*
X340451Y215500D01*
X340645Y214525D01*
X341198Y213698D01*
X341907Y213224D01*
X342024Y213145D01*
X342088Y213116D01*
X342285Y213026D01*
Y211474D01*
X342097Y211388D01*
X342024Y211355D01*
X341961Y211313D01*
X341198Y210802D01*
X340645Y209976D01*
X340451Y209000D01*
X340645Y208025D01*
X341198Y207198D01*
X341907Y206724D01*
X342024Y206645D01*
X342088Y206616D01*
X342285Y206526D01*
Y204974D01*
X342097Y204888D01*
X342024Y204855D01*
X341961Y204813D01*
X341198Y204302D01*
X340645Y203475D01*
X340451Y202500D01*
X340645Y201524D01*
X341198Y200698D01*
X341907Y200224D01*
X342024Y200145D01*
X342088Y200116D01*
X342285Y200026D01*
Y198474D01*
X342097Y198388D01*
X342024Y198355D01*
X341961Y198313D01*
X341198Y197802D01*
X340645Y196976D01*
X340451Y196000D01*
X340645Y195025D01*
X341198Y194198D01*
X342024Y193645D01*
X343000Y193451D01*
X343975Y193645D01*
X344802Y194198D01*
X345355Y195025D01*
X345549Y196000D01*
X345355Y196976D01*
X344802Y197802D01*
X344093Y198276D01*
X343975Y198355D01*
X343912Y198384D01*
X343715Y198474D01*
Y200026D01*
X343903Y200112D01*
X343975Y200145D01*
X344039Y200187D01*
X344802Y200698D01*
X345355Y201524D01*
X345549Y202500D01*
X345355Y203475D01*
X344802Y204302D01*
X344093Y204776D01*
X343975Y204855D01*
X343912Y204884D01*
X343715Y204974D01*
Y206526D01*
X343903Y206612D01*
X343975Y206645D01*
X344039Y206687D01*
X344802Y207198D01*
X345355Y208025D01*
X345549Y209000D01*
X345355Y209976D01*
X344802Y210802D01*
X344093Y211276D01*
X343975Y211355D01*
X343912Y211384D01*
X343715Y211474D01*
Y213026D01*
X343903Y213112D01*
X343975Y213145D01*
X344039Y213187D01*
X344802Y213698D01*
X345355Y214525D01*
X345549Y215500D01*
X345355Y216476D01*
X344802Y217302D01*
X343975Y217855D01*
X343000Y218049D01*
D02*
G37*
G36*
X307500Y192549D02*
X306524Y192355D01*
X305698Y191802D01*
X305145Y190975D01*
X304951Y190000D01*
X305145Y189024D01*
X305698Y188198D01*
X306524Y187645D01*
X307500Y187451D01*
X308475Y187645D01*
X309302Y188198D01*
X309855Y189024D01*
X310049Y190000D01*
X309855Y190975D01*
X309302Y191802D01*
X308475Y192355D01*
X307500Y192549D01*
D02*
G37*
G36*
X300000D02*
X299025Y192355D01*
X298198Y191802D01*
X297645Y190975D01*
X297451Y190000D01*
X297645Y189024D01*
X298198Y188198D01*
X299025Y187645D01*
X300000Y187451D01*
X300975Y187645D01*
X301802Y188198D01*
X302355Y189024D01*
X302549Y190000D01*
X302355Y190975D01*
X301802Y191802D01*
X300975Y192355D01*
X300000Y192549D01*
D02*
G37*
G36*
X267000Y198049D02*
X266024Y197855D01*
X265198Y197302D01*
X264645Y196476D01*
X264451Y195500D01*
X264645Y194525D01*
X265198Y193698D01*
X266024Y193145D01*
X266052Y193140D01*
Y191610D01*
X266024Y191605D01*
X265198Y191052D01*
X264645Y190226D01*
X264451Y189250D01*
X264645Y188275D01*
X265198Y187448D01*
X266024Y186895D01*
X267000Y186701D01*
X267975Y186895D01*
X268802Y187448D01*
X269355Y188275D01*
X269549Y189250D01*
X269355Y190226D01*
X268802Y191052D01*
X267975Y191605D01*
X267949Y191610D01*
Y193140D01*
X267975Y193145D01*
X268802Y193698D01*
X269355Y194525D01*
X269549Y195500D01*
X269355Y196476D01*
X268802Y197302D01*
X267975Y197855D01*
X267000Y198049D01*
D02*
G37*
G36*
X259000D02*
X258025Y197855D01*
X257198Y197302D01*
X256645Y196476D01*
X256451Y195500D01*
X256645Y194525D01*
X257198Y193698D01*
X258025Y193145D01*
X258051Y193140D01*
Y191610D01*
X258025Y191605D01*
X257198Y191052D01*
X256645Y190226D01*
X256451Y189250D01*
X256645Y188275D01*
X257198Y187448D01*
X258025Y186895D01*
X259000Y186701D01*
X259976Y186895D01*
X260802Y187448D01*
X261355Y188275D01*
X261549Y189250D01*
X261355Y190226D01*
X260802Y191052D01*
X259976Y191605D01*
X259948Y191610D01*
Y193140D01*
X259976Y193145D01*
X260802Y193698D01*
X261355Y194525D01*
X261549Y195500D01*
X261355Y196476D01*
X260802Y197302D01*
X259976Y197855D01*
X259000Y198049D01*
D02*
G37*
G36*
X251500D02*
X250524Y197855D01*
X249698Y197302D01*
X249145Y196476D01*
X248951Y195500D01*
X249145Y194525D01*
X249698Y193698D01*
X250524Y193145D01*
X250552Y193140D01*
Y191610D01*
X250524Y191605D01*
X249698Y191052D01*
X249145Y190226D01*
X248951Y189250D01*
X249145Y188275D01*
X249698Y187448D01*
X250524Y186895D01*
X251500Y186701D01*
X252476Y186895D01*
X253302Y187448D01*
X253855Y188275D01*
X254049Y189250D01*
X253855Y190226D01*
X253302Y191052D01*
X252476Y191605D01*
X252449Y191610D01*
Y193140D01*
X252476Y193145D01*
X253302Y193698D01*
X253855Y194525D01*
X254049Y195500D01*
X253855Y196476D01*
X253302Y197302D01*
X252476Y197855D01*
X251500Y198049D01*
D02*
G37*
G36*
X444500Y195082D02*
X443314Y194926D01*
X442209Y194469D01*
X441260Y193740D01*
X440531Y192791D01*
X440074Y191686D01*
X439918Y190500D01*
X440074Y189314D01*
X440531Y188209D01*
X441260Y187260D01*
X442209Y186531D01*
X443314Y186074D01*
X444500Y185917D01*
X445686Y186074D01*
X446791Y186531D01*
X447740Y187260D01*
X448469Y188209D01*
X448926Y189314D01*
X449083Y190500D01*
X448926Y191686D01*
X448469Y192791D01*
X447740Y193740D01*
X446791Y194469D01*
X445686Y194926D01*
X444500Y195082D01*
D02*
G37*
G36*
X411776Y190325D02*
X410800Y190130D01*
X409973Y189578D01*
X409421Y188751D01*
X409227Y187776D01*
X409421Y186800D01*
X409973Y185973D01*
X410800Y185421D01*
X411776Y185227D01*
X412751Y185421D01*
X413578Y185973D01*
X414130Y186800D01*
X414325Y187776D01*
X414130Y188751D01*
X413578Y189578D01*
X412751Y190130D01*
X411776Y190325D01*
D02*
G37*
G36*
X377276D02*
X376300Y190130D01*
X375473Y189578D01*
X374921Y188751D01*
X374727Y187776D01*
X374921Y186800D01*
X375473Y185973D01*
X376300Y185421D01*
X377276Y185227D01*
X378251Y185421D01*
X379078Y185973D01*
X379630Y186800D01*
X379825Y187776D01*
X379630Y188751D01*
X379078Y189578D01*
X378251Y190130D01*
X377276Y190325D01*
D02*
G37*
G36*
X350000Y190049D02*
X349025Y189855D01*
X348198Y189302D01*
X347645Y188476D01*
X347451Y187500D01*
X347645Y186524D01*
X348198Y185698D01*
X349025Y185145D01*
X350000Y184951D01*
X350975Y185145D01*
X351802Y185698D01*
X352355Y186524D01*
X352549Y187500D01*
X352355Y188476D01*
X351802Y189302D01*
X350975Y189855D01*
X350000Y190049D01*
D02*
G37*
G36*
Y182549D02*
X349025Y182355D01*
X348198Y181802D01*
X347645Y180975D01*
X347451Y180000D01*
X347645Y179025D01*
X348198Y178198D01*
X349025Y177645D01*
X350000Y177451D01*
X350975Y177645D01*
X351802Y178198D01*
X352355Y179025D01*
X352549Y180000D01*
X352355Y180975D01*
X351802Y181802D01*
X350975Y182355D01*
X350000Y182549D01*
D02*
G37*
G36*
X419719Y181831D02*
X418743Y181636D01*
X417916Y181084D01*
X417364Y180257D01*
X417170Y179281D01*
X417364Y178306D01*
X417916Y177479D01*
X418743Y176927D01*
X419719Y176733D01*
X420694Y176927D01*
X421521Y177479D01*
X422074Y178306D01*
X422267Y179281D01*
X422074Y180257D01*
X421521Y181084D01*
X420694Y181636D01*
X419719Y181831D01*
D02*
G37*
G36*
X387000Y181549D02*
X386024Y181355D01*
X385198Y180802D01*
X384645Y179975D01*
X384451Y179000D01*
X384645Y178024D01*
X385198Y177198D01*
X386024Y176645D01*
X387000Y176451D01*
X387976Y176645D01*
X388802Y177198D01*
X389355Y178024D01*
X389549Y179000D01*
X389355Y179975D01*
X388802Y180802D01*
X387976Y181355D01*
X387000Y181549D01*
D02*
G37*
G36*
X217500Y180049D02*
X216525Y179855D01*
X215698Y179302D01*
X215145Y178475D01*
X214951Y177500D01*
X215145Y176524D01*
X215698Y175698D01*
X216525Y175145D01*
X217500Y174951D01*
X218476Y175145D01*
X219302Y175698D01*
X219855Y176524D01*
X220049Y177500D01*
X219855Y178475D01*
X219302Y179302D01*
X218476Y179855D01*
X217500Y180049D01*
D02*
G37*
G36*
X200000D02*
X199024Y179855D01*
X198198Y179302D01*
X197645Y178475D01*
X197451Y177500D01*
X197645Y176524D01*
X198198Y175698D01*
X199024Y175145D01*
X200000Y174951D01*
X200975Y175145D01*
X201802Y175698D01*
X202355Y176524D01*
X202549Y177500D01*
X202355Y178475D01*
X201802Y179302D01*
X200975Y179855D01*
X200000Y180049D01*
D02*
G37*
G36*
X192500Y177049D02*
X191525Y176855D01*
X190698Y176302D01*
X190145Y175476D01*
X189951Y174500D01*
X190145Y173524D01*
X190698Y172698D01*
X191525Y172145D01*
X192500Y171951D01*
X193475Y172145D01*
X194302Y172698D01*
X194855Y173524D01*
X195049Y174500D01*
X194855Y175476D01*
X194302Y176302D01*
X193475Y176855D01*
X192500Y177049D01*
D02*
G37*
G36*
X350000Y175049D02*
X349025Y174855D01*
X348198Y174302D01*
X347645Y173476D01*
X347451Y172500D01*
X347645Y171525D01*
X348198Y170698D01*
X349025Y170145D01*
X350000Y169951D01*
X350975Y170145D01*
X351802Y170698D01*
X352355Y171525D01*
X352549Y172500D01*
X352355Y173476D01*
X351802Y174302D01*
X350975Y174855D01*
X350000Y175049D01*
D02*
G37*
G36*
X226500Y172049D02*
X225524Y171855D01*
X224698Y171302D01*
X224145Y170475D01*
X223951Y169500D01*
X224145Y168525D01*
X224698Y167698D01*
X225524Y167145D01*
X226500Y166951D01*
X227476Y167145D01*
X228302Y167698D01*
X228855Y168525D01*
X229049Y169500D01*
X228855Y170475D01*
X228302Y171302D01*
X227476Y171855D01*
X226500Y172049D01*
D02*
G37*
G36*
X350000Y167549D02*
X349025Y167355D01*
X348198Y166802D01*
X347645Y165975D01*
X347451Y165000D01*
X347645Y164024D01*
X348198Y163198D01*
X349025Y162645D01*
X350000Y162451D01*
X350975Y162645D01*
X351802Y163198D01*
X352355Y164024D01*
X352549Y165000D01*
X352355Y165975D01*
X351802Y166802D01*
X350975Y167355D01*
X350000Y167549D01*
D02*
G37*
G36*
X165000Y157549D02*
X164024Y157355D01*
X163198Y156802D01*
X162645Y155975D01*
X162451Y155000D01*
X162645Y154025D01*
X163198Y153198D01*
X164024Y152645D01*
X165000Y152451D01*
X165975Y152645D01*
X166802Y153198D01*
X167355Y154025D01*
X167549Y155000D01*
X167355Y155975D01*
X166802Y156802D01*
X165975Y157355D01*
X165000Y157549D01*
D02*
G37*
G36*
X201500Y144549D02*
X200524Y144355D01*
X199698Y143802D01*
X199145Y142975D01*
X198951Y142000D01*
X199145Y141024D01*
X199698Y140198D01*
X200524Y139645D01*
X201500Y139451D01*
X202476Y139645D01*
X203302Y140198D01*
X203855Y141024D01*
X204049Y142000D01*
X203855Y142975D01*
X203302Y143802D01*
X202476Y144355D01*
X201500Y144549D01*
D02*
G37*
G36*
X180000Y135049D02*
X179025Y134855D01*
X178198Y134302D01*
X177645Y133475D01*
X177451Y132500D01*
X177645Y131525D01*
X178198Y130698D01*
X179025Y130145D01*
X180000Y129951D01*
X180975Y130145D01*
X181802Y130698D01*
X182355Y131525D01*
X182549Y132500D01*
X182355Y133475D01*
X181802Y134302D01*
X180975Y134855D01*
X180000Y135049D01*
D02*
G37*
%LPD*%
D10*
X178500Y414500D02*
X186000Y422000D01*
X178500Y393000D02*
Y414500D01*
X190500Y353000D02*
X197000Y346500D01*
X212000D01*
X100000Y500000D02*
X700000D01*
X100000Y116000D02*
X700000D01*
Y500000D01*
X100000Y116000D02*
Y500000D01*
D19*
X356500Y309000D02*
D03*
X577500Y257500D02*
D03*
X585500Y274000D02*
D03*
X595500Y273000D02*
D03*
X580750Y272000D02*
D03*
X555500Y270000D02*
D03*
X565500Y270500D02*
D03*
X590500Y270000D02*
D03*
X575500Y275000D02*
D03*
X568000Y257500D02*
D03*
X540500Y272000D02*
D03*
X560500Y274000D02*
D03*
X378500Y411750D02*
D03*
X129500Y129500D02*
D03*
X186000Y422000D02*
D03*
X302000Y409000D02*
D03*
X326500Y416500D02*
D03*
X246500Y341000D02*
D03*
X253500D02*
D03*
X260500D02*
D03*
X372000Y388500D02*
D03*
X386500Y321500D02*
D03*
X409500Y423500D02*
D03*
X178500Y393000D02*
D03*
X201500Y142000D02*
D03*
X197500Y378500D02*
D03*
X190000D02*
D03*
X183000Y371000D02*
D03*
X190000Y370500D02*
D03*
X197500D02*
D03*
X322500Y210000D02*
D03*
X430500Y355000D02*
D03*
X583500Y120500D02*
D03*
X333000Y305500D02*
D03*
X390254Y299254D02*
D03*
X369500Y383000D02*
D03*
X596000Y378000D02*
D03*
X597000Y189500D02*
D03*
X496000Y286500D02*
D03*
Y280000D02*
D03*
X503000D02*
D03*
X509500Y274371D02*
D03*
X503000Y274500D02*
D03*
X542000Y215000D02*
D03*
X553000Y225500D02*
D03*
X400500Y411000D02*
D03*
X170500Y250000D02*
D03*
X198500Y395500D02*
D03*
X632000Y489500D02*
D03*
X225000Y307000D02*
D03*
X189000Y397500D02*
D03*
X212000Y346500D02*
D03*
X634500Y366000D02*
D03*
X627500Y361500D02*
D03*
X523000Y358500D02*
D03*
X484500Y377500D02*
D03*
X616000Y383000D02*
D03*
X364500Y215500D02*
D03*
X372000Y212000D02*
D03*
X379500Y208500D02*
D03*
X489720Y226098D02*
D03*
X356000Y274000D02*
D03*
X365000Y277000D02*
D03*
X118000Y267500D02*
D03*
X307500Y407000D02*
D03*
X477500Y378063D02*
D03*
X320500Y390500D02*
D03*
Y385000D02*
D03*
X302000Y423500D02*
D03*
X370000Y399000D02*
D03*
X495000Y316000D02*
D03*
X490500Y321000D02*
D03*
X507000Y314000D02*
D03*
X327500Y311500D02*
D03*
X343600Y297500D02*
D03*
X326500Y300350D02*
D03*
X356010Y297290D02*
D03*
X343500Y329000D02*
D03*
X517000Y282000D02*
D03*
X522500Y293000D02*
D03*
X514500Y246000D02*
D03*
X514750Y254750D02*
D03*
X604500Y258000D02*
D03*
X600000Y252500D02*
D03*
X485000Y318500D02*
D03*
X468500D02*
D03*
X358500Y282000D02*
D03*
X337000Y293000D02*
D03*
X206500Y290000D02*
D03*
X164125Y171625D02*
D03*
X168000Y177000D02*
D03*
X202750Y126750D02*
D03*
X211500Y310500D02*
D03*
X226500Y169500D02*
D03*
X225500Y199000D02*
D03*
X226500Y213500D02*
D03*
X224000Y207000D02*
D03*
X621500Y264000D02*
D03*
X629000D02*
D03*
X613500Y263000D02*
D03*
X642000Y297500D02*
D03*
X652500Y186000D02*
D03*
X678500Y208000D02*
D03*
X463500Y380000D02*
D03*
X627500Y453000D02*
D03*
X632000Y460500D02*
D03*
X471000Y378500D02*
D03*
X556500Y382500D02*
D03*
X573000Y368500D02*
D03*
X546500Y381000D02*
D03*
X326000Y374000D02*
D03*
X568500Y326500D02*
D03*
X425000Y293500D02*
D03*
X427500Y254000D02*
D03*
X416500Y276000D02*
D03*
X421500Y298500D02*
D03*
X450500Y401000D02*
D03*
X662000Y355358D02*
D03*
X672500D02*
D03*
X673000Y365358D02*
D03*
X662500D02*
D03*
Y270500D02*
D03*
X673000D02*
D03*
X672500Y260500D02*
D03*
X662000D02*
D03*
X634000Y380500D02*
D03*
X577500Y382500D02*
D03*
X466000Y397000D02*
D03*
X521000Y391500D02*
D03*
X260500Y334500D02*
D03*
X253500D02*
D03*
X246500D02*
D03*
X239500D02*
D03*
X443000Y376000D02*
D03*
X636500Y286000D02*
D03*
X642000Y292000D02*
D03*
Y285500D02*
D03*
X636500Y291500D02*
D03*
X631500Y286000D02*
D03*
X593500Y319500D02*
D03*
X543000Y359500D02*
D03*
X608437Y175500D02*
D03*
X600500Y226500D02*
D03*
X445500Y139000D02*
D03*
Y133500D02*
D03*
Y128000D02*
D03*
X439000Y139000D02*
D03*
Y133500D02*
D03*
Y128000D02*
D03*
X425000Y133500D02*
D03*
X432500D02*
D03*
X425000Y128000D02*
D03*
X432500D02*
D03*
X425000Y139000D02*
D03*
X432500D02*
D03*
X372500Y137000D02*
D03*
X365000D02*
D03*
X496500Y295500D02*
D03*
X211500Y337500D02*
D03*
X238000Y419000D02*
D03*
X230000D02*
D03*
X216000Y422000D02*
D03*
X222500Y419500D02*
D03*
X213500Y410500D02*
D03*
X206000Y419000D02*
D03*
X188500Y403000D02*
D03*
Y408000D02*
D03*
Y412500D02*
D03*
X186000Y392000D02*
D03*
X183000Y378500D02*
D03*
X185500Y354000D02*
D03*
X190500Y353000D02*
D03*
X189000Y344000D02*
D03*
X174500Y373500D02*
D03*
X159000Y392000D02*
D03*
X153000Y354500D02*
D03*
X138000Y354000D02*
D03*
X176000Y312000D02*
D03*
X188000D02*
D03*
Y321000D02*
D03*
X176500Y321500D02*
D03*
X333000Y403500D02*
D03*
X542283Y197000D02*
D03*
X385000Y288000D02*
D03*
X371079Y294500D02*
D03*
X368000Y297500D02*
D03*
X255250Y258500D02*
D03*
Y251000D02*
D03*
X249000Y258500D02*
D03*
Y251000D02*
D03*
X255250Y266500D02*
D03*
X249000D02*
D03*
X317000Y471500D02*
D03*
X332000Y412000D02*
D03*
X554500Y175500D02*
D03*
X517000Y261500D02*
D03*
X501284Y182783D02*
D03*
X534000Y227500D02*
D03*
X413500Y235000D02*
D03*
X403500Y218500D02*
D03*
X396000D02*
D03*
X381000Y222500D02*
D03*
Y230500D02*
D03*
X347000Y230000D02*
D03*
X362500Y237500D02*
D03*
Y252000D02*
D03*
X378500Y252500D02*
D03*
X388000Y275000D02*
D03*
X396500Y293000D02*
D03*
X416500Y293500D02*
D03*
X413500Y343000D02*
D03*
X640500Y361000D02*
D03*
X620000Y369500D02*
D03*
X501500Y381000D02*
D03*
X490000Y419000D02*
D03*
X638000Y370500D02*
D03*
X617000Y360500D02*
D03*
X490000Y381000D02*
D03*
X643500Y277500D02*
D03*
X560500Y387500D02*
D03*
X646500Y418000D02*
D03*
X534000Y429000D02*
D03*
X589500Y424000D02*
D03*
X505500Y391500D02*
D03*
X537625Y385625D02*
D03*
X650125Y374625D02*
D03*
X658000Y403000D02*
D03*
X545000Y413000D02*
D03*
X600500Y408000D02*
D03*
X513000Y311000D02*
D03*
X398500Y196000D02*
D03*
X623500Y214000D02*
D03*
X598500Y208500D02*
D03*
X538500Y325500D02*
D03*
X329000Y240500D02*
D03*
X296000Y215500D02*
D03*
X349700Y297500D02*
D03*
X361900D02*
D03*
X692500Y170500D02*
D03*
X486283Y204000D02*
D03*
X695000Y206500D02*
D03*
X645000Y220000D02*
D03*
X605817Y218750D02*
D03*
X640500Y212500D02*
D03*
X584000Y219500D02*
D03*
X567000D02*
D03*
X511000Y226000D02*
D03*
X528000Y224000D02*
D03*
X414500Y368000D02*
D03*
X393750Y383063D02*
D03*
X335500Y242500D02*
D03*
X343680Y355500D02*
D03*
X378500D02*
D03*
X349500Y334500D02*
D03*
X377522Y322522D02*
D03*
X344000Y372500D02*
D03*
X370500Y374000D02*
D03*
X417937Y324937D02*
D03*
X416782Y303782D02*
D03*
X390500Y316500D02*
D03*
X382500D02*
D03*
X356500Y321500D02*
D03*
X372969Y423500D02*
D03*
X336750D02*
D03*
X411000Y431500D02*
D03*
X373031D02*
D03*
X336750D02*
D03*
X302000D02*
D03*
X322500Y465500D02*
D03*
X328000Y460000D02*
D03*
X312500Y476500D02*
D03*
X283000Y436000D02*
D03*
X250000Y442500D02*
D03*
X261500Y431500D02*
D03*
X233701D02*
D03*
X206201D02*
D03*
X177500D02*
D03*
X466740Y338240D02*
D03*
X343000Y209000D02*
D03*
X350000D02*
D03*
Y215500D02*
D03*
X343000D02*
D03*
Y202500D02*
D03*
X350000D02*
D03*
Y196000D02*
D03*
X343000D02*
D03*
X369449Y203949D02*
D03*
X411776Y187776D02*
D03*
X377276D02*
D03*
X387000Y179000D02*
D03*
X419719Y179281D02*
D03*
X386500Y157000D02*
D03*
X420563Y157063D02*
D03*
X438000Y260000D02*
D03*
X448000Y260500D02*
D03*
X111000Y128500D02*
D03*
X117273Y132273D02*
D03*
X616000Y316000D02*
D03*
Y325000D02*
D03*
Y334500D02*
D03*
Y344000D02*
D03*
X569500D02*
D03*
X645500Y483000D02*
D03*
X623746Y460746D02*
D03*
X604500Y447500D02*
D03*
X192500Y174500D02*
D03*
X222500Y126000D02*
D03*
X362500Y245000D02*
D03*
X330500Y278500D02*
D03*
X112701Y444620D02*
D03*
X160000Y453500D02*
D03*
X164250Y432250D02*
D03*
X326286Y355563D02*
D03*
X313357Y374134D02*
D03*
X648000Y250000D02*
D03*
X636500Y264750D02*
D03*
X466000Y284000D02*
D03*
X496000Y274000D02*
D03*
X479000Y253414D02*
D03*
X482500Y391500D02*
D03*
X480130Y435000D02*
D03*
X434500Y293500D02*
D03*
X463370Y219630D02*
D03*
X316500Y297500D02*
D03*
Y304500D02*
D03*
Y312000D02*
D03*
Y320500D02*
D03*
X264500Y305500D02*
D03*
Y298000D02*
D03*
X282750Y219500D02*
D03*
Y212000D02*
D03*
X276500Y219500D02*
D03*
Y212000D02*
D03*
X267000Y195500D02*
D03*
Y189250D02*
D03*
X251500Y195500D02*
D03*
X259000D02*
D03*
X251500Y189250D02*
D03*
X259000D02*
D03*
X189000Y262500D02*
D03*
X196500D02*
D03*
X189000Y256250D02*
D03*
X196500D02*
D03*
X173500Y262500D02*
D03*
X181000D02*
D03*
X173500Y256250D02*
D03*
X181000D02*
D03*
X164032Y138531D02*
D03*
X181260Y237500D02*
D03*
X231500Y274000D02*
D03*
X224833D02*
D03*
X218167D02*
D03*
X211500D02*
D03*
X250000Y312500D02*
D03*
X210500Y301500D02*
D03*
X241500Y314000D02*
D03*
X326240Y234414D02*
D03*
X350000Y165000D02*
D03*
Y172500D02*
D03*
Y180000D02*
D03*
Y187500D02*
D03*
X307500Y190000D02*
D03*
X300000D02*
D03*
X212500Y216250D02*
D03*
X205000D02*
D03*
X212500Y222500D02*
D03*
X205000D02*
D03*
Y235000D02*
D03*
X212500D02*
D03*
X205000Y228750D02*
D03*
X212500D02*
D03*
Y241250D02*
D03*
X205000D02*
D03*
X212500Y247500D02*
D03*
X205000D02*
D03*
X372500Y126000D02*
D03*
X365000D02*
D03*
X372500Y131500D02*
D03*
X365000D02*
D03*
X379000Y126000D02*
D03*
Y131500D02*
D03*
Y137000D02*
D03*
X385500Y126000D02*
D03*
Y131500D02*
D03*
Y137000D02*
D03*
X217500Y177500D02*
D03*
X165000Y155000D02*
D03*
X180000Y132500D02*
D03*
X200000Y177500D02*
D03*
X182500Y197500D02*
D03*
X195000Y250000D02*
D03*
X185000Y232500D02*
D03*
X125000Y201000D02*
D03*
X117500D02*
D03*
X110000D02*
D03*
X125000Y172500D02*
D03*
X117500D02*
D03*
X110000D02*
D03*
D95*
X438000Y237500D02*
Y260000D01*
X412500Y212000D02*
X438000Y237500D01*
X372000Y212000D02*
X412500D01*
X534015Y227414D02*
Y252515D01*
X103700Y138346D02*
X109773Y132273D01*
X103700Y342200D02*
X134000Y372500D01*
X101900Y137600D02*
X111000Y128500D01*
X101900Y342946D02*
X132200Y373246D01*
X103700Y138346D02*
Y342200D01*
X101900Y137600D02*
Y342946D01*
X132200Y390400D02*
X140000Y398200D01*
X132200Y373246D02*
Y390400D01*
X134000Y380400D02*
X140000Y386400D01*
X134000Y372500D02*
Y380400D01*
X218554Y496500D02*
X311546D01*
X189054Y467000D02*
X218554Y496500D01*
X179800Y467000D02*
X189054D01*
X172800Y460000D02*
X179800Y467000D01*
X184600Y460000D02*
X219300Y494700D01*
X310800D01*
X221646Y491100D02*
X309309D01*
X208000Y477454D02*
X221646Y491100D01*
X208000Y460000D02*
Y477454D01*
X312500Y476500D02*
Y487909D01*
X309309Y491100D02*
X312500Y487909D01*
X317000Y471500D02*
Y485954D01*
X310054Y492900D02*
X317000Y485954D01*
X220900Y492900D02*
X310054D01*
X196400Y468400D02*
X220900Y492900D01*
X310800Y494700D02*
X322500Y483000D01*
X311546Y496500D02*
X328000Y480046D01*
X384500Y321500D02*
X386500D01*
X371500Y334500D02*
X384500Y321500D01*
X196400Y460000D02*
Y468400D01*
X328000Y460000D02*
Y480046D01*
X607900Y380100D02*
X628400D01*
X606500Y381500D02*
X607900Y380100D01*
X587500Y381500D02*
X606500D01*
X585600Y379600D02*
X587500Y381500D01*
X590150Y374850D02*
X625650D01*
X589404Y373050D02*
X609950D01*
X588659Y371250D02*
X606250D01*
X571612Y382500D02*
X574512Y379600D01*
X556500Y382500D02*
X571612D01*
X574512Y379600D02*
X585600D01*
X573766Y377800D02*
X587200D01*
X572366Y379200D02*
X573766Y377800D01*
X553300Y379200D02*
X572366D01*
X573020Y376000D02*
X586454D01*
X571620Y377400D02*
X573020Y376000D01*
X551095Y377400D02*
X571620D01*
X572275Y374200D02*
X585709D01*
X570875Y375600D02*
X572275Y374200D01*
X550350Y375600D02*
X570875D01*
X548600Y383900D02*
X553300Y379200D01*
X544799Y383900D02*
X548600D01*
X587200Y377800D02*
X590150Y374850D01*
X586454Y376000D02*
X589404Y373050D01*
X585709Y374200D02*
X588659Y371250D01*
X542000Y215000D02*
Y247500D01*
X625650Y374850D02*
X634500Y366000D01*
X621500Y361500D02*
X627500D01*
X543000Y359500D02*
Y368500D01*
X540400Y371100D02*
X543000Y368500D01*
X465900Y371100D02*
X540400D01*
X463500Y373500D02*
X465900Y371100D01*
X463500Y373500D02*
Y380000D01*
X471000Y374000D02*
X472100Y372900D01*
X548196Y370400D02*
X561600D01*
X545696Y372900D02*
X548196Y370400D01*
X472100Y372900D02*
X545696D01*
X547850Y378100D02*
X550350Y375600D01*
X492900Y378100D02*
X547850D01*
X561600Y370400D02*
X568000Y364000D01*
X609950Y373050D02*
X621500Y361500D01*
X606250Y371250D02*
X617000Y360500D01*
X628400Y380100D02*
X638000Y370500D01*
X379500Y208500D02*
X414500D01*
X448000Y242000D01*
X364500Y281500D02*
Y294900D01*
X541899Y381000D02*
X544799Y383900D01*
X501500Y381000D02*
X541899D01*
X490000D02*
X492900Y378100D01*
X471000Y374000D02*
Y378500D01*
X343500Y329000D02*
X358000D01*
X364478Y322522D01*
X361900Y297500D02*
X364500Y294900D01*
X547495Y381000D02*
X551095Y377400D01*
X546500Y381000D02*
X547495D01*
X513000Y311000D02*
X560000D01*
X322500Y465500D02*
Y483000D01*
X540500Y259000D02*
Y272000D01*
X534015Y252515D02*
X540500Y259000D01*
X555500Y261000D02*
Y270000D01*
X542000Y247500D02*
X555500Y261000D01*
X560500Y256500D02*
Y274000D01*
Y256500D02*
X598500Y218500D01*
Y208500D02*
Y218500D01*
X321500Y240500D02*
X329000D01*
X318500Y237500D02*
X321500Y240500D01*
X318500Y226000D02*
Y237500D01*
X308000Y215500D02*
X318500Y226000D01*
X296000Y215500D02*
X308000D01*
X349500Y334500D02*
X371500D01*
X364478Y322522D02*
X377522D01*
X276500Y442500D02*
X283000Y436000D01*
X250000Y442500D02*
X276500D01*
X448000Y242000D02*
Y260500D01*
X109773Y132273D02*
X117273D01*
D96*
X389850Y290150D02*
X421650D01*
X385500Y294500D02*
X389850Y290150D01*
X371079Y294500D02*
X385500D01*
X373500Y284500D02*
X421469D01*
X366000Y277000D02*
X373500Y284500D01*
X379631Y306631D02*
X445486D01*
X378500Y305500D02*
X379631Y306631D01*
X333000Y305500D02*
X378500D01*
X460301Y323850D02*
X491680D01*
X445451Y309000D02*
X460301Y323850D01*
X356500Y309000D02*
X445451D01*
X328200Y302050D02*
X351250D01*
X326500Y300350D02*
X328200Y302050D01*
X491680Y323850D02*
X495000Y320531D01*
X446190Y304931D02*
X453659Y312400D01*
X423901Y304931D02*
X446190D01*
X418223Y299254D02*
X423901Y304931D01*
X328000Y290000D02*
X333850Y295850D01*
X206500Y290000D02*
X328000D01*
X328446Y292850D02*
X333146Y297550D01*
X194454Y294550D02*
X327742D01*
X333542Y300350D01*
X159500Y137000D02*
Y262000D01*
Y137000D02*
X170000Y126500D01*
X159500Y262000D02*
X208000Y310500D01*
X507000Y315000D02*
X567000D01*
X484500Y376840D02*
X484660D01*
X483840D02*
X484500D01*
X327500Y311250D02*
Y311500D01*
X110404Y137000D02*
X128500D01*
X107150Y140254D02*
X110404Y137000D01*
X107150Y140254D02*
Y256650D01*
X118000Y267500D01*
X123877Y135123D02*
X129500Y129500D01*
X109877Y135123D02*
X123877D01*
X105450Y139550D02*
X109877Y135123D01*
X128500Y137000D02*
X145000Y120500D01*
X105450Y139550D02*
Y327950D01*
X116500Y339000D01*
X134600D02*
X140000Y333600D01*
X116500Y339000D02*
X134600D01*
X181200Y439800D02*
X203700D01*
X172800Y448200D02*
X181200Y439800D01*
X203700D02*
X212000Y431500D01*
Y420650D02*
Y431500D01*
Y420650D02*
X213500Y419150D01*
X205096Y441500D02*
X216000Y430596D01*
X191300Y441500D02*
X205096D01*
X184600Y448200D02*
X191300Y441500D01*
X216000Y422000D02*
Y430596D01*
X309500Y416500D02*
X326500D01*
X302000Y409000D02*
X309500Y416500D01*
X324000Y388500D02*
X372000D01*
X257050Y288050D02*
X332050D01*
X226500Y257500D02*
X257050Y288050D01*
X226500Y213500D02*
Y257500D01*
X257850Y286350D02*
X345650D01*
X230000Y258500D02*
X257850Y286350D01*
X230000Y203500D02*
Y258500D01*
X145000Y120500D02*
X583500D01*
X592500Y369500D02*
X598000Y364000D01*
X587934Y369500D02*
X592500D01*
X571550Y372450D02*
X584984D01*
X570150Y373850D02*
X571550Y372450D01*
X549625Y373850D02*
X570150D01*
X546839Y298000D02*
X572839Y272000D01*
X499000Y298000D02*
X546839D01*
X496500Y295500D02*
X499000Y298000D01*
X572000Y255000D02*
Y264000D01*
X565500Y270500D02*
X572000Y264000D01*
X585146Y324050D02*
X595385D01*
X581796Y320700D02*
X585146Y324050D01*
X504296Y320700D02*
X581796D01*
X585850Y322350D02*
X594681D01*
X582500Y319000D02*
X585850Y322350D01*
X505000Y319000D02*
X582500D01*
X495996Y312400D02*
X504296Y320700D01*
X496700Y310700D02*
X505000Y319000D01*
X591000Y317000D02*
X593500Y319500D01*
X505500Y317000D02*
X591000D01*
X497500Y309000D02*
X505500Y317000D01*
X567000Y315000D02*
X578000Y304000D01*
X195158Y292850D02*
X328446D01*
X168500Y266192D02*
X195158Y292850D01*
X161200Y261296D02*
X194454Y294550D01*
X208000Y310500D02*
X211500D01*
X168500Y252000D02*
Y266192D01*
X161200Y183800D02*
Y261296D01*
Y183800D02*
X168000Y177000D01*
X333000Y305500D02*
Y305750D01*
X333542Y300350D02*
X346850D01*
X419404Y296404D02*
X421500Y298500D01*
X389073Y296404D02*
X419404D01*
X390254Y299254D02*
X418223D01*
X584984Y372450D02*
X587934Y369500D01*
X168500Y252000D02*
X170500Y250000D01*
X179500Y360500D02*
Y379030D01*
X181819Y381350D01*
X185350D01*
X198500Y394500D01*
Y395500D01*
X177800Y379769D02*
X189000Y390969D01*
X625000Y369500D02*
X633500Y361000D01*
X449650Y369350D02*
X521150D01*
X443000Y376000D02*
X449650Y369350D01*
X484500Y376840D02*
Y377500D01*
X483840Y376840D02*
X484500Y377500D01*
X523000Y359500D02*
Y367500D01*
X521150Y369350D02*
X523000Y367500D01*
X548921Y372150D02*
X569350D01*
X546421Y374650D02*
X548921Y372150D01*
X486850Y374650D02*
X546421D01*
X547125Y376350D02*
X549625Y373850D01*
X490620Y376350D02*
X547125D01*
X569350Y372150D02*
X573000Y368500D01*
X364500Y215500D02*
X365470D01*
X365619Y215650D02*
X404680D01*
X365470Y215500D02*
X365619Y215650D01*
X352404Y282000D02*
X358500D01*
X338554Y295850D02*
X352404Y282000D01*
X362070Y279070D02*
X364500Y281500D01*
X352929Y279070D02*
X362070D01*
X365000Y277000D02*
X366000D01*
X312500Y412000D02*
X332000D01*
X307500Y407000D02*
X312500Y412000D01*
X455067Y309000D02*
X497500D01*
X479787Y380350D02*
X486620D01*
X477500Y378063D02*
X479787Y380350D01*
X484660Y376840D02*
X486850Y374650D01*
X486620Y380350D02*
X490620Y376350D01*
X361500Y390500D02*
X370000Y399000D01*
X320500Y390500D02*
X361500D01*
X320500Y385000D02*
X324000Y388500D01*
X446895Y303232D02*
X454363Y310700D01*
X440201Y303232D02*
X446895D01*
X421469Y284500D02*
X440201Y303232D01*
X445486Y306631D02*
X452955Y314100D01*
X495000Y316000D02*
Y320531D01*
X453659Y312400D02*
X495996D01*
X454363Y310700D02*
X496700D01*
X507000Y314000D02*
Y315000D01*
X434904Y288837D02*
X455067Y309000D01*
X452955Y314100D02*
X484630D01*
X490060Y319529D01*
Y320560D02*
X490500Y321000D01*
X490060Y319529D02*
Y320560D01*
X368000Y297500D02*
X387977D01*
X389073Y296404D01*
X327500Y311250D02*
X333000Y305750D01*
X351250Y302050D02*
X356010Y297290D01*
X346850Y300350D02*
X349700Y297500D01*
X343550Y297550D02*
X343600Y297500D01*
X333146Y297550D02*
X343550D01*
X514500Y246000D02*
X517500D01*
X523500Y258500D02*
Y268000D01*
X519750Y254750D02*
X523500Y258500D01*
X514750Y254750D02*
X519750D01*
X512000Y279500D02*
X523500Y268000D01*
X516969Y285500D02*
X517000Y285470D01*
Y282000D02*
Y285470D01*
X517500Y293000D02*
X522500D01*
X512000Y287500D02*
X517500Y293000D01*
X512000Y279500D02*
Y287500D01*
X526500Y255000D02*
Y272500D01*
X517000Y282000D02*
X526500Y272500D01*
X516969Y285500D02*
X519970Y288500D01*
X551531D02*
X587531Y252500D01*
X519970Y288500D02*
X551531D01*
X549435Y293000D02*
X584435Y258000D01*
X522500Y293000D02*
X549435D01*
X517500Y246000D02*
X526500Y255000D01*
X575500Y275000D02*
Y275622D01*
X584435Y258000D02*
X604500D01*
X572839Y272000D02*
X580750D01*
X548000Y303122D02*
Y304000D01*
Y303122D02*
X575500Y275622D01*
X572000Y255000D02*
X600500Y226500D01*
X580750Y272000D02*
X589750Y263000D01*
X587531Y252500D02*
X600000D01*
X170000Y126500D02*
X202500D01*
X333850Y295850D02*
X338554D01*
X345650Y286350D02*
X352929Y279070D01*
X332050Y288050D02*
X337000Y293000D01*
X225500Y199000D02*
X230000Y203500D01*
X202750Y126750D02*
X203000Y127000D01*
X202500Y126500D02*
X202750Y126750D01*
X628250Y273000D02*
X636500Y264750D01*
X595500Y273000D02*
X628250D01*
X623000Y270000D02*
X629000Y264000D01*
X590500Y270000D02*
X623000D01*
X589320Y267150D02*
X618350D01*
X585500Y270970D02*
X589320Y267150D01*
X618350D02*
X621500Y264000D01*
X589750Y263000D02*
X613500D01*
X627500Y456000D02*
X632000Y460500D01*
X627500Y453000D02*
Y456000D01*
X598000Y304000D02*
X598050Y304050D01*
Y321385D01*
X595385Y324050D02*
X598050Y321385D01*
X596350Y312350D02*
Y320680D01*
X594681Y322350D02*
X596350Y320680D01*
X421650Y290150D02*
X425000Y293500D01*
X560000Y311000D02*
X561000D01*
X568000Y304000D01*
X588000D02*
X596350Y312350D01*
X434904Y245873D02*
Y288837D01*
X404680Y215650D02*
X434904Y245873D01*
X163000Y392000D02*
X174500Y380500D01*
X159000Y392000D02*
X163000D01*
X213500Y419150D02*
X222150D01*
X237700Y419000D02*
X238000D01*
X208500Y448200D02*
X237700Y419000D01*
X208200Y448200D02*
X208500D01*
X222150Y419150D02*
X222500Y419500D01*
X196400Y448200D02*
X197295Y447305D01*
X201695D02*
X230000Y419000D01*
X197295Y447305D02*
X201695D01*
X177800Y355200D02*
X189000Y344000D01*
X174500Y380500D02*
X186000Y392000D01*
X177800Y355200D02*
Y379769D01*
X189000Y390969D02*
Y397500D01*
X174500Y373500D02*
Y380500D01*
X179500Y360500D02*
X185500Y354500D01*
Y354000D02*
Y354500D01*
X585500Y270970D02*
Y274000D01*
X633500Y361000D02*
X640500D01*
X620000Y369500D02*
X625000D01*
D99*
X468500Y318500D02*
X485000D01*
D101*
X405500Y457000D02*
D03*
Y467000D02*
D03*
Y477000D02*
D03*
X444500Y180500D02*
D03*
Y190500D02*
D03*
X431000Y388000D02*
D03*
X421000D02*
D03*
X431000Y399000D02*
D03*
X421000D02*
D03*
X431000Y410500D02*
D03*
X421000D02*
D03*
X578000Y466000D02*
D03*
Y456000D02*
D03*
X589500Y466000D02*
D03*
Y456000D02*
D03*
X476000Y482500D02*
D03*
Y472500D02*
D03*
D102*
X377000Y448200D02*
D03*
X365200D02*
D03*
Y460000D02*
D03*
X377000D02*
D03*
X353400D02*
D03*
X341600D02*
D03*
Y448200D02*
D03*
X353400D02*
D03*
X478600Y162800D02*
D03*
X490400D02*
D03*
Y151000D02*
D03*
X478600D02*
D03*
X455000D02*
D03*
X466800D02*
D03*
Y162800D02*
D03*
X455000D02*
D03*
X607000Y151500D02*
D03*
Y163300D02*
D03*
X302700Y448200D02*
D03*
X290900D02*
D03*
Y460000D02*
D03*
X302700D02*
D03*
X184600Y448200D02*
D03*
X172800D02*
D03*
Y460000D02*
D03*
X184600D02*
D03*
X279100D02*
D03*
X196400D02*
D03*
Y448200D02*
D03*
X208200D02*
D03*
X208000Y460000D02*
D03*
X267200D02*
D03*
X231800D02*
D03*
X243600D02*
D03*
X220000D02*
D03*
X255400D02*
D03*
Y448200D02*
D03*
X220000D02*
D03*
X243600D02*
D03*
X231800D02*
D03*
X267200D02*
D03*
X279100D02*
D03*
X151800Y333600D02*
D03*
X140000D02*
D03*
Y321600D02*
D03*
X151800Y321800D02*
D03*
Y310000D02*
D03*
X140000D02*
D03*
Y298200D02*
D03*
Y285900D02*
D03*
X151800D02*
D03*
Y298200D02*
D03*
Y386400D02*
D03*
Y374600D02*
D03*
X140000D02*
D03*
Y386400D02*
D03*
Y410000D02*
D03*
Y398200D02*
D03*
X151800D02*
D03*
Y410000D02*
D03*
X559400Y163300D02*
D03*
X571700D02*
D03*
Y151500D02*
D03*
X559400D02*
D03*
X547600D02*
D03*
Y163300D02*
D03*
X535800D02*
D03*
X536000Y151500D02*
D03*
X524000D02*
D03*
Y163300D02*
D03*
X511900Y450200D02*
D03*
X499600D02*
D03*
Y462000D02*
D03*
X511900D02*
D03*
X523700D02*
D03*
Y450200D02*
D03*
X535500D02*
D03*
X535300Y462000D02*
D03*
X547300D02*
D03*
Y450200D02*
D03*
D103*
X368500Y477000D02*
D03*
X350000D02*
D03*
X482000Y134000D02*
D03*
X463500D02*
D03*
X607000Y134500D02*
D03*
X181200Y477000D02*
D03*
X294200D02*
D03*
X122500Y324600D02*
D03*
X123000Y294300D02*
D03*
Y383000D02*
D03*
Y401500D02*
D03*
X563300Y134500D02*
D03*
X533000Y134000D02*
D03*
X508000Y479000D02*
D03*
X538300Y479500D02*
D03*
D104*
X125000Y475000D02*
D03*
X675000D02*
D03*
X124500Y150000D02*
D03*
X674500D02*
D03*
D105*
X458000Y304000D02*
D03*
Y364000D02*
D03*
D106*
X468000Y304000D02*
D03*
Y364000D02*
D03*
X478000Y304000D02*
D03*
Y364000D02*
D03*
X488000Y304000D02*
D03*
Y364000D02*
D03*
X498000Y304000D02*
D03*
Y364000D02*
D03*
X508000Y304000D02*
D03*
Y364000D02*
D03*
X518000Y304000D02*
D03*
Y364000D02*
D03*
X528000Y304000D02*
D03*
Y364000D02*
D03*
X538000Y304000D02*
D03*
Y364000D02*
D03*
X548000Y304000D02*
D03*
Y364000D02*
D03*
X558000Y304000D02*
D03*
Y364000D02*
D03*
X568000Y304000D02*
D03*
Y364000D02*
D03*
X578000Y304000D02*
D03*
Y364000D02*
D03*
X588000Y304000D02*
D03*
Y364000D02*
D03*
X598000Y304000D02*
D03*
Y364000D02*
D03*
M02*
