G04*
G04 #@! TF.GenerationSoftware,Altium Limited,Altium Designer,19.1.8 (144)*
G04*
G04 Layer_Physical_Order=3*
G04 Layer_Color=128*
%FSLAX25Y25*%
%MOIN*%
G70*
G01*
G75*
%ADD10C,0.01000*%
%ADD107C,0.04000*%
%ADD108C,0.07937*%
G04:AMPARAMS|DCode=109|XSize=99.37mil|YSize=99.37mil|CornerRadius=0mil|HoleSize=0mil|Usage=FLASHONLY|Rotation=0.000|XOffset=0mil|YOffset=0mil|HoleType=Round|Shape=Relief|Width=10mil|Gap=10mil|Entries=4|*
%AMTHD109*
7,0,0,0.09937,0.07937,0.01000,45*
%
%ADD109THD109*%
%ADD110C,0.08000*%
%ADD111C,0.15800*%
G04:AMPARAMS|DCode=112|XSize=100mil|YSize=100mil|CornerRadius=0mil|HoleSize=0mil|Usage=FLASHONLY|Rotation=0.000|XOffset=0mil|YOffset=0mil|HoleType=Round|Shape=Relief|Width=10mil|Gap=10mil|Entries=4|*
%AMTHD112*
7,0,0,0.10000,0.08000,0.01000,45*
%
%ADD112THD112*%
%ADD113C,0.18764*%
%ADD114C,0.08016*%
%ADD117C,0.05500*%
D10*
X100000Y500000D02*
X700000D01*
X100000Y116000D02*
X700000D01*
Y500000D01*
X100000Y116000D02*
Y500000D01*
D107*
Y116000D02*
Y500000D01*
X700000D01*
Y116000D02*
Y500000D01*
X100000Y116000D02*
X700000D01*
D108*
X405500Y457000D02*
D03*
Y467000D02*
D03*
Y477000D02*
D03*
X444500Y180500D02*
D03*
Y190500D02*
D03*
X431000Y388000D02*
D03*
X421000D02*
D03*
X431000Y399000D02*
D03*
X421000D02*
D03*
Y410500D02*
D03*
X578000Y466000D02*
D03*
X589500D02*
D03*
X476000Y482500D02*
D03*
Y472500D02*
D03*
D109*
X431000Y410500D02*
D03*
X578000Y456000D02*
D03*
X589500D02*
D03*
D110*
X377000Y448200D02*
D03*
X365200D02*
D03*
Y460000D02*
D03*
X377000D02*
D03*
X341600Y448200D02*
D03*
X353400D02*
D03*
X478600Y162800D02*
D03*
X490400D02*
D03*
Y151000D02*
D03*
X478600D02*
D03*
X455000D02*
D03*
X466800D02*
D03*
Y162800D02*
D03*
X455000D02*
D03*
X607000Y151500D02*
D03*
Y163300D02*
D03*
X302700Y448200D02*
D03*
X290900D02*
D03*
Y460000D02*
D03*
X302700D02*
D03*
X184600Y448200D02*
D03*
X172800D02*
D03*
Y460000D02*
D03*
X184600D02*
D03*
X279100D02*
D03*
X196400D02*
D03*
Y448200D02*
D03*
X208200D02*
D03*
X208000Y460000D02*
D03*
X267200D02*
D03*
X231800D02*
D03*
X243600D02*
D03*
X220000D02*
D03*
X255400D02*
D03*
Y448200D02*
D03*
X220000D02*
D03*
X243600D02*
D03*
X231800D02*
D03*
X267200D02*
D03*
X279100D02*
D03*
X151800Y333600D02*
D03*
X140000D02*
D03*
Y321600D02*
D03*
X151800Y321800D02*
D03*
Y310000D02*
D03*
X140000D02*
D03*
Y298200D02*
D03*
Y285900D02*
D03*
X151800D02*
D03*
Y298200D02*
D03*
Y386400D02*
D03*
Y374600D02*
D03*
X140000Y386400D02*
D03*
Y410000D02*
D03*
Y398200D02*
D03*
X151800D02*
D03*
Y410000D02*
D03*
X559400Y163300D02*
D03*
X571700D02*
D03*
Y151500D02*
D03*
X559400D02*
D03*
X547600D02*
D03*
Y163300D02*
D03*
X535800D02*
D03*
X536000Y151500D02*
D03*
X524000D02*
D03*
Y163300D02*
D03*
X511900Y450200D02*
D03*
X499600D02*
D03*
Y462000D02*
D03*
X511900D02*
D03*
X523700D02*
D03*
Y450200D02*
D03*
X535500D02*
D03*
X535300Y462000D02*
D03*
X547300D02*
D03*
Y450200D02*
D03*
D111*
X368500Y477000D02*
D03*
X350000D02*
D03*
X482000Y134000D02*
D03*
X463500D02*
D03*
X607000Y134500D02*
D03*
X181200Y477000D02*
D03*
X294200D02*
D03*
X122500Y324600D02*
D03*
X123000Y294300D02*
D03*
Y383000D02*
D03*
Y401500D02*
D03*
X563300Y134500D02*
D03*
X533000Y134000D02*
D03*
X508000Y479000D02*
D03*
X538300Y479500D02*
D03*
D112*
X353400Y460000D02*
D03*
X341600D02*
D03*
X140000Y374600D02*
D03*
D113*
X125000Y475000D02*
D03*
X675000D02*
D03*
X124500Y150000D02*
D03*
X674500D02*
D03*
D114*
X458000Y304000D02*
D03*
Y364000D02*
D03*
X468000Y304000D02*
D03*
Y364000D02*
D03*
X478000Y304000D02*
D03*
Y364000D02*
D03*
X488000Y304000D02*
D03*
Y364000D02*
D03*
X498000Y304000D02*
D03*
Y364000D02*
D03*
X508000Y304000D02*
D03*
Y364000D02*
D03*
X518000Y304000D02*
D03*
Y364000D02*
D03*
X528000Y304000D02*
D03*
Y364000D02*
D03*
X538000Y304000D02*
D03*
Y364000D02*
D03*
X548000Y304000D02*
D03*
Y364000D02*
D03*
X558000Y304000D02*
D03*
Y364000D02*
D03*
X568000Y304000D02*
D03*
Y364000D02*
D03*
X578000Y304000D02*
D03*
Y364000D02*
D03*
X588000Y304000D02*
D03*
Y364000D02*
D03*
X598000Y304000D02*
D03*
Y364000D02*
D03*
D117*
X356500Y309000D02*
D03*
X577500Y257500D02*
D03*
X585500Y274000D02*
D03*
X595500Y273000D02*
D03*
X580750Y272000D02*
D03*
X555500Y270000D02*
D03*
X565500Y270500D02*
D03*
X590500Y270000D02*
D03*
X575500Y275000D02*
D03*
X540500Y272000D02*
D03*
X560500Y274000D02*
D03*
X129500Y129500D02*
D03*
X186000Y422000D02*
D03*
X302000Y409000D02*
D03*
X326500Y416500D02*
D03*
X246500Y341000D02*
D03*
X253500D02*
D03*
X260500D02*
D03*
X372000Y388500D02*
D03*
X386500Y321500D02*
D03*
X409500Y423500D02*
D03*
X178500Y393000D02*
D03*
X201500Y142000D02*
D03*
X197500Y378500D02*
D03*
X190000D02*
D03*
X183000Y371000D02*
D03*
X190000Y370500D02*
D03*
X197500D02*
D03*
X322500Y210000D02*
D03*
X430500Y355000D02*
D03*
X583500Y120500D02*
D03*
X333000Y305500D02*
D03*
X390254Y299254D02*
D03*
X369500Y383000D02*
D03*
X596000Y378000D02*
D03*
X542000Y215000D02*
D03*
X553000Y225500D02*
D03*
X170500Y250000D02*
D03*
X198500Y395500D02*
D03*
X632000Y489500D02*
D03*
X225000Y307000D02*
D03*
X189000Y397500D02*
D03*
X212000Y346500D02*
D03*
X634500Y366000D02*
D03*
X627500Y361500D02*
D03*
X523000Y358500D02*
D03*
X484500Y377500D02*
D03*
X616000Y383000D02*
D03*
X364500Y215500D02*
D03*
X372000Y212000D02*
D03*
X379500Y208500D02*
D03*
X489720Y226098D02*
D03*
X356000Y274000D02*
D03*
X365000Y277000D02*
D03*
X118000Y267500D02*
D03*
X307500Y407000D02*
D03*
X477500Y378063D02*
D03*
X320500Y390500D02*
D03*
Y385000D02*
D03*
X302000Y423500D02*
D03*
X370000Y399000D02*
D03*
X495000Y316000D02*
D03*
X490500Y321000D02*
D03*
X507000Y314000D02*
D03*
X327500Y311500D02*
D03*
X343600Y297500D02*
D03*
X326500Y300350D02*
D03*
X356010Y297290D02*
D03*
X343500Y329000D02*
D03*
X517000Y282000D02*
D03*
X522500Y293000D02*
D03*
X514500Y246000D02*
D03*
X514750Y254750D02*
D03*
X604500Y258000D02*
D03*
X600000Y252500D02*
D03*
X485000Y318500D02*
D03*
X468500D02*
D03*
X358500Y282000D02*
D03*
X337000Y293000D02*
D03*
X206500Y290000D02*
D03*
X164125Y171625D02*
D03*
X168000Y177000D02*
D03*
X202750Y126750D02*
D03*
X211500Y310500D02*
D03*
X226500Y169500D02*
D03*
X225500Y199000D02*
D03*
X226500Y213500D02*
D03*
X224000Y207000D02*
D03*
X621500Y264000D02*
D03*
X629000D02*
D03*
X613500Y263000D02*
D03*
X642000Y297500D02*
D03*
X678500Y208000D02*
D03*
X463500Y380000D02*
D03*
X627500Y453000D02*
D03*
X632000Y460500D02*
D03*
X471000Y378500D02*
D03*
X556500Y382500D02*
D03*
X573000Y368500D02*
D03*
X546500Y381000D02*
D03*
X326000Y374000D02*
D03*
X568500Y326500D02*
D03*
X425000Y293500D02*
D03*
X427500Y254000D02*
D03*
X416500Y276000D02*
D03*
X421500Y298500D02*
D03*
X450500Y401000D02*
D03*
X662000Y355358D02*
D03*
X672500D02*
D03*
X673000Y365358D02*
D03*
X662500D02*
D03*
Y270500D02*
D03*
X673000D02*
D03*
X672500Y260500D02*
D03*
X662000D02*
D03*
X634000Y380500D02*
D03*
X577500Y382500D02*
D03*
X466000Y397000D02*
D03*
X521000Y391500D02*
D03*
X260500Y334500D02*
D03*
X253500D02*
D03*
X246500D02*
D03*
X239500D02*
D03*
X443000Y376000D02*
D03*
X636500Y286000D02*
D03*
X642000Y292000D02*
D03*
Y285500D02*
D03*
X636500Y291500D02*
D03*
X631500Y286000D02*
D03*
X593500Y319500D02*
D03*
X543000Y359500D02*
D03*
X608437Y175500D02*
D03*
X600500Y226500D02*
D03*
X445500Y139000D02*
D03*
Y133500D02*
D03*
Y128000D02*
D03*
X439000Y139000D02*
D03*
Y133500D02*
D03*
Y128000D02*
D03*
X425000Y133500D02*
D03*
X432500D02*
D03*
X425000Y128000D02*
D03*
X432500D02*
D03*
X425000Y139000D02*
D03*
X432500D02*
D03*
X372500Y137000D02*
D03*
X365000D02*
D03*
X496500Y295500D02*
D03*
X211500Y337500D02*
D03*
X238000Y419000D02*
D03*
X230000D02*
D03*
X216000Y422000D02*
D03*
X222500Y419500D02*
D03*
X213500Y410500D02*
D03*
X206000Y419000D02*
D03*
X188500Y403000D02*
D03*
Y408000D02*
D03*
Y412500D02*
D03*
X186000Y392000D02*
D03*
X183000Y378500D02*
D03*
X185500Y354000D02*
D03*
X190500Y353000D02*
D03*
X189000Y344000D02*
D03*
X174500Y373500D02*
D03*
X159000Y392000D02*
D03*
X153000Y354500D02*
D03*
X138000Y354000D02*
D03*
X176000Y312000D02*
D03*
X188000D02*
D03*
Y321000D02*
D03*
X176500Y321500D02*
D03*
X333000Y403500D02*
D03*
X371079Y294500D02*
D03*
X368000Y297500D02*
D03*
X255250Y258500D02*
D03*
Y251000D02*
D03*
X249000Y258500D02*
D03*
Y251000D02*
D03*
X255250Y266500D02*
D03*
X249000D02*
D03*
X317000Y471500D02*
D03*
X332000Y412000D02*
D03*
X554500Y175500D02*
D03*
X517000Y261500D02*
D03*
X501284Y182783D02*
D03*
X534000Y227500D02*
D03*
X413500Y235000D02*
D03*
X381000Y222500D02*
D03*
Y230500D02*
D03*
X347000Y230000D02*
D03*
X378500Y252500D02*
D03*
X388000Y275000D02*
D03*
X416500Y293500D02*
D03*
X413500Y343000D02*
D03*
X640500Y361000D02*
D03*
X620000Y369500D02*
D03*
X501500Y381000D02*
D03*
X638000Y370500D02*
D03*
X617000Y360500D02*
D03*
X490000Y381000D02*
D03*
X560500Y387500D02*
D03*
X646500Y418000D02*
D03*
X534000Y429000D02*
D03*
X589500Y424000D02*
D03*
X505500Y391500D02*
D03*
X537625Y385625D02*
D03*
X650125Y374625D02*
D03*
X513000Y311000D02*
D03*
X623500Y214000D02*
D03*
X598500Y208500D02*
D03*
X329000Y240500D02*
D03*
X296000Y215500D02*
D03*
X349700Y297500D02*
D03*
X361900D02*
D03*
X692500Y170500D02*
D03*
X695000Y206500D02*
D03*
X645000Y220000D02*
D03*
X605817Y218750D02*
D03*
X640500Y212500D02*
D03*
X584000Y219500D02*
D03*
X567000D02*
D03*
X511000Y226000D02*
D03*
X528000Y224000D02*
D03*
X414500Y368000D02*
D03*
X393750Y383063D02*
D03*
X335500Y242500D02*
D03*
X343680Y355500D02*
D03*
X378500D02*
D03*
X349500Y334500D02*
D03*
X377522Y322522D02*
D03*
X344000Y372500D02*
D03*
X370500Y374000D02*
D03*
X416782Y303782D02*
D03*
X382500Y316500D02*
D03*
X372969Y423500D02*
D03*
X336750D02*
D03*
X322500Y465500D02*
D03*
X328000Y460000D02*
D03*
X312500Y476500D02*
D03*
X283000Y436000D02*
D03*
X250000Y442500D02*
D03*
X261500Y431500D02*
D03*
X233701D02*
D03*
X206201D02*
D03*
X177500D02*
D03*
X466740Y338240D02*
D03*
X411776Y187776D02*
D03*
X377276D02*
D03*
X386500Y157000D02*
D03*
X420563Y157063D02*
D03*
X438000Y260000D02*
D03*
X448000Y260500D02*
D03*
X111000Y128500D02*
D03*
X117273Y132273D02*
D03*
X569500Y344000D02*
D03*
X604500Y447500D02*
D03*
X192500Y174500D02*
D03*
X222500Y126000D02*
D03*
X112701Y444620D02*
D03*
X160000Y453500D02*
D03*
X164250Y432250D02*
D03*
X326286Y355563D02*
D03*
X313357Y374134D02*
D03*
X648000Y250000D02*
D03*
X636500Y264750D02*
D03*
X479000Y253414D02*
D03*
X482500Y391500D02*
D03*
X480130Y435000D02*
D03*
X434500Y293500D02*
D03*
X463370Y219630D02*
D03*
X316500Y297500D02*
D03*
Y304500D02*
D03*
Y312000D02*
D03*
Y320500D02*
D03*
X264500Y305500D02*
D03*
Y298000D02*
D03*
X282750Y219500D02*
D03*
Y212000D02*
D03*
X276500Y219500D02*
D03*
Y212000D02*
D03*
X267000Y195500D02*
D03*
Y189250D02*
D03*
X251500Y195500D02*
D03*
X259000D02*
D03*
X251500Y189250D02*
D03*
X259000D02*
D03*
X189000Y262500D02*
D03*
X196500D02*
D03*
X189000Y256250D02*
D03*
X196500D02*
D03*
X173500Y262500D02*
D03*
X181000D02*
D03*
X173500Y256250D02*
D03*
X181000D02*
D03*
X231500Y274000D02*
D03*
X224833D02*
D03*
X218167D02*
D03*
X211500D02*
D03*
X250000Y312500D02*
D03*
X326240Y234414D02*
D03*
X350000Y165000D02*
D03*
Y172500D02*
D03*
Y180000D02*
D03*
Y187500D02*
D03*
X307500Y190000D02*
D03*
X300000D02*
D03*
X212500Y216250D02*
D03*
X205000D02*
D03*
X212500Y222500D02*
D03*
X205000D02*
D03*
Y235000D02*
D03*
X212500D02*
D03*
X205000Y228750D02*
D03*
X212500D02*
D03*
Y241250D02*
D03*
X205000D02*
D03*
X212500Y247500D02*
D03*
X205000D02*
D03*
X372500Y126000D02*
D03*
X365000D02*
D03*
X372500Y131500D02*
D03*
X365000D02*
D03*
X379000Y126000D02*
D03*
Y131500D02*
D03*
Y137000D02*
D03*
X385500Y126000D02*
D03*
Y131500D02*
D03*
Y137000D02*
D03*
X217500Y177500D02*
D03*
X165000Y155000D02*
D03*
X180000Y132500D02*
D03*
X200000Y177500D02*
D03*
X182500Y197500D02*
D03*
X195000Y250000D02*
D03*
X185000Y232500D02*
D03*
X125000Y201000D02*
D03*
X117500D02*
D03*
X110000D02*
D03*
X125000Y172500D02*
D03*
X117500D02*
D03*
X110000D02*
D03*
M02*
