G04*
G04 #@! TF.GenerationSoftware,Altium Limited,Altium Designer,19.1.8 (144)*
G04*
G04 Layer_Color=32896*
%FSLAX25Y25*%
%MOIN*%
G70*
G01*
G75*
%ADD10C,0.01000*%
G36*
X656451Y128294D02*
X655980D01*
Y128834D01*
X656451D01*
Y128294D01*
D02*
G37*
G36*
X653861Y128897D02*
X653897D01*
X653941Y128892D01*
X653988Y128889D01*
X654044Y128884D01*
X654099Y128875D01*
X654160Y128867D01*
X654285Y128842D01*
X654351Y128825D01*
X654415Y128809D01*
X654479Y128787D01*
X654539Y128762D01*
X654542Y128759D01*
X654553Y128756D01*
X654570Y128748D01*
X654592Y128737D01*
X654620Y128723D01*
X654650Y128703D01*
X654686Y128684D01*
X654722Y128659D01*
X654764Y128634D01*
X654803Y128604D01*
X654844Y128570D01*
X654886Y128534D01*
X654927Y128496D01*
X654966Y128451D01*
X655005Y128407D01*
X655038Y128357D01*
X655041Y128355D01*
X655047Y128346D01*
X655055Y128330D01*
X655066Y128310D01*
X655080Y128285D01*
X655096Y128255D01*
X655110Y128221D01*
X655130Y128183D01*
X655146Y128141D01*
X655163Y128094D01*
X655179Y128044D01*
X655193Y127992D01*
X655207Y127936D01*
X655218Y127878D01*
X655224Y127817D01*
X655229Y127756D01*
X654742Y127720D01*
Y127726D01*
X654739Y127737D01*
X654736Y127756D01*
X654731Y127781D01*
X654725Y127809D01*
X654717Y127845D01*
X654706Y127884D01*
X654692Y127925D01*
X654678Y127969D01*
X654659Y128014D01*
X654636Y128058D01*
X654612Y128105D01*
X654584Y128149D01*
X654551Y128191D01*
X654515Y128233D01*
X654476Y128269D01*
X654473Y128271D01*
X654465Y128277D01*
X654454Y128285D01*
X654434Y128299D01*
X654409Y128313D01*
X654382Y128327D01*
X654348Y128343D01*
X654310Y128363D01*
X654265Y128379D01*
X654215Y128396D01*
X654160Y128410D01*
X654102Y128427D01*
X654035Y128438D01*
X653966Y128446D01*
X653891Y128451D01*
X653811Y128454D01*
X653767D01*
X653736Y128451D01*
X653697Y128449D01*
X653656Y128446D01*
X653606Y128440D01*
X653556Y128432D01*
X653445Y128413D01*
X653390Y128399D01*
X653335Y128382D01*
X653282Y128363D01*
X653229Y128341D01*
X653182Y128316D01*
X653141Y128285D01*
X653138Y128282D01*
X653132Y128277D01*
X653121Y128269D01*
X653108Y128255D01*
X653094Y128238D01*
X653074Y128219D01*
X653058Y128197D01*
X653038Y128172D01*
X653019Y128144D01*
X652999Y128111D01*
X652966Y128042D01*
X652952Y128005D01*
X652941Y127964D01*
X652936Y127922D01*
X652933Y127878D01*
Y127875D01*
Y127870D01*
Y127859D01*
X652936Y127845D01*
X652939Y127825D01*
X652941Y127806D01*
X652952Y127759D01*
X652969Y127703D01*
X652994Y127648D01*
X653011Y127618D01*
X653033Y127590D01*
X653055Y127562D01*
X653080Y127537D01*
X653083Y127534D01*
X653088Y127532D01*
X653096Y127524D01*
X653113Y127515D01*
X653132Y127501D01*
X653160Y127488D01*
X653191Y127471D01*
X653229Y127451D01*
X653276Y127432D01*
X653329Y127410D01*
X653393Y127388D01*
X653462Y127363D01*
X653542Y127338D01*
X653631Y127313D01*
X653731Y127288D01*
X653841Y127260D01*
X653844D01*
X653850Y127258D01*
X653858D01*
X653869Y127255D01*
X653883Y127252D01*
X653900Y127246D01*
X653941Y127238D01*
X653991Y127224D01*
X654049Y127210D01*
X654113Y127197D01*
X654179Y127177D01*
X654321Y127141D01*
X654390Y127122D01*
X654459Y127100D01*
X654526Y127080D01*
X654587Y127058D01*
X654642Y127039D01*
X654689Y127019D01*
X654692Y127017D01*
X654703Y127011D01*
X654722Y127003D01*
X654744Y126992D01*
X654772Y126975D01*
X654803Y126958D01*
X654839Y126936D01*
X654878Y126911D01*
X654916Y126886D01*
X654958Y126856D01*
X655041Y126789D01*
X655119Y126712D01*
X655152Y126670D01*
X655185Y126626D01*
X655188Y126623D01*
X655193Y126615D01*
X655199Y126601D01*
X655210Y126584D01*
X655221Y126562D01*
X655235Y126535D01*
X655251Y126504D01*
X655265Y126471D01*
X655279Y126432D01*
X655296Y126391D01*
X655310Y126346D01*
X655321Y126296D01*
X655332Y126247D01*
X655340Y126194D01*
X655343Y126141D01*
X655346Y126083D01*
Y126080D01*
Y126069D01*
Y126053D01*
X655343Y126030D01*
X655340Y126003D01*
X655337Y125972D01*
X655332Y125936D01*
X655324Y125895D01*
X655315Y125853D01*
X655301Y125806D01*
X655287Y125759D01*
X655271Y125709D01*
X655251Y125659D01*
X655227Y125607D01*
X655199Y125557D01*
X655168Y125504D01*
X655166Y125501D01*
X655160Y125493D01*
X655149Y125479D01*
X655135Y125460D01*
X655119Y125438D01*
X655096Y125410D01*
X655071Y125382D01*
X655041Y125352D01*
X655008Y125319D01*
X654969Y125285D01*
X654927Y125249D01*
X654883Y125213D01*
X654836Y125180D01*
X654783Y125147D01*
X654728Y125116D01*
X654667Y125086D01*
X654664Y125083D01*
X654653Y125080D01*
X654634Y125072D01*
X654609Y125064D01*
X654578Y125053D01*
X654542Y125039D01*
X654501Y125025D01*
X654454Y125011D01*
X654401Y124997D01*
X654343Y124983D01*
X654282Y124972D01*
X654218Y124958D01*
X654152Y124950D01*
X654080Y124942D01*
X654005Y124939D01*
X653930Y124936D01*
X653880D01*
X653844Y124939D01*
X653800Y124942D01*
X653747Y124945D01*
X653689Y124950D01*
X653625Y124956D01*
X653559Y124964D01*
X653490Y124972D01*
X653343Y125000D01*
X653268Y125017D01*
X653196Y125036D01*
X653124Y125061D01*
X653058Y125086D01*
X653055Y125089D01*
X653041Y125094D01*
X653024Y125102D01*
X652999Y125114D01*
X652969Y125130D01*
X652936Y125150D01*
X652897Y125174D01*
X652858Y125199D01*
X652814Y125230D01*
X652770Y125263D01*
X652722Y125302D01*
X652678Y125344D01*
X652631Y125388D01*
X652587Y125435D01*
X652545Y125487D01*
X652506Y125543D01*
X652504Y125546D01*
X652498Y125557D01*
X652487Y125573D01*
X652476Y125596D01*
X652459Y125626D01*
X652443Y125659D01*
X652423Y125698D01*
X652407Y125742D01*
X652387Y125792D01*
X652368Y125845D01*
X652351Y125903D01*
X652335Y125961D01*
X652321Y126025D01*
X652310Y126091D01*
X652301Y126161D01*
X652299Y126233D01*
X652778Y126274D01*
Y126271D01*
X652781Y126260D01*
Y126247D01*
X652786Y126227D01*
X652789Y126202D01*
X652794Y126172D01*
X652803Y126141D01*
X652811Y126105D01*
X652831Y126030D01*
X652858Y125950D01*
X652891Y125873D01*
X652933Y125798D01*
X652936Y125795D01*
X652939Y125789D01*
X652947Y125781D01*
X652958Y125767D01*
X652969Y125751D01*
X652986Y125734D01*
X653005Y125715D01*
X653027Y125692D01*
X653052Y125670D01*
X653083Y125645D01*
X653113Y125620D01*
X653149Y125596D01*
X653185Y125571D01*
X653227Y125546D01*
X653271Y125523D01*
X653318Y125501D01*
X653321D01*
X653329Y125496D01*
X653346Y125490D01*
X653365Y125485D01*
X653390Y125476D01*
X653418Y125465D01*
X653454Y125454D01*
X653490Y125446D01*
X653531Y125435D01*
X653578Y125424D01*
X653625Y125416D01*
X653678Y125404D01*
X653789Y125393D01*
X653908Y125388D01*
X653936D01*
X653958Y125391D01*
X653983D01*
X654010Y125393D01*
X654044Y125396D01*
X654080Y125399D01*
X654160Y125410D01*
X654246Y125424D01*
X654332Y125446D01*
X654418Y125474D01*
X654420D01*
X654429Y125476D01*
X654440Y125482D01*
X654454Y125490D01*
X654473Y125499D01*
X654493Y125510D01*
X654542Y125535D01*
X654595Y125568D01*
X654650Y125609D01*
X654703Y125656D01*
X654747Y125709D01*
Y125712D01*
X654753Y125717D01*
X654758Y125726D01*
X654764Y125737D01*
X654772Y125751D01*
X654783Y125767D01*
X654803Y125809D01*
X654822Y125856D01*
X654842Y125911D01*
X654853Y125975D01*
X654858Y126039D01*
Y126041D01*
Y126047D01*
Y126055D01*
X654855Y126069D01*
Y126086D01*
X654853Y126102D01*
X654844Y126147D01*
X654833Y126194D01*
X654814Y126247D01*
X654786Y126299D01*
X654750Y126352D01*
Y126355D01*
X654744Y126357D01*
X654731Y126374D01*
X654703Y126399D01*
X654686Y126416D01*
X654667Y126432D01*
X654645Y126449D01*
X654620Y126468D01*
X654592Y126488D01*
X654559Y126507D01*
X654526Y126526D01*
X654487Y126546D01*
X654448Y126562D01*
X654404Y126582D01*
X654401D01*
X654395Y126584D01*
X654387Y126587D01*
X654371Y126593D01*
X654351Y126598D01*
X654329Y126607D01*
X654299Y126615D01*
X654263Y126626D01*
X654218Y126640D01*
X654171Y126654D01*
X654116Y126667D01*
X654052Y126684D01*
X653983Y126704D01*
X653902Y126723D01*
X653817Y126745D01*
X653722Y126767D01*
X653720D01*
X653717Y126770D01*
X653709D01*
X653700Y126773D01*
X653673Y126781D01*
X653637Y126789D01*
X653595Y126801D01*
X653545Y126814D01*
X653490Y126828D01*
X653434Y126845D01*
X653312Y126881D01*
X653191Y126922D01*
X653132Y126944D01*
X653077Y126967D01*
X653030Y126986D01*
X652986Y127008D01*
X652983Y127011D01*
X652975Y127014D01*
X652961Y127022D01*
X652941Y127033D01*
X652919Y127047D01*
X652891Y127066D01*
X652864Y127086D01*
X652831Y127108D01*
X652764Y127158D01*
X652698Y127219D01*
X652631Y127288D01*
X652603Y127327D01*
X652576Y127366D01*
X652573Y127368D01*
X652570Y127377D01*
X652564Y127388D01*
X652556Y127404D01*
X652545Y127424D01*
X652534Y127446D01*
X652523Y127474D01*
X652509Y127504D01*
X652498Y127540D01*
X652484Y127576D01*
X652465Y127656D01*
X652448Y127745D01*
X652445Y127792D01*
X652443Y127842D01*
Y127845D01*
Y127856D01*
Y127870D01*
X652445Y127892D01*
X652448Y127917D01*
X652451Y127947D01*
X652457Y127980D01*
X652462Y128019D01*
X652473Y128061D01*
X652481Y128102D01*
X652495Y128147D01*
X652512Y128194D01*
X652531Y128241D01*
X652554Y128288D01*
X652578Y128338D01*
X652606Y128385D01*
X652609Y128388D01*
X652614Y128396D01*
X652623Y128410D01*
X652637Y128427D01*
X652653Y128449D01*
X652675Y128471D01*
X652700Y128498D01*
X652728Y128526D01*
X652758Y128557D01*
X652794Y128590D01*
X652833Y128620D01*
X652878Y128654D01*
X652925Y128684D01*
X652975Y128715D01*
X653027Y128742D01*
X653085Y128767D01*
X653088Y128770D01*
X653099Y128773D01*
X653116Y128778D01*
X653141Y128789D01*
X653171Y128798D01*
X653204Y128809D01*
X653246Y128823D01*
X653293Y128834D01*
X653343Y128848D01*
X653396Y128859D01*
X653454Y128870D01*
X653515Y128881D01*
X653581Y128889D01*
X653648Y128895D01*
X653717Y128897D01*
X653789Y128900D01*
X653830D01*
X653861Y128897D01*
D02*
G37*
G36*
X649407Y127837D02*
X649437D01*
X649470Y127831D01*
X649509Y127828D01*
X649553Y127820D01*
X649603Y127812D01*
X649653Y127798D01*
X649703Y127784D01*
X649756Y127764D01*
X649811Y127742D01*
X649861Y127717D01*
X649911Y127684D01*
X649958Y127651D01*
X650002Y127609D01*
X650005Y127607D01*
X650013Y127598D01*
X650024Y127584D01*
X650038Y127565D01*
X650055Y127543D01*
X650074Y127512D01*
X650094Y127476D01*
X650116Y127435D01*
X650135Y127388D01*
X650155Y127338D01*
X650174Y127280D01*
X650191Y127216D01*
X650207Y127147D01*
X650218Y127072D01*
X650224Y126992D01*
X650227Y126906D01*
Y125000D01*
X649756D01*
Y126748D01*
Y126751D01*
Y126762D01*
Y126776D01*
Y126795D01*
Y126817D01*
X649753Y126845D01*
X649750Y126906D01*
X649745Y126972D01*
X649736Y127039D01*
X649725Y127102D01*
X649717Y127130D01*
X649709Y127155D01*
Y127158D01*
X649706Y127161D01*
X649700Y127174D01*
X649689Y127199D01*
X649673Y127227D01*
X649648Y127258D01*
X649620Y127291D01*
X649584Y127324D01*
X649543Y127355D01*
X649537Y127357D01*
X649520Y127366D01*
X649495Y127379D01*
X649462Y127393D01*
X649421Y127407D01*
X649373Y127421D01*
X649318Y127429D01*
X649260Y127432D01*
X649232D01*
X649213Y127429D01*
X649188Y127427D01*
X649157Y127421D01*
X649124Y127415D01*
X649091Y127407D01*
X649052Y127396D01*
X649013Y127385D01*
X648975Y127368D01*
X648933Y127349D01*
X648891Y127327D01*
X648853Y127299D01*
X648814Y127271D01*
X648775Y127235D01*
X648772Y127233D01*
X648767Y127227D01*
X648759Y127216D01*
X648745Y127199D01*
X648731Y127177D01*
X648714Y127152D01*
X648698Y127122D01*
X648678Y127086D01*
X648662Y127044D01*
X648642Y126997D01*
X648626Y126947D01*
X648612Y126892D01*
X648598Y126828D01*
X648590Y126762D01*
X648584Y126690D01*
X648581Y126612D01*
Y125000D01*
X648110D01*
Y126803D01*
Y126806D01*
Y126817D01*
Y126834D01*
X648108Y126856D01*
Y126881D01*
X648105Y126911D01*
X648102Y126944D01*
X648097Y126980D01*
X648083Y127055D01*
X648061Y127133D01*
X648033Y127208D01*
X648013Y127244D01*
X647994Y127274D01*
Y127277D01*
X647989Y127280D01*
X647983Y127288D01*
X647972Y127299D01*
X647961Y127310D01*
X647944Y127324D01*
X647925Y127338D01*
X647905Y127355D01*
X647881Y127368D01*
X647853Y127382D01*
X647822Y127396D01*
X647786Y127407D01*
X647750Y127418D01*
X647709Y127427D01*
X647664Y127429D01*
X647617Y127432D01*
X647598D01*
X647584Y127429D01*
X647568D01*
X647545Y127427D01*
X647498Y127418D01*
X647443Y127407D01*
X647379Y127388D01*
X647315Y127363D01*
X647252Y127327D01*
X647249D01*
X647243Y127321D01*
X647235Y127316D01*
X647224Y127307D01*
X647193Y127283D01*
X647157Y127249D01*
X647116Y127205D01*
X647077Y127152D01*
X647038Y127091D01*
X647005Y127019D01*
Y127017D01*
X647002Y127011D01*
X647000Y126997D01*
X646994Y126983D01*
X646988Y126961D01*
X646980Y126936D01*
X646975Y126906D01*
X646969Y126873D01*
X646961Y126834D01*
X646955Y126789D01*
X646947Y126742D01*
X646941Y126690D01*
X646939Y126634D01*
X646933Y126573D01*
X646930Y126510D01*
Y126440D01*
Y125000D01*
X646459D01*
Y127778D01*
X646880D01*
Y127385D01*
X646883Y127388D01*
X646886Y127393D01*
X646894Y127404D01*
X646905Y127418D01*
X646916Y127438D01*
X646933Y127457D01*
X646972Y127504D01*
X647022Y127557D01*
X647083Y127609D01*
X647149Y127665D01*
X647227Y127715D01*
X647229Y127717D01*
X647238Y127720D01*
X647249Y127726D01*
X647265Y127734D01*
X647285Y127742D01*
X647310Y127753D01*
X647340Y127764D01*
X647371Y127778D01*
X647407Y127789D01*
X647443Y127801D01*
X647484Y127812D01*
X647529Y127820D01*
X647623Y127834D01*
X647673Y127839D01*
X647753D01*
X647775Y127837D01*
X647800D01*
X647831Y127834D01*
X647867Y127828D01*
X647903Y127823D01*
X647983Y127809D01*
X648066Y127784D01*
X648152Y127753D01*
X648191Y127731D01*
X648230Y127709D01*
X648232Y127706D01*
X648238Y127703D01*
X648249Y127695D01*
X648263Y127687D01*
X648277Y127673D01*
X648296Y127656D01*
X648338Y127618D01*
X648385Y127565D01*
X648429Y127504D01*
X648470Y127432D01*
X648506Y127352D01*
Y127355D01*
X648509Y127357D01*
X648523Y127374D01*
X648540Y127396D01*
X648567Y127429D01*
X648601Y127465D01*
X648639Y127507D01*
X648687Y127551D01*
X648739Y127595D01*
X648797Y127640D01*
X648864Y127684D01*
X648933Y127726D01*
X649011Y127764D01*
X649091Y127795D01*
X649180Y127817D01*
X649271Y127834D01*
X649318Y127839D01*
X649387D01*
X649407Y127837D01*
D02*
G37*
G36*
X658827Y126645D02*
X659941Y127778D01*
X660550D01*
X659489Y126745D01*
X660659Y125000D01*
X660077D01*
X659157Y126421D01*
X658827Y126100D01*
Y125000D01*
X658357D01*
Y128834D01*
X658827D01*
Y126645D01*
D02*
G37*
G36*
X657628Y125000D02*
X657157D01*
Y128834D01*
X657628D01*
Y125000D01*
D02*
G37*
G36*
X656451D02*
X655980D01*
Y127778D01*
X656451D01*
Y125000D01*
D02*
G37*
G36*
X635507Y128831D02*
X635546D01*
X635587Y128828D01*
X635637Y128823D01*
X635687Y128820D01*
X635742Y128812D01*
X635801Y128806D01*
X635917Y128784D01*
X636033Y128753D01*
X636089Y128737D01*
X636138Y128715D01*
X636141D01*
X636150Y128709D01*
X636163Y128703D01*
X636183Y128692D01*
X636205Y128681D01*
X636230Y128665D01*
X636260Y128648D01*
X636291Y128626D01*
X636324Y128604D01*
X636357Y128576D01*
X636390Y128548D01*
X636426Y128515D01*
X636460Y128479D01*
X636493Y128443D01*
X636523Y128402D01*
X636554Y128357D01*
X636557Y128355D01*
X636559Y128346D01*
X636568Y128332D01*
X636579Y128316D01*
X636590Y128294D01*
X636601Y128266D01*
X636615Y128238D01*
X636631Y128205D01*
X636645Y128166D01*
X636659Y128127D01*
X636681Y128042D01*
X636701Y127947D01*
X636703Y127900D01*
X636706Y127850D01*
Y127848D01*
Y127839D01*
Y127825D01*
X636703Y127809D01*
Y127787D01*
X636698Y127762D01*
X636695Y127731D01*
X636690Y127701D01*
X636673Y127629D01*
X636648Y127551D01*
X636634Y127510D01*
X636615Y127471D01*
X636595Y127429D01*
X636571Y127388D01*
X636568Y127385D01*
X636565Y127379D01*
X636557Y127368D01*
X636546Y127352D01*
X636532Y127332D01*
X636515Y127313D01*
X636493Y127288D01*
X636471Y127263D01*
X636443Y127235D01*
X636415Y127208D01*
X636382Y127180D01*
X636346Y127149D01*
X636305Y127119D01*
X636263Y127091D01*
X636219Y127064D01*
X636169Y127039D01*
X636172D01*
X636186Y127033D01*
X636202Y127028D01*
X636227Y127019D01*
X636255Y127008D01*
X636288Y126994D01*
X636327Y126978D01*
X636366Y126956D01*
X636410Y126934D01*
X636454Y126909D01*
X636498Y126881D01*
X636543Y126848D01*
X636584Y126814D01*
X636629Y126776D01*
X636667Y126734D01*
X636703Y126690D01*
X636706Y126687D01*
X636712Y126679D01*
X636720Y126665D01*
X636734Y126645D01*
X636748Y126623D01*
X636764Y126595D01*
X636781Y126562D01*
X636798Y126526D01*
X636814Y126485D01*
X636834Y126440D01*
X636848Y126393D01*
X636861Y126341D01*
X636875Y126288D01*
X636884Y126230D01*
X636889Y126172D01*
X636892Y126111D01*
Y126108D01*
Y126100D01*
Y126083D01*
X636889Y126064D01*
Y126041D01*
X636886Y126014D01*
X636884Y125981D01*
X636878Y125947D01*
X636864Y125870D01*
X636842Y125784D01*
X636814Y125695D01*
X636775Y125607D01*
Y125604D01*
X636770Y125596D01*
X636764Y125584D01*
X636756Y125568D01*
X636745Y125549D01*
X636731Y125526D01*
X636698Y125476D01*
X636656Y125418D01*
X636609Y125360D01*
X636557Y125302D01*
X636496Y125252D01*
X636493D01*
X636487Y125247D01*
X636479Y125241D01*
X636465Y125233D01*
X636449Y125222D01*
X636429Y125210D01*
X636407Y125197D01*
X636382Y125183D01*
X636352Y125166D01*
X636321Y125152D01*
X636249Y125119D01*
X636169Y125091D01*
X636077Y125064D01*
X636075D01*
X636066Y125061D01*
X636053Y125058D01*
X636033Y125053D01*
X636008Y125050D01*
X635978Y125044D01*
X635945Y125039D01*
X635906Y125033D01*
X635864Y125025D01*
X635817Y125019D01*
X635765Y125014D01*
X635712Y125011D01*
X635654Y125005D01*
X635593Y125003D01*
X635526Y125000D01*
X634000D01*
Y128834D01*
X635476D01*
X635507Y128831D01*
D02*
G37*
G36*
X642554Y127778D02*
X643022D01*
Y127413D01*
X642554D01*
Y125787D01*
Y125784D01*
Y125778D01*
Y125767D01*
Y125753D01*
Y125720D01*
X642556Y125679D01*
X642559Y125637D01*
X642562Y125593D01*
X642568Y125557D01*
X642573Y125543D01*
X642576Y125529D01*
Y125526D01*
X642582Y125521D01*
X642587Y125510D01*
X642595Y125496D01*
X642620Y125465D01*
X642637Y125452D01*
X642656Y125438D01*
X642659D01*
X642667Y125432D01*
X642678Y125427D01*
X642698Y125421D01*
X642720Y125416D01*
X642748Y125410D01*
X642781Y125407D01*
X642817Y125404D01*
X642847D01*
X642872Y125407D01*
X642900D01*
X642936Y125413D01*
X642978Y125416D01*
X643022Y125421D01*
X643091Y125005D01*
X643088D01*
X643083Y125003D01*
X643072D01*
X643058Y125000D01*
X643041Y124997D01*
X643019Y124992D01*
X642972Y124986D01*
X642917Y124978D01*
X642856Y124969D01*
X642795Y124967D01*
X642734Y124964D01*
X642692D01*
X642670Y124967D01*
X642645Y124969D01*
X642590Y124975D01*
X642526Y124983D01*
X642460Y124997D01*
X642396Y125017D01*
X642338Y125044D01*
X642335D01*
X642332Y125047D01*
X642315Y125058D01*
X642291Y125078D01*
X642260Y125100D01*
X642227Y125130D01*
X642194Y125166D01*
X642163Y125208D01*
X642138Y125255D01*
Y125258D01*
X642135Y125260D01*
X642133Y125269D01*
X642130Y125283D01*
X642124Y125299D01*
X642122Y125319D01*
X642116Y125344D01*
X642111Y125374D01*
X642105Y125410D01*
X642100Y125449D01*
X642097Y125496D01*
X642091Y125546D01*
X642088Y125604D01*
X642086Y125665D01*
X642083Y125737D01*
Y125812D01*
Y127413D01*
X641734D01*
Y127778D01*
X642083D01*
Y128465D01*
X642554Y128748D01*
Y127778D01*
D02*
G37*
G36*
X641066D02*
X641534D01*
Y127413D01*
X641066D01*
Y125787D01*
Y125784D01*
Y125778D01*
Y125767D01*
Y125753D01*
Y125720D01*
X641069Y125679D01*
X641072Y125637D01*
X641075Y125593D01*
X641080Y125557D01*
X641086Y125543D01*
X641088Y125529D01*
Y125526D01*
X641094Y125521D01*
X641100Y125510D01*
X641108Y125496D01*
X641133Y125465D01*
X641149Y125452D01*
X641169Y125438D01*
X641172D01*
X641180Y125432D01*
X641191Y125427D01*
X641210Y125421D01*
X641232Y125416D01*
X641260Y125410D01*
X641293Y125407D01*
X641329Y125404D01*
X641360D01*
X641385Y125407D01*
X641412D01*
X641448Y125413D01*
X641490Y125416D01*
X641534Y125421D01*
X641604Y125005D01*
X641601D01*
X641595Y125003D01*
X641584D01*
X641570Y125000D01*
X641554Y124997D01*
X641532Y124992D01*
X641484Y124986D01*
X641429Y124978D01*
X641368Y124969D01*
X641307Y124967D01*
X641246Y124964D01*
X641205D01*
X641183Y124967D01*
X641158Y124969D01*
X641102Y124975D01*
X641039Y124983D01*
X640972Y124997D01*
X640908Y125017D01*
X640850Y125044D01*
X640847D01*
X640845Y125047D01*
X640828Y125058D01*
X640803Y125078D01*
X640773Y125100D01*
X640739Y125130D01*
X640706Y125166D01*
X640676Y125208D01*
X640651Y125255D01*
Y125258D01*
X640648Y125260D01*
X640645Y125269D01*
X640642Y125283D01*
X640637Y125299D01*
X640634Y125319D01*
X640629Y125344D01*
X640623Y125374D01*
X640618Y125410D01*
X640612Y125449D01*
X640609Y125496D01*
X640604Y125546D01*
X640601Y125604D01*
X640598Y125665D01*
X640595Y125737D01*
Y125812D01*
Y127413D01*
X640246D01*
Y127778D01*
X640595D01*
Y128465D01*
X641066Y128748D01*
Y127778D01*
D02*
G37*
G36*
X644662Y127837D02*
X644700Y127834D01*
X644750Y127828D01*
X644806Y127820D01*
X644870Y127809D01*
X644939Y127792D01*
X645011Y127773D01*
X645088Y127748D01*
X645166Y127717D01*
X645243Y127681D01*
X645321Y127637D01*
X645399Y127587D01*
X645473Y127529D01*
X645543Y127462D01*
X645548Y127457D01*
X645559Y127446D01*
X645576Y127424D01*
X645601Y127393D01*
X645628Y127355D01*
X645659Y127310D01*
X645692Y127255D01*
X645725Y127194D01*
X645759Y127122D01*
X645792Y127044D01*
X645822Y126961D01*
X645850Y126867D01*
X645875Y126767D01*
X645892Y126662D01*
X645905Y126548D01*
X645908Y126426D01*
Y126424D01*
Y126421D01*
Y126413D01*
Y126404D01*
Y126374D01*
X645905Y126338D01*
X645903Y126294D01*
X645900Y126241D01*
X645894Y126183D01*
X645889Y126122D01*
X645881Y126055D01*
X645869Y125986D01*
X645856Y125917D01*
X645839Y125845D01*
X645820Y125776D01*
X645800Y125709D01*
X645773Y125645D01*
X645745Y125584D01*
X645742Y125582D01*
X645737Y125571D01*
X645728Y125554D01*
X645714Y125535D01*
X645698Y125507D01*
X645678Y125479D01*
X645653Y125446D01*
X645626Y125410D01*
X645595Y125371D01*
X645559Y125332D01*
X645520Y125294D01*
X645479Y125255D01*
X645435Y125216D01*
X645385Y125177D01*
X645332Y125141D01*
X645277Y125108D01*
X645274Y125105D01*
X645263Y125100D01*
X645246Y125091D01*
X645224Y125083D01*
X645194Y125069D01*
X645160Y125055D01*
X645122Y125039D01*
X645080Y125025D01*
X645030Y125008D01*
X644980Y124992D01*
X644925Y124978D01*
X644867Y124967D01*
X644803Y124956D01*
X644739Y124947D01*
X644676Y124942D01*
X644606Y124939D01*
X644581D01*
X644568Y124942D01*
X644551D01*
X644509Y124945D01*
X644459Y124950D01*
X644404Y124958D01*
X644340Y124969D01*
X644271Y124986D01*
X644196Y125005D01*
X644122Y125031D01*
X644041Y125061D01*
X643964Y125097D01*
X643886Y125138D01*
X643809Y125188D01*
X643734Y125244D01*
X643665Y125310D01*
X643662Y125316D01*
X643648Y125327D01*
X643631Y125349D01*
X643609Y125380D01*
X643581Y125418D01*
X643551Y125465D01*
X643520Y125521D01*
X643487Y125584D01*
X643454Y125656D01*
X643421Y125737D01*
X643390Y125826D01*
X643363Y125922D01*
X643340Y126028D01*
X643324Y126138D01*
X643310Y126260D01*
X643307Y126388D01*
Y126391D01*
Y126396D01*
Y126407D01*
Y126421D01*
X643310Y126440D01*
Y126463D01*
X643313Y126488D01*
Y126515D01*
X643316Y126546D01*
X643321Y126579D01*
X643329Y126651D01*
X643343Y126731D01*
X643360Y126820D01*
X643382Y126911D01*
X643412Y127006D01*
X643446Y127100D01*
X643487Y127194D01*
X643537Y127285D01*
X643593Y127374D01*
X643659Y127454D01*
X643734Y127529D01*
X643739Y127532D01*
X643750Y127543D01*
X643770Y127557D01*
X643797Y127579D01*
X643833Y127601D01*
X643875Y127626D01*
X643922Y127656D01*
X643977Y127684D01*
X644038Y127712D01*
X644105Y127742D01*
X644177Y127767D01*
X644254Y127792D01*
X644335Y127812D01*
X644421Y127825D01*
X644512Y127837D01*
X644606Y127839D01*
X644645D01*
X644662Y127837D01*
D02*
G37*
G36*
X638709D02*
X638748Y127834D01*
X638798Y127828D01*
X638853Y127820D01*
X638917Y127809D01*
X638986Y127792D01*
X639058Y127773D01*
X639136Y127748D01*
X639213Y127717D01*
X639291Y127681D01*
X639368Y127637D01*
X639446Y127587D01*
X639521Y127529D01*
X639590Y127462D01*
X639595Y127457D01*
X639607Y127446D01*
X639623Y127424D01*
X639648Y127393D01*
X639676Y127355D01*
X639706Y127310D01*
X639739Y127255D01*
X639773Y127194D01*
X639806Y127122D01*
X639839Y127044D01*
X639870Y126961D01*
X639897Y126867D01*
X639922Y126767D01*
X639939Y126662D01*
X639953Y126548D01*
X639956Y126426D01*
Y126424D01*
Y126421D01*
Y126413D01*
Y126404D01*
Y126374D01*
X639953Y126338D01*
X639950Y126294D01*
X639947Y126241D01*
X639942Y126183D01*
X639936Y126122D01*
X639928Y126055D01*
X639917Y125986D01*
X639903Y125917D01*
X639886Y125845D01*
X639867Y125776D01*
X639848Y125709D01*
X639820Y125645D01*
X639792Y125584D01*
X639789Y125582D01*
X639784Y125571D01*
X639776Y125554D01*
X639762Y125535D01*
X639745Y125507D01*
X639726Y125479D01*
X639701Y125446D01*
X639673Y125410D01*
X639642Y125371D01*
X639607Y125332D01*
X639568Y125294D01*
X639526Y125255D01*
X639482Y125216D01*
X639432Y125177D01*
X639379Y125141D01*
X639324Y125108D01*
X639321Y125105D01*
X639310Y125100D01*
X639293Y125091D01*
X639271Y125083D01*
X639241Y125069D01*
X639208Y125055D01*
X639169Y125039D01*
X639127Y125025D01*
X639077Y125008D01*
X639028Y124992D01*
X638972Y124978D01*
X638914Y124967D01*
X638850Y124956D01*
X638787Y124947D01*
X638723Y124942D01*
X638654Y124939D01*
X638629D01*
X638615Y124942D01*
X638598D01*
X638557Y124945D01*
X638507Y124950D01*
X638451Y124958D01*
X638388Y124969D01*
X638318Y124986D01*
X638244Y125005D01*
X638169Y125031D01*
X638089Y125061D01*
X638011Y125097D01*
X637933Y125138D01*
X637856Y125188D01*
X637781Y125244D01*
X637712Y125310D01*
X637709Y125316D01*
X637695Y125327D01*
X637679Y125349D01*
X637656Y125380D01*
X637629Y125418D01*
X637598Y125465D01*
X637568Y125521D01*
X637535Y125584D01*
X637501Y125656D01*
X637468Y125737D01*
X637438Y125826D01*
X637410Y125922D01*
X637388Y126028D01*
X637371Y126138D01*
X637357Y126260D01*
X637355Y126388D01*
Y126391D01*
Y126396D01*
Y126407D01*
Y126421D01*
X637357Y126440D01*
Y126463D01*
X637360Y126488D01*
Y126515D01*
X637363Y126546D01*
X637368Y126579D01*
X637377Y126651D01*
X637391Y126731D01*
X637407Y126820D01*
X637429Y126911D01*
X637460Y127006D01*
X637493Y127100D01*
X637535Y127194D01*
X637584Y127285D01*
X637640Y127374D01*
X637706Y127454D01*
X637781Y127529D01*
X637787Y127532D01*
X637798Y127543D01*
X637817Y127557D01*
X637845Y127579D01*
X637881Y127601D01*
X637922Y127626D01*
X637969Y127656D01*
X638025Y127684D01*
X638086Y127712D01*
X638152Y127742D01*
X638224Y127767D01*
X638302Y127792D01*
X638382Y127812D01*
X638468Y127825D01*
X638559Y127837D01*
X638654Y127839D01*
X638692D01*
X638709Y127837D01*
D02*
G37*
%LPC*%
G36*
X635346Y128382D02*
X634507D01*
Y127222D01*
X635388D01*
X635416Y127224D01*
X635482D01*
X635521Y127227D01*
X635598Y127233D01*
X635679Y127241D01*
X635717Y127246D01*
X635753Y127252D01*
X635787Y127258D01*
X635817Y127266D01*
X635820D01*
X635825Y127269D01*
X635837Y127271D01*
X635850Y127277D01*
X635864Y127283D01*
X635884Y127291D01*
X635925Y127310D01*
X635972Y127335D01*
X636022Y127368D01*
X636066Y127407D01*
X636108Y127454D01*
Y127457D01*
X636114Y127460D01*
X636116Y127468D01*
X636125Y127479D01*
X636130Y127493D01*
X636138Y127507D01*
X636158Y127548D01*
X636177Y127595D01*
X636191Y127654D01*
X636202Y127720D01*
X636208Y127792D01*
Y127795D01*
Y127801D01*
Y127812D01*
Y127825D01*
X636205Y127842D01*
X636202Y127861D01*
X636197Y127906D01*
X636186Y127958D01*
X636169Y128014D01*
X636144Y128072D01*
X636114Y128127D01*
Y128130D01*
X636108Y128133D01*
X636097Y128152D01*
X636075Y128177D01*
X636047Y128208D01*
X636011Y128241D01*
X635964Y128274D01*
X635914Y128302D01*
X635853Y128327D01*
X635850D01*
X635845Y128330D01*
X635834Y128332D01*
X635820Y128335D01*
X635801Y128341D01*
X635778Y128343D01*
X635751Y128349D01*
X635717Y128355D01*
X635679Y128360D01*
X635637Y128366D01*
X635590Y128368D01*
X635537Y128374D01*
X635479Y128377D01*
X635416Y128379D01*
X635346Y128382D01*
D02*
G37*
G36*
X635457Y126770D02*
X634507D01*
Y125452D01*
X635543D01*
X635596Y125454D01*
X635654D01*
X635709Y125460D01*
X635762Y125463D01*
X635787Y125465D01*
X635806Y125468D01*
X635809D01*
X635814Y125471D01*
X635823D01*
X635837Y125474D01*
X635867Y125482D01*
X635909Y125493D01*
X635953Y125507D01*
X636003Y125523D01*
X636050Y125546D01*
X636097Y125571D01*
X636100D01*
X636102Y125573D01*
X636116Y125584D01*
X636138Y125601D01*
X636166Y125626D01*
X636197Y125656D01*
X636230Y125692D01*
X636260Y125734D01*
X636291Y125784D01*
Y125787D01*
X636294Y125789D01*
X636299Y125798D01*
X636302Y125809D01*
X636316Y125839D01*
X636330Y125878D01*
X636343Y125925D01*
X636357Y125981D01*
X636366Y126044D01*
X636368Y126111D01*
Y126113D01*
Y126119D01*
Y126133D01*
X636366Y126147D01*
Y126166D01*
X636363Y126186D01*
X636354Y126238D01*
X636341Y126296D01*
X636321Y126357D01*
X636294Y126421D01*
X636258Y126482D01*
Y126485D01*
X636252Y126490D01*
X636246Y126496D01*
X636238Y126507D01*
X636213Y126535D01*
X636177Y126568D01*
X636133Y126607D01*
X636080Y126643D01*
X636019Y126676D01*
X635950Y126704D01*
X635947D01*
X635942Y126706D01*
X635931Y126709D01*
X635914Y126715D01*
X635895Y126720D01*
X635870Y126726D01*
X635842Y126731D01*
X635809Y126737D01*
X635770Y126742D01*
X635729Y126748D01*
X635681Y126753D01*
X635632Y126759D01*
X635579Y126765D01*
X635521Y126767D01*
X635457Y126770D01*
D02*
G37*
G36*
X644606Y127449D02*
X644590D01*
X644573Y127446D01*
X644548D01*
X644518Y127440D01*
X644482Y127435D01*
X644443Y127427D01*
X644401Y127415D01*
X644357Y127402D01*
X644310Y127385D01*
X644260Y127363D01*
X644210Y127338D01*
X644163Y127307D01*
X644113Y127271D01*
X644066Y127230D01*
X644022Y127183D01*
X644019Y127180D01*
X644011Y127172D01*
X644000Y127155D01*
X643986Y127133D01*
X643969Y127105D01*
X643950Y127072D01*
X643928Y127030D01*
X643908Y126986D01*
X643886Y126931D01*
X643864Y126873D01*
X643845Y126809D01*
X643828Y126737D01*
X643814Y126659D01*
X643803Y126573D01*
X643795Y126485D01*
X643792Y126388D01*
Y126385D01*
Y126382D01*
Y126374D01*
Y126366D01*
X643795Y126338D01*
Y126302D01*
X643800Y126258D01*
X643803Y126205D01*
X643811Y126149D01*
X643820Y126089D01*
X643833Y126025D01*
X643847Y125958D01*
X643867Y125892D01*
X643889Y125828D01*
X643917Y125762D01*
X643947Y125701D01*
X643980Y125643D01*
X644022Y125590D01*
X644025Y125587D01*
X644033Y125579D01*
X644047Y125565D01*
X644063Y125549D01*
X644086Y125529D01*
X644113Y125507D01*
X644146Y125482D01*
X644182Y125460D01*
X644221Y125435D01*
X644266Y125410D01*
X644315Y125388D01*
X644365Y125368D01*
X644421Y125352D01*
X644482Y125338D01*
X644543Y125330D01*
X644606Y125327D01*
X644623D01*
X644640Y125330D01*
X644664Y125332D01*
X644695Y125335D01*
X644731Y125341D01*
X644770Y125349D01*
X644811Y125360D01*
X644856Y125374D01*
X644903Y125391D01*
X644953Y125413D01*
X645002Y125440D01*
X645049Y125471D01*
X645099Y125504D01*
X645147Y125546D01*
X645191Y125593D01*
X645194Y125596D01*
X645202Y125607D01*
X645213Y125620D01*
X645227Y125643D01*
X645246Y125670D01*
X645266Y125706D01*
X645285Y125748D01*
X645307Y125795D01*
X645329Y125848D01*
X645349Y125909D01*
X645371Y125975D01*
X645388Y126047D01*
X645401Y126127D01*
X645412Y126213D01*
X645421Y126305D01*
X645424Y126404D01*
Y126407D01*
Y126410D01*
Y126426D01*
X645421Y126454D01*
Y126488D01*
X645415Y126532D01*
X645412Y126582D01*
X645404Y126634D01*
X645393Y126695D01*
X645382Y126756D01*
X645365Y126820D01*
X645346Y126884D01*
X645324Y126950D01*
X645296Y127011D01*
X645266Y127072D01*
X645230Y127130D01*
X645188Y127183D01*
X645185Y127185D01*
X645177Y127194D01*
X645163Y127208D01*
X645147Y127224D01*
X645124Y127244D01*
X645097Y127266D01*
X645063Y127291D01*
X645027Y127316D01*
X644989Y127341D01*
X644944Y127366D01*
X644897Y127388D01*
X644844Y127407D01*
X644789Y127424D01*
X644731Y127438D01*
X644670Y127446D01*
X644606Y127449D01*
D02*
G37*
G36*
X638654D02*
X638637D01*
X638620Y127446D01*
X638595D01*
X638565Y127440D01*
X638529Y127435D01*
X638490Y127427D01*
X638449Y127415D01*
X638404Y127402D01*
X638357Y127385D01*
X638307Y127363D01*
X638258Y127338D01*
X638210Y127307D01*
X638161Y127271D01*
X638113Y127230D01*
X638069Y127183D01*
X638066Y127180D01*
X638058Y127172D01*
X638047Y127155D01*
X638033Y127133D01*
X638017Y127105D01*
X637997Y127072D01*
X637975Y127030D01*
X637956Y126986D01*
X637933Y126931D01*
X637911Y126873D01*
X637892Y126809D01*
X637875Y126737D01*
X637861Y126659D01*
X637850Y126573D01*
X637842Y126485D01*
X637839Y126388D01*
Y126385D01*
Y126382D01*
Y126374D01*
Y126366D01*
X637842Y126338D01*
Y126302D01*
X637848Y126258D01*
X637850Y126205D01*
X637859Y126149D01*
X637867Y126089D01*
X637881Y126025D01*
X637895Y125958D01*
X637914Y125892D01*
X637936Y125828D01*
X637964Y125762D01*
X637994Y125701D01*
X638028Y125643D01*
X638069Y125590D01*
X638072Y125587D01*
X638080Y125579D01*
X638094Y125565D01*
X638111Y125549D01*
X638133Y125529D01*
X638161Y125507D01*
X638194Y125482D01*
X638230Y125460D01*
X638269Y125435D01*
X638313Y125410D01*
X638363Y125388D01*
X638413Y125368D01*
X638468Y125352D01*
X638529Y125338D01*
X638590Y125330D01*
X638654Y125327D01*
X638670D01*
X638687Y125330D01*
X638712Y125332D01*
X638742Y125335D01*
X638778Y125341D01*
X638817Y125349D01*
X638859Y125360D01*
X638903Y125374D01*
X638950Y125391D01*
X639000Y125413D01*
X639050Y125440D01*
X639097Y125471D01*
X639147Y125504D01*
X639194Y125546D01*
X639238Y125593D01*
X639241Y125596D01*
X639249Y125607D01*
X639260Y125620D01*
X639274Y125643D01*
X639293Y125670D01*
X639313Y125706D01*
X639332Y125748D01*
X639354Y125795D01*
X639377Y125848D01*
X639396Y125909D01*
X639418Y125975D01*
X639435Y126047D01*
X639449Y126127D01*
X639460Y126213D01*
X639468Y126305D01*
X639471Y126404D01*
Y126407D01*
Y126410D01*
Y126426D01*
X639468Y126454D01*
Y126488D01*
X639462Y126532D01*
X639460Y126582D01*
X639451Y126634D01*
X639440Y126695D01*
X639429Y126756D01*
X639413Y126820D01*
X639393Y126884D01*
X639371Y126950D01*
X639343Y127011D01*
X639313Y127072D01*
X639277Y127130D01*
X639235Y127183D01*
X639232Y127185D01*
X639224Y127194D01*
X639210Y127208D01*
X639194Y127224D01*
X639172Y127244D01*
X639144Y127266D01*
X639111Y127291D01*
X639075Y127316D01*
X639036Y127341D01*
X638991Y127366D01*
X638944Y127388D01*
X638892Y127407D01*
X638836Y127424D01*
X638778Y127438D01*
X638717Y127446D01*
X638654Y127449D01*
D02*
G37*
%LPD*%
D10*
X100000Y500000D02*
X700000D01*
X100000Y116000D02*
X700000D01*
Y500000D01*
X100000Y116000D02*
Y500000D01*
M02*
