G04*
G04 #@! TF.GenerationSoftware,Altium Limited,Altium Designer,19.1.8 (144)*
G04*
G04 Layer_Color=8421504*
%FSLAX25Y25*%
%MOIN*%
G70*
G01*
G75*
%ADD10C,0.01000*%
%ADD18R,0.05315X0.03543*%
%ADD19C,0.03000*%
%ADD20R,0.04134X0.05512*%
%ADD21R,0.07008X0.01654*%
%ADD22R,0.02400X0.09000*%
%ADD23C,0.07874*%
%ADD24R,0.05709X0.06890*%
%ADD25R,0.06102X0.02559*%
%ADD26R,0.05512X0.04134*%
%ADD27R,0.03543X0.05315*%
%ADD28R,0.04921X0.06299*%
%ADD29R,0.02362X0.05709*%
%ADD30R,0.07087X0.05709*%
%ADD31R,0.23622X0.21260*%
%ADD32R,0.02756X0.03937*%
%ADD33R,0.03740X0.03543*%
%ADD34R,0.17126X0.08268*%
%ADD35R,0.03543X0.03740*%
%ADD36R,0.19685X0.19685*%
%ADD37R,0.02559X0.06102*%
%ADD38R,0.01772X0.05906*%
%ADD39R,0.05709X0.07087*%
%ADD40R,0.23622X0.19685*%
%ADD41R,0.18504X0.12598*%
%ADD42R,0.11024X0.08898*%
%ADD43R,0.06890X0.05709*%
%ADD44R,0.01772X0.05512*%
%ADD45R,0.14094X0.11575*%
%ADD46R,0.05709X0.02362*%
%ADD47R,0.10630X0.06693*%
%ADD48R,0.13780X0.20079*%
%ADD49R,0.09449X0.12795*%
%ADD50R,0.06299X0.08071*%
%ADD51R,0.19685X0.19685*%
%ADD52R,0.06693X0.10630*%
%ADD53R,0.12795X0.09449*%
D10*
X100000Y500000D02*
X700000D01*
X100000Y116000D02*
X700000D01*
Y500000D01*
X100000Y116000D02*
Y500000D01*
D18*
X409000Y398063D02*
D03*
Y405937D02*
D03*
X472500Y284374D02*
D03*
Y276500D02*
D03*
X518000Y325437D02*
D03*
Y317563D02*
D03*
X528000Y325437D02*
D03*
Y317563D02*
D03*
X303000Y211000D02*
D03*
Y218874D02*
D03*
X394500Y164937D02*
D03*
Y157063D02*
D03*
X180000Y146437D02*
D03*
Y138563D02*
D03*
X172500D02*
D03*
Y146437D02*
D03*
X222500Y138937D02*
D03*
Y131063D02*
D03*
X163000Y397063D02*
D03*
Y404937D02*
D03*
X658901Y457937D02*
D03*
Y450063D02*
D03*
X649000D02*
D03*
Y457937D02*
D03*
X654284Y199937D02*
D03*
Y192063D02*
D03*
X598567Y202937D02*
D03*
Y195063D02*
D03*
X542783Y209937D02*
D03*
Y202063D02*
D03*
X485783Y216937D02*
D03*
Y209063D02*
D03*
X394500Y179063D02*
D03*
Y186937D02*
D03*
X428500Y179063D02*
D03*
Y186937D02*
D03*
X657500Y390063D02*
D03*
Y397937D02*
D03*
X600500Y395063D02*
D03*
Y402937D02*
D03*
X545000Y400063D02*
D03*
Y407937D02*
D03*
X400500Y390937D02*
D03*
Y383063D02*
D03*
Y405937D02*
D03*
Y398063D02*
D03*
X387000Y390937D02*
D03*
Y383063D02*
D03*
Y405937D02*
D03*
Y398063D02*
D03*
X378500Y405937D02*
D03*
Y398063D02*
D03*
X407500Y350937D02*
D03*
Y343063D02*
D03*
X399500D02*
D03*
Y350937D02*
D03*
X391000Y343063D02*
D03*
Y350937D02*
D03*
X365500Y343063D02*
D03*
Y350937D02*
D03*
X357000Y343063D02*
D03*
Y350937D02*
D03*
X339286Y343126D02*
D03*
Y351000D02*
D03*
X313357Y343126D02*
D03*
Y351000D02*
D03*
X410000Y324937D02*
D03*
Y317063D02*
D03*
X402500Y324937D02*
D03*
Y317063D02*
D03*
X373000Y272563D02*
D03*
Y280437D02*
D03*
X381000Y272563D02*
D03*
Y280437D02*
D03*
Y259063D02*
D03*
Y266937D02*
D03*
X373000Y259063D02*
D03*
Y266937D02*
D03*
X277500Y180591D02*
D03*
Y188465D02*
D03*
Y203937D02*
D03*
Y196063D02*
D03*
X217500Y308563D02*
D03*
Y316437D02*
D03*
Y301437D02*
D03*
Y293563D02*
D03*
X313357Y360126D02*
D03*
Y368000D02*
D03*
X322000D02*
D03*
Y360126D02*
D03*
X330643D02*
D03*
Y368000D02*
D03*
X339286D02*
D03*
Y360126D02*
D03*
X348500D02*
D03*
Y368000D02*
D03*
X357000D02*
D03*
Y360126D02*
D03*
X365500Y368000D02*
D03*
Y360126D02*
D03*
X374000D02*
D03*
Y368000D02*
D03*
X382500Y360126D02*
D03*
Y368000D02*
D03*
X391000D02*
D03*
Y360126D02*
D03*
X399500Y368000D02*
D03*
Y360126D02*
D03*
X428500Y157063D02*
D03*
Y164937D02*
D03*
X402500Y311437D02*
D03*
Y303563D02*
D03*
X410000Y311437D02*
D03*
Y303563D02*
D03*
X636000Y277937D02*
D03*
Y270063D02*
D03*
X628500Y277937D02*
D03*
Y270063D02*
D03*
X621000Y277937D02*
D03*
Y270063D02*
D03*
X613000Y277937D02*
D03*
Y270063D02*
D03*
X613500Y257937D02*
D03*
Y250063D02*
D03*
X621500Y257937D02*
D03*
Y250063D02*
D03*
X629000Y257937D02*
D03*
Y250063D02*
D03*
X636500Y257937D02*
D03*
Y250063D02*
D03*
X502500Y269437D02*
D03*
Y261563D02*
D03*
X489000Y406063D02*
D03*
Y413937D02*
D03*
D19*
X517000Y288500D02*
D03*
X113000Y268000D02*
D03*
X522500Y283500D02*
D03*
X475500Y459500D02*
D03*
Y452500D02*
D03*
X159000Y209000D02*
D03*
X296000Y210500D02*
D03*
X234000Y132000D02*
D03*
X225500Y176500D02*
D03*
X164000Y166500D02*
D03*
X162500Y146500D02*
D03*
X617000Y435000D02*
D03*
X623283Y184500D02*
D03*
X536000Y172500D02*
D03*
X509000Y179500D02*
D03*
X533500Y440500D02*
D03*
X339786Y335563D02*
D03*
X322000Y336000D02*
D03*
X426000Y123000D02*
D03*
X391500Y125000D02*
D03*
X631500Y344500D02*
D03*
Y336500D02*
D03*
Y328000D02*
D03*
Y320500D02*
D03*
X413000Y412000D02*
D03*
X393000Y338500D02*
D03*
X392000Y268500D02*
D03*
X325000Y244000D02*
D03*
X163500Y345000D02*
D03*
X143000Y354000D02*
D03*
X387000Y412500D02*
D03*
X464500Y426000D02*
D03*
X142000Y491500D02*
D03*
X150500D02*
D03*
Y469500D02*
D03*
Y476833D02*
D03*
X142000Y484167D02*
D03*
X150500Y484000D02*
D03*
X142000Y469500D02*
D03*
Y476833D02*
D03*
X606500Y479000D02*
D03*
X647000Y473500D02*
D03*
X601500Y475000D02*
D03*
X651000Y471000D02*
D03*
X606500Y471500D02*
D03*
X647000Y467000D02*
D03*
X600000Y470000D02*
D03*
X651000Y464500D02*
D03*
X603500Y466000D02*
D03*
X351000Y258000D02*
D03*
X565500Y235000D02*
D03*
X560500D02*
D03*
X680784Y179000D02*
D03*
X545500Y235000D02*
D03*
X530500D02*
D03*
X520500Y421500D02*
D03*
X535500Y235000D02*
D03*
X550500D02*
D03*
X579000Y425000D02*
D03*
X632500Y410000D02*
D03*
X555500Y235000D02*
D03*
X540500D02*
D03*
X565000Y179500D02*
D03*
X511000Y192000D02*
D03*
X372500Y394500D02*
D03*
X370000Y403500D02*
D03*
X414000Y360500D02*
D03*
X408500Y412000D02*
D03*
X367500Y414500D02*
D03*
X286500Y327500D02*
D03*
X229500Y225000D02*
D03*
X450500Y374000D02*
D03*
X269000Y270000D02*
D03*
X226000Y289500D02*
D03*
X216500Y126500D02*
D03*
X304000Y157500D02*
D03*
X343000Y215000D02*
D03*
X288500Y187000D02*
D03*
X152500Y157500D02*
D03*
X174386Y246886D02*
D03*
X216250Y198750D02*
D03*
X187000Y178500D02*
D03*
D20*
X639740Y483000D02*
D03*
X632260D02*
D03*
X435500Y226000D02*
D03*
X428020D02*
D03*
X449240D02*
D03*
X441760D02*
D03*
X463240D02*
D03*
X455760D02*
D03*
X428020Y286500D02*
D03*
X435500D02*
D03*
X188740Y250000D02*
D03*
X181260D02*
D03*
X218760Y162500D02*
D03*
X226240D02*
D03*
X173760Y177500D02*
D03*
X181240D02*
D03*
X651543Y170000D02*
D03*
X659024D02*
D03*
X595827Y175500D02*
D03*
X603307D02*
D03*
X514543Y226000D02*
D03*
X522024D02*
D03*
X540260Y181000D02*
D03*
X547740D02*
D03*
X483260Y188000D02*
D03*
X490740D02*
D03*
X516740Y391000D02*
D03*
X509260D02*
D03*
X660240Y418000D02*
D03*
X652760D02*
D03*
X629740Y379500D02*
D03*
X622260D02*
D03*
X603240Y424000D02*
D03*
X595760D02*
D03*
X572240Y386000D02*
D03*
X564760D02*
D03*
X547740Y429000D02*
D03*
X540260D02*
D03*
X401760Y289000D02*
D03*
X409240D02*
D03*
X401760Y296500D02*
D03*
X409240D02*
D03*
X400760Y271500D02*
D03*
X408240D02*
D03*
X400760Y264000D02*
D03*
X408240D02*
D03*
X401760Y226000D02*
D03*
X409240D02*
D03*
X395740D02*
D03*
X388260D02*
D03*
X366760Y230000D02*
D03*
X374240D02*
D03*
X366760Y222500D02*
D03*
X374240D02*
D03*
X360740Y230000D02*
D03*
X353260D02*
D03*
X360740Y222500D02*
D03*
X353260D02*
D03*
X342740Y256500D02*
D03*
X335260D02*
D03*
X342740Y249000D02*
D03*
X335260D02*
D03*
X192260Y418500D02*
D03*
X199740D02*
D03*
X205740Y401500D02*
D03*
X198260D02*
D03*
X173240Y366000D02*
D03*
X165760D02*
D03*
X198760Y346500D02*
D03*
X206240D02*
D03*
X182740Y401500D02*
D03*
X175260D02*
D03*
X355260Y385500D02*
D03*
X362740D02*
D03*
X362240Y403500D02*
D03*
X354760D02*
D03*
X571760Y235000D02*
D03*
X579240D02*
D03*
X485240Y246500D02*
D03*
X477760D02*
D03*
X492740Y435000D02*
D03*
X485260D02*
D03*
X461740Y397000D02*
D03*
X454260D02*
D03*
X306260Y165000D02*
D03*
X313740D02*
D03*
X238760Y182500D02*
D03*
X246240D02*
D03*
X276260Y316000D02*
D03*
X283740D02*
D03*
X208740Y207500D02*
D03*
X201260D02*
D03*
X690024Y208000D02*
D03*
X682543D02*
D03*
X634807Y214173D02*
D03*
X627327D02*
D03*
X578524Y219673D02*
D03*
X571043D02*
D03*
X318760Y227500D02*
D03*
X326240D02*
D03*
X466740Y348000D02*
D03*
X459260D02*
D03*
D21*
X639193Y452984D02*
D03*
Y455543D02*
D03*
Y458102D02*
D03*
Y460661D02*
D03*
Y463221D02*
D03*
Y465779D02*
D03*
Y468339D02*
D03*
Y470898D02*
D03*
Y473457D02*
D03*
Y476016D02*
D03*
X615807Y452984D02*
D03*
Y455543D02*
D03*
Y458102D02*
D03*
Y460661D02*
D03*
Y463221D02*
D03*
Y465779D02*
D03*
Y468339D02*
D03*
Y470898D02*
D03*
Y473457D02*
D03*
Y476016D02*
D03*
D22*
X530500Y246000D02*
D03*
X535500D02*
D03*
X540500D02*
D03*
X545500D02*
D03*
X550500D02*
D03*
X555500D02*
D03*
X560500D02*
D03*
X565500D02*
D03*
X570500D02*
D03*
X575500D02*
D03*
X580500D02*
D03*
X585500D02*
D03*
X590500D02*
D03*
X595500D02*
D03*
Y282000D02*
D03*
X590500D02*
D03*
X585500D02*
D03*
X580500D02*
D03*
X575500D02*
D03*
X570500D02*
D03*
X565500D02*
D03*
X560500D02*
D03*
X555500D02*
D03*
X550500D02*
D03*
X545500D02*
D03*
X540500D02*
D03*
X535500D02*
D03*
X530500D02*
D03*
D23*
X687000Y455000D02*
D03*
X110000Y489500D02*
D03*
X650500Y140000D02*
D03*
X144000Y143500D02*
D03*
D24*
X316988Y195000D02*
D03*
X328012D02*
D03*
X275512Y327500D02*
D03*
X264488D02*
D03*
X190512Y217500D02*
D03*
X179488D02*
D03*
D25*
X607437Y206000D02*
D03*
Y201000D02*
D03*
Y196000D02*
D03*
Y191000D02*
D03*
X628697Y206000D02*
D03*
Y201000D02*
D03*
Y196000D02*
D03*
Y191000D02*
D03*
X213130Y140000D02*
D03*
Y145000D02*
D03*
Y150000D02*
D03*
Y155000D02*
D03*
X191870Y140000D02*
D03*
Y145000D02*
D03*
Y150000D02*
D03*
Y155000D02*
D03*
X663154Y200500D02*
D03*
Y195500D02*
D03*
Y190500D02*
D03*
Y185500D02*
D03*
X684413Y200500D02*
D03*
Y195500D02*
D03*
Y190500D02*
D03*
Y185500D02*
D03*
X551653Y211500D02*
D03*
Y206500D02*
D03*
Y201500D02*
D03*
Y196500D02*
D03*
X572913Y211500D02*
D03*
Y206500D02*
D03*
Y201500D02*
D03*
Y196500D02*
D03*
X494654Y218500D02*
D03*
Y213500D02*
D03*
Y208500D02*
D03*
Y203500D02*
D03*
X515913Y218500D02*
D03*
Y213500D02*
D03*
Y208500D02*
D03*
Y203500D02*
D03*
X536130Y398500D02*
D03*
Y403500D02*
D03*
Y408500D02*
D03*
Y413500D02*
D03*
X514870Y398500D02*
D03*
Y403500D02*
D03*
Y408500D02*
D03*
Y413500D02*
D03*
X648630Y387500D02*
D03*
Y392500D02*
D03*
Y397500D02*
D03*
Y402500D02*
D03*
X627370Y387500D02*
D03*
Y392500D02*
D03*
Y397500D02*
D03*
Y402500D02*
D03*
X591630Y393500D02*
D03*
Y398500D02*
D03*
Y403500D02*
D03*
Y408500D02*
D03*
X570370Y393500D02*
D03*
Y398500D02*
D03*
Y403500D02*
D03*
Y408500D02*
D03*
X350370Y252500D02*
D03*
Y247500D02*
D03*
Y242500D02*
D03*
Y237500D02*
D03*
X371630Y252500D02*
D03*
Y247500D02*
D03*
Y242500D02*
D03*
Y237500D02*
D03*
X494000Y254000D02*
D03*
Y259000D02*
D03*
Y264000D02*
D03*
Y269000D02*
D03*
X472740Y254000D02*
D03*
Y259000D02*
D03*
Y264000D02*
D03*
Y269000D02*
D03*
X481130Y404500D02*
D03*
Y409500D02*
D03*
Y414500D02*
D03*
Y419500D02*
D03*
X459870Y404500D02*
D03*
Y409500D02*
D03*
Y414500D02*
D03*
Y419500D02*
D03*
X261122Y255000D02*
D03*
Y260000D02*
D03*
Y265000D02*
D03*
Y270000D02*
D03*
X239862Y255000D02*
D03*
Y260000D02*
D03*
Y265000D02*
D03*
Y270000D02*
D03*
X171870Y207500D02*
D03*
Y202500D02*
D03*
Y197500D02*
D03*
Y192500D02*
D03*
X193130Y207500D02*
D03*
Y202500D02*
D03*
Y197500D02*
D03*
Y192500D02*
D03*
D26*
X303051Y203740D02*
D03*
Y196260D02*
D03*
X222500Y153740D02*
D03*
Y146260D02*
D03*
X604500Y460740D02*
D03*
Y453260D02*
D03*
X524784Y204760D02*
D03*
Y212240D02*
D03*
X618500Y401240D02*
D03*
Y393760D02*
D03*
X561500Y407240D02*
D03*
Y399760D02*
D03*
X506000Y412240D02*
D03*
Y404760D02*
D03*
X409000Y390839D02*
D03*
Y383358D02*
D03*
X378500Y390740D02*
D03*
Y383260D02*
D03*
X382500Y350740D02*
D03*
Y343260D02*
D03*
X374000Y343260D02*
D03*
Y350740D02*
D03*
X348500Y343260D02*
D03*
Y350740D02*
D03*
X330786Y343323D02*
D03*
Y350803D02*
D03*
X322098Y343224D02*
D03*
Y350705D02*
D03*
X419000Y253740D02*
D03*
Y246260D02*
D03*
X424500Y343260D02*
D03*
Y350740D02*
D03*
X407500Y360260D02*
D03*
Y367740D02*
D03*
X510500Y269240D02*
D03*
Y261760D02*
D03*
X451000Y418240D02*
D03*
Y410760D02*
D03*
X232500Y316240D02*
D03*
Y308760D02*
D03*
Y301240D02*
D03*
Y293760D02*
D03*
X261417Y238760D02*
D03*
Y246240D02*
D03*
X217500Y184409D02*
D03*
Y191890D02*
D03*
X693284Y194240D02*
D03*
Y186760D02*
D03*
X637567Y199740D02*
D03*
Y192260D02*
D03*
X581783Y205240D02*
D03*
Y197760D02*
D03*
D27*
X424937Y467000D02*
D03*
X417063D02*
D03*
X424937Y457000D02*
D03*
X417063D02*
D03*
X211437Y162500D02*
D03*
X203563D02*
D03*
X173563Y170000D02*
D03*
X181437D02*
D03*
X180886Y162500D02*
D03*
X173012D02*
D03*
X180886Y155000D02*
D03*
X173012D02*
D03*
X203563Y132500D02*
D03*
X211437D02*
D03*
X196437D02*
D03*
X188563D02*
D03*
X622937Y446500D02*
D03*
X615063D02*
D03*
X636937D02*
D03*
X629063D02*
D03*
X651445Y178000D02*
D03*
X659319D02*
D03*
X595728Y183500D02*
D03*
X603602D02*
D03*
X594630Y213598D02*
D03*
X602504D02*
D03*
X539945Y189000D02*
D03*
X547819D02*
D03*
X482945Y196000D02*
D03*
X490819D02*
D03*
X496347Y226098D02*
D03*
X504220D02*
D03*
X481847D02*
D03*
X489720D02*
D03*
X534437Y390902D02*
D03*
X526563D02*
D03*
X418063Y196057D02*
D03*
X425937D02*
D03*
X383563D02*
D03*
X391437D02*
D03*
X646937Y379902D02*
D03*
X639063D02*
D03*
X661437D02*
D03*
X653563D02*
D03*
X660437Y410000D02*
D03*
X652563D02*
D03*
X604437Y385902D02*
D03*
X596563D02*
D03*
X603339Y416000D02*
D03*
X595465D02*
D03*
X590437Y385500D02*
D03*
X582563D02*
D03*
X548937Y390902D02*
D03*
X541063D02*
D03*
X547839Y421000D02*
D03*
X539965D02*
D03*
X409437Y332500D02*
D03*
X401563D02*
D03*
X363563Y329000D02*
D03*
X371437D02*
D03*
X363563Y321500D02*
D03*
X371437D02*
D03*
X363563Y314000D02*
D03*
X371437D02*
D03*
X363563Y306500D02*
D03*
X371437D02*
D03*
X379937Y288000D02*
D03*
X372063D02*
D03*
X335063Y287500D02*
D03*
X342937D02*
D03*
X335063Y280000D02*
D03*
X342937D02*
D03*
X335063Y272500D02*
D03*
X342937D02*
D03*
X335063Y265000D02*
D03*
X342937D02*
D03*
X292687Y181476D02*
D03*
X284813D02*
D03*
X261437Y277500D02*
D03*
X253563D02*
D03*
X269437Y285000D02*
D03*
X261563D02*
D03*
X241063Y292500D02*
D03*
X248937D02*
D03*
X179937Y418500D02*
D03*
X172063D02*
D03*
X164063Y390000D02*
D03*
X171937D02*
D03*
Y382000D02*
D03*
X164063D02*
D03*
X295937Y431500D02*
D03*
X288063D02*
D03*
X295937Y423500D02*
D03*
X288063D02*
D03*
X308063D02*
D03*
X315937D02*
D03*
X330937D02*
D03*
X323063D02*
D03*
X342563D02*
D03*
X350437D02*
D03*
X339063Y385260D02*
D03*
X346937D02*
D03*
X362874Y393500D02*
D03*
X355000D02*
D03*
X346937D02*
D03*
X339063D02*
D03*
X346937Y403500D02*
D03*
X339063D02*
D03*
X308063Y431500D02*
D03*
X315937D02*
D03*
X330937D02*
D03*
X323063D02*
D03*
X342563D02*
D03*
X350437D02*
D03*
X339063Y411760D02*
D03*
X346937D02*
D03*
X365000Y431500D02*
D03*
X357126D02*
D03*
X362197Y411500D02*
D03*
X354323D02*
D03*
X381063Y423500D02*
D03*
X388937D02*
D03*
X381063Y431500D02*
D03*
X388937D02*
D03*
X403437Y423500D02*
D03*
X395563D02*
D03*
X403437Y431500D02*
D03*
X395563D02*
D03*
X414563Y424000D02*
D03*
X422437D02*
D03*
X416063Y431500D02*
D03*
X423937D02*
D03*
X364874Y423500D02*
D03*
X357000D02*
D03*
X606063Y239000D02*
D03*
X613937D02*
D03*
X606063Y231500D02*
D03*
X613937D02*
D03*
X606937Y316000D02*
D03*
X599063D02*
D03*
X606937Y325000D02*
D03*
X599063D02*
D03*
X606937Y334500D02*
D03*
X599063D02*
D03*
X606937Y344000D02*
D03*
X599063D02*
D03*
X587437Y316000D02*
D03*
X579563D02*
D03*
X587437Y325000D02*
D03*
X579563D02*
D03*
X587437Y334500D02*
D03*
X579563D02*
D03*
X587437Y344000D02*
D03*
X579563D02*
D03*
X501563Y246500D02*
D03*
X509437D02*
D03*
X501563Y254500D02*
D03*
X509437D02*
D03*
X490437Y276500D02*
D03*
X482563D02*
D03*
X490437Y284500D02*
D03*
X482563D02*
D03*
X492937Y427000D02*
D03*
X485063D02*
D03*
X493937Y396902D02*
D03*
X486063D02*
D03*
X479437D02*
D03*
X471563D02*
D03*
X246437Y277500D02*
D03*
X238563D02*
D03*
X201063Y192500D02*
D03*
X208937D02*
D03*
X201063Y200000D02*
D03*
X208937D02*
D03*
X201063Y185000D02*
D03*
X208937D02*
D03*
X170591D02*
D03*
X178465D02*
D03*
X192500D02*
D03*
X184626D02*
D03*
X672720Y208000D02*
D03*
X664847D02*
D03*
X617004Y213598D02*
D03*
X609130D02*
D03*
X658220Y208098D02*
D03*
X650347D02*
D03*
X561221Y219098D02*
D03*
X553346D02*
D03*
X546437Y221000D02*
D03*
X538563D02*
D03*
X188563Y162500D02*
D03*
X196437D02*
D03*
D28*
X404626Y147224D02*
D03*
X420374D02*
D03*
Y187776D02*
D03*
X404626D02*
D03*
X370126Y147224D02*
D03*
X385874D02*
D03*
Y187776D02*
D03*
X370126D02*
D03*
D29*
X463000Y275783D02*
D03*
X458000D02*
D03*
X453000D02*
D03*
X448000D02*
D03*
X443000D02*
D03*
X438000D02*
D03*
X433000D02*
D03*
X428000D02*
D03*
X463000Y236216D02*
D03*
X458000D02*
D03*
X453000D02*
D03*
X448000D02*
D03*
X443000D02*
D03*
X438000D02*
D03*
X433000D02*
D03*
X428000D02*
D03*
X240000Y301772D02*
D03*
X245000D02*
D03*
X250000D02*
D03*
X255000D02*
D03*
X240000Y323228D02*
D03*
X245000D02*
D03*
X250000D02*
D03*
X255000D02*
D03*
D30*
X217500Y206988D02*
D03*
Y218012D02*
D03*
X230000Y256988D02*
D03*
Y268012D02*
D03*
X221063Y256988D02*
D03*
Y268012D02*
D03*
X212500Y256988D02*
D03*
Y268012D02*
D03*
X164000Y412488D02*
D03*
Y423512D02*
D03*
D31*
X284095Y150000D02*
D03*
X245905D02*
D03*
D32*
X669783Y170500D02*
D03*
X665728Y178965D02*
D03*
X673839D02*
D03*
X614067Y176000D02*
D03*
X610012Y184465D02*
D03*
X618122D02*
D03*
X558284Y181500D02*
D03*
X554228Y189965D02*
D03*
X562339D02*
D03*
X501284Y188500D02*
D03*
X497228Y196965D02*
D03*
X505339D02*
D03*
X642000Y417500D02*
D03*
X646055Y409035D02*
D03*
X637945D02*
D03*
X529500Y428500D02*
D03*
X533555Y420035D02*
D03*
X525445D02*
D03*
X474500Y434500D02*
D03*
X478555Y426035D02*
D03*
X470445D02*
D03*
X580945Y415035D02*
D03*
X589055D02*
D03*
X585000Y423500D02*
D03*
D33*
X647000Y197051D02*
D03*
Y190949D02*
D03*
X591500Y203051D02*
D03*
Y196949D02*
D03*
X535500Y208051D02*
D03*
Y201949D02*
D03*
X477783Y215051D02*
D03*
Y208949D02*
D03*
X665500Y390949D02*
D03*
Y397051D02*
D03*
X608500Y396949D02*
D03*
Y403051D02*
D03*
X552000Y401949D02*
D03*
Y408051D02*
D03*
X225000Y312500D02*
D03*
Y318602D02*
D03*
Y300551D02*
D03*
Y294449D02*
D03*
X496000Y407949D02*
D03*
Y414051D02*
D03*
D34*
X637500Y169890D02*
D03*
Y181110D02*
D03*
X582067Y176390D02*
D03*
Y187610D02*
D03*
X526284Y181890D02*
D03*
Y193110D02*
D03*
X561500Y429110D02*
D03*
Y417890D02*
D03*
X674000Y417110D02*
D03*
Y405890D02*
D03*
X617000Y423110D02*
D03*
Y411890D02*
D03*
X506500Y434110D02*
D03*
Y422890D02*
D03*
X469283Y200110D02*
D03*
Y188890D02*
D03*
D35*
X375551Y196500D02*
D03*
X369449D02*
D03*
X404949D02*
D03*
X411051D02*
D03*
D36*
X667500Y265071D02*
D03*
Y298929D02*
D03*
Y359929D02*
D03*
Y326071D02*
D03*
X182500Y316929D02*
D03*
Y283071D02*
D03*
D37*
X406000Y255630D02*
D03*
X401000D02*
D03*
X396000D02*
D03*
X391000D02*
D03*
X406000Y234370D02*
D03*
X401000D02*
D03*
X396000D02*
D03*
X391000D02*
D03*
X270000Y203130D02*
D03*
X265000D02*
D03*
X260000D02*
D03*
X255000D02*
D03*
X270000Y181870D02*
D03*
X265000D02*
D03*
X260000D02*
D03*
X255000D02*
D03*
D38*
X366457Y287811D02*
D03*
X363898D02*
D03*
X361339D02*
D03*
X358780D02*
D03*
X356221D02*
D03*
X353661D02*
D03*
X351102D02*
D03*
X348543D02*
D03*
X366457Y264189D02*
D03*
X363898D02*
D03*
X361339D02*
D03*
X358780D02*
D03*
X356221D02*
D03*
X353661D02*
D03*
X351102D02*
D03*
X348543D02*
D03*
X377543Y305689D02*
D03*
X380102D02*
D03*
X382661D02*
D03*
X385221D02*
D03*
X387779D02*
D03*
X390339D02*
D03*
X392898D02*
D03*
X395457D02*
D03*
X377543Y329311D02*
D03*
X380102D02*
D03*
X382661D02*
D03*
X385221D02*
D03*
X387779D02*
D03*
X390339D02*
D03*
X392898D02*
D03*
X395457D02*
D03*
D39*
X268012Y212579D02*
D03*
X256988D02*
D03*
X204012Y410000D02*
D03*
X192988D02*
D03*
X172988D02*
D03*
X184012D02*
D03*
X163488Y357500D02*
D03*
X174512D02*
D03*
X205512Y337500D02*
D03*
X194488D02*
D03*
X173988Y346500D02*
D03*
X185012D02*
D03*
X173988Y337500D02*
D03*
X185012D02*
D03*
X315512Y185000D02*
D03*
X304488D02*
D03*
X315512Y175000D02*
D03*
X304488D02*
D03*
X329488Y185000D02*
D03*
X340512D02*
D03*
X329488Y175000D02*
D03*
X340512D02*
D03*
X329488Y164213D02*
D03*
X340512D02*
D03*
X256988Y222500D02*
D03*
X268012D02*
D03*
X283012Y307500D02*
D03*
X271988D02*
D03*
X283012Y298500D02*
D03*
X271988D02*
D03*
X294488Y316500D02*
D03*
X305512D02*
D03*
X294488Y298500D02*
D03*
X305512D02*
D03*
X294488Y307500D02*
D03*
X305512D02*
D03*
D40*
X297500Y281299D02*
D03*
Y243701D02*
D03*
D41*
X222500Y390858D02*
D03*
Y357000D02*
D03*
D42*
X138201Y435500D02*
D03*
X150799D02*
D03*
X138201Y453500D02*
D03*
X150799D02*
D03*
X125299Y435500D02*
D03*
X112701D02*
D03*
X125299Y453740D02*
D03*
X112701D02*
D03*
X274098Y431500D02*
D03*
X261500D02*
D03*
X246299D02*
D03*
X233701D02*
D03*
X218799D02*
D03*
X206201D02*
D03*
X190799Y432000D02*
D03*
X178201D02*
D03*
D43*
X112500Y228012D02*
D03*
Y216988D02*
D03*
D44*
X198957Y385614D02*
D03*
X196398D02*
D03*
X193839D02*
D03*
X191279D02*
D03*
X188721D02*
D03*
X186161D02*
D03*
X183602D02*
D03*
X181043D02*
D03*
X198957Y362386D02*
D03*
X196398D02*
D03*
X193839D02*
D03*
X191279D02*
D03*
X188721D02*
D03*
X186161D02*
D03*
X183602D02*
D03*
X181043D02*
D03*
D45*
X190000Y374000D02*
D03*
D46*
X174272Y242500D02*
D03*
Y237500D02*
D03*
Y232500D02*
D03*
Y227500D02*
D03*
X195728Y242500D02*
D03*
Y237500D02*
D03*
Y232500D02*
D03*
Y227500D02*
D03*
X333228Y205000D02*
D03*
Y210000D02*
D03*
Y215000D02*
D03*
Y220000D02*
D03*
X311772Y205000D02*
D03*
Y210000D02*
D03*
Y215000D02*
D03*
Y220000D02*
D03*
D47*
X250374Y242500D02*
D03*
X234626D02*
D03*
D48*
X129941Y250000D02*
D03*
X160059D02*
D03*
D49*
X416260Y134000D02*
D03*
X398740D02*
D03*
D50*
X132500Y222500D02*
D03*
X148051D02*
D03*
D51*
X151929Y187500D02*
D03*
X118071D02*
D03*
D52*
X242500Y194626D02*
D03*
Y210374D02*
D03*
D53*
X112500Y239705D02*
D03*
Y257224D02*
D03*
M02*
