G04*
G04 #@! TF.GenerationSoftware,Altium Limited,Altium Designer,18.1.11 (251)*
G04*
G04 Layer_Color=8388736*
%FSLAX25Y25*%
%MOIN*%
G70*
G01*
G75*
%ADD30C,0.03800*%
%ADD31R,0.06706X0.26784*%
%ADD32R,0.06706X0.25997*%
%ADD33R,0.25997X0.06706*%
%ADD34R,0.26784X0.06706*%
%ADD35R,0.06115X0.04343*%
%ADD36R,0.04343X0.06115*%
%ADD37R,0.07690X0.06509*%
%ADD38R,0.04540X0.04343*%
%ADD39R,0.04343X0.04540*%
%ADD40R,0.04343X0.03359*%
%ADD41R,0.27375X0.24816*%
%ADD42R,0.24816X0.27375*%
%ADD43R,0.17926X0.09068*%
%ADD44R,0.11036X0.24422*%
%ADD45C,0.07800*%
%ADD46C,0.15600*%
%ADD47C,0.12611*%
%ADD48C,0.13398*%
%ADD49C,0.09855*%
%ADD50C,0.17729*%
%ADD51C,0.05918*%
%ADD52C,0.32296*%
D30*
X479000Y385000D02*
D03*
X488000Y332000D02*
D03*
X111000Y199000D02*
D03*
X599000Y462500D02*
D03*
X618600Y427500D02*
D03*
X208000Y487000D02*
D03*
X474500Y290500D02*
D03*
Y284500D02*
D03*
Y296000D02*
D03*
D31*
X296721Y400000D02*
D03*
D32*
X274279D02*
D03*
D33*
X582000Y401279D02*
D03*
X547500D02*
D03*
D34*
X582000Y423721D02*
D03*
X547500D02*
D03*
D35*
X795000Y475937D02*
D03*
Y468063D02*
D03*
X804500Y475937D02*
D03*
Y468063D02*
D03*
X466000Y317874D02*
D03*
Y310000D02*
D03*
X483000Y317937D02*
D03*
Y310063D02*
D03*
X466000Y294937D02*
D03*
Y287063D02*
D03*
X483500Y294886D02*
D03*
Y287012D02*
D03*
X274500Y444937D02*
D03*
Y437063D02*
D03*
X365000Y378874D02*
D03*
Y371000D02*
D03*
X785000Y475937D02*
D03*
Y468063D02*
D03*
X354500Y378937D02*
D03*
Y371063D02*
D03*
X263500Y444937D02*
D03*
Y437063D02*
D03*
D36*
X636437Y367500D02*
D03*
X628563D02*
D03*
X189063Y487000D02*
D03*
X196937D02*
D03*
D37*
X454000Y317512D02*
D03*
Y306488D02*
D03*
X496500Y318012D02*
D03*
Y306988D02*
D03*
D38*
X455500Y297051D02*
D03*
Y290949D02*
D03*
X495500Y298051D02*
D03*
Y291949D02*
D03*
X342500Y372449D02*
D03*
Y378551D02*
D03*
X776000Y468949D02*
D03*
Y475051D02*
D03*
D39*
X613898Y367500D02*
D03*
X620000D02*
D03*
X169551Y487000D02*
D03*
X163449D02*
D03*
D40*
X124028D02*
D03*
X114972D02*
D03*
X712972Y367500D02*
D03*
X722028D02*
D03*
X143472Y487000D02*
D03*
X152528D02*
D03*
D41*
X123000Y305331D02*
D03*
Y346669D02*
D03*
D42*
X201669Y344000D02*
D03*
X160331D02*
D03*
D43*
X294500Y433779D02*
D03*
Y445000D02*
D03*
D44*
X539795Y462500D02*
D03*
X589205D02*
D03*
D45*
X488200Y358200D02*
D03*
Y370000D02*
D03*
X500000D02*
D03*
Y358200D02*
D03*
X469800Y370000D02*
D03*
Y358200D02*
D03*
X458000D02*
D03*
Y370000D02*
D03*
X630400Y440200D02*
D03*
X618600D02*
D03*
Y452000D02*
D03*
X630400D02*
D03*
X654000D02*
D03*
X642200D02*
D03*
Y440200D02*
D03*
X654000D02*
D03*
X687500D02*
D03*
Y452000D02*
D03*
X721000D02*
D03*
Y440200D02*
D03*
D46*
X517000Y364100D02*
D03*
X441000D02*
D03*
X627000Y469000D02*
D03*
X645500D02*
D03*
X687500D02*
D03*
X721000D02*
D03*
D47*
X185500Y152000D02*
D03*
X169500D02*
D03*
X504000Y152500D02*
D03*
Y168500D02*
D03*
X336201Y404004D02*
D03*
Y466996D02*
D03*
X518799Y446327D02*
D03*
Y467980D02*
D03*
Y424673D02*
D03*
Y403020D02*
D03*
D48*
X424500Y152000D02*
D03*
X464657D02*
D03*
X123000Y226842D02*
D03*
Y267000D02*
D03*
D49*
X336201Y430067D02*
D03*
Y440933D02*
D03*
Y419240D02*
D03*
X620575Y412500D02*
D03*
X640260D02*
D03*
X719000D02*
D03*
X659945D02*
D03*
X620575Y382972D02*
D03*
X640260D02*
D03*
X659945D02*
D03*
X719000D02*
D03*
X118972Y372630D02*
D03*
Y392315D02*
D03*
Y471055D02*
D03*
Y412000D02*
D03*
X148500Y372630D02*
D03*
Y392315D02*
D03*
Y412000D02*
D03*
Y471055D02*
D03*
X170500Y372630D02*
D03*
Y392315D02*
D03*
Y471055D02*
D03*
Y412000D02*
D03*
X200028Y372630D02*
D03*
Y392315D02*
D03*
Y412000D02*
D03*
Y471055D02*
D03*
D50*
X122500Y146000D02*
D03*
X757000Y151000D02*
D03*
X227000Y469000D02*
D03*
X757000Y476000D02*
D03*
D51*
X792500Y404591D02*
D03*
Y454000D02*
D03*
X782500Y404591D02*
D03*
X772500D02*
D03*
X762500D02*
D03*
X782500Y454000D02*
D03*
X772500D02*
D03*
X762500D02*
D03*
X792500Y331090D02*
D03*
Y380500D02*
D03*
X782500Y331090D02*
D03*
X772500D02*
D03*
X762500D02*
D03*
X782500Y380500D02*
D03*
X772500D02*
D03*
X762500D02*
D03*
D52*
X442500Y246000D02*
D03*
X173602D02*
D03*
X775898D02*
D03*
X507000D02*
D03*
M02*
