G04*
G04 #@! TF.GenerationSoftware,Altium Limited,Altium Designer,18.1.11 (251)*
G04*
G04 Layer_Color=16711935*
%FSLAX25Y25*%
%MOIN*%
G70*
G01*
G75*
%ADD10C,0.01000*%
%ADD30C,0.03800*%
%ADD45C,0.07800*%
%ADD46C,0.15600*%
%ADD47C,0.12611*%
%ADD48C,0.13398*%
%ADD49C,0.09855*%
%ADD50C,0.17729*%
%ADD51C,0.05918*%
%ADD52C,0.32296*%
D10*
X107000Y131500D02*
Y493000D01*
Y131500D02*
X811500D01*
Y493000D01*
X107000D02*
X811500D01*
D30*
X445800Y488800D02*
D03*
X177000Y489800D02*
D03*
X474500Y290500D02*
D03*
Y284500D02*
D03*
Y296000D02*
D03*
D45*
X488200Y358200D02*
D03*
Y370000D02*
D03*
X500000D02*
D03*
Y358200D02*
D03*
X469800Y370000D02*
D03*
Y358200D02*
D03*
X458000D02*
D03*
Y370000D02*
D03*
X630400Y440200D02*
D03*
X618600D02*
D03*
Y452000D02*
D03*
X630400D02*
D03*
X654000D02*
D03*
X642200D02*
D03*
Y440200D02*
D03*
X654000D02*
D03*
X687500D02*
D03*
Y452000D02*
D03*
X721000D02*
D03*
Y440200D02*
D03*
D46*
X517000Y364100D02*
D03*
X441000D02*
D03*
X627000Y469000D02*
D03*
X645500D02*
D03*
X687500D02*
D03*
X721000D02*
D03*
D47*
X185500Y152000D02*
D03*
X169500D02*
D03*
X504000Y152500D02*
D03*
Y168500D02*
D03*
X336000Y400600D02*
D03*
Y463592D02*
D03*
X518598Y442923D02*
D03*
Y464576D02*
D03*
Y421269D02*
D03*
Y399616D02*
D03*
D48*
X424500Y152000D02*
D03*
X464657D02*
D03*
X123000Y226842D02*
D03*
Y267000D02*
D03*
D49*
X336000Y426663D02*
D03*
Y437529D02*
D03*
Y415836D02*
D03*
X620575Y412500D02*
D03*
X640260D02*
D03*
X719000D02*
D03*
X659945D02*
D03*
X620575Y382972D02*
D03*
X640260D02*
D03*
X659945D02*
D03*
X719000D02*
D03*
X118972Y372630D02*
D03*
Y392315D02*
D03*
Y471055D02*
D03*
Y412000D02*
D03*
X148500Y372630D02*
D03*
Y392315D02*
D03*
Y412000D02*
D03*
Y471055D02*
D03*
X170500Y372630D02*
D03*
Y392315D02*
D03*
Y471055D02*
D03*
Y412000D02*
D03*
X200028Y372630D02*
D03*
Y392315D02*
D03*
Y412000D02*
D03*
Y471055D02*
D03*
D50*
X122500Y146000D02*
D03*
X757000Y151000D02*
D03*
X227000Y469000D02*
D03*
X757000Y476000D02*
D03*
D51*
X792500Y404591D02*
D03*
Y454000D02*
D03*
X782500Y404591D02*
D03*
X772500D02*
D03*
X762500D02*
D03*
X782500Y454000D02*
D03*
X772500D02*
D03*
X762500D02*
D03*
X792500Y331090D02*
D03*
Y380500D02*
D03*
X782500Y331090D02*
D03*
X772500D02*
D03*
X762500D02*
D03*
X782500Y380500D02*
D03*
X772500D02*
D03*
X762500D02*
D03*
D52*
X442500Y246000D02*
D03*
X173602D02*
D03*
X775898D02*
D03*
X507000D02*
D03*
M02*
