G04*
G04 #@! TF.GenerationSoftware,Altium Limited,Altium Designer,18.1.11 (251)*
G04*
G04 Layer_Physical_Order=4*
G04 Layer_Color=16711680*
%FSLAX25Y25*%
%MOIN*%
G70*
G01*
G75*
%ADD10C,0.01000*%
%ADD14C,0.03000*%
%ADD52C,0.07000*%
%ADD53C,0.14800*%
%ADD54C,0.11811*%
%ADD55C,0.12598*%
%ADD56C,0.09055*%
%ADD57C,0.16929*%
%ADD58C,0.05118*%
%ADD59C,0.31496*%
G36*
X156000Y395500D02*
X156000Y389500D01*
X142500Y376000D01*
Y218500D01*
X140000Y216000D01*
X120000D01*
X114500Y221500D01*
Y231000D01*
X119000Y236500D01*
X125500D01*
X133500Y244500D01*
Y387000D01*
X140500Y394000D01*
X146500Y400000D01*
X151500D01*
X156000Y395500D01*
D02*
G37*
G36*
X191500Y396500D02*
Y368500D01*
X398500Y161500D01*
X428500D01*
X433000Y157000D01*
Y147500D01*
X428500Y143000D01*
X371000D01*
X179000Y335000D01*
X179000Y380500D01*
X175000Y384500D01*
X167000D01*
X163000Y388500D01*
Y397000D01*
X166500Y400500D01*
X187500D01*
X191500Y396500D01*
D02*
G37*
G36*
X477500Y298000D02*
X477500Y282000D01*
X471500D01*
X471500Y298000D01*
X473000Y299500D01*
X476000Y299500D01*
X477500Y298000D01*
D02*
G37*
%LPC*%
G36*
X150555Y394344D02*
X150370D01*
X149785Y394228D01*
X149289Y393896D01*
X148957Y393400D01*
X148841Y392815D01*
X148957Y392230D01*
X149289Y391734D01*
X149785Y391402D01*
X150370Y391286D01*
X150555D01*
X151140Y391402D01*
X151637Y391734D01*
X151968Y392230D01*
X152085Y392815D01*
X151968Y393400D01*
X151637Y393896D01*
X151140Y394228D01*
X150555Y394344D01*
D02*
G37*
%LPD*%
D10*
X573000Y485800D02*
X618600Y440200D01*
X433886Y485800D02*
X573000D01*
X561700Y483800D02*
X610500Y435000D01*
X433058Y483800D02*
X561700D01*
X183898Y487998D02*
X431689D01*
X182700Y486800D02*
X183898Y487998D01*
X164245Y486800D02*
X182700D01*
X431689Y487998D02*
X433886Y485800D01*
X170500Y471055D02*
X185442Y485998D01*
X430861D01*
X433058Y483800D01*
X148500Y471055D02*
X164245Y486800D01*
X177000Y489800D02*
X177198Y489998D01*
X432517D02*
X433715Y488800D01*
X177198Y489998D02*
X432517D01*
X433715Y488800D02*
X445800D01*
X721000Y451500D02*
X721500Y452000D01*
X470000Y289000D02*
X472000D01*
X589260Y361500D02*
X640260Y412500D01*
X533500Y361500D02*
X589260D01*
X620575Y396575D02*
Y412075D01*
X588500Y364500D02*
X620575Y396575D01*
X532000Y364500D02*
X588500D01*
X458271Y365000D02*
X464000Y359271D01*
X458271Y365000D02*
Y369729D01*
X458000Y370000D02*
X458271Y369729D01*
X464000Y354500D02*
Y359271D01*
X466000Y352500D02*
X494300D01*
X500000Y358200D01*
X464000Y354500D02*
X466000Y352500D01*
X453000Y373000D02*
X456000Y376000D01*
X453000Y306000D02*
Y373000D01*
Y306000D02*
X470000Y289000D01*
X456000Y376000D02*
X462000D01*
X463500Y374500D01*
Y364500D02*
Y374500D01*
Y364500D02*
X469800Y358200D01*
X476400D02*
X488200Y370000D01*
X469800Y358200D02*
X476400D01*
X620575Y412075D02*
X621000Y412500D01*
X502800Y363200D02*
X511000Y355000D01*
X493200Y363200D02*
X502800D01*
X488200Y358200D02*
X493200Y363200D01*
X511000Y355000D02*
X522500D01*
X530500Y363000D01*
X532000Y364500D01*
X524500Y352500D02*
X533500Y361500D01*
X505500Y352500D02*
X524500D01*
X500000Y358000D02*
X505500Y352500D01*
X620575Y412500D02*
X621000D01*
X486300Y386500D02*
X536500D01*
X469800Y370000D02*
X486300Y386500D01*
X581500Y431500D02*
X633500D01*
X536500Y386500D02*
X581500Y431500D01*
X633500D02*
X641000Y439000D01*
X642000D01*
X642200Y439200D01*
Y440200D01*
X500000Y358000D02*
Y358200D01*
X640260Y412500D02*
X654000Y426240D01*
Y440200D01*
X661000Y447200D01*
Y456414D01*
X660414Y457000D02*
X661000Y456414D01*
X624000Y457000D02*
X660414D01*
X619000Y452000D02*
X624000Y457000D01*
X618600Y452000D02*
X619000D01*
X610500Y435000D02*
X625200D01*
X629700Y439500D01*
X630000D01*
X761386Y454000D02*
X762500D01*
X759386Y452000D02*
X761386Y454000D01*
X721500Y452000D02*
X759386D01*
X721000Y451500D02*
Y452000D01*
X519480Y467980D02*
X519500Y468000D01*
X518799Y467980D02*
X519480D01*
X630000Y439500D02*
X630400Y439900D01*
Y440200D01*
X150370Y392815D02*
X150555D01*
D14*
X445800Y488800D02*
D03*
X177000Y489800D02*
D03*
X474500Y290500D02*
D03*
Y284500D02*
D03*
Y296000D02*
D03*
D52*
X488200Y358200D02*
D03*
Y370000D02*
D03*
X500000D02*
D03*
Y358200D02*
D03*
X469800Y370000D02*
D03*
Y358200D02*
D03*
X458000D02*
D03*
Y370000D02*
D03*
X630400Y440200D02*
D03*
X618600D02*
D03*
Y452000D02*
D03*
X630400D02*
D03*
X654000D02*
D03*
X642200D02*
D03*
Y440200D02*
D03*
X654000D02*
D03*
X687500D02*
D03*
Y452000D02*
D03*
X721000D02*
D03*
Y440200D02*
D03*
D53*
X517000Y364100D02*
D03*
X441000D02*
D03*
X627000Y469000D02*
D03*
X645500D02*
D03*
X687500D02*
D03*
X721000D02*
D03*
D54*
X185500Y152000D02*
D03*
X169500D02*
D03*
X504000Y152500D02*
D03*
Y168500D02*
D03*
X336000Y400600D02*
D03*
Y463592D02*
D03*
X518598Y442923D02*
D03*
Y464576D02*
D03*
Y421269D02*
D03*
Y399616D02*
D03*
D55*
X424500Y152000D02*
D03*
X464657D02*
D03*
X123000Y226842D02*
D03*
Y267000D02*
D03*
D56*
X336000Y426663D02*
D03*
Y437529D02*
D03*
Y415836D02*
D03*
X620575Y412500D02*
D03*
X640260D02*
D03*
X719000D02*
D03*
X659945D02*
D03*
X620575Y382972D02*
D03*
X640260D02*
D03*
X659945D02*
D03*
X719000D02*
D03*
X118972Y372630D02*
D03*
Y392315D02*
D03*
Y471055D02*
D03*
Y412000D02*
D03*
X148500Y372630D02*
D03*
Y392315D02*
D03*
Y412000D02*
D03*
Y471055D02*
D03*
X170500Y372630D02*
D03*
Y392315D02*
D03*
Y471055D02*
D03*
Y412000D02*
D03*
X200028Y372630D02*
D03*
Y392315D02*
D03*
Y412000D02*
D03*
Y471055D02*
D03*
D57*
X122500Y146000D02*
D03*
X757000Y151000D02*
D03*
X227000Y469000D02*
D03*
X757000Y476000D02*
D03*
D58*
X792500Y404591D02*
D03*
Y454000D02*
D03*
X782500Y404591D02*
D03*
X772500D02*
D03*
X762500D02*
D03*
X782500Y454000D02*
D03*
X772500D02*
D03*
X762500D02*
D03*
X792500Y331090D02*
D03*
Y380500D02*
D03*
X782500Y331090D02*
D03*
X772500D02*
D03*
X762500D02*
D03*
X782500Y380500D02*
D03*
X772500D02*
D03*
X762500D02*
D03*
D59*
X442500Y246000D02*
D03*
X173602D02*
D03*
X775898D02*
D03*
X507000D02*
D03*
M02*
