G04*
G04 #@! TF.GenerationSoftware,Altium Limited,Altium Designer,18.1.11 (251)*
G04*
G04 Layer_Color=8421504*
%FSLAX25Y25*%
%MOIN*%
G70*
G01*
G75*
%ADD14C,0.03000*%
%ADD15R,0.05906X0.25984*%
%ADD16R,0.05906X0.25197*%
%ADD17R,0.25197X0.05906*%
%ADD18R,0.25984X0.05906*%
%ADD19R,0.05315X0.03543*%
%ADD20R,0.03543X0.05315*%
%ADD21R,0.06890X0.05709*%
%ADD22R,0.03740X0.03543*%
%ADD23R,0.03543X0.03740*%
%ADD24R,0.03543X0.02559*%
%ADD25R,0.26575X0.24016*%
%ADD26R,0.24016X0.26575*%
%ADD27R,0.17126X0.08268*%
%ADD28R,0.10236X0.23622*%
D14*
X479000Y382100D02*
D03*
X488000Y332000D02*
D03*
X111000Y199000D02*
D03*
X599000Y462500D02*
D03*
X618600Y427500D02*
D03*
X205750Y484750D02*
D03*
D15*
X296721Y400000D02*
D03*
D16*
X274279D02*
D03*
D17*
X582000Y401279D02*
D03*
X547500D02*
D03*
D18*
X582000Y423721D02*
D03*
X547500D02*
D03*
D19*
X795000Y475937D02*
D03*
Y468063D02*
D03*
X804500Y475937D02*
D03*
Y468063D02*
D03*
X466000Y317874D02*
D03*
Y310000D02*
D03*
X483000Y317937D02*
D03*
Y310063D02*
D03*
X466000Y294937D02*
D03*
Y287063D02*
D03*
X483500Y294886D02*
D03*
Y287012D02*
D03*
X274500Y444937D02*
D03*
Y437063D02*
D03*
X365000Y378874D02*
D03*
Y371000D02*
D03*
X785000Y475937D02*
D03*
Y468063D02*
D03*
X354500Y378937D02*
D03*
Y371063D02*
D03*
X263500Y444937D02*
D03*
Y437063D02*
D03*
D20*
X636437Y367500D02*
D03*
X628563D02*
D03*
X189063Y485500D02*
D03*
X196937D02*
D03*
D21*
X454000Y317512D02*
D03*
Y306488D02*
D03*
X496500Y318012D02*
D03*
Y306988D02*
D03*
D22*
X455500Y297051D02*
D03*
Y290949D02*
D03*
X495500Y298051D02*
D03*
Y291949D02*
D03*
X342500Y372449D02*
D03*
Y378551D02*
D03*
X776000Y468949D02*
D03*
Y475051D02*
D03*
D23*
X613898Y367500D02*
D03*
X620000D02*
D03*
X169551Y485500D02*
D03*
X163449D02*
D03*
D24*
X124028Y487000D02*
D03*
X114972D02*
D03*
X712972Y367500D02*
D03*
X722028D02*
D03*
X143472Y487000D02*
D03*
X152528D02*
D03*
D25*
X123000Y305331D02*
D03*
Y346669D02*
D03*
D26*
X201669Y344000D02*
D03*
X160331D02*
D03*
D27*
X294500Y433779D02*
D03*
Y445000D02*
D03*
D28*
X539795Y462500D02*
D03*
X589205D02*
D03*
M02*
