G04*
G04 #@! TF.GenerationSoftware,Altium Limited,Altium Designer,18.1.11 (251)*
G04*
G04 Layer_Physical_Order=1*
G04 Layer_Color=255*
%FSLAX25Y25*%
%MOIN*%
G70*
G01*
G75*
%ADD10C,0.01000*%
%ADD15C,0.03000*%
%ADD16R,0.05906X0.25984*%
%ADD17R,0.05906X0.25197*%
%ADD18R,0.25197X0.05906*%
%ADD19R,0.25984X0.05906*%
%ADD20R,0.05315X0.03543*%
%ADD21R,0.03543X0.05315*%
%ADD22R,0.06890X0.05709*%
%ADD23R,0.03740X0.03543*%
%ADD24R,0.03543X0.03740*%
%ADD25R,0.03543X0.02559*%
%ADD26R,0.26575X0.24016*%
%ADD27R,0.24016X0.26575*%
%ADD28R,0.17126X0.08268*%
%ADD29R,0.10236X0.23622*%
%ADD53C,0.07000*%
%ADD54C,0.14800*%
%ADD55C,0.11811*%
%ADD56C,0.12598*%
%ADD57C,0.09055*%
%ADD58C,0.16929*%
%ADD59C,0.05118*%
%ADD60C,0.31496*%
G36*
X808500Y477500D02*
X808500Y474000D01*
X807500Y473000D01*
X783000D01*
X782009Y473991D01*
X782000Y474034D01*
X782000Y477500D01*
X783000Y478500D01*
X807500D01*
X808500Y477500D01*
D02*
G37*
G36*
X523600Y453600D02*
X525500Y451700D01*
X525500Y438000D01*
X521490Y433990D01*
X509000Y433990D01*
X509000Y413800D01*
X512800Y410000D01*
X599000Y410000D01*
X599000Y399000D01*
X591700Y391700D01*
X510800Y391700D01*
X503500Y399000D01*
X503500Y452500D01*
X504600Y453600D01*
X523600Y453600D01*
D02*
G37*
G36*
X547000Y473000D02*
X547000Y434500D01*
X552500Y429000D01*
X597000Y429000D01*
X599000Y427000D01*
X599000Y420500D01*
X592200Y413700D01*
X514500Y413700D01*
X511500Y416700D01*
X511500Y425900D01*
X514600Y429000D01*
X525300Y429000D01*
X529000Y432700D01*
X529000Y455200D01*
X527400Y456800D01*
X514900Y456800D01*
X510200Y461500D01*
X510200Y473137D01*
X514063Y477000D01*
X543000Y477000D01*
X547000Y473000D01*
D02*
G37*
G36*
X778971Y469000D02*
X779000Y468852D01*
X779000Y464500D01*
X785500Y458000D01*
X794500Y458000D01*
X795500Y457000D01*
X795500Y444500D01*
X778000Y444500D01*
X756500Y423000D01*
X756500Y402500D01*
X765000Y394000D01*
X793000D01*
X796500Y390500D01*
X796500Y374000D01*
X791500Y369000D01*
X754000Y369000D01*
X747500Y375500D01*
X747500Y458000D01*
X751500Y462000D01*
X766500D01*
X769000Y465500D01*
X773000Y471055D01*
X778971D01*
Y469000D01*
D02*
G37*
G36*
X809000Y469000D02*
X809000Y320500D01*
X807000Y318500D01*
X757000D01*
X754000Y321500D01*
X754000Y345169D01*
X757831Y349000D01*
X792500D01*
X800000Y356500D01*
X800000Y469000D01*
X801500Y470500D01*
X807500D01*
X809000Y469000D01*
D02*
G37*
G36*
X459000Y292000D02*
X460500Y290500D01*
X469300D01*
X469800Y290000D01*
Y284500D01*
X457163D01*
X453000Y288663D01*
Y293500D01*
X459000D01*
Y292000D01*
D02*
G37*
G36*
X477500Y298000D02*
X477500Y282029D01*
X471500D01*
X471500Y298000D01*
X473000Y299500D01*
X476000D01*
X477500Y298000D01*
D02*
G37*
G36*
X173140Y357538D02*
X173000Y357398D01*
X173000Y279000D01*
X153500Y259500D01*
X117500Y259500D01*
X114000Y263000D01*
Y280500D01*
X118000Y284500D01*
X141000D01*
X147500Y291000D01*
Y358000D01*
X172949D01*
X173140Y357538D01*
D02*
G37*
G36*
X306300Y409200D02*
X341600D01*
X344500Y406300D01*
X344500Y396900D01*
X337500Y389900D01*
X337500Y375500D01*
X338500Y374500D01*
X345000D01*
Y370000D01*
X348500Y366500D01*
X361000D01*
X362000Y367500D01*
Y373000D01*
X368000D01*
X369000Y372000D01*
Y338500D01*
X417000Y290500D01*
Y229500D01*
X462000Y184500D01*
X517500D01*
X523000Y179000D01*
Y149000D01*
X518000Y144000D01*
X459000D01*
X456000Y147000D01*
Y160000D01*
X293500Y322500D01*
X293500Y413646D01*
X301854D01*
X306300Y409200D01*
D02*
G37*
G36*
X223500Y399000D02*
X227500Y395000D01*
X227500Y148500D01*
X220500Y141500D01*
X182000Y141500D01*
X179000Y144500D01*
Y161500D01*
X216500Y199000D01*
Y379000D01*
X211500Y384000D01*
X191500D01*
X189063Y386437D01*
X189063Y397563D01*
X190500Y399000D01*
X223500Y399000D01*
D02*
G37*
G36*
X176000Y202000D02*
X176000Y144500D01*
X172000Y140500D01*
X149500Y140500D01*
X144500Y145500D01*
X144500Y159000D01*
X114500D01*
X109900Y163600D01*
X109900Y241400D01*
X113000Y244500D01*
X133500D01*
X176000Y202000D01*
D02*
G37*
D10*
X196937Y487000D02*
X203500D01*
X143500Y484000D02*
Y487000D01*
X445800Y397700D02*
Y488800D01*
Y397700D02*
X453500Y390000D01*
X482972D01*
X163449Y488449D02*
X164800Y489800D01*
X177000D01*
X203500Y487000D02*
X205750Y484750D01*
X479000Y379500D02*
Y382100D01*
X332805Y463600D02*
X336201Y466996D01*
X274500Y399500D02*
Y437063D01*
X312604Y463600D02*
X332805D01*
X311500Y462496D02*
X312604Y463600D01*
X336201Y419240D02*
X339641Y415800D01*
X353700D02*
X354500Y415000D01*
X339641Y415800D02*
X353700D01*
X336201Y440933D02*
X340034Y437100D01*
X362700Y381174D02*
Y433700D01*
X359300Y437100D02*
X362700Y433700D01*
X340034Y437100D02*
X359300D01*
X362700Y381174D02*
X365000Y378874D01*
X169551Y485500D02*
X189063D01*
X205750Y484750D02*
X208000Y482500D01*
X163449Y487000D02*
Y488449D01*
X152528Y487000D02*
X163449D01*
X114972Y489528D02*
X115224Y489780D01*
X149256D01*
X208000Y467000D02*
Y482500D01*
X114972Y487000D02*
Y489528D01*
X149256Y489780D02*
X152035Y487000D01*
X508500Y447700D02*
Y483500D01*
X512000Y487000D01*
X661500D01*
X494000Y368000D02*
Y378972D01*
X482972Y390000D02*
X494000Y378972D01*
X349437Y371063D02*
X354500D01*
X348000Y372500D02*
X349437Y371063D01*
X348000Y372500D02*
Y377000D01*
X346500Y378500D02*
X348000Y377000D01*
X342551Y378500D02*
X346500D01*
X342500Y378551D02*
X342551Y378500D01*
X354500Y378937D02*
Y415000D01*
X311500Y439000D02*
Y462496D01*
X306279Y433779D02*
X311500Y439000D01*
X294500Y433779D02*
X306279D01*
X155500Y417914D02*
X174649Y437063D01*
X263500D01*
X275386D02*
X278669Y433779D01*
X274500Y437063D02*
X275386D01*
X278669Y433779D02*
X294500D01*
X274500Y444937D02*
X294437D01*
X263500D02*
X274500D01*
X294437D02*
X294500Y445000D01*
X263500Y444937D02*
Y445437D01*
X274279Y399721D02*
X274500Y399500D01*
X274279Y399721D02*
Y400000D01*
X476500Y282500D02*
X491814D01*
X457000D02*
X472500D01*
X781437Y468063D02*
X785000D01*
X780500Y469000D02*
X781437Y468063D01*
X780500Y469000D02*
Y473886D01*
X779387Y475000D02*
X780500Y473886D01*
X776051Y475000D02*
X779387D01*
X776000Y475051D02*
X776051Y475000D01*
X184500Y409000D02*
X188000Y412500D01*
X184500Y375500D02*
Y409000D01*
Y375500D02*
X201000Y359000D01*
X188000Y412500D02*
X199528D01*
X200028Y412000D01*
X201000Y344669D02*
Y359000D01*
Y344669D02*
X201669Y344000D01*
X486129Y363200D02*
X493200D01*
X483700Y365200D02*
X491200D01*
X494000Y368000D01*
X476700Y358200D02*
X483700Y365200D01*
X483000Y360071D02*
X486129Y363200D01*
X795000Y462500D02*
X797500Y460000D01*
Y409590D02*
Y460000D01*
X792500Y404591D02*
X797500Y409590D01*
X614000Y361500D02*
Y371000D01*
X449874Y317874D02*
X454000D01*
X466000D01*
X630000Y389000D02*
X636000Y395000D01*
X630000Y379102D02*
Y389000D01*
X622898Y372000D02*
X630000Y379102D01*
X615000Y372000D02*
X622898D01*
X491814Y282500D02*
X500445Y291131D01*
X141000Y354500D02*
X147500Y361000D01*
X141000Y322051D02*
Y354500D01*
X124279Y305331D02*
X141000Y322051D01*
X500445Y291131D02*
Y303634D01*
X611000Y398857D02*
Y411449D01*
X492643Y280500D02*
X611000Y398857D01*
X456000Y280500D02*
X492643D01*
X492971Y278000D02*
X576471Y361500D01*
X454000Y278000D02*
X492971D01*
X576471Y361500D02*
X614000D01*
X450500Y356500D02*
Y370000D01*
X446500Y352500D02*
X450500Y356500D01*
X446500Y285500D02*
Y352500D01*
X614000Y361500D02*
X720000D01*
X477180Y364000D02*
X483180Y370000D01*
X467000Y364000D02*
X477180D01*
X464000Y367000D02*
X467000Y364000D01*
X464000Y367000D02*
Y372500D01*
X469800Y370300D02*
X479000Y379500D01*
X469800Y370000D02*
Y370300D01*
X493200Y363200D02*
X500000Y370000D01*
X469800Y358200D02*
X476700D01*
X483180Y370000D02*
X488200D01*
X461500Y375000D02*
X464000Y372500D01*
X465500Y350500D02*
X480500D01*
X483000Y353000D01*
Y360071D01*
X488000Y358200D02*
X488200D01*
X488000Y332000D02*
Y358200D01*
X463000Y353000D02*
Y360271D01*
Y353000D02*
X465500Y350500D01*
X460071Y363200D02*
X463000Y360271D01*
X455500Y375000D02*
X461500D01*
X450500Y370000D02*
X455500Y375000D01*
X453000Y343757D02*
Y360271D01*
X455929Y363200D02*
X460071D01*
X453000Y360271D02*
X455929Y363200D01*
X473000Y315905D02*
Y327000D01*
X458000Y342000D02*
X473000Y327000D01*
X458000Y342000D02*
Y358200D01*
X471000Y311500D02*
Y325757D01*
X453000Y343757D02*
X471000Y325757D01*
X469500Y310000D02*
X471000Y311500D01*
X446500Y285500D02*
X454000Y278000D01*
X497090Y306988D02*
X500445Y303634D01*
X483500Y287012D02*
X490465D01*
X720000Y361500D02*
X722028Y363528D01*
Y367500D01*
X620051Y420500D02*
X631500D01*
X611000Y411449D02*
X620051Y420500D01*
X483000Y317937D02*
X524937D01*
X623000Y424000D02*
X636000Y437000D01*
X620500Y424000D02*
X623000D01*
X608000Y411500D02*
X620500Y424000D01*
X608000Y401000D02*
Y411500D01*
X524937Y317937D02*
X608000Y401000D01*
X631500Y420500D02*
X648000Y437000D01*
X495402Y291949D02*
X495500D01*
X490465Y287012D02*
X495402Y291949D01*
X618600Y427500D02*
Y440200D01*
X473000Y315905D02*
X478842Y310063D01*
X467500Y310000D02*
X469500D01*
X466000D02*
X467500D01*
X478842Y310063D02*
X483000D01*
X450500Y289000D02*
X457000Y282500D01*
X450500Y289000D02*
Y295500D01*
X451500Y296500D01*
X454949D01*
X455500Y297051D01*
Y304988D01*
X454000Y306488D02*
X455500Y304988D01*
X495500Y298051D02*
Y305500D01*
X496500Y306500D01*
Y306988D01*
X497090D01*
X448500Y316500D02*
X449874Y317874D01*
X448500Y288000D02*
Y316500D01*
Y288000D02*
X456000Y280500D01*
X483000Y310063D02*
X483500Y309563D01*
Y294886D02*
Y309563D01*
X466000Y294937D02*
X467272Y296209D01*
Y309772D01*
X467500Y310000D01*
X648000Y437000D02*
Y446500D01*
X653500Y452000D01*
X654000D01*
X636000Y437000D02*
Y443500D01*
X638000Y445500D01*
X641500D01*
X642200Y446200D01*
Y452000D01*
X633100Y460100D02*
X655900D01*
X630400Y457400D02*
X633100Y460100D01*
X630400Y452000D02*
Y457400D01*
X655900Y460100D02*
X670500Y445500D01*
X621900Y477900D02*
X649187D01*
X613600Y469600D02*
X621900Y477900D01*
X613600Y445200D02*
Y469600D01*
X654400Y466229D02*
X687629Y433000D01*
X654400Y466229D02*
Y472686D01*
X649187Y477900D02*
X654400Y472686D01*
X614000Y371000D02*
X615000Y372000D01*
X636000Y395000D02*
X657980D01*
X670480Y407500D01*
X670500D01*
Y445500D01*
X687629Y433000D02*
X698500D01*
X589205Y462500D02*
X599000D01*
X613600Y445200D02*
X618600Y440200D01*
X698500Y433000D02*
X719000Y412500D01*
X795000Y462500D02*
Y468063D01*
X782500Y404591D02*
X792500D01*
X772500D02*
X782500D01*
X762500D02*
X772500D01*
X671500Y468000D02*
Y477000D01*
X661500Y487000D02*
X671500Y477000D01*
X667500Y460200D02*
Y477414D01*
X660914Y484000D02*
X667500Y477414D01*
X593000Y484000D02*
X660914D01*
X589205Y480205D02*
X593000Y484000D01*
X589205Y462500D02*
Y480205D01*
X667500Y460200D02*
X687500Y440200D01*
X671500Y468000D02*
X687500Y452000D01*
X167000Y479000D02*
X192083D01*
X163449Y482551D02*
X167000Y479000D01*
X163449Y482551D02*
Y487000D01*
X159555Y482000D02*
X170500Y471055D01*
X145500Y482000D02*
X159555D01*
X143500Y484000D02*
X145500Y482000D01*
X143472Y487000D02*
X143500D01*
X152035D02*
X152528D01*
X192083Y479000D02*
X200028Y471055D01*
X170500D02*
X179555Y462000D01*
X203000D01*
X208000Y467000D01*
X189063Y487000D02*
X189449Y486614D01*
X712972Y367500D02*
Y406472D01*
X719000Y412500D01*
X687500Y440200D02*
X721000D01*
X155500Y399315D02*
Y417914D01*
X148500Y392315D02*
X155500Y399315D01*
X123000Y346669D02*
Y363500D01*
X124500Y365000D01*
X140870D01*
X148500Y372630D01*
X159500Y361586D02*
Y401000D01*
X158914Y361000D02*
X159500Y361586D01*
Y401000D02*
X170500Y412000D01*
X147500Y361000D02*
X158914D01*
X123000Y305331D02*
X124279D01*
X204339Y342000D02*
Y343280D01*
X785000Y475937D02*
Y488000D01*
X783000Y490000D02*
X785000Y488000D01*
X738500Y490000D02*
X783000D01*
X734000Y485500D02*
X738500Y490000D01*
X734000Y444000D02*
Y485500D01*
X730200Y440200D02*
X734000Y444000D01*
X721000Y440200D02*
X730200D01*
X118972Y471055D02*
Y478500D01*
X114972Y482500D02*
X118972Y478500D01*
X114972Y482500D02*
Y487000D01*
X132500D02*
X148445Y471055D01*
X148500D01*
X124028Y487000D02*
X132500D01*
X620000Y367500D02*
X628563D01*
X644472D02*
X659945Y382972D01*
X636437Y367500D02*
X644472D01*
X719000Y377500D02*
Y382972D01*
Y377500D02*
X722028Y374472D01*
Y367500D02*
Y374472D01*
X687500Y452000D02*
X721000D01*
X107000Y131500D02*
Y493000D01*
Y131500D02*
X811500D01*
Y493000D01*
X107000D02*
X811500D01*
D15*
X479000Y382100D02*
D03*
X488000Y332000D02*
D03*
X111000Y199000D02*
D03*
X599000Y462500D02*
D03*
X618600Y427500D02*
D03*
X205750Y484750D02*
D03*
X445800Y488800D02*
D03*
X177000Y489800D02*
D03*
X474500Y290500D02*
D03*
Y284500D02*
D03*
Y296000D02*
D03*
D16*
X296721Y400000D02*
D03*
D17*
X274279D02*
D03*
D18*
X582000Y401279D02*
D03*
X547500D02*
D03*
D19*
X582000Y423721D02*
D03*
X547500D02*
D03*
D20*
X795000Y475937D02*
D03*
Y468063D02*
D03*
X804500Y475937D02*
D03*
Y468063D02*
D03*
X466000Y317874D02*
D03*
Y310000D02*
D03*
X483000Y317937D02*
D03*
Y310063D02*
D03*
X466000Y294937D02*
D03*
Y287063D02*
D03*
X483500Y294886D02*
D03*
Y287012D02*
D03*
X274500Y444937D02*
D03*
Y437063D02*
D03*
X365000Y378874D02*
D03*
Y371000D02*
D03*
X785000Y475937D02*
D03*
Y468063D02*
D03*
X354500Y378937D02*
D03*
Y371063D02*
D03*
X263500Y444937D02*
D03*
Y437063D02*
D03*
D21*
X636437Y367500D02*
D03*
X628563D02*
D03*
X189063Y485500D02*
D03*
X196937D02*
D03*
D22*
X454000Y317512D02*
D03*
Y306488D02*
D03*
X496500Y318012D02*
D03*
Y306988D02*
D03*
D23*
X455500Y297051D02*
D03*
Y290949D02*
D03*
X495500Y298051D02*
D03*
Y291949D02*
D03*
X342500Y372449D02*
D03*
Y378551D02*
D03*
X776000Y468949D02*
D03*
Y475051D02*
D03*
D24*
X613898Y367500D02*
D03*
X620000D02*
D03*
X169551Y485500D02*
D03*
X163449D02*
D03*
D25*
X124028Y487000D02*
D03*
X114972D02*
D03*
X712972Y367500D02*
D03*
X722028D02*
D03*
X143472Y487000D02*
D03*
X152528D02*
D03*
D26*
X123000Y305331D02*
D03*
Y346669D02*
D03*
D27*
X201669Y344000D02*
D03*
X160331D02*
D03*
D28*
X294500Y433779D02*
D03*
Y445000D02*
D03*
D29*
X539795Y462500D02*
D03*
X589205D02*
D03*
D53*
X488200Y358200D02*
D03*
Y370000D02*
D03*
X500000D02*
D03*
Y358200D02*
D03*
X469800Y370000D02*
D03*
Y358200D02*
D03*
X458000D02*
D03*
Y370000D02*
D03*
X630400Y440200D02*
D03*
X618600D02*
D03*
Y452000D02*
D03*
X630400D02*
D03*
X654000D02*
D03*
X642200D02*
D03*
Y440200D02*
D03*
X654000D02*
D03*
X687500D02*
D03*
Y452000D02*
D03*
X721000D02*
D03*
Y440200D02*
D03*
D54*
X517000Y364100D02*
D03*
X441000D02*
D03*
X627000Y469000D02*
D03*
X645500D02*
D03*
X687500D02*
D03*
X721000D02*
D03*
D55*
X185500Y152000D02*
D03*
X169500D02*
D03*
X504000Y152500D02*
D03*
Y168500D02*
D03*
X336000Y400600D02*
D03*
Y463592D02*
D03*
X518598Y442923D02*
D03*
Y464576D02*
D03*
Y421269D02*
D03*
Y399616D02*
D03*
D56*
X424500Y152000D02*
D03*
X464657D02*
D03*
X123000Y226842D02*
D03*
Y267000D02*
D03*
D57*
X336000Y426663D02*
D03*
Y437529D02*
D03*
Y415836D02*
D03*
X620575Y412500D02*
D03*
X640260D02*
D03*
X719000D02*
D03*
X659945D02*
D03*
X620575Y382972D02*
D03*
X640260D02*
D03*
X659945D02*
D03*
X719000D02*
D03*
X118972Y372630D02*
D03*
Y392315D02*
D03*
Y471055D02*
D03*
Y412000D02*
D03*
X148500Y372630D02*
D03*
Y392315D02*
D03*
Y412000D02*
D03*
Y471055D02*
D03*
X170500Y372630D02*
D03*
Y392315D02*
D03*
Y471055D02*
D03*
Y412000D02*
D03*
X200028Y372630D02*
D03*
Y392315D02*
D03*
Y412000D02*
D03*
Y471055D02*
D03*
D58*
X122500Y146000D02*
D03*
X757000Y151000D02*
D03*
X227000Y469000D02*
D03*
X757000Y476000D02*
D03*
D59*
X792500Y404591D02*
D03*
Y454000D02*
D03*
X782500Y404591D02*
D03*
X772500D02*
D03*
X762500D02*
D03*
X782500Y454000D02*
D03*
X772500D02*
D03*
X762500D02*
D03*
X792500Y331090D02*
D03*
Y380500D02*
D03*
X782500Y331090D02*
D03*
X772500D02*
D03*
X762500D02*
D03*
X782500Y380500D02*
D03*
X772500D02*
D03*
X762500D02*
D03*
D60*
X442500Y246000D02*
D03*
X173602D02*
D03*
X775898D02*
D03*
X507000D02*
D03*
M02*
